<svg xmlns="http://www.w3.org/2000/svg" xmlns:xlink="http://www.w3.org/1999/xlink" width="113" height="113" viewBox="0 0 113 113">
  <defs>
    <linearGradient id="linear-gradient" x1="0.5" x2="0.5" y2="1" gradientUnits="objectBoundingBox">
      <stop offset="0" stop-color="#f3f5f7"/>
      <stop offset="1" stop-color="#e2e7eb"/>
    </linearGradient>
    <linearGradient id="linear-gradient-2" x1="0.5" x2="0.5" y2="1" gradientUnits="objectBoundingBox">
      <stop offset="0" stop-color="#ffe14a"/>
      <stop offset="1" stop-color="#fdbf24"/>
    </linearGradient>
    <linearGradient id="linear-gradient-3" x1="0.5" x2="0.5" y2="1" gradientUnits="objectBoundingBox">
      <stop offset="0" stop-color="#ffe78b"/>
      <stop offset="1" stop-color="#ffca53"/>
    </linearGradient>
    <linearGradient id="linear-gradient-4" x1="0.5" x2="0.5" y2="1" gradientUnits="objectBoundingBox">
      <stop offset="0" stop-color="#f3d4b2"/>
      <stop offset="1" stop-color="#e3a97a"/>
    </linearGradient>
    <linearGradient id="linear-gradient-5" x1="0.5" x2="0.5" y2="1" gradientUnits="objectBoundingBox">
      <stop offset="0" stop-color="#e5e9ed"/>
      <stop offset="1" stop-color="#c6ced7"/>
    </linearGradient>
    <linearGradient id="linear-gradient-6" x1="0.5" x2="0.5" y2="1" gradientUnits="objectBoundingBox">
      <stop offset="0" stop-color="#f74f6c"/>
      <stop offset="1" stop-color="#eb273a"/>
    </linearGradient>
    <linearGradient id="linear-gradient-9" x1="0.5" x2="0.5" y2="1" gradientUnits="objectBoundingBox">
      <stop offset="0" stop-color="#d1d6df"/>
      <stop offset="1" stop-color="#a4adbb"/>
    </linearGradient>
  </defs>
  <g id="Grupo_1211656" data-name="Grupo 1211656" transform="translate(-180.051 -10350.729)">
    <g id="Grupo_1210769" data-name="Grupo 1210769" transform="translate(0 58.729)">
      <g id="Grupo_1210516" data-name="Grupo 1210516" transform="translate(180.051 10292)">
        <g id="Grupo_1098742" data-name="Grupo 1098742" transform="translate(0 0)">
          <g id="Trazado_875734" data-name="Trazado 875734" fill="#669e8f">
            <path d="M 56.49991226196289 111.4999923706055 C 49.07431411743164 111.4999923706055 41.87162017822266 110.0460052490234 35.09192657470703 107.1784362792969 C 31.83328056335449 105.8001480102539 28.69018936157227 104.0941162109375 25.7499885559082 102.1077499389648 C 22.83732795715332 100.1399917602539 20.09832763671875 97.88009643554688 17.60909652709961 95.390869140625 C 15.11986637115479 92.90164184570312 12.85998916625977 90.16263580322266 10.89223575592041 87.24997711181641 C 8.905865669250488 84.30976104736328 7.199850559234619 81.16667175292969 5.821558475494385 77.90802001953125 C 2.953989267349243 71.12830352783203 1.500004529953003 63.92560958862305 1.500004529953003 56.49999237060547 C 1.500004529953003 49.07437515258789 2.953989267349243 41.87168502807617 5.821558475494385 35.09197616577148 C 7.199850559234619 31.83333015441895 8.905865669250488 28.69023895263672 10.89223575592041 25.75002288818359 C 12.85998916625977 22.83736228942871 15.11986637115479 20.09836196899414 17.60909652709961 17.609130859375 C 20.09832763671875 15.11989974975586 22.83732795715332 12.86000728607178 25.7499885559082 10.89225387573242 C 28.69018936157227 8.905884742736816 31.83328056335449 7.199853897094727 35.09192657470703 5.821561813354492 C 41.87162017822266 2.953992366790771 49.07431411743164 1.500007748603821 56.49991226196289 1.500007748603821 C 63.92551040649414 1.500007748603821 71.12820434570312 2.953992366790771 77.90789794921875 5.821561813354492 C 81.16654205322266 7.199853897094727 84.30963897705078 8.905884742736816 87.24983215332031 10.89225387573242 C 90.16249847412109 12.86000728607178 92.90149688720703 15.11989974975586 95.39072418212891 17.609130859375 C 97.87995910644531 20.09836196899414 100.1398315429688 22.83736228942871 102.1075897216797 25.75002288818359 C 104.0939559936523 28.69023895263672 105.7999725341797 31.83333015441895 107.1782684326172 35.09197616577148 C 110.0458374023438 41.87168502807617 111.4998168945312 49.07437515258789 111.4998168945312 56.49999237060547 C 111.4998168945312 63.92560958862305 110.0458374023438 71.12830352783203 107.1782684326172 77.90802001953125 C 105.7999725341797 81.16667175292969 104.0939559936523 84.30976104736328 102.1075897216797 87.24997711181641 C 100.1398315429688 90.16263580322266 97.87995910644531 92.90164184570312 95.39072418212891 95.390869140625 C 92.90149688720703 97.88009643554688 90.16249847412109 100.1399917602539 87.24983215332031 102.1077499389648 C 84.30963897705078 104.0941162109375 81.16654205322266 105.8001480102539 77.90789794921875 107.1784362792969 C 71.12820434570312 110.0460052490234 63.92551040649414 111.4999923706055 56.49991226196289 111.4999923706055 Z" stroke="none"/>
            <path d="M 56.49991226196289 2.999992370605469 C 49.27614593505859 2.999992370605469 42.27006530761719 4.414108276367188 35.67626190185547 7.203056335449219 C 32.50681304931641 8.543624877929688 29.44964599609375 10.20302581787109 26.58969879150391 12.13517761230469 C 23.75614929199219 14.04949188232422 21.09149932861328 16.24803924560547 18.66976165771484 18.66977691650391 C 16.24803161621094 21.09150695800781 14.04947662353516 23.75615692138672 12.13516235351562 26.58972930908203 C 10.20301055908203 29.44969177246094 8.543609619140625 32.50684356689453 7.20306396484375 35.67629241943359 C 4.414115905761719 42.27011108398438 2.999992370605469 49.27622604370117 2.999992370605469 56.49999237060547 C 2.999992370605469 63.72375869750977 4.414115905761719 70.72987365722656 7.20306396484375 77.32367706298828 C 8.543609619140625 80.49312591552734 10.20301055908203 83.55029296875 12.13516235351562 86.41026306152344 C 14.04947662353516 89.24380493164062 16.24803161621094 91.90846252441406 18.66976165771484 94.33019256591797 C 21.09149932861328 96.75192260742188 23.75614929199219 98.95047760009766 26.58969879150391 100.8647918701172 C 29.44964599609375 102.7969436645508 32.50681304931641 104.4563598632812 35.67626190185547 105.7969055175781 C 42.27006530761719 108.5858612060547 49.27614593505859 109.9999771118164 56.49991226196289 109.9999771118164 C 63.72367858886719 109.9999771118164 70.72978210449219 108.5858612060547 77.32357788085938 105.7969055175781 C 80.49301147460938 104.4563598632812 83.55017852783203 102.7969436645508 86.41012573242188 100.8647918701172 C 89.24369812011719 98.95047760009766 91.90834808349609 96.75192260742188 94.33006286621094 94.33019256591797 C 96.75179290771484 91.90846252441406 98.95034790039062 89.24380493164062 100.8646621704102 86.41026306152344 C 102.7968139648438 83.55029296875 104.4562149047852 80.49312591552734 105.7967758178711 77.32367706298828 C 108.5857086181641 70.72987365722656 109.9998321533203 63.72377395629883 109.9998321533203 56.49999237060547 C 109.9998321533203 49.27621078491211 108.5857086181641 42.27011108398438 105.7967758178711 35.67629241943359 C 104.4562149047852 32.50684356689453 102.7968139648438 29.44969177246094 100.8646621704102 26.58972930908203 C 98.95034790039062 23.75615692138672 96.75179290771484 21.09150695800781 94.33006286621094 18.66977691650391 C 91.90834808349609 16.24803924560547 89.24369812011719 14.04949188232422 86.41012573242188 12.13517761230469 C 83.55017852783203 10.20302581787109 80.49301147460938 8.543624877929688 77.32357788085938 7.203056335449219 C 70.72976684570312 4.414108276367188 63.72367858886719 2.999992370605469 56.49991226196289 2.999992370605469 M 56.49991226196289 -7.62939453125e-06 C 87.70396423339844 -7.62939453125e-06 112.9998321533203 25.29590606689453 112.9998321533203 56.49999237060547 C 112.9998321533203 87.70407104492188 87.70396423339844 112.9999771118164 56.49991226196289 112.9999771118164 C 25.29587554931641 112.9999771118164 -7.62939453125e-06 87.70407104492188 -7.62939453125e-06 56.49999237060547 C -7.62939453125e-06 25.29590606689453 25.29587554931641 -7.62939453125e-06 56.49991226196289 -7.62939453125e-06 Z" stroke="none" fill="#fff"/>
          </g>
          <g id="Trazado_875735" data-name="Trazado 875735" transform="translate(0)" fill="none">
            <path d="M56.5,0A56.5,56.5,0,1,1,0,56.5,56.5,56.5,0,0,1,56.5,0Z" stroke="none"/>
            <path d="M 56.49991226196289 2.999992370605469 C 49.27614593505859 2.999992370605469 42.27006530761719 4.414108276367188 35.67626190185547 7.203056335449219 C 32.50681304931641 8.543624877929688 29.44964599609375 10.20302581787109 26.58969879150391 12.13517761230469 C 23.75614929199219 14.04949188232422 21.09149932861328 16.24803924560547 18.66976165771484 18.66977691650391 C 16.24803161621094 21.09150695800781 14.04947662353516 23.75615692138672 12.13516235351562 26.58972930908203 C 10.20301055908203 29.44969177246094 8.543609619140625 32.50684356689453 7.20306396484375 35.67629241943359 C 4.414115905761719 42.27011108398438 2.999992370605469 49.27622604370117 2.999992370605469 56.49999237060547 C 2.999992370605469 63.72375869750977 4.414115905761719 70.72987365722656 7.20306396484375 77.32367706298828 C 8.543609619140625 80.49312591552734 10.20301055908203 83.55029296875 12.13516235351562 86.41026306152344 C 14.04947662353516 89.24380493164062 16.24803161621094 91.90846252441406 18.66976165771484 94.33019256591797 C 21.09149932861328 96.75192260742188 23.75614929199219 98.95047760009766 26.58969879150391 100.8647918701172 C 29.44964599609375 102.7969436645508 32.50681304931641 104.4563598632812 35.67626190185547 105.7969055175781 C 42.27006530761719 108.5858612060547 49.27614593505859 109.9999771118164 56.49991226196289 109.9999771118164 C 63.72367858886719 109.9999771118164 70.72978210449219 108.5858612060547 77.32357788085938 105.7969055175781 C 80.49301147460938 104.4563598632812 83.55017852783203 102.7969436645508 86.41012573242188 100.8647918701172 C 89.24369812011719 98.95047760009766 91.90834808349609 96.75192260742188 94.33006286621094 94.33019256591797 C 96.75179290771484 91.90846252441406 98.95034790039062 89.24380493164062 100.8646621704102 86.41026306152344 C 102.7968139648438 83.55029296875 104.4562149047852 80.49312591552734 105.7967758178711 77.32367706298828 C 108.5857086181641 70.72987365722656 109.9998321533203 63.72377395629883 109.9998321533203 56.49999237060547 C 109.9998321533203 49.27621078491211 108.5857086181641 42.27011108398438 105.7967758178711 35.67629241943359 C 104.4562149047852 32.50684356689453 102.7968139648438 29.44969177246094 100.8646621704102 26.58972930908203 C 98.95034790039062 23.75615692138672 96.75179290771484 21.09150695800781 94.33006286621094 18.66977691650391 C 91.90834808349609 16.24803924560547 89.24369812011719 14.04949188232422 86.41012573242188 12.13517761230469 C 83.55017852783203 10.20302581787109 80.49301147460938 8.543624877929688 77.32357788085938 7.203056335449219 C 70.72976684570312 4.414108276367188 63.72367858886719 2.999992370605469 56.49991226196289 2.999992370605469 M 56.49991226196289 -7.62939453125e-06 C 87.70396423339844 -7.62939453125e-06 112.9998321533203 25.29590606689453 112.9998321533203 56.49999237060547 C 112.9998321533203 87.70407104492188 87.70396423339844 112.9999771118164 56.49991226196289 112.9999771118164 C 25.29587554931641 112.9999771118164 -7.62939453125e-06 87.70407104492188 -7.62939453125e-06 56.49999237060547 C -7.62939453125e-06 25.29590606689453 25.29587554931641 -7.62939453125e-06 56.49991226196289 -7.62939453125e-06 Z" stroke="none" fill="#dbe8e4"/>
          </g>
        </g>
      </g>
      <g id="Page-1" transform="translate(208.051 10320)">
        <g id="_021---Financial-Report" data-name="021---Financial-Report" transform="translate(0 0)">
          <g id="Outlines">
            <path id="Shape" d="M28.49,32.323,24.957,42.912l10.588-3.533,6.377-6.307V47.9H15.975v5.988a3.992,3.992,0,1,1-7.984,0V3.992A3.987,3.987,0,0,0,4,0H37.93a3.987,3.987,0,0,1,3.992,3.992V19.051Z" transform="translate(-0.008 0)" fill="url(#linear-gradient)"/>
            <path id="Shape-2" data-name="Shape" d="M51.011,24.193,41.98,33.114,35.6,39.421,32.08,35.9l15.4-15.239Z" transform="translate(-0.066 -0.042)" fill="url(#linear-gradient-2)"/>
            <path id="Shape-3" data-name="Shape" d="M47.471,20.653l-15.4,15.239h-.01L28.54,32.359,41.972,19.086l1.976-1.956Z" transform="translate(-0.059 -0.035)" fill="url(#linear-gradient-3)"/>
            <path id="Shape-4" data-name="Shape" d="M35.588,39.445,26.926,42.34,25,42.978l.669-2,2.864-8.592,3.523,3.533h.01Z" transform="translate(-0.051 -0.067)" fill="url(#linear-gradient-4)"/>
            <path id="Shape-5" data-name="Shape" d="M54.568,20.645l-3.533,3.533L47.5,20.645,43.98,17.123,47.5,13.59Z" transform="translate(-0.09 -0.028)" fill="url(#linear-gradient-5)"/>
            <path id="Shape-6" data-name="Shape" d="M57.39,17.814l-2.814,2.824L47.51,13.583l2.824-2.824a2,2,0,0,1,2.824,0L57.39,14.99a1.982,1.982,0,0,1,0,2.824Z" transform="translate(-0.098 -0.021)" fill="url(#linear-gradient-6)"/>
            <g id="Grupo_1210767" data-name="Grupo 1210767" transform="translate(0 0)">
              <path id="Shape-7" data-name="Shape" d="M7.984,3.992v7.984H0V3.992a3.992,3.992,0,0,1,7.984,0Z" fill="url(#linear-gradient-5)"/>
              <path id="Shape-8" data-name="Shape" d="M49.922,48v5.988a3.992,3.992,0,0,1-3.992,3.992H12a3.992,3.992,0,0,0,3.992-3.992V48Z" transform="translate(-0.025 -0.099)" fill="url(#linear-gradient-5)"/>
            </g>
          </g>
          <g id="Lines" transform="translate(11.975 4.99)">
            <path id="Shape-9" data-name="Shape" d="M2,38H1a1,1,0,0,1,0-2H2a1,1,0,0,1,0,2Z" transform="translate(0 -0.074)" fill="url(#linear-gradient-9)"/>
            <path id="Shape-10" data-name="Shape" d="M13.652,36l-.669,2H6a1,1,0,0,1,0-2Z" transform="translate(-0.01 -0.074)" fill="url(#linear-gradient-9)"/>
            <path id="Shape-11" data-name="Shape" d="M13.988,7.054V4.092c1.186.231,2,.836,2,1.4a1,1,0,1,0,2,0c0-1.718-1.688-3.109-3.992-3.424V1a1,1,0,1,0-2,0V2.065C9.688,2.38,8,3.77,8,5.489S9.688,8.6,11.992,8.913v2.963c-1.186-.231-2-.836-2-1.4a1,1,0,1,0-2,0C8,12.2,9.688,13.587,11.992,13.9v1.067a1,1,0,1,0,2,0V13.9c2.3-.315,3.992-1.705,3.992-3.424S16.292,7.37,13.988,7.054ZM10,5.489c0-.56.81-1.166,2-1.4V6.886c-1.186-.232-2-.837-2-1.4Zm3.992,6.387V9.081c1.186.231,2,.836,2,1.4s-.81,1.166-2,1.4Z" transform="translate(-0.016 0)" fill="url(#linear-gradient-2)"/>
            <g id="Grupo_1210768" data-name="Grupo 1210768" transform="translate(0 20.957)">
              <path id="Shape-12" data-name="Shape" d="M11.975,23H1a1,1,0,0,1,0-2H11.975a1,1,0,0,1,0,2Z" transform="translate(0 -21)" fill="url(#linear-gradient-9)"/>
              <path id="Shape-13" data-name="Shape" d="M17,23H16a1,1,0,0,1,0-2h1a1,1,0,1,1,0,2Z" transform="translate(-0.031 -21)" fill="url(#linear-gradient-9)"/>
              <path id="Shape-14" data-name="Shape" d="M11.975,28H1a1,1,0,1,1,0-2H11.975a1,1,0,1,1,0,2Z" transform="translate(0 -21.01)" fill="url(#linear-gradient-9)"/>
              <path id="Shape-15" data-name="Shape" d="M10.977,33H1a1,1,0,1,1,0-2h9.979a1,1,0,1,1,0,2Z" transform="translate(0 -21.021)" fill="url(#linear-gradient-9)"/>
            </g>
          </g>
        </g>
      </g>
    </g>
  </g>
</svg>
