<svg xmlns="http://www.w3.org/2000/svg" xmlns:xlink="http://www.w3.org/1999/xlink" width="113" height="113" viewBox="0 0 113 113">
  <defs>
    <linearGradient id="linear-gradient" x1="0.013" y1="-0.008" x2="0.493" y2="0.599" gradientUnits="objectBoundingBox">
      <stop offset="0" stop-color="#ffe399"/>
      <stop offset="1" stop-color="#feca39"/>
    </linearGradient>
    <linearGradient id="linear-gradient-2" x1="-0.018" y1="-0.036" x2="0.505" y2="0.578" gradientUnits="objectBoundingBox">
      <stop offset="0" stop-color="#fe8a8d"/>
      <stop offset="1" stop-color="#ff595d"/>
    </linearGradient>
  </defs>
  <g id="Grupo_1211658" data-name="Grupo 1211658" transform="translate(-180.051 -10610.729)">
    <g id="Grupo_1211133" data-name="Grupo 1211133" transform="translate(0 58.729)">
      <g id="Grupo_1210514" data-name="Grupo 1210514" transform="translate(180.051 10552)">
        <g id="Grupo_1098742" data-name="Grupo 1098742" transform="translate(0 0)">
          <g id="Trazado_875734" data-name="Trazado 875734" fill="#669e8f">
            <path d="M 56.49991226196289 111.4999923706055 C 49.07431411743164 111.4999923706055 41.87162017822266 110.0460052490234 35.09192657470703 107.1784362792969 C 31.83328056335449 105.8001480102539 28.69018936157227 104.0941162109375 25.7499885559082 102.1077499389648 C 22.83732795715332 100.1399917602539 20.09832763671875 97.88009643554688 17.60909652709961 95.390869140625 C 15.11986637115479 92.90164184570312 12.85998916625977 90.16263580322266 10.89223575592041 87.24997711181641 C 8.905865669250488 84.30976104736328 7.199850559234619 81.16667175292969 5.821558475494385 77.90802001953125 C 2.953989267349243 71.12830352783203 1.500004529953003 63.92560958862305 1.500004529953003 56.49999237060547 C 1.500004529953003 49.07437515258789 2.953989267349243 41.87168502807617 5.821558475494385 35.09197616577148 C 7.199850559234619 31.83333015441895 8.905865669250488 28.69023895263672 10.89223575592041 25.75002288818359 C 12.85998916625977 22.83736228942871 15.11986637115479 20.09836196899414 17.60909652709961 17.609130859375 C 20.09832763671875 15.11989974975586 22.83732795715332 12.86000728607178 25.7499885559082 10.89225387573242 C 28.69018936157227 8.905884742736816 31.83328056335449 7.199853897094727 35.09192657470703 5.821561813354492 C 41.87162017822266 2.953992366790771 49.07431411743164 1.500007748603821 56.49991226196289 1.500007748603821 C 63.92551040649414 1.500007748603821 71.12820434570312 2.953992366790771 77.90789794921875 5.821561813354492 C 81.16654205322266 7.199853897094727 84.30963897705078 8.905884742736816 87.24983215332031 10.89225387573242 C 90.16249847412109 12.86000728607178 92.90149688720703 15.11989974975586 95.39072418212891 17.609130859375 C 97.87995910644531 20.09836196899414 100.1398315429688 22.83736228942871 102.1075897216797 25.75002288818359 C 104.0939559936523 28.69023895263672 105.7999725341797 31.83333015441895 107.1782684326172 35.09197616577148 C 110.0458374023438 41.87168502807617 111.4998168945312 49.07437515258789 111.4998168945312 56.49999237060547 C 111.4998168945312 63.92560958862305 110.0458374023438 71.12830352783203 107.1782684326172 77.90802001953125 C 105.7999725341797 81.16667175292969 104.0939559936523 84.30976104736328 102.1075897216797 87.24997711181641 C 100.1398315429688 90.16263580322266 97.87995910644531 92.90164184570312 95.39072418212891 95.390869140625 C 92.90149688720703 97.88009643554688 90.16249847412109 100.1399917602539 87.24983215332031 102.1077499389648 C 84.30963897705078 104.0941162109375 81.16654205322266 105.8001480102539 77.90789794921875 107.1784362792969 C 71.12820434570312 110.0460052490234 63.92551040649414 111.4999923706055 56.49991226196289 111.4999923706055 Z" stroke="none"/>
            <path d="M 56.49991226196289 2.999992370605469 C 49.27614593505859 2.999992370605469 42.27006530761719 4.414108276367188 35.67626190185547 7.203056335449219 C 32.50681304931641 8.543624877929688 29.44964599609375 10.20302581787109 26.58969879150391 12.13517761230469 C 23.75614929199219 14.04949188232422 21.09149932861328 16.24803924560547 18.66976165771484 18.66977691650391 C 16.24803161621094 21.09150695800781 14.04947662353516 23.75615692138672 12.13516235351562 26.58972930908203 C 10.20301055908203 29.44969177246094 8.543609619140625 32.50684356689453 7.20306396484375 35.67629241943359 C 4.414115905761719 42.27011108398438 2.999992370605469 49.27622604370117 2.999992370605469 56.49999237060547 C 2.999992370605469 63.72375869750977 4.414115905761719 70.72987365722656 7.20306396484375 77.32367706298828 C 8.543609619140625 80.49312591552734 10.20301055908203 83.55029296875 12.13516235351562 86.41026306152344 C 14.04947662353516 89.24380493164062 16.24803161621094 91.90846252441406 18.66976165771484 94.33019256591797 C 21.09149932861328 96.75192260742188 23.75614929199219 98.95047760009766 26.58969879150391 100.8647918701172 C 29.44964599609375 102.7969436645508 32.50681304931641 104.4563598632812 35.67626190185547 105.7969055175781 C 42.27006530761719 108.5858612060547 49.27614593505859 109.9999771118164 56.49991226196289 109.9999771118164 C 63.72367858886719 109.9999771118164 70.72978210449219 108.5858612060547 77.32357788085938 105.7969055175781 C 80.49301147460938 104.4563598632812 83.55017852783203 102.7969436645508 86.41012573242188 100.8647918701172 C 89.24369812011719 98.95047760009766 91.90834808349609 96.75192260742188 94.33006286621094 94.33019256591797 C 96.75179290771484 91.90846252441406 98.95034790039062 89.24380493164062 100.8646621704102 86.41026306152344 C 102.7968139648438 83.55029296875 104.4562149047852 80.49312591552734 105.7967758178711 77.32367706298828 C 108.5857086181641 70.72987365722656 109.9998321533203 63.72377395629883 109.9998321533203 56.49999237060547 C 109.9998321533203 49.27621078491211 108.5857086181641 42.27011108398438 105.7967758178711 35.67629241943359 C 104.4562149047852 32.50684356689453 102.7968139648438 29.44969177246094 100.8646621704102 26.58972930908203 C 98.95034790039062 23.75615692138672 96.75179290771484 21.09150695800781 94.33006286621094 18.66977691650391 C 91.90834808349609 16.24803924560547 89.24369812011719 14.04949188232422 86.41012573242188 12.13517761230469 C 83.55017852783203 10.20302581787109 80.49301147460938 8.543624877929688 77.32357788085938 7.203056335449219 C 70.72976684570312 4.414108276367188 63.72367858886719 2.999992370605469 56.49991226196289 2.999992370605469 M 56.49991226196289 -7.62939453125e-06 C 87.70396423339844 -7.62939453125e-06 112.9998321533203 25.29590606689453 112.9998321533203 56.49999237060547 C 112.9998321533203 87.70407104492188 87.70396423339844 112.9999771118164 56.49991226196289 112.9999771118164 C 25.29587554931641 112.9999771118164 -7.62939453125e-06 87.70407104492188 -7.62939453125e-06 56.49999237060547 C -7.62939453125e-06 25.29590606689453 25.29587554931641 -7.62939453125e-06 56.49991226196289 -7.62939453125e-06 Z" stroke="none" fill="#fff"/>
          </g>
          <g id="Trazado_875735" data-name="Trazado 875735" transform="translate(0)" fill="none">
            <path d="M56.5,0A56.5,56.5,0,1,1,0,56.5,56.5,56.5,0,0,1,56.5,0Z" stroke="none"/>
            <path d="M 56.49991226196289 2.999992370605469 C 49.27614593505859 2.999992370605469 42.27006530761719 4.414108276367188 35.67626190185547 7.203056335449219 C 32.50681304931641 8.543624877929688 29.44964599609375 10.20302581787109 26.58969879150391 12.13517761230469 C 23.75614929199219 14.04949188232422 21.09149932861328 16.24803924560547 18.66976165771484 18.66977691650391 C 16.24803161621094 21.09150695800781 14.04947662353516 23.75615692138672 12.13516235351562 26.58972930908203 C 10.20301055908203 29.44969177246094 8.543609619140625 32.50684356689453 7.20306396484375 35.67629241943359 C 4.414115905761719 42.27011108398438 2.999992370605469 49.27622604370117 2.999992370605469 56.49999237060547 C 2.999992370605469 63.72375869750977 4.414115905761719 70.72987365722656 7.20306396484375 77.32367706298828 C 8.543609619140625 80.49312591552734 10.20301055908203 83.55029296875 12.13516235351562 86.41026306152344 C 14.04947662353516 89.24380493164062 16.24803161621094 91.90846252441406 18.66976165771484 94.33019256591797 C 21.09149932861328 96.75192260742188 23.75614929199219 98.95047760009766 26.58969879150391 100.8647918701172 C 29.44964599609375 102.7969436645508 32.50681304931641 104.4563598632812 35.67626190185547 105.7969055175781 C 42.27006530761719 108.5858612060547 49.27614593505859 109.9999771118164 56.49991226196289 109.9999771118164 C 63.72367858886719 109.9999771118164 70.72978210449219 108.5858612060547 77.32357788085938 105.7969055175781 C 80.49301147460938 104.4563598632812 83.55017852783203 102.7969436645508 86.41012573242188 100.8647918701172 C 89.24369812011719 98.95047760009766 91.90834808349609 96.75192260742188 94.33006286621094 94.33019256591797 C 96.75179290771484 91.90846252441406 98.95034790039062 89.24380493164062 100.8646621704102 86.41026306152344 C 102.7968139648438 83.55029296875 104.4562149047852 80.49312591552734 105.7967758178711 77.32367706298828 C 108.5857086181641 70.72987365722656 109.9998321533203 63.72377395629883 109.9998321533203 56.49999237060547 C 109.9998321533203 49.27621078491211 108.5857086181641 42.27011108398438 105.7967758178711 35.67629241943359 C 104.4562149047852 32.50684356689453 102.7968139648438 29.44969177246094 100.8646621704102 26.58972930908203 C 98.95034790039062 23.75615692138672 96.75179290771484 21.09150695800781 94.33006286621094 18.66977691650391 C 91.90834808349609 16.24803924560547 89.24369812011719 14.04949188232422 86.41012573242188 12.13517761230469 C 83.55017852783203 10.20302581787109 80.49301147460938 8.543624877929688 77.32357788085938 7.203056335449219 C 70.72976684570312 4.414108276367188 63.72367858886719 2.999992370605469 56.49991226196289 2.999992370605469 M 56.49991226196289 -7.62939453125e-06 C 87.70396423339844 -7.62939453125e-06 112.9998321533203 25.29590606689453 112.9998321533203 56.49999237060547 C 112.9998321533203 87.70407104492188 87.70396423339844 112.9999771118164 56.49991226196289 112.9999771118164 C 25.29587554931641 112.9999771118164 -7.62939453125e-06 87.70407104492188 -7.62939453125e-06 56.49999237060547 C -7.62939453125e-06 25.29590606689453 25.29587554931641 -7.62939453125e-06 56.49991226196289 -7.62939453125e-06 Z" stroke="none" fill="#dbe8e4"/>
          </g>
        </g>
      </g>
      <g id="layer1" transform="translate(210.133 10579.535)">
        <path id="path2486" d="M9.973,1.983a9.633,9.633,0,0,0-6.58,2.641,7.511,7.511,0,0,0-2.4,6.506l4,27.97a11.3,11.3,0,0,0,2.832,6.181,8.357,8.357,0,0,0,6.152,2.67H37.958a8.357,8.357,0,0,0,6.152-2.67A11.3,11.3,0,0,0,46.942,39.1l4-27.97a7.511,7.511,0,0,0-2.4-6.506,9.633,9.633,0,0,0-6.58-2.641Z" transform="translate(0 10.393)" fill="url(#linear-gradient)"/>
        <path id="path2488" d="M13.769,3.837A10.99,10.99,0,1,0,24.759,14.827,11,11,0,0,0,13.769,3.837Z" transform="translate(12.196 22.539)" fill="url(#linear-gradient-2)"/>
        <path id="path2490" d="M12.974,4.775a1,1,0,0,0-.576.3l-5,5.193L5.258,8.05A1,1,0,1,0,3.812,9.436L6.673,12.4a1,1,0,0,0,1.446,0l5.724-5.945a1.006,1.006,0,0,0-.871-1.682Z" transform="translate(17.136 28.623)" fill="#8bc926"/>
        <path id="path2632" d="M13.505.4A10.988,10.988,0,0,0,2.515,11.388V23.381a1,1,0,0,0,1.992,0V11.388a8.961,8.961,0,0,1,9-9h4a8.949,8.949,0,0,1,8.984,9V23.381a1,1,0,0,0,2.006,0V11.388A10.988,10.988,0,0,0,17.5.4Z" transform="translate(10.468 0)" fill="#eebc35"/>
        <path id="path3921" d="M2.593,3.595A1,1,0,0,0,2.4,3.61a1,1,0,0,0-.856,1.121l.4,2.95a1,1,0,0,0,1.992-.265l-.4-2.951a1,1,0,0,0-.944-.87Zm.8,5.916a1,1,0,0,0-.192.015,1,1,0,0,0-.856,1.121l.4,2.951a1,1,0,1,0,1.977-.266l-.4-2.951a1,1,0,0,0-.929-.87Z" transform="translate(4.062 20.952)" fill="#fff"/>
        <path id="path3923" d="M42.431,2.214a7.148,7.148,0,0,1,.9,4.578l-4,27.97A11.307,11.307,0,0,1,36.5,40.946a8.356,8.356,0,0,1-6.152,2.67H6.381a8.283,8.283,0,0,1-4.707-1.46,9.86,9.86,0,0,0,1.2,1.616,8.356,8.356,0,0,0,6.151,2.67H33a8.356,8.356,0,0,0,6.151-2.67,11.308,11.308,0,0,0,2.834-6.183l4-27.97a7.513,7.513,0,0,0-2.4-6.507,9.311,9.311,0,0,0-1.148-.9Z" transform="translate(4.956 11.904)" fill="#eebc35"/>
        <path id="path3925" d="M18.514,4.154A10.975,10.975,0,0,1,3.1,19.583,10.979,10.979,0,1,0,18.514,4.154Z" transform="translate(14.279 24.617)" fill="#e85156"/>
      </g>
    </g>
  </g>
</svg>
