<svg xmlns="http://www.w3.org/2000/svg" width="113" height="113" viewBox="0 0 113 113">
  <g id="Grupo_1211659" data-name="Grupo 1211659" transform="translate(-180.051 -10740.729)">
    <g id="Grupo_1211317" data-name="Grupo 1211317" transform="translate(0 58.729)">
      <g id="Grupo_1210517" data-name="Grupo 1210517" transform="translate(180.051 10682)">
        <g id="Grupo_1098742" data-name="Grupo 1098742" transform="translate(0 0)">
          <g id="Trazado_875734" data-name="Trazado 875734" fill="#669e8f">
            <path d="M 56.49991226196289 111.4999923706055 C 49.07431411743164 111.4999923706055 41.87162017822266 110.0460052490234 35.09192657470703 107.1784362792969 C 31.83328056335449 105.8001480102539 28.69018936157227 104.0941162109375 25.7499885559082 102.1077499389648 C 22.83732795715332 100.1399917602539 20.09832763671875 97.88009643554688 17.60909652709961 95.390869140625 C 15.11986637115479 92.90164184570312 12.85998916625977 90.16263580322266 10.89223575592041 87.24997711181641 C 8.905865669250488 84.30976104736328 7.199850559234619 81.16667175292969 5.821558475494385 77.90802001953125 C 2.953989267349243 71.12830352783203 1.500004529953003 63.92560958862305 1.500004529953003 56.49999237060547 C 1.500004529953003 49.07437515258789 2.953989267349243 41.87168502807617 5.821558475494385 35.09197616577148 C 7.199850559234619 31.83333015441895 8.905865669250488 28.69023895263672 10.89223575592041 25.75002288818359 C 12.85998916625977 22.83736228942871 15.11986637115479 20.09836196899414 17.60909652709961 17.609130859375 C 20.09832763671875 15.11989974975586 22.83732795715332 12.86000728607178 25.7499885559082 10.89225387573242 C 28.69018936157227 8.905884742736816 31.83328056335449 7.199853897094727 35.09192657470703 5.821561813354492 C 41.87162017822266 2.953992366790771 49.07431411743164 1.500007748603821 56.49991226196289 1.500007748603821 C 63.92551040649414 1.500007748603821 71.12820434570312 2.953992366790771 77.90789794921875 5.821561813354492 C 81.16654205322266 7.199853897094727 84.30963897705078 8.905884742736816 87.24983215332031 10.89225387573242 C 90.16249847412109 12.86000728607178 92.90149688720703 15.11989974975586 95.39072418212891 17.609130859375 C 97.87995910644531 20.09836196899414 100.1398315429688 22.83736228942871 102.1075897216797 25.75002288818359 C 104.0939559936523 28.69023895263672 105.7999725341797 31.83333015441895 107.1782684326172 35.09197616577148 C 110.0458374023438 41.87168502807617 111.4998168945312 49.07437515258789 111.4998168945312 56.49999237060547 C 111.4998168945312 63.92560958862305 110.0458374023438 71.12830352783203 107.1782684326172 77.90802001953125 C 105.7999725341797 81.16667175292969 104.0939559936523 84.30976104736328 102.1075897216797 87.24997711181641 C 100.1398315429688 90.16263580322266 97.87995910644531 92.90164184570312 95.39072418212891 95.390869140625 C 92.90149688720703 97.88009643554688 90.16249847412109 100.1399917602539 87.24983215332031 102.1077499389648 C 84.30963897705078 104.0941162109375 81.16654205322266 105.8001480102539 77.90789794921875 107.1784362792969 C 71.12820434570312 110.0460052490234 63.92551040649414 111.4999923706055 56.49991226196289 111.4999923706055 Z" stroke="none"/>
            <path d="M 56.49991226196289 2.999992370605469 C 49.27614593505859 2.999992370605469 42.27006530761719 4.414108276367188 35.67626190185547 7.203056335449219 C 32.50681304931641 8.543624877929688 29.44964599609375 10.20302581787109 26.58969879150391 12.13517761230469 C 23.75614929199219 14.04949188232422 21.09149932861328 16.24803924560547 18.66976165771484 18.66977691650391 C 16.24803161621094 21.09150695800781 14.04947662353516 23.75615692138672 12.13516235351562 26.58972930908203 C 10.20301055908203 29.44969177246094 8.543609619140625 32.50684356689453 7.20306396484375 35.67629241943359 C 4.414115905761719 42.27011108398438 2.999992370605469 49.27622604370117 2.999992370605469 56.49999237060547 C 2.999992370605469 63.72375869750977 4.414115905761719 70.72987365722656 7.20306396484375 77.32367706298828 C 8.543609619140625 80.49312591552734 10.20301055908203 83.55029296875 12.13516235351562 86.41026306152344 C 14.04947662353516 89.24380493164062 16.24803161621094 91.90846252441406 18.66976165771484 94.33019256591797 C 21.09149932861328 96.75192260742188 23.75614929199219 98.95047760009766 26.58969879150391 100.8647918701172 C 29.44964599609375 102.7969436645508 32.50681304931641 104.4563598632812 35.67626190185547 105.7969055175781 C 42.27006530761719 108.5858612060547 49.27614593505859 109.9999771118164 56.49991226196289 109.9999771118164 C 63.72367858886719 109.9999771118164 70.72978210449219 108.5858612060547 77.32357788085938 105.7969055175781 C 80.49301147460938 104.4563598632812 83.55017852783203 102.7969436645508 86.41012573242188 100.8647918701172 C 89.24369812011719 98.95047760009766 91.90834808349609 96.75192260742188 94.33006286621094 94.33019256591797 C 96.75179290771484 91.90846252441406 98.95034790039062 89.24380493164062 100.8646621704102 86.41026306152344 C 102.7968139648438 83.55029296875 104.4562149047852 80.49312591552734 105.7967758178711 77.32367706298828 C 108.5857086181641 70.72987365722656 109.9998321533203 63.72377395629883 109.9998321533203 56.49999237060547 C 109.9998321533203 49.27621078491211 108.5857086181641 42.27011108398438 105.7967758178711 35.67629241943359 C 104.4562149047852 32.50684356689453 102.7968139648438 29.44969177246094 100.8646621704102 26.58972930908203 C 98.95034790039062 23.75615692138672 96.75179290771484 21.09150695800781 94.33006286621094 18.66977691650391 C 91.90834808349609 16.24803924560547 89.24369812011719 14.04949188232422 86.41012573242188 12.13517761230469 C 83.55017852783203 10.20302581787109 80.49301147460938 8.543624877929688 77.32357788085938 7.203056335449219 C 70.72976684570312 4.414108276367188 63.72367858886719 2.999992370605469 56.49991226196289 2.999992370605469 M 56.49991226196289 -7.62939453125e-06 C 87.70396423339844 -7.62939453125e-06 112.9998321533203 25.29590606689453 112.9998321533203 56.49999237060547 C 112.9998321533203 87.70407104492188 87.70396423339844 112.9999771118164 56.49991226196289 112.9999771118164 C 25.29587554931641 112.9999771118164 -7.62939453125e-06 87.70407104492188 -7.62939453125e-06 56.49999237060547 C -7.62939453125e-06 25.29590606689453 25.29587554931641 -7.62939453125e-06 56.49991226196289 -7.62939453125e-06 Z" stroke="none" fill="#fff"/>
          </g>
          <g id="Trazado_875735" data-name="Trazado 875735" transform="translate(0)" fill="none">
            <path d="M56.5,0A56.5,56.5,0,1,1,0,56.5,56.5,56.5,0,0,1,56.5,0Z" stroke="none"/>
            <path d="M 56.49991226196289 2.999992370605469 C 49.27614593505859 2.999992370605469 42.27006530761719 4.414108276367188 35.67626190185547 7.203056335449219 C 32.50681304931641 8.543624877929688 29.44964599609375 10.20302581787109 26.58969879150391 12.13517761230469 C 23.75614929199219 14.04949188232422 21.09149932861328 16.24803924560547 18.66976165771484 18.66977691650391 C 16.24803161621094 21.09150695800781 14.04947662353516 23.75615692138672 12.13516235351562 26.58972930908203 C 10.20301055908203 29.44969177246094 8.543609619140625 32.50684356689453 7.20306396484375 35.67629241943359 C 4.414115905761719 42.27011108398438 2.999992370605469 49.27622604370117 2.999992370605469 56.49999237060547 C 2.999992370605469 63.72375869750977 4.414115905761719 70.72987365722656 7.20306396484375 77.32367706298828 C 8.543609619140625 80.49312591552734 10.20301055908203 83.55029296875 12.13516235351562 86.41026306152344 C 14.04947662353516 89.24380493164062 16.24803161621094 91.90846252441406 18.66976165771484 94.33019256591797 C 21.09149932861328 96.75192260742188 23.75614929199219 98.95047760009766 26.58969879150391 100.8647918701172 C 29.44964599609375 102.7969436645508 32.50681304931641 104.4563598632812 35.67626190185547 105.7969055175781 C 42.27006530761719 108.5858612060547 49.27614593505859 109.9999771118164 56.49991226196289 109.9999771118164 C 63.72367858886719 109.9999771118164 70.72978210449219 108.5858612060547 77.32357788085938 105.7969055175781 C 80.49301147460938 104.4563598632812 83.55017852783203 102.7969436645508 86.41012573242188 100.8647918701172 C 89.24369812011719 98.95047760009766 91.90834808349609 96.75192260742188 94.33006286621094 94.33019256591797 C 96.75179290771484 91.90846252441406 98.95034790039062 89.24380493164062 100.8646621704102 86.41026306152344 C 102.7968139648438 83.55029296875 104.4562149047852 80.49312591552734 105.7967758178711 77.32367706298828 C 108.5857086181641 70.72987365722656 109.9998321533203 63.72377395629883 109.9998321533203 56.49999237060547 C 109.9998321533203 49.27621078491211 108.5857086181641 42.27011108398438 105.7967758178711 35.67629241943359 C 104.4562149047852 32.50684356689453 102.7968139648438 29.44969177246094 100.8646621704102 26.58972930908203 C 98.95034790039062 23.75615692138672 96.75179290771484 21.09150695800781 94.33006286621094 18.66977691650391 C 91.90834808349609 16.24803924560547 89.24369812011719 14.04949188232422 86.41012573242188 12.13517761230469 C 83.55017852783203 10.20302581787109 80.49301147460938 8.543624877929688 77.32357788085938 7.203056335449219 C 70.72976684570312 4.414108276367188 63.72367858886719 2.999992370605469 56.49991226196289 2.999992370605469 M 56.49991226196289 -7.62939453125e-06 C 87.70396423339844 -7.62939453125e-06 112.9998321533203 25.29590606689453 112.9998321533203 56.49999237060547 C 112.9998321533203 87.70407104492188 87.70396423339844 112.9999771118164 56.49991226196289 112.9999771118164 C 25.29587554931641 112.9999771118164 -7.62939453125e-06 87.70407104492188 -7.62939453125e-06 56.49999237060547 C -7.62939453125e-06 25.29590606689453 25.29587554931641 -7.62939453125e-06 56.49991226196289 -7.62939453125e-06 Z" stroke="none" fill="#dbe8e4"/>
          </g>
        </g>
      </g>
      <g id="stock-market_6657941" transform="translate(200.76 10706.5)">
        <g id="Grupo_1211316" data-name="Grupo 1211316" transform="translate(9.29 3.5)">
          <g id="Grupo_1211307" data-name="Grupo 1211307">
            <g id="Grupo_1211264" data-name="Grupo 1211264">
              <g id="Grupo_1211197" data-name="Grupo 1211197">
                <path id="Trazado_1091722" data-name="Trazado 1091722" d="M45.567,39.157l0,0v.987L24.538,52.367l-7.2-4.156c-6.2-3.585-2.455-12.349-3.124-27.62a3.825,3.825,0,0,0-.326-1.449l-3.73,2.169-.865-.5L9.3,17.766a2.015,2.015,0,0,1,.851-1.856L31.166,3.7a2.045,2.045,0,0,1,2.055.2A6.351,6.351,0,0,1,36.1,8.879l-.43,21.468A5.942,5.942,0,0,0,38.364,35l7.2,4.156Z" transform="translate(-9.29 -3.5)" fill="#dedffb"/>
                <g id="Grupo_1211134" data-name="Grupo 1211134" transform="translate(0.864 1.246)">
                  <path id="Trazado_1091723" data-name="Trazado 1091723" d="M32.823,6.253a1.417,1.417,0,0,0-.591,1.3L32.224,10.6,11.2,22.816l.008-3.046a1.414,1.414,0,0,1,.591-1.3Z" transform="translate(-11.199 -6.253)" fill="#e9e7fc"/>
                </g>
                <g id="Grupo_1211135" data-name="Grupo 1211135" transform="translate(15.245 35.658)">
                  <path id="Trazado_1091724" data-name="Trazado 1091724" d="M42.968,94.483,63.994,82.264l0,.992L42.966,95.475Z" transform="translate(-42.966 -82.264)" fill="#e9e7fc"/>
                </g>
                <g id="Grupo_1211136" data-name="Grupo 1211136" transform="translate(0.852)">
                  <path id="Trazado_1091725" data-name="Trazado 1091725" d="M46.594,39.158,25.569,51.376l-7.2-4.157c-4.8-2.771-1.735-8.907-2.263-26.12.009-2.918-3.1-6.25-4.933-5.186L32.2,3.695a2.041,2.041,0,0,1,2.055.2A6.352,6.352,0,0,1,37.13,8.88L36.7,30.347A5.938,5.938,0,0,0,39.393,35Z" transform="translate(-11.172 -3.5)" fill="#f3f1fc"/>
                </g>
                <g id="Grupo_1211137" data-name="Grupo 1211137" transform="translate(3.321 0.806)">
                  <path id="Trazado_1091726" data-name="Trazado 1091726" d="M21.758,47.491c-4.112-2.375-1.417-7.739-1.857-25.415a7.143,7.143,0,0,0-3.274-5.685C36.819,4.7,35.551,5.286,35.943,5.286c1.307,0,3.363,2.366,3.361,4.56l-.429,21.473a6.727,6.727,0,0,0,3.1,5.358l5.989,3.458L28.553,51.414Z" transform="translate(-16.626 -5.281)" fill="#fff"/>
                </g>
                <g id="Grupo_1211138" data-name="Grupo 1211138" transform="translate(0 12.218)">
                  <path id="Trazado_1091727" data-name="Trazado 1091727" d="M12.2,30.884a6.353,6.353,0,0,1,2.879,4.986c.527,17.192-2.53,23.353,2.263,26.12l7.2,4.157,0,.992-7.2-4.157c-6.2-3.58-2.458-12.406-3.123-27.62a4.454,4.454,0,0,0-2.018-3.486c-1.117-.645-2.028-.125-2.031,1.158l-.009,3.046-.863-.5L9.3,32.535C9.3,30.705,10.6,29.965,12.2,30.884Z" transform="translate(-9.291 -30.489)" fill="#dedffb"/>
                </g>
                <g id="Grupo_1211159" data-name="Grupo 1211159" transform="translate(5.853 2.609)">
                  <g id="Grupo_1211140" data-name="Grupo 1211140">
                    <g id="Grupo_1211139" data-name="Grupo 1211139">
                      <path id="Trazado_1091728" data-name="Trazado 1091728" d="M40.881,9.928,22.666,20.513c-.138-.234-.288-.461-.446-.679L40.409,9.263A5.159,5.159,0,0,1,40.881,9.928Z" transform="translate(-22.22 -9.263)" fill="#dedffb"/>
                    </g>
                  </g>
                  <g id="Grupo_1211142" data-name="Grupo 1211142" transform="translate(1.332 2.887)">
                    <g id="Grupo_1211141" data-name="Grupo 1211141">
                      <path id="Trazado_1091729" data-name="Trazado 1091729" d="M43.161,15.641l-.019.949L25.329,26.942a6.61,6.61,0,0,0-.168-.841Z" transform="translate(-25.161 -15.641)" fill="#dedffb"/>
                    </g>
                  </g>
                  <g id="Grupo_1211145" data-name="Grupo 1211145" transform="translate(1.498 6.479)">
                    <g id="Grupo_1211143" data-name="Grupo 1211143" transform="translate(0 2.882)">
                      <path id="Trazado_1091730" data-name="Trazado 1091730" d="M38.332,29.94,25.549,37.369l-.02.95,12.8-7.44Z" transform="translate(-25.528 -29.94)" fill="#dedffb"/>
                    </g>
                    <g id="Grupo_1211144" data-name="Grupo 1211144" transform="translate(14.425)">
                      <path id="Trazado_1091731" data-name="Trazado 1091731" d="M57.392,25.514v.939l3.317-1.928.019-.95Z" transform="translate(-57.392 -23.575)" fill="#f45170"/>
                    </g>
                  </g>
                  <g id="Grupo_1211148" data-name="Grupo 1211148" transform="translate(1.426 10.072)">
                    <g id="Grupo_1211146" data-name="Grupo 1211146" transform="translate(0 8.28)">
                      <path id="Trazado_1091732" data-name="Trazado 1091732" d="M28.884,49.8l-3.494,2.031-.019.95,3.513-2.042Z" transform="translate(-25.37 -49.8)" fill="#78e75a"/>
                    </g>
                    <g id="Grupo_1211147" data-name="Grupo 1211147" transform="translate(5.203)">
                      <path id="Trazado_1091733" data-name="Trazado 1091733" d="M36.863,38.809v.939L49.4,32.461l.019-.949Z" transform="translate(-36.863 -31.512)" fill="#dedffb"/>
                    </g>
                  </g>
                  <g id="Grupo_1211151" data-name="Grupo 1211151" transform="translate(1.355 13.664)">
                    <g id="Grupo_1211149" data-name="Grupo 1211149" transform="translate(0 5.097)">
                      <path id="Trazado_1091734" data-name="Trazado 1091734" d="M34.2,50.7l-8.973,5.215-.019.949L34.2,51.642Z" transform="translate(-25.212 -50.703)" fill="#dedffb"/>
                    </g>
                    <g id="Grupo_1211150" data-name="Grupo 1211150" transform="translate(10.502)">
                      <path id="Trazado_1091735" data-name="Trazado 1091735" d="M48.409,43.665V44.6L55.65,40.4l.019-.95Z" transform="translate(-48.409 -39.445)" fill="#dedffb"/>
                    </g>
                  </g>
                  <g id="Grupo_1211153" data-name="Grupo 1211153" transform="translate(1.283 17.257)">
                    <g id="Grupo_1211152" data-name="Grupo 1211152">
                      <path id="Trazado_1091736" data-name="Trazado 1091736" d="M42.815,47.382l-.019.95L25.054,58.643l.019-.95Z" transform="translate(-25.054 -47.382)" fill="#dba660"/>
                    </g>
                  </g>
                  <g id="Grupo_1211156" data-name="Grupo 1211156" transform="translate(1.211 20.851)">
                    <g id="Grupo_1211154" data-name="Grupo 1211154" transform="translate(0 8.705)">
                      <path id="Trazado_1091737" data-name="Trazado 1091737" d="M27.677,74.547l-2.763,1.606L24.9,77.1l2.782-1.617Z" transform="translate(-24.895 -74.547)" fill="#dedffb"/>
                    </g>
                    <g id="Grupo_1211155" data-name="Grupo 1211155" transform="translate(4.641)">
                      <path id="Trazado_1091738" data-name="Trazado 1091738" d="M35.146,62.944v.938l13.1-7.614.019-.949Z" transform="translate(-35.146 -55.319)" fill="#dedffb"/>
                    </g>
                  </g>
                  <g id="Grupo_1211158" data-name="Grupo 1211158" transform="translate(18.899 24.346)">
                    <g id="Grupo_1211157" data-name="Grupo 1211157">
                      <path id="Trazado_1091739" data-name="Trazado 1091739" d="M64.075,64.013l-.1-.88A5.782,5.782,0,0,0,64.075,64.013Z" transform="translate(-63.966 -63.041)" fill="#dedffb"/>
                    </g>
                  </g>
                </g>
                <g id="Grupo_1211196" data-name="Grupo 1211196" transform="translate(11.706 15.156)">
                  <g id="Grupo_1211191" data-name="Grupo 1211191" transform="translate(0 5.683)">
                    <g id="Grupo_1211190" data-name="Grupo 1211190">
                      <g id="Grupo_1211161" data-name="Grupo 1211161" transform="translate(12.003)">
                        <g id="Grupo_1211160" data-name="Grupo 1211160">
                          <path id="Trazado_1091740" data-name="Trazado 1091740" d="M67.795,51.105l-.036,14.066-3.364,1.96L61.66,65.556,61.7,51.486l3.368-1.956Z" transform="translate(-61.66 -49.53)" fill="#df3260"/>
                        </g>
                      </g>
                      <g id="Grupo_1211165" data-name="Grupo 1211165" transform="translate(12.004 0.001)">
                        <g id="Grupo_1211162" data-name="Grupo 1211162" transform="translate(2.732 1.575)">
                          <path id="Trazado_1091741" data-name="Trazado 1091741" d="M71.1,53.01l-.037,14.067L67.7,69.034l.037-14.067Z" transform="translate(-67.697 -53.01)" fill="#df3260"/>
                        </g>
                        <g id="Grupo_1211163" data-name="Grupo 1211163" transform="translate(0 1.956)">
                          <path id="Trazado_1091742" data-name="Trazado 1091742" d="M64.431,55.428,64.394,69.5,61.662,67.92,61.7,53.853Z" transform="translate(-61.662 -53.853)" fill="#e93565"/>
                        </g>
                        <g id="Grupo_1211164" data-name="Grupo 1211164" transform="translate(0.037)">
                          <path id="Trazado_1091743" data-name="Trazado 1091743" d="M67.842,51.106l-3.367,1.956-2.732-1.575,3.367-1.956Z" transform="translate(-61.743 -49.531)" fill="#f45170"/>
                        </g>
                      </g>
                      <g id="Grupo_1211169" data-name="Grupo 1211169" transform="translate(6 6.632)">
                        <g id="Grupo_1211168" data-name="Grupo 1211168">
                          <g id="Grupo_1211167" data-name="Grupo 1211167">
                            <g id="Grupo_1211166" data-name="Grupo 1211166">
                              <path id="Trazado_1091744" data-name="Trazado 1091744" d="M54.539,65.756,54.5,76.68l-3.364,1.956L48.4,77.06l.041-10.92L51.8,64.18Z" transform="translate(-48.4 -64.18)" fill="#72d561"/>
                            </g>
                          </g>
                        </g>
                      </g>
                      <g id="Grupo_1211177" data-name="Grupo 1211177" transform="translate(6.002 6.635)">
                        <g id="Grupo_1211176" data-name="Grupo 1211176">
                          <g id="Grupo_1211171" data-name="Grupo 1211171" transform="translate(2.732 1.575)">
                            <g id="Grupo_1211170" data-name="Grupo 1211170">
                              <path id="Trazado_1091745" data-name="Trazado 1091745" d="M57.842,67.664l-.037,10.921-3.367,1.956.037-10.921Z" transform="translate(-54.439 -67.664)" fill="#5ec363"/>
                            </g>
                          </g>
                          <g id="Grupo_1211173" data-name="Grupo 1211173" transform="translate(0 1.956)">
                            <g id="Grupo_1211172" data-name="Grupo 1211172">
                              <path id="Trazado_1091746" data-name="Trazado 1091746" d="M51.173,70.081,51.136,81,48.4,79.428l.037-10.921Z" transform="translate(-48.404 -68.506)" fill="#72d561"/>
                            </g>
                          </g>
                          <g id="Grupo_1211175" data-name="Grupo 1211175" transform="translate(0.037)">
                            <g id="Grupo_1211174" data-name="Grupo 1211174">
                              <path id="Trazado_1091747" data-name="Trazado 1091747" d="M54.584,65.76l-3.367,1.956-2.732-1.575,3.367-1.956Z" transform="translate(-48.486 -64.185)" fill="#78e75a"/>
                            </g>
                          </g>
                        </g>
                      </g>
                      <g id="Grupo_1211181" data-name="Grupo 1211181" transform="translate(0.002 14.12)">
                        <g id="Grupo_1211180" data-name="Grupo 1211180">
                          <g id="Grupo_1211179" data-name="Grupo 1211179">
                            <g id="Grupo_1211178" data-name="Grupo 1211178">
                              <path id="Trazado_1091748" data-name="Trazado 1091748" d="M41.285,82.3l-.036,6.922L37.88,91.173,35.15,89.6l.036-6.927L38.55,80.72Z" transform="translate(-35.15 -80.72)" fill="#497bfe"/>
                            </g>
                          </g>
                        </g>
                      </g>
                      <g id="Grupo_1211189" data-name="Grupo 1211189" transform="translate(0 14.119)">
                        <g id="Grupo_1211188" data-name="Grupo 1211188">
                          <g id="Grupo_1211183" data-name="Grupo 1211183" transform="translate(2.732 1.575)">
                            <g id="Grupo_1211182" data-name="Grupo 1211182">
                              <path id="Trazado_1091749" data-name="Trazado 1091749" d="M44.585,84.2l-.037,6.925-3.367,1.956.037-6.925Z" transform="translate(-41.181 -84.197)" fill="#5094ff"/>
                            </g>
                          </g>
                          <g id="Grupo_1211185" data-name="Grupo 1211185" transform="translate(0 1.956)">
                            <g id="Grupo_1211184" data-name="Grupo 1211184">
                              <path id="Trazado_1091750" data-name="Trazado 1091750" d="M37.915,86.614l-.037,6.925-2.732-1.575.037-6.925Z" transform="translate(-35.146 -85.039)" fill="#497bfe"/>
                            </g>
                          </g>
                          <g id="Grupo_1211187" data-name="Grupo 1211187" transform="translate(0.037)">
                            <g id="Grupo_1211186" data-name="Grupo 1211186">
                              <path id="Trazado_1091751" data-name="Trazado 1091751" d="M41.327,82.293,37.96,84.249l-2.732-1.575,3.367-1.956Z" transform="translate(-35.228 -80.718)" fill="#57b3fe"/>
                            </g>
                          </g>
                        </g>
                      </g>
                    </g>
                  </g>
                  <g id="Grupo_1211195" data-name="Grupo 1211195" transform="translate(0.098)">
                    <g id="Grupo_1211194" data-name="Grupo 1211194">
                      <g id="Grupo_1211193" data-name="Grupo 1211193" transform="translate(13.243 5.09)">
                        <g id="Grupo_1211192" data-name="Grupo 1211192">
                          <path id="Trazado_1091752" data-name="Trazado 1091752" d="M67.554,50.868l-1.431-.832-1.507-1.815,1.431.832Z" transform="translate(-64.616 -48.222)" fill="#b0b8cf"/>
                        </g>
                      </g>
                      <path id="Trazado_1091753" data-name="Trazado 1091753" d="M52.448,36.977l-5.714,2.434,1.472,1.771L35.363,58.106l1.042,1.258.79.459L50.038,42.9l1.507,1.815,1.693-7.278Z" transform="translate(-35.363 -36.977)" fill="#b0b8cf"/>
                    </g>
                  </g>
                </g>
              </g>
              <g id="Grupo_1211263" data-name="Grupo 1211263" transform="translate(1.007 42.754)">
                <g id="Grupo_1211228" data-name="Grupo 1211228" transform="translate(0.004 1.793)">
                  <g id="Grupo_1211204" data-name="Grupo 1211204">
                    <g id="Grupo_1211203" data-name="Grupo 1211203">
                      <g id="Grupo_1211198" data-name="Grupo 1211198" transform="translate(0.004 3.063)">
                        <path id="Trazado_1091754" data-name="Trazado 1091754" d="M22.008,110.468a2.3,2.3,0,0,1-.63,1.061,4.091,4.091,0,0,1-.7.56c-3.3,2.073-9.143.641-9.143-2.086l0-1.338a2.593,2.593,0,0,0,1.381,2.039,8.241,8.241,0,0,0,7.029.4c1.021-.418,2.117-1.292,2.117-2.433A14.01,14.01,0,0,1,22.008,110.468Z" transform="translate(-11.532 -108.665)" fill="#ffd06c"/>
                      </g>
                      <g id="Grupo_1211199" data-name="Grupo 1211199">
                        <path id="Trazado_1091755" data-name="Trazado 1091755" d="M19.94,107.4c-3.094,1.345-7.743.316-8.351-2-.717-2.7,4.611-4.5,8.323-2.894C22.712,103.671,22.813,106.2,19.94,107.4Z" transform="translate(-11.523 -101.898)" fill="#f9a83d"/>
                      </g>
                      <g id="Grupo_1211200" data-name="Grupo 1211200" transform="translate(0.439 0.42)">
                        <path id="Trazado_1091756" data-name="Trazado 1091756" d="M14.369,107.509c-2.175-.949-2.591-2.581-.554-3.84,4.409-2.389,10.667.8,7.476,3.262C19.856,108.1,16.815,108.513,14.369,107.509Z" transform="translate(-12.492 -102.825)" fill="#ffd475"/>
                      </g>
                      <g id="Grupo_1211202" data-name="Grupo 1211202" transform="translate(2.946 1.576)">
                        <g id="Grupo_1211201" data-name="Grupo 1211201">
                          <path id="Trazado_1091757" data-name="Trazado 1091757" d="M22.594,107.33c.326-.534-.347-.953-.944-.992a3.183,3.183,0,0,0-1.337.256l-.944-.544a4.568,4.568,0,0,1,.8-.3c.277-.166-.032-.447-.424-.344a4.329,4.329,0,0,0-.888.344l-.248-.144c-.3-.149-.7.071-.416.248l.248.144c-.276.2-.5.488-.376.808a1.217,1.217,0,0,0,.993.536,3.439,3.439,0,0,0,1.3-.232l.912.528a3.847,3.847,0,0,1-.84.288c-.3.085-.312.254-.136.352a.634.634,0,0,0,.416.048,5.294,5.294,0,0,0,1.089-.376l.248.144c.33.165.68-.094.424-.24l-.256-.152A1.1,1.1,0,0,0,22.594,107.33Zm-3.8-.76a.486.486,0,0,1,.184-.264l.816.472a2.928,2.928,0,0,1-.48.1C19.058,106.909,18.742,106.769,18.792,106.57Zm2.889.824-.792-.464a3.031,3.031,0,0,1,.52-.128.453.453,0,0,1,.336.048C21.913,106.946,22.081,107.106,21.681,107.395Z" transform="translate(-18.03 -105.379)" fill="#f9a83d"/>
                        </g>
                      </g>
                    </g>
                  </g>
                  <g id="Grupo_1211227" data-name="Grupo 1211227" transform="translate(0.445 4.269)">
                    <g id="Grupo_1211206" data-name="Grupo 1211206" transform="translate(9.406 0.021)">
                      <g id="Grupo_1211205" data-name="Grupo 1211205">
                        <path id="Trazado_1091758" data-name="Trazado 1091758" d="M33.524,111.373l0,1.366a2.814,2.814,0,0,1-.239.272l0-1.365A2.68,2.68,0,0,0,33.524,111.373Z" transform="translate(-33.282 -111.373)" fill="#f3a250"/>
                      </g>
                    </g>
                    <g id="Grupo_1211208" data-name="Grupo 1211208" transform="translate(8.465 0.855)">
                      <g id="Grupo_1211207" data-name="Grupo 1211207">
                        <path id="Trazado_1091759" data-name="Trazado 1091759" d="M31.442,113.216v1.364c-.093.058-.209.125-.238.14v-1.364C31.288,113.31,31.4,113.245,31.442,113.216Z" transform="translate(-31.203 -113.216)" fill="#f3a250"/>
                      </g>
                    </g>
                    <g id="Grupo_1211210" data-name="Grupo 1211210" transform="translate(7.524 1.32)">
                      <g id="Grupo_1211209" data-name="Grupo 1211209">
                        <path id="Trazado_1091760" data-name="Trazado 1091760" d="M29.363,114.242v1.365q-.117.046-.238.087v-1.365Q29.247,114.288,29.363,114.242Z" transform="translate(-29.124 -114.242)" fill="#f3a250"/>
                      </g>
                    </g>
                    <g id="Grupo_1211212" data-name="Grupo 1211212" transform="translate(6.583 1.612)">
                      <g id="Grupo_1211211" data-name="Grupo 1211211">
                        <path id="Trazado_1091761" data-name="Trazado 1091761" d="M27.286,114.886l0,1.365q-.117.028-.238.051v-1.364Z" transform="translate(-27.046 -114.886)" fill="#f3a250"/>
                      </g>
                    </g>
                    <g id="Grupo_1211214" data-name="Grupo 1211214" transform="translate(5.641 1.774)">
                      <g id="Grupo_1211213" data-name="Grupo 1211213">
                        <path id="Trazado_1091762" data-name="Trazado 1091762" d="M25.206,115.245v1.365q-.119.014-.238.024v-1.365Q25.087,115.259,25.206,115.245Z" transform="translate(-24.967 -115.245)" fill="#f3a250"/>
                      </g>
                    </g>
                    <g id="Grupo_1211216" data-name="Grupo 1211216" transform="translate(4.7 1.833)">
                      <g id="Grupo_1211215" data-name="Grupo 1211215">
                        <path id="Trazado_1091763" data-name="Trazado 1091763" d="M23.128,115.376l0,1.365q-.119,0-.238,0l0-1.365C22.968,115.378,23.049,115.379,23.128,115.376Z" transform="translate(-22.888 -115.376)" fill="#f3a250"/>
                      </g>
                    </g>
                    <g id="Grupo_1211218" data-name="Grupo 1211218" transform="translate(3.761 1.769)">
                      <g id="Grupo_1211217" data-name="Grupo 1211217">
                        <path id="Trazado_1091764" data-name="Trazado 1091764" d="M21.051,115.258v1.365c-.079-.008-.158-.016-.238-.026v-1.364C20.893,115.243,20.972,115.252,21.051,115.258Z" transform="translate(-20.812 -115.233)" fill="#f3a250"/>
                      </g>
                    </g>
                    <g id="Grupo_1211220" data-name="Grupo 1211220" transform="translate(2.819 1.601)">
                      <g id="Grupo_1211219" data-name="Grupo 1211219">
                        <path id="Trazado_1091765" data-name="Trazado 1091765" d="M18.972,114.916v1.364c-.079-.016-.16-.034-.238-.053l0-1.364C18.814,114.882,18.893,114.9,18.972,114.916Z" transform="translate(-18.733 -114.863)" fill="#f3a250"/>
                      </g>
                    </g>
                    <g id="Grupo_1211222" data-name="Grupo 1211222" transform="translate(1.878 1.305)">
                      <g id="Grupo_1211221" data-name="Grupo 1211221">
                        <path id="Trazado_1091766" data-name="Trazado 1091766" d="M16.9,114.3l0,1.366c-.08-.029-.161-.059-.239-.09l0-1.365C16.735,114.242,16.815,114.271,16.9,114.3Z" transform="translate(-16.654 -114.21)" fill="#f3a250"/>
                      </g>
                    </g>
                    <g id="Grupo_1211224" data-name="Grupo 1211224" transform="translate(0.94 0.834)">
                      <g id="Grupo_1211223" data-name="Grupo 1211223">
                        <path id="Trazado_1091767" data-name="Trazado 1091767" d="M14.82,113.31v1.364c-.033-.016-.141-.078-.238-.141l0-1.364C14.639,113.2,14.775,113.288,14.82,113.31Z" transform="translate(-14.581 -113.169)" fill="#f3a250"/>
                      </g>
                    </g>
                    <g id="Grupo_1211226" data-name="Grupo 1211226">
                      <g id="Grupo_1211225" data-name="Grupo 1211225">
                        <path id="Trazado_1091768" data-name="Trazado 1091768" d="M12.744,111.6v1.361a2.664,2.664,0,0,1-.238-.276l0-1.36A2.809,2.809,0,0,0,12.744,111.6Z" transform="translate(-12.506 -111.326)" fill="#f3a250"/>
                      </g>
                    </g>
                  </g>
                </g>
                <g id="Grupo_1211262" data-name="Grupo 1211262">
                  <g id="Grupo_1211238" data-name="Grupo 1211238">
                    <g id="Grupo_1211237" data-name="Grupo 1211237">
                      <g id="Grupo_1211229" data-name="Grupo 1211229" transform="translate(0 3.059)">
                        <path id="Trazado_1091769" data-name="Trazado 1091769" d="M21.369,107.56c-1.962,1.988-6.641,1.991-8.8.3-1.286-.989-1.03-1.808-1.047-3.169,0,1.553,1.981,2.556,3.5,2.859,3.249.687,7.03-.67,7.03-2.854C22.037,106.015,22.229,106.7,21.369,107.56Z" transform="translate(-11.514 -104.696)" fill="#ffd06c"/>
                      </g>
                      <g id="Grupo_1211230" data-name="Grupo 1211230" transform="translate(0.009)">
                        <path id="Trazado_1091770" data-name="Trazado 1091770" d="M21.015,99.173c2.451,1.888.377,4.511-3.423,4.831a8.349,8.349,0,0,1-3.912-.568c-1.259-.532-2.411-1.581-2.091-2.9.4-1.6,2.656-2.419,4.421-2.569A7.371,7.371,0,0,1,21.015,99.173Z" transform="translate(-11.534 -97.938)" fill="#f9a83d"/>
                      </g>
                      <g id="Grupo_1211231" data-name="Grupo 1211231" transform="translate(0.439 0.431)">
                        <path id="Trazado_1091771" data-name="Trazado 1091771" d="M15.24,103.856c-1.044-.254-2.425-.964-2.709-2.011-.353-1.329,1.355-2.366,2.691-2.681,3.253-.937,7.419.678,6.884,2.684C21.637,103.836,17.666,104.541,15.24,103.856Z" transform="translate(-12.484 -98.891)" fill="#ffd475"/>
                      </g>
                      <g id="Grupo_1211233" data-name="Grupo 1211233" transform="translate(2.956 1.571)">
                        <g id="Grupo_1211232" data-name="Grupo 1211232">
                          <path id="Trazado_1091772" data-name="Trazado 1091772" d="M22.337,102.584a2.281,2.281,0,0,0-2.017.04l-.944-.544a4.568,4.568,0,0,1,.8-.3c.268-.161-.017-.451-.424-.344a4.33,4.33,0,0,0-.888.344l-.248-.144c-.3-.15-.7.072-.416.248l.248.144c-1.023.744.08,1.6,1.281,1.289a4.364,4.364,0,0,0,.64-.176l.912.528a3.847,3.847,0,0,1-.84.288c-.3.085-.312.254-.136.352a.634.634,0,0,0,.416.048,5.3,5.3,0,0,0,1.089-.376l.248.144a.436.436,0,0,0,.424,0c.111-.064.123-.17,0-.24l-.256-.152C22.749,103.4,22.882,102.9,22.337,102.584ZM18.8,102.6a.486.486,0,0,1,.184-.264l.816.472a2.927,2.927,0,0,1-.48.1C19.065,102.939,18.749,102.8,18.8,102.6Zm2.889.824-.792-.464a3.031,3.031,0,0,1,.52-.128.453.453,0,0,1,.336.048C21.92,102.977,22.089,103.137,21.688,103.425Z" transform="translate(-18.043 -101.409)" fill="#f9a83d"/>
                        </g>
                      </g>
                      <g id="Grupo_1211236" data-name="Grupo 1211236" transform="translate(3.077 0.002)" opacity="0.3">
                        <g id="Grupo_1211234" data-name="Grupo 1211234">
                          <path id="Trazado_1091773" data-name="Trazado 1091773" d="M20.538,97.943v6.1a8.56,8.56,0,0,1-2.228-.287V98.222A7.782,7.782,0,0,1,20.538,97.943Z" transform="translate(-18.311 -97.943)" fill="#fff"/>
                        </g>
                        <g id="Grupo_1211235" data-name="Grupo 1211235" transform="translate(3.072 0.052)">
                          <path id="Trazado_1091774" data-name="Trazado 1091774" d="M26.418,98.293v5.534a8.24,8.24,0,0,1-1.323.235v-6A6.683,6.683,0,0,1,26.418,98.293Z" transform="translate(-25.096 -98.058)" fill="#fff"/>
                        </g>
                      </g>
                    </g>
                  </g>
                  <g id="Grupo_1211261" data-name="Grupo 1211261" transform="translate(0.449 4.264)">
                    <g id="Grupo_1211240" data-name="Grupo 1211240" transform="translate(9.406 0.021)">
                      <g id="Grupo_1211239" data-name="Grupo 1211239">
                        <path id="Trazado_1091775" data-name="Trazado 1091775" d="M33.524,107.4l0,1.366a2.813,2.813,0,0,1-.239.272l0-1.365A2.681,2.681,0,0,0,33.524,107.4Z" transform="translate(-33.282 -107.405)" fill="#f3a250"/>
                      </g>
                    </g>
                    <g id="Grupo_1211242" data-name="Grupo 1211242" transform="translate(8.465 0.855)">
                      <g id="Grupo_1211241" data-name="Grupo 1211241">
                        <path id="Trazado_1091776" data-name="Trazado 1091776" d="M31.442,109.247v1.364c-.093.058-.209.125-.238.14v-1.364C31.288,109.342,31.4,109.277,31.442,109.247Z" transform="translate(-31.203 -109.247)" fill="#f3a250"/>
                      </g>
                    </g>
                    <g id="Grupo_1211244" data-name="Grupo 1211244" transform="translate(7.524 1.32)">
                      <g id="Grupo_1211243" data-name="Grupo 1211243">
                        <path id="Trazado_1091777" data-name="Trazado 1091777" d="M29.363,110.273v1.365q-.117.046-.238.087v-1.365Q29.247,110.319,29.363,110.273Z" transform="translate(-29.124 -110.273)" fill="#f3a250"/>
                      </g>
                    </g>
                    <g id="Grupo_1211246" data-name="Grupo 1211246" transform="translate(6.583 1.612)">
                      <g id="Grupo_1211245" data-name="Grupo 1211245">
                        <path id="Trazado_1091778" data-name="Trazado 1091778" d="M27.286,110.918l0,1.365q-.117.028-.238.051v-1.364Z" transform="translate(-27.046 -110.918)" fill="#f3a250"/>
                      </g>
                    </g>
                    <g id="Grupo_1211248" data-name="Grupo 1211248" transform="translate(5.641 1.774)">
                      <g id="Grupo_1211247" data-name="Grupo 1211247">
                        <path id="Trazado_1091779" data-name="Trazado 1091779" d="M25.206,111.276v1.365q-.119.014-.238.024V111.3Q25.087,111.29,25.206,111.276Z" transform="translate(-24.967 -111.276)" fill="#f3a250"/>
                      </g>
                    </g>
                    <g id="Grupo_1211250" data-name="Grupo 1211250" transform="translate(4.7 1.833)">
                      <g id="Grupo_1211249" data-name="Grupo 1211249">
                        <path id="Trazado_1091780" data-name="Trazado 1091780" d="M23.128,111.408l0,1.365q-.119,0-.238,0l0-1.365C22.968,111.409,23.049,111.41,23.128,111.408Z" transform="translate(-22.888 -111.408)" fill="#f3a250"/>
                      </g>
                    </g>
                    <g id="Grupo_1211252" data-name="Grupo 1211252" transform="translate(3.761 1.769)">
                      <g id="Grupo_1211251" data-name="Grupo 1211251">
                        <path id="Trazado_1091781" data-name="Trazado 1091781" d="M21.051,111.29v1.365c-.079-.008-.158-.016-.238-.026v-1.364C20.893,111.274,20.972,111.283,21.051,111.29Z" transform="translate(-20.812 -111.265)" fill="#f3a250"/>
                      </g>
                    </g>
                    <g id="Grupo_1211254" data-name="Grupo 1211254" transform="translate(2.819 1.601)">
                      <g id="Grupo_1211253" data-name="Grupo 1211253">
                        <path id="Trazado_1091782" data-name="Trazado 1091782" d="M18.972,110.947v1.364c-.079-.016-.16-.034-.238-.053l0-1.363C18.814,110.913,18.893,110.932,18.972,110.947Z" transform="translate(-18.733 -110.895)" fill="#f3a250"/>
                      </g>
                    </g>
                    <g id="Grupo_1211256" data-name="Grupo 1211256" transform="translate(1.878 1.305)">
                      <g id="Grupo_1211255" data-name="Grupo 1211255">
                        <path id="Trazado_1091783" data-name="Trazado 1091783" d="M16.9,110.33l0,1.366c-.08-.029-.161-.059-.239-.09l0-1.365C16.735,110.273,16.815,110.3,16.9,110.33Z" transform="translate(-16.654 -110.241)" fill="#f3a250"/>
                      </g>
                    </g>
                    <g id="Grupo_1211258" data-name="Grupo 1211258" transform="translate(0.94 0.834)">
                      <g id="Grupo_1211257" data-name="Grupo 1211257">
                        <path id="Trazado_1091784" data-name="Trazado 1091784" d="M14.82,109.342v1.363c-.033-.016-.141-.078-.238-.141l0-1.364C14.639,109.236,14.775,109.319,14.82,109.342Z" transform="translate(-14.581 -109.201)" fill="#f3a250"/>
                      </g>
                    </g>
                    <g id="Grupo_1211260" data-name="Grupo 1211260">
                      <g id="Grupo_1211259" data-name="Grupo 1211259">
                        <path id="Trazado_1091785" data-name="Trazado 1091785" d="M12.744,107.632v1.361a2.665,2.665,0,0,1-.238-.276l0-1.36A2.807,2.807,0,0,0,12.744,107.632Z" transform="translate(-12.506 -107.358)" fill="#f3a250"/>
                      </g>
                    </g>
                  </g>
                </g>
              </g>
            </g>
            <g id="Grupo_1211306" data-name="Grupo 1211306" transform="translate(31.985 4.735)">
              <g id="Grupo_1211273" data-name="Grupo 1211273" transform="translate(7.611 23.279)">
                <g id="Grupo_1211265" data-name="Grupo 1211265" transform="translate(8.128 23.435)">
                  <path id="Trazado_1091786" data-name="Trazado 1091786" d="M114.706,117.145h2.578v2.373h-2.578Z" transform="translate(-114.706 -117.145)" fill="#f4d6d4"/>
                </g>
                <g id="Grupo_1211266" data-name="Grupo 1211266" transform="translate(7.192 25.063)">
                  <path id="Trazado_1091787" data-name="Trazado 1091787" d="M116.157,120.74l.086,2.84a1.85,1.85,0,0,1-1.217,1.806l-.02.007a3.26,3.26,0,0,1-1.921.125.63.63,0,0,1-.445-.68,21.9,21.9,0,0,1,.618-3.27.771.771,0,0,1,.249-.385,3.5,3.5,0,0,0,.335-.351.271.271,0,0,1,.2-.091h1.043a.266.266,0,0,1,.242.157.381.381,0,0,0,.651.074Z" transform="translate(-112.637 -120.74)" fill="#e3e7f0"/>
                </g>
                <g id="Grupo_1211267" data-name="Grupo 1211267" transform="translate(3.429 20.141)">
                  <path id="Trazado_1091788" data-name="Trazado 1091788" d="M104.39,110.675l-.064,1.393,1.723.575,1.194-.74-.257-1.229s-2.085-.846-2.116-.8S104.39,110.675,104.39,110.675Z" transform="translate(-104.326 -109.869)" fill="#f4d6d4"/>
                </g>
                <g id="Grupo_1211268" data-name="Grupo 1211268" transform="translate(0 21.39)">
                  <path id="Trazado_1091789" data-name="Trazado 1091789" d="M100.058,112.654s-3.667,3.2-3.277,3.965c.2.393.879.494,1.486.5a3.1,3.1,0,0,0,1.742-.516l2.808-1.914a.952.952,0,0,0,.393-.6.892.892,0,0,0-.017-.38l-.229-.94-.258.075-.365.437a.711.711,0,0,1-.555.255h0a.717.717,0,0,1-.612-.366A.962.962,0,0,0,100.058,112.654Z" transform="translate(-96.752 -112.628)" fill="#e3e7f0"/>
                </g>
                <g id="Grupo_1211269" data-name="Grupo 1211269" transform="translate(1.926)">
                  <path id="Trazado_1091790" data-name="Trazado 1091790" d="M105.378,77.9a18.732,18.732,0,0,1,0,8.393c-.017.235-.775.3-1.543.248-.809-.054-1.628-.237-1.61-.484l-.37-7.611-.846-12.894,2.725-.171.447.149,1.712.573-.632,10.3A5.48,5.48,0,0,0,105.378,77.9Z" transform="translate(-101.006 -65.379)" fill="#4c5c75"/>
                </g>
                <g id="Grupo_1211270" data-name="Grupo 1211270" transform="translate(3.59 0.149)">
                  <path id="Trazado_1091791" data-name="Trazado 1091791" d="M107.39,78.08a18.732,18.732,0,0,1,0,8.393c-.017.235-.775.3-1.543.248l-.316-8.023L104.682,65.8l1.509-.1,1.712.573-.632,10.3A5.48,5.48,0,0,0,107.39,78.08Z" transform="translate(-104.682 -65.709)" fill="#455368"/>
                </g>
                <g id="Grupo_1211271" data-name="Grupo 1211271" transform="translate(5.152)">
                  <path id="Trazado_1091792" data-name="Trazado 1091792" d="M114.122,89.014c0,.381-.879.568-1.742.561-.833,0-1.652-.192-1.652-.561l-.6-9.861-2-12.3,1.456-.658,1.8-.814,2.065,1.2a35.468,35.468,0,0,1,0,11.812,2.719,2.719,0,0,0,.174,1.4C114.338,81.588,114.371,84.729,114.122,89.014Z" transform="translate(-108.132 -65.379)" fill="#4c5c75"/>
                </g>
                <g id="Grupo_1211272" data-name="Grupo 1211272" transform="translate(6.607)">
                  <path id="Trazado_1091793" data-name="Trazado 1091793" d="M115.882,89.014c0,.381-.879.568-1.742.561l-.685-10.422-2.108-12.961,1.8-.814,2.065,1.2a35.468,35.468,0,0,1,0,11.812,2.719,2.719,0,0,0,.174,1.4C116.1,81.588,116.131,84.729,115.882,89.014Z" transform="translate(-111.347 -65.379)" fill="#455368"/>
                </g>
              </g>
              <g id="Grupo_1211289" data-name="Grupo 1211289" transform="translate(0 7.666)">
                <g id="Grupo_1211274" data-name="Grupo 1211274" transform="translate(1.871)">
                  <path id="Trazado_1091794" data-name="Trazado 1091794" d="M93.787,39.762l-7.319,2.275L85.4,41.564l-1.325-.584,6.638-3.722a.41.41,0,0,0,.209-.388c-.5-6.577,2.654-5.964,2.654-5.964l-.3,5.794-.339.062.219.776Z" transform="translate(-84.073 -30.891)" fill="#febc1f"/>
                </g>
                <g id="Grupo_1211275" data-name="Grupo 1211275" transform="translate(3.195 6.647)">
                  <path id="Trazado_1091795" data-name="Trazado 1091795" d="M95.389,47.8l-7.32,2.274L87,49.6l7.76-4.026Z" transform="translate(-86.998 -45.573)" fill="#f9a83d"/>
                </g>
                <g id="Grupo_1211279" data-name="Grupo 1211279" transform="translate(0 6.469)">
                  <g id="Grupo_1211278" data-name="Grupo 1211278">
                    <g id="Grupo_1211277" data-name="Grupo 1211277">
                      <g id="Grupo_1211276" data-name="Grupo 1211276">
                        <path id="Trazado_1091796" data-name="Trazado 1091796" d="M87.895,52.917l-.2.24L82.72,50.739,79.94,45.42l.2-.24L85.115,47.6Z" transform="translate(-79.94 -45.18)" fill="#497bfe"/>
                      </g>
                    </g>
                  </g>
                </g>
                <g id="Grupo_1211287" data-name="Grupo 1211287" transform="translate(0 6.469)">
                  <g id="Grupo_1211286" data-name="Grupo 1211286">
                    <g id="Grupo_1211281" data-name="Grupo 1211281" transform="translate(4.974 2.417)">
                      <g id="Grupo_1211280" data-name="Grupo 1211280">
                        <path id="Trazado_1091797" data-name="Trazado 1091797" d="M90.928,50.759l.2-.239,2.78,5.321-.2.239Z" transform="translate(-90.928 -50.519)" fill="#5094ff"/>
                      </g>
                    </g>
                    <g id="Grupo_1211283" data-name="Grupo 1211283">
                      <g id="Grupo_1211282" data-name="Grupo 1211282">
                        <path id="Trazado_1091798" data-name="Trazado 1091798" d="M79.94,45.42l.2-.239L85.113,47.6l-.2.239Z" transform="translate(-79.94 -45.181)" fill="#57b3fe"/>
                      </g>
                    </g>
                    <g id="Grupo_1211285" data-name="Grupo 1211285" transform="translate(0 0.239)">
                      <g id="Grupo_1211284" data-name="Grupo 1211284">
                        <path id="Trazado_1091799" data-name="Trazado 1091799" d="M84.915,48.127l2.78,5.321L82.72,51.031,79.94,45.71Z" transform="translate(-79.94 -45.71)" fill="#497bfe"/>
                      </g>
                    </g>
                  </g>
                </g>
                <g id="Grupo_1211288" data-name="Grupo 1211288" transform="translate(1.357 9.437)">
                  <path id="Trazado_1091800" data-name="Trazado 1091800" d="M83.108,51.741l.825.21a.866.866,0,0,1,.483.327,2.773,2.773,0,0,1,.371.708.857.857,0,0,1-.676,1.141h0a.136.136,0,0,1-.143-.076l-1.016-2.12A.136.136,0,0,1,83.108,51.741Z" transform="translate(-82.938 -51.736)" fill="#f4d6d4"/>
                </g>
              </g>
              <g id="Grupo_1211291" data-name="Grupo 1211291" transform="translate(9.058 7.615)">
                <g id="Grupo_1211290" data-name="Grupo 1211290">
                  <path id="Trazado_1091801" data-name="Trazado 1091801" d="M110.973,34.409s-3.828-3.52-8.034-3.63a2.753,2.753,0,0,0-2.741,2.052,9.639,9.639,0,0,0-.132,3.732l.246,12.324a.914.914,0,0,0,.446.755,9.479,9.479,0,0,0,8.2.994.908.908,0,0,0,.614-.918,42.38,42.38,0,0,1,.593-8.991Z" transform="translate(-99.949 -30.778)" fill="#ffd06c"/>
                </g>
              </g>
              <g id="Grupo_1211296" data-name="Grupo 1211296" transform="translate(11.371 6.771)">
                <g id="Grupo_1211292" data-name="Grupo 1211292" transform="translate(0 3.718)">
                  <path id="Trazado_1091802" data-name="Trazado 1091802" d="M106.775,38.562c-.406.138-1.064,6.128-.844,9.113l-.593.617-.275-.839a26.808,26.808,0,0,1,1.2-9.083,1.37,1.37,0,0,1-.386-.649l1.11-.594.518,1.11A1.614,1.614,0,0,1,106.775,38.562Z" transform="translate(-105.058 -37.127)" fill="#fff"/>
                </g>
                <g id="Grupo_1211293" data-name="Grupo 1211293" transform="translate(0.581 1.414)">
                  <path id="Trazado_1091803" data-name="Trazado 1091803" d="M106.375,32.97a4.307,4.307,0,0,0,.207,1.966l1.112-.592a10.228,10.228,0,0,1-.688-2.306Z" transform="translate(-106.342 -32.038)" fill="#ef7b56"/>
                </g>
                <g id="Grupo_1211294" data-name="Grupo 1211294" transform="translate(1.023)">
                  <path id="Trazado_1091804" data-name="Trazado 1091804" d="M111.219,30.594l-.213-.994-3.645-.687a7.171,7.171,0,0,0,.867,3.718l2.157.031.81-1.46Z" transform="translate(-107.317 -28.914)" fill="#f5c9c6"/>
                </g>
                <g id="Grupo_1211295" data-name="Grupo 1211295" transform="translate(1.932 1.681)">
                  <path id="Trazado_1091805" data-name="Trazado 1091805" d="M112.318,32.626a1.442,1.442,0,0,1,.35,1.3,1.685,1.685,0,0,1-.747,1.062,5.9,5.9,0,0,1-2.076.79l-.518-1.11C110.868,34.389,111.982,33.8,112.318,32.626Z" transform="translate(-109.326 -32.626)" fill="#ef7b56"/>
                </g>
              </g>
              <g id="Grupo_1211302" data-name="Grupo 1211302" transform="translate(7.112 10.94)">
                <g id="Grupo_1211298" data-name="Grupo 1211298" transform="translate(0 10.672)">
                  <g id="Grupo_1211297" data-name="Grupo 1211297">
                    <path id="Trazado_1091806" data-name="Trazado 1091806" d="M98.68,62.087s-1.406-.647-1.731-.272.78.64.743.651-2.715-.158-1.88,1.575c.8,1.657,3.632-.494,3.632-.494Z" transform="translate(-95.65 -61.698)" fill="#f5c9c6"/>
                  </g>
                </g>
                <g id="Grupo_1211299" data-name="Grupo 1211299" transform="translate(2.795 10.18)">
                  <path id="Trazado_1091807" data-name="Trazado 1091807" d="M103.969,60.611c-1.023.448-1.892.765-1.892.765-.6.364-.065,1.836.833,1.585,0,0,.456-.075,1.059-.192Z" transform="translate(-101.823 -60.611)" fill="#f3f1fc"/>
                </g>
                <g id="Grupo_1211300" data-name="Grupo 1211300" transform="translate(2.927)">
                  <path id="Trazado_1091808" data-name="Trazado 1091808" d="M112.753,40.172s-.6,6.606-2.137,8.2c-1.311,1.357-7.242,2.3-7.242,2.3a1.085,1.085,0,0,1-1.142-.75c-.176-.4-.174-.838.139-1.028,0,0,4.619-1.682,5.611-2.914,1.11-1.377,1.856-6.825,1.856-6.825a1.49,1.49,0,0,1,1.421-1.03,1.448,1.448,0,0,1,.561.111,1.464,1.464,0,0,1,.255.135A1.545,1.545,0,0,1,112.753,40.172Z" transform="translate(-102.115 -38.124)" fill="#f9a83d"/>
                </g>
                <g id="Grupo_1211301" data-name="Grupo 1211301" transform="translate(2.927)">
                  <path id="Trazado_1091809" data-name="Trazado 1091809" d="M111.82,38.235c-.162,1.777-.8,7.716-2.068,9.1-1.115,1.21-6.236,2.322-7.519,2.586-.176-.4-.174-.838.139-1.028,0,0,4.619-1.682,5.611-2.914,1.11-1.377,1.856-6.825,1.856-6.825a1.49,1.49,0,0,1,1.421-1.03A1.448,1.448,0,0,1,111.82,38.235Z" transform="translate(-102.115 -38.124)" fill="#febc1f"/>
                </g>
              </g>
              <g id="Grupo_1211305" data-name="Grupo 1211305" transform="translate(9.742)">
                <g id="Grupo_1211303" data-name="Grupo 1211303" transform="translate(0.969 0.87)">
                  <path id="Trazado_1091810" data-name="Trazado 1091810" d="M103.625,18.3a13.358,13.358,0,0,0,.574,4.691,2.044,2.044,0,0,0,2.336,1.425,8.431,8.431,0,0,0,2.067-.748,1.494,1.494,0,0,0,.788-.976l.695-2.776-1.934-4.033Z" transform="translate(-103.6 -15.88)" fill="#f4d6d4"/>
                </g>
                <g id="Grupo_1211304" data-name="Grupo 1211304">
                  <path id="Trazado_1091811" data-name="Trazado 1091811" d="M101.488,16.506c.214,1.187,1.139,1.472,2.533,1.163a2.14,2.14,0,0,1,2.365.642l-.16-.958a.077.077,0,0,1,.113-.079c.694.356.766,1.059.375,2.224a.1.1,0,0,0,.094.128l.187-.005a.1.1,0,0,0,.081-.049l.382-.662a.586.586,0,0,1,.441-.289.6.6,0,0,1,.616.833l-.527,1.155a.172.172,0,0,0-.01.1,2.623,2.623,0,0,1-.065,1.509c-.013.041-.026.077-.042.119a7.945,7.945,0,0,0,.933-1.449,5.632,5.632,0,0,0,.6-3.356v-.039a3.633,3.633,0,0,0-3.988-3.513c-.086.01-.172.021-.262.036a6.193,6.193,0,0,0-1.167.283c-.173.059-.344.125-.512.2a4.272,4.272,0,0,0-1.809,1.136A1.046,1.046,0,0,0,101.488,16.506Z" transform="translate(-101.46 -13.958)" fill="#4c5c75"/>
                </g>
              </g>
            </g>
          </g>
          <g id="Grupo_1211309" data-name="Grupo 1211309" transform="translate(23.174 15.156)">
            <g id="Grupo_1211308" data-name="Grupo 1211308">
              <path id="Trazado_1091812" data-name="Trazado 1091812" d="M61.268,39.87l-.79-.459,5.714-2.434.79.459Z" transform="translate(-60.478 -36.977)" fill="#c9cee2"/>
            </g>
          </g>
          <g id="Grupo_1211311" data-name="Grupo 1211311" transform="translate(23.174 17.59)">
            <g id="Grupo_1211310" data-name="Grupo 1211310">
              <path id="Trazado_1091813" data-name="Trazado 1091813" d="M62.74,44.583l-.79-.459-1.472-1.771.79.459Z" transform="translate(-60.478 -42.354)" fill="#b0b8cf"/>
            </g>
          </g>
          <g id="Grupo_1211313" data-name="Grupo 1211313" transform="translate(11.804 19.361)">
            <g id="Grupo_1211312" data-name="Grupo 1211312">
              <path id="Trazado_1091814" data-name="Trazado 1091814" d="M36.153,63.648l-.79-.459L48.205,46.265l.79.459Z" transform="translate(-35.363 -46.265)" fill="#c9cee2"/>
            </g>
          </g>
          <g id="Grupo_1211315" data-name="Grupo 1211315" transform="translate(11.804 36.285)">
            <g id="Grupo_1211314" data-name="Grupo 1211314">
              <path id="Trazado_1091815" data-name="Trazado 1091815" d="M37.2,85.366l-.79-.459-1.042-1.258.79.459Z" transform="translate(-35.363 -83.648)" fill="#b0b8cf"/>
            </g>
          </g>
          <path id="Trazado_1091816" data-name="Trazado 1091816" d="M50.993,43.454,38.151,60.379,37.108,59.12,49.95,42.2l-1.472-1.771,5.714-2.434L52.5,45.27" transform="translate(-24.515 -22.377)" fill="#e3e7f0"/>
        </g>
      </g>
    </g>
  </g>
</svg>
