<svg xmlns="http://www.w3.org/2000/svg" xmlns:xlink="http://www.w3.org/1999/xlink" width="101.928" height="101.928" viewBox="0 0 101.928 101.928">
  <defs>
    <linearGradient id="linear-gradient" x1="0.772" y1="0.982" x2="0.213" y2="0.168" gradientUnits="objectBoundingBox">
      <stop offset="0" stop-color="#ffdfcf"/>
      <stop offset="1" stop-color="#ffa78f"/>
    </linearGradient>
    <linearGradient id="linear-gradient-2" x1="0.487" y1="0.5" x2="0.076" y2="0.5" gradientUnits="objectBoundingBox">
      <stop offset="0" stop-color="#f89580" stop-opacity="0"/>
      <stop offset="0.997" stop-color="#c5715a"/>
    </linearGradient>
    <linearGradient id="linear-gradient-3" x1="0.759" y1="0.761" x2="-0.203" y2="-0.266" xlink:href="#linear-gradient"/>
    <linearGradient id="linear-gradient-4" x1="0.54" y1="0.573" x2="0.037" y2="0.268" gradientUnits="objectBoundingBox">
      <stop offset="0" stop-color="#f89580" stop-opacity="0"/>
      <stop offset="0.26" stop-color="#f2917c" stop-opacity="0.263"/>
      <stop offset="0.595" stop-color="#e2856f" stop-opacity="0.596"/>
      <stop offset="0.971" stop-color="#c8725b" stop-opacity="0.973"/>
      <stop offset="0.997" stop-color="#c5715a"/>
    </linearGradient>
    <linearGradient id="linear-gradient-5" x1="0.25" y1="0.508" x2="0.66" y2="0.495" gradientUnits="objectBoundingBox">
      <stop offset="0" stop-color="#f89580" stop-opacity="0"/>
      <stop offset="0.382" stop-color="#e88974" stop-opacity="0.384"/>
      <stop offset="0.997" stop-color="#c5715a"/>
    </linearGradient>
    <linearGradient id="linear-gradient-6" x1="0.393" y1="0.49" x2="-0.083" y2="0.448" gradientUnits="objectBoundingBox">
      <stop offset="0" stop-color="#eaf9fa"/>
      <stop offset="1" stop-color="#a8d3d8"/>
    </linearGradient>
    <linearGradient id="linear-gradient-7" x1="0.5" y1="0.577" x2="0.5" y2="-0.086" gradientUnits="objectBoundingBox">
      <stop offset="0" stop-color="#7ca1b1" stop-opacity="0"/>
      <stop offset="1" stop-color="#7ca1b1"/>
    </linearGradient>
    <linearGradient id="linear-gradient-8" x1="0.603" y1="1.063" x2="0.399" y2="-0.051" xlink:href="#linear-gradient"/>
    <linearGradient id="linear-gradient-9" x1="-7.647" y1="10.565" x2="-8.176" y2="10.565" xlink:href="#linear-gradient"/>
    <linearGradient id="linear-gradient-10" x1="-6.291" y1="8.54" x2="-6.791" y2="8.54" xlink:href="#linear-gradient"/>
    <linearGradient id="linear-gradient-11" x1="-6.707" y1="9.627" x2="-7.207" y2="9.627" xlink:href="#linear-gradient"/>
    <linearGradient id="linear-gradient-12" x1="0.928" y1="0.61" x2="0.139" y2="0.407" gradientUnits="objectBoundingBox">
      <stop offset="0" stop-color="#ccdd63"/>
      <stop offset="1" stop-color="#8d9a44"/>
    </linearGradient>
    <linearGradient id="linear-gradient-13" x1="0.097" y1="0.432" x2="0.795" y2="0.871" gradientUnits="objectBoundingBox">
      <stop offset="0" stop-color="#017bae" stop-opacity="0"/>
      <stop offset="1" stop-color="#656e31"/>
    </linearGradient>
    <linearGradient id="linear-gradient-14" x1="0.5" y1="0.577" x2="0.5" y2="-0.086" xlink:href="#linear-gradient-13"/>
    <linearGradient id="linear-gradient-15" x1="0.765" y1="0.765" x2="0.16" y2="0.16" gradientUnits="objectBoundingBox">
      <stop offset="0" stop-color="#fee45a"/>
      <stop offset="1" stop-color="#fea613"/>
    </linearGradient>
    <linearGradient id="linear-gradient-16" x1="0.5" y1="0.041" x2="0.5" y2="0.99" xlink:href="#linear-gradient-15"/>
  </defs>
  <g id="Grupo_1211649" data-name="Grupo 1211649" transform="translate(-860.051 -2785)">
    <g id="Grupo_1099470" data-name="Grupo 1099470" transform="translate(860.051 2785)">
      <g id="Grupo_1098742" data-name="Grupo 1098742" transform="translate(0 0)">
        <g id="Rect치ngulo_400898" data-name="Rect치ngulo 400898" fill="#fff" stroke="#fff" stroke-width="3" opacity="0.859">
          <rect width="101.928" height="101.928" rx="50.964" stroke="none"/>
          <rect x="1.5" y="1.5" width="98.928" height="98.928" rx="49.464" fill="none"/>
        </g>
        <g id="Rect치ngulo_400907" data-name="Rect치ngulo 400907" transform="translate(0)" fill="none" stroke="#fff" stroke-width="3">
          <rect width="101.928" height="101.928" rx="50.964" stroke="none"/>
          <rect x="1.5" y="1.5" width="98.928" height="98.928" rx="49.464" fill="none"/>
        </g>
      </g>
    </g>
    <g id="pro" transform="translate(879.051 2805)">
      <g id="Grupo_1210276" data-name="Grupo 1210276" transform="translate(12.441 1.76)">
        <path id="Trazado_1083789" data-name="Trazado 1083789" d="M144.273,222.7a12.568,12.568,0,0,0,7.563-2.516h12.127v-28.9h-6.51a6.431,6.431,0,0,1-4.637-2.006,14.624,14.624,0,0,0-10.59-4.52H129.352V222.7Z" transform="translate(-129.352 -184.766)" fill="url(#linear-gradient)"/>
        <path id="Trazado_1083790" data-name="Trazado 1083790" d="M129.352,184.772h12.874a14.62,14.62,0,0,1,10.626,4.559,6.353,6.353,0,0,0,4.6,1.967h6.511v28.9H151.836a12.568,12.568,0,0,1-7.562,2.514H129.353Z" transform="translate(-129.352 -184.772)" fill="url(#linear-gradient-2)"/>
      </g>
      <path id="Trazado_1083791" data-name="Trazado 1083791" d="M196.947,21.776a19.692,19.692,0,0,0-10.41,17.367v2.791a6.469,6.469,0,0,0,6.469,6.469,3.94,3.94,0,0,0,3.941-3.94l.289-2.734a13.375,13.375,0,0,1,8-10.954,17.975,17.975,0,0,0,10.975-16.558V8.661a4.578,4.578,0,0,0-4.6-4.582h-.153a15.007,15.007,0,0,0-14.513,17.7v0Z" transform="translate(-176.229 13.629)" fill="url(#linear-gradient-3)"/>
      <path id="Trazado_1083792" data-name="Trazado 1083792" d="M186.534,234.524a15.048,15.048,0,0,1,14.755-15.033l.153,0a4.58,4.58,0,0,1,4.6,4.584v5.576a17.923,17.923,0,0,1-1.664,7.538h-17.6A14.848,14.848,0,0,1,186.534,234.524Z" transform="translate(-166.057 -201.781)" fill="url(#linear-gradient-4)"/>
      <path id="Trazado_1083793" data-name="Trazado 1083793" d="M129.353,234.19h12.131v-28.9h-9.86a14.4,14.4,0,0,1-2.271-.181V234.19Z" transform="translate(-94.431 -197.007)" fill="url(#linear-gradient-5)"/>
      <g id="Grupo_1210277" data-name="Grupo 1210277" transform="translate(41.024 7.313)">
        <path id="Trazado_1083794" data-name="Trazado 1083794" d="M56.135,196.368h9.059a3.208,3.208,0,0,1,3.208,3.208V224.11a3.208,3.208,0,0,1-3.208,3.208H56.135a3.208,3.208,0,0,1-3.208-3.208V199.576A3.208,3.208,0,0,1,56.135,196.368Z" transform="translate(-52.927 -196.368)" fill="url(#linear-gradient-6)"/>
        <path id="Trazado_1083795" data-name="Trazado 1083795" d="M68.4,351.755V341.564a3.208,3.208,0,0,0-3.208-3.208H56.136a3.208,3.208,0,0,0-3.208,3.208v10.191Z" transform="translate(-52.928 -338.356)" fill="url(#linear-gradient-7)"/>
      </g>
      <g id="Grupo_1210279" data-name="Grupo 1210279" transform="translate(0 0)">
        <path id="Trazado_1083796" data-name="Trazado 1083796" d="M330.432,429.257a5.057,5.057,0,0,0,5.056,4.957H344.6a5.057,5.057,0,1,0,0-10.114h-9.016A5.136,5.136,0,0,0,330.432,429.257Z" transform="translate(-327.464 -424.1)" fill="url(#linear-gradient-8)"/>
        <g id="Grupo_1210278" data-name="Grupo 1210278" transform="translate(1.243 10.113)">
          <path id="Trazado_1083797" data-name="Trazado 1083797" d="M335.588,342.286h10.74a5.057,5.057,0,1,1,0,10.114h-10.84a5.057,5.057,0,0,1-5.056-4.957,5.137,5.137,0,0,1,5.156-5.157Z" transform="translate(-330.431 -342.286)" fill="url(#linear-gradient-9)"/>
        </g>
        <path id="Trazado_1083798" data-name="Trazado 1083798" d="M328.464,178.65h11.983a5.057,5.057,0,1,1,0,10.114H328.364a5.057,5.057,0,0,1-5.056-4.957,5.136,5.136,0,0,1,5.156-5.157Z" transform="translate(-322.427 -148.31)" fill="url(#linear-gradient-10)"/>
        <path id="Trazado_1083799" data-name="Trazado 1083799" d="M335.587,260.465H347.57a5.057,5.057,0,1,1,0,10.114H335.487a5.057,5.057,0,0,1-5.056-4.957A5.136,5.136,0,0,1,335.587,260.465Z" transform="translate(-330.43 -240.238)" fill="url(#linear-gradient-11)"/>
      </g>
      <g id="Grupo_1210280" data-name="Grupo 1210280" transform="translate(45.805 5.552)">
        <path id="Trazado_1083800" data-name="Trazado 1083800" d="M3.573,182.118h10.09a3.573,3.573,0,0,1,3.573,3.573v27.327a3.573,3.573,0,0,1-3.573,3.573H3.573A3.573,3.573,0,0,1,0,213.018V185.692A3.574,3.574,0,0,1,3.573,182.118Z" transform="translate(0 -182.118)" fill="url(#linear-gradient-12)"/>
        <path id="Trazado_1083801" data-name="Trazado 1083801" d="M40.573,237.612l5.015,5.015,7.206-7.206L40.573,223.2Z" transform="translate(-40.573 -213.232)" fill="url(#linear-gradient-13)"/>
        <path id="Trazado_1083802" data-name="Trazado 1083802" d="M17.237,355.193V343.841a3.573,3.573,0,0,0-3.573-3.573H3.573A3.573,3.573,0,0,0,0,343.841v11.351Z" transform="translate(0 -340.268)" fill="url(#linear-gradient-14)"/>
      </g>
      <ellipse id="Elipse_11526" data-name="Elipse 11526" cx="5.096" cy="5.095" rx="5.096" ry="5.095" transform="translate(49.328 26.249)" fill="url(#linear-gradient-15)"/>
      <path id="Trazado_1083803" data-name="Trazado 1083803" d="M48.538,241.3h2.057a1.815,1.815,0,1,0,0-3.629H48.538a1.815,1.815,0,1,0,0,3.629Z" transform="translate(4.858 -208.139)" fill="url(#linear-gradient-16)"/>
    </g>
  </g>
</svg>
