<svg xmlns="http://www.w3.org/2000/svg" width="64.676" height="48.931" viewBox="0 0 64.676 48.931">
  <g id="Grupo_1211651" data-name="Grupo 1211651" transform="translate(-1078.051 -4843.004)">
    <path id="ventaja-competitiva" d="M62.225,162.394l9.013-10.618a1.7,1.7,0,0,0-1.293-2.8H66.79V129.336a2.358,2.358,0,0,0-2.355-2.351H57.424a2.358,2.358,0,0,0-2.355,2.351V148.98H51.917a1.7,1.7,0,0,0-1.29,2.8l9.009,10.614a1.7,1.7,0,0,0,2.584.007l0-.006Zm-9.468-11.328h3.354a1.043,1.043,0,0,0,1.043-1.043V129.336a.267.267,0,0,1,.269-.264h7.011a.267.267,0,0,1,.269.264v20.686a1.043,1.043,0,0,0,1.043,1.043H69.1l-8.174,9.629Zm-33.777,4.585L28,145.036l.006-.007a1.667,1.667,0,0,0,.244-1.8l0-.006a1.68,1.68,0,0,0-1.541-.985H23.546v-12.9a2.353,2.353,0,0,0-2.351-2.351H14.18a2.354,2.354,0,0,0-2.351,2.351v12.9H8.673a1.68,1.68,0,0,0-1.541.985l0,.006a1.668,1.668,0,0,0,.244,1.8l.006.007,9.014,10.615,0,.005a1.7,1.7,0,0,0,2.578,0ZM9.51,144.322h3.362a1.043,1.043,0,0,0,1.043-1.043V129.336a.265.265,0,0,1,.264-.264H21.2a.265.265,0,0,1,.264.264v13.943a1.043,1.043,0,0,0,1.043,1.043h3.362l-8.177,9.629Zm31.1,30.989h0q4.5-5.3,9-10.6a1.662,1.662,0,0,0,.254-1.812l0-.006a1.662,1.662,0,0,0-1.541-.981H45.166V129.336a2.354,2.354,0,0,0-2.351-2.351H35.8a2.358,2.358,0,0,0-2.355,2.351v32.571H30.293A1.7,1.7,0,0,0,29,164.7q4.506,5.3,9.011,10.611a1.7,1.7,0,0,0,2.6,0Zm-9.473-11.317h3.358a1.043,1.043,0,0,0,1.043-1.043V129.336a.267.267,0,0,1,.269-.264h7.011a.265.265,0,0,1,.264.264v33.614a1.043,1.043,0,0,0,1.043,1.043h3.358q-4.087,4.811-8.173,9.625-4.087-4.811-8.173-9.625Z" transform="translate(1071.081 4716.018)" fill="#a67f0a" fill-rule="evenodd"/>
  </g>
</svg>
