<svg xmlns="http://www.w3.org/2000/svg" xmlns:xlink="http://www.w3.org/1999/xlink" width="89" height="89" viewBox="0 0 89 89">
  <defs>
    <linearGradient id="linear-gradient" x1="0.379" y1="0.228" x2="0.534" y2="0.973" gradientUnits="objectBoundingBox">
      <stop offset="0" stop-color="#eaf6ff"/>
      <stop offset="1" stop-color="#b3dafe"/>
    </linearGradient>
    <linearGradient id="linear-gradient-2" x1="0.605" y1="0.5" x2="0.018" y2="0.5" gradientUnits="objectBoundingBox">
      <stop offset="0" stop-color="#d8ecfe" stop-opacity="0"/>
      <stop offset="1" stop-color="#678d98"/>
    </linearGradient>
    <linearGradient id="linear-gradient-3" x1="0.484" y1="0.564" x2="0.333" y2="0.017" xlink:href="#linear-gradient-2"/>
    <linearGradient id="linear-gradient-4" x1="0.5" y1="0.269" x2="0.5" y2="1.341" xlink:href="#linear-gradient-2"/>
    <linearGradient id="linear-gradient-5" x1="0.5" y1="0.211" x2="0.5" y2="0.928" gradientUnits="objectBoundingBox">
      <stop offset="0" stop-color="#ffdfcf"/>
      <stop offset="1" stop-color="#ffa78f"/>
    </linearGradient>
    <linearGradient id="linear-gradient-6" x1="0.5" y1="0.882" x2="0.5" y2="0.525" gradientUnits="objectBoundingBox">
      <stop offset="0" stop-color="#f89580" stop-opacity="0"/>
      <stop offset="0.997" stop-color="#c5715a"/>
    </linearGradient>
    <linearGradient id="linear-gradient-7" x1="0.396" y1="0.383" x2="0.724" y2="0.901" xlink:href="#linear-gradient"/>
    <linearGradient id="linear-gradient-8" x1="0.503" y1="0.421" x2="0.887" y2="0.706" xlink:href="#linear-gradient"/>
    <linearGradient id="linear-gradient-10" x1="0.294" y1="0.279" x2="1.099" y2="0.69" xlink:href="#linear-gradient-5"/>
    <linearGradient id="linear-gradient-11" x1="-0.312" y1="0.201" x2="0.814" y2="0.776" xlink:href="#linear-gradient-5"/>
    <linearGradient id="linear-gradient-12" x1="0.164" y1="0.32" x2="0.831" y2="0.677" xlink:href="#linear-gradient-5"/>
    <linearGradient id="linear-gradient-13" x1="0.5" y1="0.387" x2="0.5" y2="1.127" xlink:href="#linear-gradient-6"/>
    <linearGradient id="linear-gradient-14" x1="0.174" y1="0.309" x2="0.868" y2="0.716" gradientUnits="objectBoundingBox">
      <stop offset="0" stop-color="#465a61"/>
      <stop offset="1" stop-color="#444"/>
    </linearGradient>
    <linearGradient id="linear-gradient-15" x1="0.14" y1="0.285" x2="0.757" y2="0.653" xlink:href="#linear-gradient-14"/>
    <linearGradient id="linear-gradient-16" x1="0.939" y1="-10.41" x2="1.692" y2="-9.613" gradientUnits="objectBoundingBox">
      <stop offset="0" stop-color="#fee45a"/>
      <stop offset="1" stop-color="#fea613"/>
    </linearGradient>
    <linearGradient id="linear-gradient-17" x1="1.212" y1="-11.909" x2="1.453" y2="-10.154" gradientUnits="objectBoundingBox">
      <stop offset="0" stop-color="#fea613" stop-opacity="0"/>
      <stop offset="1" stop-color="#e94444"/>
    </linearGradient>
    <linearGradient id="linear-gradient-18" x1="1.309" y1="-16.176" x2="1.512" y2="-14.859" xlink:href="#linear-gradient-17"/>
    <linearGradient id="linear-gradient-19" x1="1.384" y1="-25.153" x2="1.845" y2="-22.905" xlink:href="#linear-gradient-17"/>
    <linearGradient id="linear-gradient-20" x1="1.482" y1="-10.36" x2="1.133" y2="-10.325" xlink:href="#linear-gradient-17"/>
    <linearGradient id="linear-gradient-21" x1="1.318" y1="-8.792" x2="1.392" y2="-8.792" gradientUnits="objectBoundingBox">
      <stop offset="0" stop-color="#f2f2f2"/>
      <stop offset="1" stop-color="#fff5c6"/>
    </linearGradient>
    <linearGradient id="linear-gradient-22" x1="0.233" y1="0.5" x2="0.752" y2="0.5" gradientUnits="objectBoundingBox">
      <stop offset="0" stop-color="#a2e62e"/>
      <stop offset="1" stop-color="#02905d"/>
    </linearGradient>
    <linearGradient id="linear-gradient-23" x1="0.615" y1="0.357" x2="0.839" y2="-0.581" gradientUnits="objectBoundingBox">
      <stop offset="0" stop-color="#017b4e" stop-opacity="0"/>
      <stop offset="0.544" stop-color="#017348" stop-opacity="0.545"/>
      <stop offset="1" stop-color="#026841"/>
    </linearGradient>
    <linearGradient id="linear-gradient-24" x1="0.513" y1="0.791" x2="0.864" y2="-0.974" xlink:href="#linear-gradient-23"/>
    <linearGradient id="linear-gradient-25" x1="0.4" y1="0.5" x2="0.775" y2="0.5" gradientUnits="objectBoundingBox">
      <stop offset="0" stop-color="#fd4755"/>
      <stop offset="1" stop-color="#a72b2b"/>
    </linearGradient>
    <linearGradient id="linear-gradient-26" x1="0.5" y1="0.224" x2="0.5" y2="0.805" gradientUnits="objectBoundingBox">
      <stop offset="0" stop-color="#a72b2b" stop-opacity="0"/>
      <stop offset="1" stop-color="#42210b"/>
    </linearGradient>
    <linearGradient id="linear-gradient-27" x1="0.5" y1="0.397" x2="0.5" y2="0.906" xlink:href="#linear-gradient-22"/>
    <linearGradient id="linear-gradient-28" x1="-0.133" y1="0.5" x2="1.489" y2="0.5" gradientUnits="objectBoundingBox">
      <stop offset="0" stop-color="#fec165"/>
      <stop offset="1" stop-color="#c86d36"/>
    </linearGradient>
    <linearGradient id="linear-gradient-29" x1="-0.267" y1="0.5" x2="1.305" y2="0.5" xlink:href="#linear-gradient-28"/>
    <linearGradient id="linear-gradient-30" x1="0.5" y1="0.479" x2="0.5" y2="0.928" gradientUnits="objectBoundingBox">
      <stop offset="0" stop-color="#9e5528" stop-opacity="0"/>
      <stop offset="1" stop-color="#9e5528"/>
    </linearGradient>
    <linearGradient id="linear-gradient-32" x1="0.474" y1="-0.157" x2="0.522" y2="1.193" xlink:href="#linear-gradient-28"/>
    <linearGradient id="linear-gradient-33" y1="0.245" y2="1.046" xlink:href="#linear-gradient-30"/>
    <linearGradient id="linear-gradient-34" x1="1.257" y1="0.841" x2="0.193" y2="0.129" xlink:href="#linear-gradient-30"/>
    <linearGradient id="linear-gradient-35" x1="0.77" y1="1.075" x2="-0.163" y2="-0.228" xlink:href="#linear-gradient-30"/>
    <linearGradient id="linear-gradient-36" x1="0.345" y1="0.345" x2="0.855" y2="0.855" xlink:href="#linear-gradient-16"/>
  </defs>
  <g id="Grupo_1211646" data-name="Grupo 1211646" transform="translate(3142 9423.194)">
    <g id="Grupo_1099471" data-name="Grupo 1099471" transform="translate(-4393.333 -9836.194)">
      <g id="Grupo_1098742" data-name="Grupo 1098742" transform="translate(1251.333 413)">
        <g id="Trazado_875734" data-name="Trazado 875734" fill="#4e8f7d" opacity="0.859">
          <path d="M 44.49999237060547 87.49999237060547 C 38.69436645507812 87.49999237060547 33.06320571899414 86.36328887939453 27.76291656494141 84.12145233154297 C 22.64269256591797 81.95578002929688 18.04394149780273 78.8551025390625 14.09440517425537 74.90557861328125 C 10.1448802947998 70.9560546875 7.044217586517334 66.35730743408203 4.878542423248291 61.23706817626953 C 2.636704921722412 55.9367790222168 1.500004887580872 50.30561828613281 1.500004887580872 44.49999237060547 C 1.500004887580872 38.69436645507812 2.636704921722412 33.06320571899414 4.878542423248291 27.76291656494141 C 7.044217586517334 22.64269256591797 10.1448802947998 18.04394149780273 14.09440517425537 14.09440517425537 C 18.04394149780273 10.1448802947998 22.64269256591797 7.044217586517334 27.76291656494141 4.878542423248291 C 33.06320571899414 2.636704921722412 38.69436645507812 1.500004887580872 44.49999237060547 1.500004887580872 C 50.30561828613281 1.500004887580872 55.9367790222168 2.636704921722412 61.23706817626953 4.878542423248291 C 66.35730743408203 7.044217586517334 70.9560546875 10.1448802947998 74.90557861328125 14.09440517425537 C 78.8551025390625 18.04394149780273 81.95578002929688 22.64269256591797 84.12145233154297 27.76291656494141 C 86.36328887939453 33.06320571899414 87.49999237060547 38.69436645507812 87.49999237060547 44.49999237060547 C 87.49999237060547 50.30561828613281 86.36328887939453 55.9367790222168 84.12145233154297 61.23706817626953 C 81.95578002929688 66.35730743408203 78.8551025390625 70.9560546875 74.90557861328125 74.90557861328125 C 70.9560546875 78.8551025390625 66.35730743408203 81.95578002929688 61.23706817626953 84.12145233154297 C 55.9367790222168 86.36328887939453 50.30561828613281 87.49999237060547 44.49999237060547 87.49999237060547 Z" stroke="none"/>
          <path d="M 44.49999237060547 2.999992370605469 C 38.89620590209961 2.999992370605469 33.46163558959961 4.096832275390625 28.34723663330078 6.260032653808594 C 23.40580749511719 8.350090026855469 18.96732330322266 11.34280395507812 15.15506744384766 15.15506744384766 C 11.34280395507812 18.96732330322266 8.350090026855469 23.40580749511719 6.260032653808594 28.34723663330078 C 4.096832275390625 33.46163558959961 2.999992370605469 38.89620590209961 2.999992370605469 44.49999237060547 C 2.999992370605469 50.10377883911133 4.096832275390625 55.53834915161133 6.260032653808594 60.65273284912109 C 8.350090026855469 65.59417724609375 11.34280395507812 70.03266143798828 15.15506744384766 73.84492492675781 C 18.96732330322266 77.65716552734375 23.40580749511719 80.64989471435547 28.34723663330078 82.73993682861328 C 33.46163558959961 84.90313720703125 38.89620590209961 85.99997711181641 44.49999237060547 85.99997711181641 C 50.10377883911133 85.99997711181641 55.53834915161133 84.90313720703125 60.65274810791016 82.73993682861328 C 65.59417724609375 80.64989471435547 70.03266143798828 77.65716552734375 73.84492492675781 73.84492492675781 C 77.65716552734375 70.03266143798828 80.64989471435547 65.59417724609375 82.73993682861328 60.65274810791016 C 84.90313720703125 55.53834915161133 85.99997711181641 50.10377883911133 85.99997711181641 44.49999237060547 C 85.99997711181641 38.89620590209961 84.90313720703125 33.46163558959961 82.73993682861328 28.34723663330078 C 80.64989471435547 23.40580749511719 77.65716552734375 18.96732330322266 73.84492492675781 15.15506744384766 C 70.03266143798828 11.34280395507812 65.59417724609375 8.350090026855469 60.65273284912109 6.260032653808594 C 55.53834915161133 4.096832275390625 50.10377883911133 2.999992370605469 44.49999237060547 2.999992370605469 M 44.49999237060547 -7.62939453125e-06 C 69.07666015625 -7.62939453125e-06 88.99997711181641 19.92332458496094 88.99997711181641 44.49999237060547 C 88.99997711181641 69.07666015625 69.07666015625 88.99997711181641 44.49999237060547 88.99997711181641 C 19.92332458496094 88.99997711181641 -7.62939453125e-06 69.07666015625 -7.62939453125e-06 44.49999237060547 C -7.62939453125e-06 19.92332458496094 19.92332458496094 -7.62939453125e-06 44.49999237060547 -7.62939453125e-06 Z" stroke="none" fill="#fff"/>
        </g>
        <g id="Trazado_875735" data-name="Trazado 875735" transform="translate(0)" fill="none">
          <path d="M44.5,0A44.5,44.5,0,1,1,0,44.5,44.5,44.5,0,0,1,44.5,0Z" stroke="none"/>
          <path d="M 44.49999237060547 2.999992370605469 C 38.89620590209961 2.999992370605469 33.46163558959961 4.096832275390625 28.34723663330078 6.260032653808594 C 23.40580749511719 8.350090026855469 18.96732330322266 11.34280395507812 15.15506744384766 15.15506744384766 C 11.34280395507812 18.96732330322266 8.350090026855469 23.40580749511719 6.260032653808594 28.34723663330078 C 4.096832275390625 33.46163558959961 2.999992370605469 38.89620590209961 2.999992370605469 44.49999237060547 C 2.999992370605469 50.10377883911133 4.096832275390625 55.53834915161133 6.260032653808594 60.65273284912109 C 8.350090026855469 65.59417724609375 11.34280395507812 70.03266143798828 15.15506744384766 73.84492492675781 C 18.96732330322266 77.65716552734375 23.40580749511719 80.64989471435547 28.34723663330078 82.73993682861328 C 33.46163558959961 84.90313720703125 38.89620590209961 85.99997711181641 44.49999237060547 85.99997711181641 C 50.10377883911133 85.99997711181641 55.53834915161133 84.90313720703125 60.65274810791016 82.73993682861328 C 65.59417724609375 80.64989471435547 70.03266143798828 77.65716552734375 73.84492492675781 73.84492492675781 C 77.65716552734375 70.03266143798828 80.64989471435547 65.59417724609375 82.73993682861328 60.65274810791016 C 84.90313720703125 55.53834915161133 85.99997711181641 50.10377883911133 85.99997711181641 44.49999237060547 C 85.99997711181641 38.89620590209961 84.90313720703125 33.46163558959961 82.73993682861328 28.34723663330078 C 80.64989471435547 23.40580749511719 77.65716552734375 18.96732330322266 73.84492492675781 15.15506744384766 C 70.03266143798828 11.34280395507812 65.59417724609375 8.350090026855469 60.65273284912109 6.260032653808594 C 55.53834915161133 4.096832275390625 50.10377883911133 2.999992370605469 44.49999237060547 2.999992370605469 M 44.49999237060547 -7.62939453125e-06 C 69.07666015625 -7.62939453125e-06 88.99997711181641 19.92332458496094 88.99997711181641 44.49999237060547 C 88.99997711181641 69.07666015625 69.07666015625 88.99997711181641 44.49999237060547 88.99997711181641 C 19.92332458496094 88.99997711181641 -7.62939453125e-06 69.07666015625 -7.62939453125e-06 44.49999237060547 C -7.62939453125e-06 19.92332458496094 19.92332458496094 -7.62939453125e-06 44.49999237060547 -7.62939453125e-06 Z" stroke="none" fill="#dbe8e4"/>
        </g>
      </g>
    </g>
    <g id="boy_5288656" transform="translate(-3164.434 -9401.838)">
      <g id="Grupo_1210219" data-name="Grupo 1210219" transform="translate(48.434 27.206)">
        <path id="Trazado_1081810" data-name="Trazado 1081810" d="M83.939,350.928l-17.019-.179-17.019.179a1.467,1.467,0,0,1-1.467-1.467A14.168,14.168,0,0,1,62.6,335.293h8.635a14.168,14.168,0,0,1,14.168,14.168,1.467,1.467,0,0,1-1.467,1.467Z" transform="translate(-48.434 -332.493)" fill="url(#linear-gradient)"/>
        <path id="Trazado_1081811" data-name="Trazado 1081811" d="M130,337.067v13.8l11.187-.118h.03V335.293h-4.348A14.1,14.1,0,0,0,130,337.067Z" transform="translate(-122.701 -332.493)" fill="url(#linear-gradient-2)"/>
        <path id="Trazado_1081812" data-name="Trazado 1081812" d="M209.222,335.293h-8.635c-.2,0-.4.005-.606.014v8.109l7.366,7.366,14.577.146a1.467,1.467,0,0,0,1.467-1.467A14.168,14.168,0,0,0,209.222,335.293Z" transform="translate(-186.419 -332.493)" fill="url(#linear-gradient-3)"/>
        <path id="Trazado_1081813" data-name="Trazado 1081813" d="M48.434,460.4A1.467,1.467,0,0,0,49.9,461.87l17.019-.179,17.019.179a1.467,1.467,0,0,0,1.467-1.467,14.206,14.206,0,0,0-.378-3.264H48.812A14.206,14.206,0,0,0,48.434,460.4Z" transform="translate(-48.434 -443.435)" fill="url(#linear-gradient-4)"/>
        <g id="Grupo_1210217" data-name="Grupo 1210217" transform="translate(14.325)">
          <circle id="Elipse_11517" data-name="Elipse 11517" cx="4.161" cy="4.161" r="4.161" fill="url(#linear-gradient-5)"/>
        </g>
        <circle id="Elipse_11518" data-name="Elipse 11518" cx="4.161" cy="4.161" r="4.161" transform="translate(14.325)" fill="url(#linear-gradient-6)"/>
        <g id="Grupo_1210218" data-name="Grupo 1210218" transform="translate(10.245 0.804)">
          <path id="Trazado_1081814" data-name="Trazado 1081814" d="M171.156,320.505l-6.566-7.518-.4.136a1.889,1.889,0,0,0-1.137,2.5l2.938,7.167a.788.788,0,0,0,1.164.358Z" transform="translate(-162.915 -312.987)" fill="url(#linear-gradient-7)"/>
          <path id="Trazado_1081815" data-name="Trazado 1081815" d="M255,320.505l6.566-7.518.4.136a1.889,1.889,0,0,1,1.137,2.5l-2.938,7.167a.788.788,0,0,1-1.164.358Z" transform="translate(-246.761 -312.987)" fill="url(#linear-gradient-8)"/>
        </g>
      </g>
      <path id="Trazado_1081816" data-name="Trazado 1081816" d="M386.667,359.04V372.5l5.236.052a1.467,1.467,0,0,0,1.467-1.467A14.158,14.158,0,0,0,386.667,359.04Z" transform="translate(-307.964 -326.909)" fill="url(#linear-gradient-2)"/>
      <g id="Grupo_1210225" data-name="Grupo 1210225" transform="translate(53.617 5.38)">
        <g id="Grupo_1210220" data-name="Grupo 1210220" transform="translate(0 9.592)">
          <path id="Trazado_1081817" data-name="Trazado 1081817" d="M106.345,170.9a3.682,3.682,0,0,1,2.831-3.582.694.694,0,0,1,.849.679V173.8a.694.694,0,0,1-.849.679A3.681,3.681,0,0,1,106.345,170.9Z" transform="translate(-106.345 -167.299)" fill="url(#linear-gradient-10)"/>
          <path id="Trazado_1081818" data-name="Trazado 1081818" d="M366.215,170.9a3.681,3.681,0,0,0-2.831-3.582.694.694,0,0,0-.849.679V173.8a.694.694,0,0,0,.849.679A3.681,3.681,0,0,0,366.215,170.9Z" transform="translate(-339.608 -167.299)" fill="url(#linear-gradient-11)"/>
        </g>
        <g id="Grupo_1210223" data-name="Grupo 1210223" transform="translate(2.659)">
          <g id="Grupo_1210222" data-name="Grupo 1210222">
            <g id="Grupo_1210221" data-name="Grupo 1210221">
              <path id="Trazado_1081819" data-name="Trazado 1081819" d="M146.7,86.865A10.645,10.645,0,0,1,136.055,76.22V70.762a10.645,10.645,0,0,1,21.289,0V76.22A10.645,10.645,0,0,1,146.7,86.865Z" transform="translate(-136.055 -60.117)" fill="url(#linear-gradient-12)"/>
              <path id="Trazado_1081820" data-name="Trazado 1081820" d="M233.578,212.587H232.4a1.575,1.575,0,0,1-1.551-1.851l.674-3.79h2.929l.674,3.79A1.575,1.575,0,0,1,233.578,212.587Z" transform="translate(-222.345 -193.806)" fill="url(#linear-gradient-13)"/>
            </g>
          </g>
        </g>
        <g id="Grupo_1210224" data-name="Grupo 1210224" transform="translate(7.038 11.595)">
          <path id="Trazado_1081821" data-name="Trazado 1081821" d="M186.534,193.573a1.547,1.547,0,0,1-1.547-1.547v-.793a1.547,1.547,0,0,1,3.094,0v.793A1.547,1.547,0,0,1,186.534,193.573Z" transform="translate(-184.987 -189.686)" fill="url(#linear-gradient-14)"/>
          <path id="Trazado_1081822" data-name="Trazado 1081822" d="M291.988,193.573a1.547,1.547,0,0,1-1.547-1.547v-.793a1.547,1.547,0,1,1,3.094,0v.793A1.547,1.547,0,0,1,291.988,193.573Z" transform="translate(-281.004 -189.686)" fill="url(#linear-gradient-15)"/>
        </g>
      </g>
      <g id="Grupo_1210226" data-name="Grupo 1210226" transform="translate(69.304 0)">
        <path id="Trazado_1081823" data-name="Trazado 1081823" d="M326.8,4.613a9.765,9.765,0,0,0-3.209,6.4,1.315,1.315,0,0,0,1.336,1.336,9.765,9.765,0,0,0,6.4-3.209c2.445-2.445,4.421-5.952,4.611-8.463A.66.66,0,0,0,335.261,0c-2.51.191-6.017,2.166-8.463,4.611Z" transform="translate(-319.834 0)" fill="url(#linear-gradient-16)"/>
        <path id="Trazado_1081824" data-name="Trazado 1081824" d="M352.661,0c-2.213.168-5.2,1.724-7.553,3.765A9.262,9.262,0,0,0,342.7,9.3a1.315,1.315,0,0,0,1.336,1.336,9.261,9.261,0,0,0,5.532-2.408c2.041-2.352,3.6-5.34,3.765-7.553A.66.66,0,0,0,352.661,0Z" transform="translate(-337.234 0)" fill="url(#linear-gradient-17)"/>
        <path id="Trazado_1081825" data-name="Trazado 1081825" d="M380.212,0a13.123,13.123,0,0,0-5.893,2.477,8.71,8.71,0,0,0-1.36,4.113A1.315,1.315,0,0,0,374.3,7.928a8.709,8.709,0,0,0,4.113-1.36A13.122,13.122,0,0,0,380.885.675.66.66,0,0,0,380.212,0Z" transform="translate(-364.785 0)" fill="url(#linear-gradient-18)"/>
        <path id="Trazado_1081826" data-name="Trazado 1081826" d="M406.893,0a10.818,10.818,0,0,0-4.031,1.339,8.5,8.5,0,0,0-.6,2.628A1.315,1.315,0,0,0,403.6,5.305a8.5,8.5,0,0,0,2.628-.6A10.817,10.817,0,0,0,407.566.675.66.66,0,0,0,406.893,0Z" transform="translate(-391.466 0)" fill="url(#linear-gradient-19)"/>
        <path id="Trazado_1081827" data-name="Trazado 1081827" d="M328.867,14.326a9.765,9.765,0,0,0,6.4-3.209c2.445-2.445,4.421-5.952,4.611-8.463a.625.625,0,0,0-.193-.48L327.916,13.941a1.25,1.25,0,0,0,.951.385Z" transform="translate(-323.775 -1.98)" fill="url(#linear-gradient-20)"/>
        <path id="Trazado_1081828" data-name="Trazado 1081828" d="M286.283,34.148a38.646,38.646,0,0,0-4.473,5.132c-.309.446-.169.586.277.276a38.629,38.629,0,0,0,5.132-4.473,116.894,116.894,0,0,0,8.12-8.917c.157-.225.086-.3-.139-.139A116.894,116.894,0,0,0,286.283,34.148Z" transform="translate(-281.644 -23.621)" fill="url(#linear-gradient-21)"/>
      </g>
      <g id="Grupo_1210228" data-name="Grupo 1210228" transform="translate(49.887 0)">
        <g id="Grupo_1210227" data-name="Grupo 1210227" transform="translate(0 0)">
          <path id="Trazado_1081829" data-name="Trazado 1081829" d="M112.61,1.064a4.418,4.418,0,0,0-7,1.769l-4.405,11.453h27.526l-4.4-11.453a4.418,4.418,0,0,0-7-1.769,3.629,3.629,0,0,1-4.721,0Z" transform="translate(-97.937 0)" fill="url(#linear-gradient-22)"/>
          <path id="Trazado_1081830" data-name="Trazado 1081830" d="M128.737,48.555H101.212l1.588-4.129,2.123-5.521a36.8,36.8,0,0,1,20.22.306l2.155,5.6Z" transform="translate(-97.942 -34.269)" fill="url(#linear-gradient-23)"/>
          <path id="Trazado_1081831" data-name="Trazado 1081831" d="M128.737,64.593H101.212l.89-2.313,2.143-5.573a36.826,36.826,0,0,1,21.587.332l2.176,5.658Z" transform="translate(-97.942 -50.307)" fill="url(#linear-gradient-24)"/>
          <path id="Trazado_1081832" data-name="Trazado 1081832" d="M128.737,97.715H101.212l1.611-4.189a36.873,36.873,0,0,1,24.453.388Z" transform="translate(-97.942 -83.429)" fill="url(#linear-gradient-25)"/>
          <path id="Trazado_1081833" data-name="Trazado 1081833" d="M128.737,97.715H101.212l1.611-4.189a36.873,36.873,0,0,1,24.453.388Z" transform="translate(-97.942 -83.429)" fill="url(#linear-gradient-26)"/>
          <path id="Trazado_1081834" data-name="Trazado 1081834" d="M64.669,104.717v-.049a2.216,2.216,0,0,1,3.049-2.054,36.937,36.937,0,0,0,27.968,0,2.216,2.216,0,0,1,3.049,2.054v.049a2.223,2.223,0,0,1-1.29,2.014,37.012,37.012,0,0,1-31.486,0A2.223,2.223,0,0,1,64.669,104.717Z" transform="translate(-64.669 -93.28)" fill="url(#linear-gradient-27)"/>
        </g>
      </g>
      <g id="Grupo_1210229" data-name="Grupo 1210229" transform="translate(54.302 30.602)">
        <path id="Trazado_1081835" data-name="Trazado 1081835" d="M116.685,351.262H114v-7.527a1.348,1.348,0,0,1,.735-1.2l1-.511a.653.653,0,0,1,.95.581Z" transform="translate(-114 -341.95)" fill="url(#linear-gradient-28)"/>
        <path id="Trazado_1081836" data-name="Trazado 1081836" d="M366,351.262h2.685v-7.527a1.349,1.349,0,0,0-.735-1.2l-1-.511a.653.653,0,0,0-.95.581Z" transform="translate(-343.448 -341.95)" fill="url(#linear-gradient-29)"/>
      </g>
      <g id="Grupo_1210230" data-name="Grupo 1210230" transform="translate(54.302 34.931)">
        <path id="Trazado_1081837" data-name="Trazado 1081837" d="M114,390.33h2.685v4.982H114Z" transform="translate(-114 -390.33)" fill="url(#linear-gradient-30)"/>
        <path id="Trazado_1081838" data-name="Trazado 1081838" d="M366,390.33h2.685v4.982H366Z" transform="translate(-343.448 -390.33)" fill="url(#linear-gradient-30)"/>
      </g>
      <path id="Trazado_1081839" data-name="Trazado 1081839" d="M103,444.408l13.6-.143,13.6.143v-5.232A1.176,1.176,0,0,0,129.03,438H104.176A1.176,1.176,0,0,0,103,439.176Z" transform="translate(-49.683 -398.803)" fill="url(#linear-gradient-32)"/>
      <path id="Trazado_1081840" data-name="Trazado 1081840" d="M130.205,457.14H103v4.695l13.6-.143,13.6.143Z" transform="translate(-49.683 -416.23)" fill="url(#linear-gradient-33)"/>
      <path id="Trazado_1081841" data-name="Trazado 1081841" d="M369.824,450.882l-2.109,2.109,3.141,3.141.374,0v-3.848Z" transform="translate(-290.708 -410.532)" fill="url(#linear-gradient-34)"/>
      <path id="Trazado_1081842" data-name="Trazado 1081842" d="M120.824,450.882l-2.109,2.109,3.1,3.1,4.175-.044Z" transform="translate(-63.991 -410.532)" fill="url(#linear-gradient-35)"/>
      <circle id="Elipse_11519" data-name="Elipse 11519" cx="1.492" cy="1.492" r="1.492" transform="translate(54.287 39.913)" fill="url(#linear-gradient-36)"/>
      <circle id="Elipse_11520" data-name="Elipse 11520" cx="1.492" cy="1.492" r="1.492" transform="translate(76.57 39.913)" fill="url(#linear-gradient-36)"/>
    </g>
  </g>
</svg>
