<svg xmlns="http://www.w3.org/2000/svg" xmlns:xlink="http://www.w3.org/1999/xlink" width="89" height="89" viewBox="0 0 89 89">
  <defs>
    <clipPath id="clip-path">
      <path id="Trazado_1080659" data-name="Trazado 1080659" d="M210.453,235.123a1.383,1.383,0,0,0-.444-.88c-.136-.113-.185-.1-.532-.259-.7-.332-.831-.56-1.106-.507-.2.038-.243.19-.494.412a3.38,3.38,0,0,1-1.177.642c-1.392.485-3.281,1.115-3.705,2.386s-.158,3.3.412,6.782.08,9.777-.986,12.586c0,0,8.913,4.941,17.052,0,0,0-1.777-2.839-1.324-9.01s.065-10.77-.485-11.448-3.811-1.34-4.2-1.808c-.237-.287-.315-.479-.476-.552a.744.744,0,0,0-.458.009,4.916,4.916,0,0,0-1.456.608,1.227,1.227,0,0,0-.355.242A1.171,1.171,0,0,0,210.453,235.123Z" transform="translate(-202.42 -233.437)"/>
    </clipPath>
  </defs>
  <g id="Grupo_1211642" data-name="Grupo 1211642" transform="translate(-420.051 -2149)">
    <g id="Grupo_1099471" data-name="Grupo 1099471" transform="translate(-831.282 1736)">
      <g id="Grupo_1098742" data-name="Grupo 1098742" transform="translate(1251.333 413)">
        <g id="Trazado_875734" data-name="Trazado 875734" fill="#4e8f7d" opacity="0.859">
          <path d="M 44.49999237060547 87.49999237060547 C 38.69436645507812 87.49999237060547 33.06320571899414 86.36328887939453 27.76291656494141 84.12145233154297 C 22.64269256591797 81.95578002929688 18.04394149780273 78.8551025390625 14.09440517425537 74.90557861328125 C 10.1448802947998 70.9560546875 7.044217586517334 66.35730743408203 4.878542423248291 61.23706817626953 C 2.636704921722412 55.9367790222168 1.500004887580872 50.30561828613281 1.500004887580872 44.49999237060547 C 1.500004887580872 38.69436645507812 2.636704921722412 33.06320571899414 4.878542423248291 27.76291656494141 C 7.044217586517334 22.64269256591797 10.1448802947998 18.04394149780273 14.09440517425537 14.09440517425537 C 18.04394149780273 10.1448802947998 22.64269256591797 7.044217586517334 27.76291656494141 4.878542423248291 C 33.06320571899414 2.636704921722412 38.69436645507812 1.500004887580872 44.49999237060547 1.500004887580872 C 50.30561828613281 1.500004887580872 55.9367790222168 2.636704921722412 61.23706817626953 4.878542423248291 C 66.35730743408203 7.044217586517334 70.9560546875 10.1448802947998 74.90557861328125 14.09440517425537 C 78.8551025390625 18.04394149780273 81.95578002929688 22.64269256591797 84.12145233154297 27.76291656494141 C 86.36328887939453 33.06320571899414 87.49999237060547 38.69436645507812 87.49999237060547 44.49999237060547 C 87.49999237060547 50.30561828613281 86.36328887939453 55.9367790222168 84.12145233154297 61.23706817626953 C 81.95578002929688 66.35730743408203 78.8551025390625 70.9560546875 74.90557861328125 74.90557861328125 C 70.9560546875 78.8551025390625 66.35730743408203 81.95578002929688 61.23706817626953 84.12145233154297 C 55.9367790222168 86.36328887939453 50.30561828613281 87.49999237060547 44.49999237060547 87.49999237060547 Z" stroke="none"/>
          <path d="M 44.49999237060547 2.999992370605469 C 38.89620590209961 2.999992370605469 33.46163558959961 4.096832275390625 28.34723663330078 6.260032653808594 C 23.40580749511719 8.350090026855469 18.96732330322266 11.34280395507812 15.15506744384766 15.15506744384766 C 11.34280395507812 18.96732330322266 8.350090026855469 23.40580749511719 6.260032653808594 28.34723663330078 C 4.096832275390625 33.46163558959961 2.999992370605469 38.89620590209961 2.999992370605469 44.49999237060547 C 2.999992370605469 50.10377883911133 4.096832275390625 55.53834915161133 6.260032653808594 60.65273284912109 C 8.350090026855469 65.59417724609375 11.34280395507812 70.03266143798828 15.15506744384766 73.84492492675781 C 18.96732330322266 77.65716552734375 23.40580749511719 80.64989471435547 28.34723663330078 82.73993682861328 C 33.46163558959961 84.90313720703125 38.89620590209961 85.99997711181641 44.49999237060547 85.99997711181641 C 50.10377883911133 85.99997711181641 55.53834915161133 84.90313720703125 60.65274810791016 82.73993682861328 C 65.59417724609375 80.64989471435547 70.03266143798828 77.65716552734375 73.84492492675781 73.84492492675781 C 77.65716552734375 70.03266143798828 80.64989471435547 65.59417724609375 82.73993682861328 60.65274810791016 C 84.90313720703125 55.53834915161133 85.99997711181641 50.10377883911133 85.99997711181641 44.49999237060547 C 85.99997711181641 38.89620590209961 84.90313720703125 33.46163558959961 82.73993682861328 28.34723663330078 C 80.64989471435547 23.40580749511719 77.65716552734375 18.96732330322266 73.84492492675781 15.15506744384766 C 70.03266143798828 11.34280395507812 65.59417724609375 8.350090026855469 60.65273284912109 6.260032653808594 C 55.53834915161133 4.096832275390625 50.10377883911133 2.999992370605469 44.49999237060547 2.999992370605469 M 44.49999237060547 -7.62939453125e-06 C 69.07666015625 -7.62939453125e-06 88.99997711181641 19.92332458496094 88.99997711181641 44.49999237060547 C 88.99997711181641 69.07666015625 69.07666015625 88.99997711181641 44.49999237060547 88.99997711181641 C 19.92332458496094 88.99997711181641 -7.62939453125e-06 69.07666015625 -7.62939453125e-06 44.49999237060547 C -7.62939453125e-06 19.92332458496094 19.92332458496094 -7.62939453125e-06 44.49999237060547 -7.62939453125e-06 Z" stroke="none" fill="#fff"/>
        </g>
        <g id="Trazado_875735" data-name="Trazado 875735" transform="translate(0)" fill="none">
          <path d="M44.5,0A44.5,44.5,0,1,1,0,44.5,44.5,44.5,0,0,1,44.5,0Z" stroke="none"/>
          <path d="M 44.49999237060547 2.999992370605469 C 38.89620590209961 2.999992370605469 33.46163558959961 4.096832275390625 28.34723663330078 6.260032653808594 C 23.40580749511719 8.350090026855469 18.96732330322266 11.34280395507812 15.15506744384766 15.15506744384766 C 11.34280395507812 18.96732330322266 8.350090026855469 23.40580749511719 6.260032653808594 28.34723663330078 C 4.096832275390625 33.46163558959961 2.999992370605469 38.89620590209961 2.999992370605469 44.49999237060547 C 2.999992370605469 50.10377883911133 4.096832275390625 55.53834915161133 6.260032653808594 60.65273284912109 C 8.350090026855469 65.59417724609375 11.34280395507812 70.03266143798828 15.15506744384766 73.84492492675781 C 18.96732330322266 77.65716552734375 23.40580749511719 80.64989471435547 28.34723663330078 82.73993682861328 C 33.46163558959961 84.90313720703125 38.89620590209961 85.99997711181641 44.49999237060547 85.99997711181641 C 50.10377883911133 85.99997711181641 55.53834915161133 84.90313720703125 60.65274810791016 82.73993682861328 C 65.59417724609375 80.64989471435547 70.03266143798828 77.65716552734375 73.84492492675781 73.84492492675781 C 77.65716552734375 70.03266143798828 80.64989471435547 65.59417724609375 82.73993682861328 60.65274810791016 C 84.90313720703125 55.53834915161133 85.99997711181641 50.10377883911133 85.99997711181641 44.49999237060547 C 85.99997711181641 38.89620590209961 84.90313720703125 33.46163558959961 82.73993682861328 28.34723663330078 C 80.64989471435547 23.40580749511719 77.65716552734375 18.96732330322266 73.84492492675781 15.15506744384766 C 70.03266143798828 11.34280395507812 65.59417724609375 8.350090026855469 60.65273284912109 6.260032653808594 C 55.53834915161133 4.096832275390625 50.10377883911133 2.999992370605469 44.49999237060547 2.999992370605469 M 44.49999237060547 -7.62939453125e-06 C 69.07666015625 -7.62939453125e-06 88.99997711181641 19.92332458496094 88.99997711181641 44.49999237060547 C 88.99997711181641 69.07666015625 69.07666015625 88.99997711181641 44.49999237060547 88.99997711181641 C 19.92332458496094 88.99997711181641 -7.62939453125e-06 69.07666015625 -7.62939453125e-06 44.49999237060547 C -7.62939453125e-06 19.92332458496094 19.92332458496094 -7.62939453125e-06 44.49999237060547 -7.62939453125e-06 Z" stroke="none" fill="#dbe8e4"/>
        </g>
      </g>
    </g>
    <g id="Maid" transform="translate(337.53 2135.348)">
      <circle id="Elipse_11507" data-name="Elipse 11507" cx="2.753" cy="2.753" r="2.753" transform="translate(127.713 49.367)" fill="#383333"/>
      <path id="Trazado_1080634" data-name="Trazado 1080634" d="M342.044,354l.383,9.591a7.283,7.283,0,0,1-2.839,1.1,3.515,3.515,0,0,1-3.068-.662l.657-8.847Z" transform="translate(-204.88 -286.964)" fill="#ffb08d"/>
      <path id="Trazado_1080635" data-name="Trazado 1080635" d="M124.479,394.847l.243-.763a.216.216,0,0,1,.406,0l.261.761a.214.214,0,0,0,.131.134l.676.243a.216.216,0,0,1-.032.416l-.631.12a.218.218,0,0,0-.167.154l-.228.811a.216.216,0,0,1-.418-.007l-.2-.82a.217.217,0,0,0-.173-.16l-.622-.107a.216.216,0,0,1-.034-.417l.652-.226a.216.216,0,0,0,.14-.138Z" transform="translate(-13.499 -322.857)" fill="#ffb833"/>
      <path id="Trazado_1080636" data-name="Trazado 1080636" d="M373.964,202.727l.244-.763a.216.216,0,0,1,.406,0l.261.762a.217.217,0,0,0,.132.133l.676.243a.216.216,0,0,1-.032.416l-.631.121a.217.217,0,0,0-.167.153l-.229.811a.216.216,0,0,1-.418-.006l-.2-.82a.215.215,0,0,0-.172-.161l-.623-.107a.216.216,0,0,1-.033-.417l.652-.226A.215.215,0,0,0,373.964,202.727Z" transform="translate(-237.687 -150.218)" fill="#ffb833"/>
      <path id="Trazado_1080637" data-name="Trazado 1080637" d="M165.747,37.82q.165-.52.333-1.039a.294.294,0,0,1,.559-.006q.178.519.355,1.037a.3.3,0,0,0,.179.183l.922.332a.294.294,0,0,1-.045.566l-.859.16a.294.294,0,0,0-.227.214l-.312,1.115a.294.294,0,0,1-.57-.011l-.278-1.115a.3.3,0,0,0-.236-.219l-.847-.145a.3.3,0,0,1-.047-.569l.889-.3a.292.292,0,0,0,.184-.2Z" transform="translate(-50.283 -1.727)" fill="#ffb833"/>
      <path id="Trazado_1080638" data-name="Trazado 1080638" d="M191.867,240.91a11.582,11.582,0,0,0-4.622,1.217,8.61,8.61,0,0,0-2.35,1.587s-1.756,1.8-1.611,11.178a11.934,11.934,0,0,0,1.485.288,12.156,12.156,0,0,0,3.3-.028Z" transform="translate(-67.176 -185.342)" fill="#00ccc1"/>
      <path id="Trazado_1080639" data-name="Trazado 1080639" d="M307.56,242.7s5.643,1.014,7,2.883,1.582,11.1,1.582,11.1a12.064,12.064,0,0,1-4.779.259Z" transform="translate(-178.857 -186.951)" fill="#00ccc1"/>
      <path id="Trazado_1080640" data-name="Trazado 1080640" d="M343.8,149.871a1.536,1.536,0,0,1,1.139-.442,1.178,1.178,0,0,1,.7.263,2.107,2.107,0,0,1-.7,2.949,1.879,1.879,0,0,1-1.484-.1Z" transform="translate(-211.107 -103.134)" fill="#ff8c5f"/>
      <path id="Trazado_1080641" data-name="Trazado 1080641" d="M351.867,161.055a.04.04,0,0,1-.027-.011.039.039,0,0,1,0-.054.921.921,0,0,0,.345-.748,1.159,1.159,0,0,0-.513-.731.039.039,0,0,1-.016-.044.037.037,0,0,1,.038-.027l1.058.049a.039.039,0,0,1,.037.04.038.038,0,0,1-.041.036l-.93-.043a1.132,1.132,0,0,1,.443.71.989.989,0,0,1-.367.811A.035.035,0,0,1,351.867,161.055Z" transform="translate(-218.48 -112.133)" fill="#383333"/>
      <path id="Trazado_1080642" data-name="Trazado 1080642" d="M199.853,149.871a1.534,1.534,0,0,0-1.139-.442,1.18,1.18,0,0,0-.7.263,2.1,2.1,0,0,0,.71,2.949,1.876,1.876,0,0,0,1.482-.1Z" transform="translate(-80.111 -103.134)" fill="#ff8c5f"/>
      <path id="Trazado_1080643" data-name="Trazado 1080643" d="M204.18,161.072a.04.04,0,0,1-.026-.01.988.988,0,0,1-.366-.811,1.112,1.112,0,0,1,.443-.71l-.931.043a.036.036,0,0,1-.04-.036.039.039,0,0,1,.037-.04l1.057-.049a.037.037,0,0,1,.039.027.039.039,0,0,1-.016.044,1.171,1.171,0,0,0-.513.731.913.913,0,0,0,.344.748.038.038,0,0,1,0,.054A.04.04,0,0,1,204.18,161.072Z" transform="translate(-85.133 -112.15)" fill="#383333"/>
      <circle id="Elipse_11508" data-name="Elipse 11508" cx="7.439" cy="7.439" r="7.439" transform="translate(118.731 38.192)" fill="#ffb08d"/>
      <path id="Trazado_1080644" data-name="Trazado 1080644" d="M225.1,89.743c-.574,3.733-2.732,6.7-5.661,7.578a6.413,6.413,0,0,1-3.514.054c-2.894-.8-5.06-3.741-5.59-7.49a7.4,7.4,0,0,1,14.765-.142Z" transform="translate(-91.486 -43.403)" fill="#ffb08d"/>
      <path id="Trazado_1080645" data-name="Trazado 1080645" d="M215.816,203.577c-.12.619-.328,2.124.542,2.941a3.025,3.025,0,0,0,1.227.581c2.129.71,2.574.765,2.874.9,2.062.959.459,7.394.84,14.273a36.791,36.791,0,0,0,.969,6.591,17.065,17.065,0,0,1-6.394,1.873,17.372,17.372,0,0,1-9.623-2,21.8,21.8,0,0,0,.71-2.49,23.959,23.959,0,0,0,.466-6.268c-.118-3.724-2-9.975-.473-11.305s4.056-1.463,4.766-2.332.388-3.143.388-3.143S214.785,202.207,215.816,203.577Z" transform="translate(-87.82 -151.143)" fill="#ffb08d"/>
      <path id="Trazado_1080646" data-name="Trazado 1080646" d="M301.878,141.44a2.461,2.461,0,0,0-1.414-.466c-.344-.008-.811-.019-.952.249a.376.376,0,0,0,.009.38c.161.216.566.02,1.217.014.863-.007,1.42.319,1.479.2C302.263,141.728,301.986,141.521,301.878,141.44Z" transform="translate(-171.583 -95.536)" fill="#383333"/>
      <path id="Trazado_1080647" data-name="Trazado 1080647" d="M238.1,142.323a2.457,2.457,0,0,1,1.42-.434c.344,0,.811,0,.947.269a.377.377,0,0,1-.016.379c-.165.213-.567.009-1.222-.009-.862-.025-1.429.291-1.482.166C237.712,142.6,237.993,142.407,238.1,142.323Z" transform="translate(-116.122 -96.362)" fill="#383333"/>
      <path id="Trazado_1080648" data-name="Trazado 1080648" d="M275.134,154.622c-.338,0-.758-.039-.836-.223-.116-.279.43-1.556.492-1.7a.051.051,0,1,1,.093.041,4.9,4.9,0,0,0-.491,1.622c.066.16.71.182,1.146.145a.051.051,0,0,1,.008.1C275.48,154.611,275.319,154.622,275.134,154.622Z" transform="translate(-148.953 -106.048)" fill="#383333"/>
      <path id="Trazado_1080649" data-name="Trazado 1080649" d="M277.054,199.315a1.7,1.7,0,0,1-.536-.091.039.039,0,0,1,.026-.072,1.414,1.414,0,0,0,.959-.006.039.039,0,0,1,.032.069A1.11,1.11,0,0,1,277.054,199.315Z" transform="translate(-150.943 -147.811)" fill="#383333"/>
      <ellipse id="Elipse_11509" data-name="Elipse 11509" cx="0.955" cy="0.595" rx="0.955" ry="0.595" transform="translate(121.396 48.764) rotate(-0.974)" fill="#ff8c5f"/>
      <ellipse id="Elipse_11510" data-name="Elipse 11510" cx="0.955" cy="0.595" rx="0.955" ry="0.595" transform="translate(128.548 48.766) rotate(-0.974)" fill="#ff8c5f"/>
      <path id="Trazado_1080650" data-name="Trazado 1080650" d="M264.878,224.2a5.092,5.092,0,0,1-1.852-.32.051.051,0,0,1-.028-.066.052.052,0,0,1,.066-.028,6.435,6.435,0,0,0,3.775.036.053.053,0,0,1,.031.1A7.29,7.29,0,0,1,264.878,224.2Z" transform="translate(-138.81 -169.946)" fill="#383333"/>
      <path id="Trazado_1080651" data-name="Trazado 1080651" d="M233.508,194.629h-.033a6.05,6.05,0,0,1-3.822-2.738.254.254,0,0,1,.434-.264c.013.022,1.38,2.226,3.454,2.5a.254.254,0,1,1-.032.507Z" transform="translate(-108.816 -140.947)" fill="#fff"/>
      <path id="Trazado_1080652" data-name="Trazado 1080652" d="M276.481,216c-.434,0-.37.671.062.671S276.912,216,276.481,216Z" transform="translate(-150.664 -162.958)" fill="#fff" fill-rule="evenodd"/>
      <path id="Trazado_1080653" data-name="Trazado 1080653" d="M305.946,154.268a.628.628,0,1,1-.055-.885A.628.628,0,0,1,305.946,154.268Z" transform="translate(-176.42 -106.549)" fill="#383333" fill-rule="evenodd"/>
      <path id="Trazado_1080654" data-name="Trazado 1080654" d="M312.152,153.437c-.013-.011-.136.2-.294.187-.117-.011-.147-.14-.3-.253a.757.757,0,0,0-.443-.141,1.643,1.643,0,0,0,.254.366c.143.155.235.256.361.258C311.989,153.857,312.172,153.452,312.152,153.437Z" transform="translate(-182.056 -106.553)" fill="#383333" fill-rule="evenodd"/>
      <path id="Trazado_1080655" data-name="Trazado 1080655" d="M248.306,155.128a.628.628,0,1,1,.056-.885A.628.628,0,0,1,248.306,155.128Z" transform="translate(-124.674 -107.271)" fill="#383333" fill-rule="evenodd"/>
      <path id="Trazado_1080656" data-name="Trazado 1080656" d="M243.178,154.247c.013-.011.136.2.294.187.117-.011.147-.14.3-.252a.757.757,0,0,1,.443-.141,1.622,1.622,0,0,1-.254.365c-.143.156-.236.257-.361.259C243.341,154.667,243.158,154.262,243.178,154.247Z" transform="translate(-121.002 -107.281)" fill="#383333" fill-rule="evenodd"/>
      <g id="Grupo_1210033" data-name="Grupo 1210033" transform="translate(118.042 54.81)" clip-path="url(#clip-path)">
        <path id="Trazado_1080657" data-name="Trazado 1080657" d="M210.453,235.123a1.383,1.383,0,0,0-.444-.88c-.136-.113-.185-.1-.532-.259-.7-.332-.831-.56-1.106-.507-.2.038-.243.19-.494.412a3.38,3.38,0,0,1-1.177.642c-1.392.485-3.281,1.115-3.705,2.386s-.158,3.3.412,6.782.08,9.777-.986,12.586c0,0,8.913,4.941,17.052,0,0,0-1.777-2.839-1.324-9.01s.065-10.77-.485-11.448-3.811-1.34-4.2-1.808c-.237-.287-.315-.479-.476-.552a.744.744,0,0,0-.458.009,4.916,4.916,0,0,0-1.456.608,1.227,1.227,0,0,0-.355.242A1.171,1.171,0,0,0,210.453,235.123Z" transform="translate(-202.42 -233.437)" fill="#00ccc1"/>
        <path id="Trazado_1080658" data-name="Trazado 1080658" d="M250.05,230.7a1.7,1.7,0,0,0,.757,1.006c.642.412.3,1.1.811,1.235s1.332-1.381,1.635-1.235.764,1.344,1.357,1.174.569-1.081,1.09-1.527a7.992,7.992,0,0,1,.848-.653l-.666-1.066-2.855.5-1.952-.5Z" transform="translate(-245.22 -230.016)" fill="#aaeeea"/>
      </g>
      <path id="Trazado_1080660" data-name="Trazado 1080660" d="M202.357,246.58c-.061.872-.1,1.807-.09,2.8,0,.887.04,1.729.1,2.519a11.172,11.172,0,0,0,3.488.993,11.371,11.371,0,0,0,5.635-.811c.06-.562.144-1.156.259-1.776a23.256,23.256,0,0,1,.892-3.376,1.606,1.606,0,0,1,.3.051,2.433,2.433,0,0,1,.775.406s-.258,3.841.275,5.476a7.341,7.341,0,0,1,.388,4.2c-.266,1.962.726,7.823,1.889,10.826a15.733,15.733,0,0,1-17.924,0c1.412-7.216,1.487-9.947,1.259-11.06a6.57,6.57,0,0,1-.1-2.655,6.5,6.5,0,0,1,.817-2.415c.33-.579.651-1.825.71-4.65a2.835,2.835,0,0,1,.532-.3A2.769,2.769,0,0,1,202.357,246.58Z" transform="translate(-80.721 -190.437)" fill="#ffb833"/>
      <path id="Trazado_1080661" data-name="Trazado 1080661" d="M232.721,377.45a26.284,26.284,0,0,0,9.688,0s.23,1.306.345,2.83c.167,2.218.214,3.329-.345,4.137-.9,1.3-2.814,1.358-4.267,1.4-.881.027-4.738.15-5.813-1.97-.357-.7-.26-1.675-.064-3.617A22.442,22.442,0,0,1,232.721,377.45Z" transform="translate(-111.039 -308.036)" fill="#ff832f" fill-rule="evenodd"/>
      <path id="Trazado_1080662" data-name="Trazado 1080662" d="M138.09,276.459c.361,1.655,2.582,11.536,5.679,11.529a1.872,1.872,0,0,0,1.324-.646c2.022-2.426-3.8-10.527-4.6-11.722Z" transform="translate(-26.572 -216.532)" fill="#ffb08d"/>
      <rect id="Rect치ngulo_401731" data-name="Rect치ngulo 401731" width="0.872" height="18.27" rx="0.436" transform="translate(112.364 44.394)" fill="#ff1a26"/>
      <rect id="Rect치ngulo_401732" data-name="Rect치ngulo 401732" width="6.782" height="14.14" rx="3.391" transform="translate(109.409 40.308)" fill="#ffb833"/>
      <path id="Trazado_1080663" data-name="Trazado 1080663" d="M108.723,109.8a.2.2,0,0,1,0-.406c1.345-.033,1.807-1.761,1.811-1.78a.2.2,0,1,1,.392.1,3.768,3.768,0,0,1-.458,1.014,2.117,2.117,0,0,1-1.735,1.072Z" transform="translate(0 -65.421)" fill="#ff832f"/>
      <path id="Trazado_1080664" data-name="Trazado 1080664" d="M108.723,133.543a.2.2,0,1,1,0-.406c1.345-.035,1.807-1.762,1.811-1.78a.2.2,0,0,1,.392.1,3.768,3.768,0,0,1-.458,1.014,2.116,2.116,0,0,1-1.735,1.073Z" transform="translate(0 -86.769)" fill="#ff832f"/>
      <path id="Trazado_1080665" data-name="Trazado 1080665" d="M108.723,157.011a.2.2,0,0,1,0-.406c1.349-.033,1.807-1.762,1.811-1.78a.2.2,0,1,1,.392.1,3.74,3.74,0,0,1-.458,1.014,2.116,2.116,0,0,1-1.735,1.073Z" transform="translate(0 -107.844)" fill="#ff832f"/>
      <path id="Trazado_1080666" data-name="Trazado 1080666" d="M108.723,180.611a.2.2,0,1,1,0-.406c1.345-.033,1.807-1.761,1.811-1.78a.2.2,0,1,1,.392.1,3.768,3.768,0,0,1-.458,1.014,2.117,2.117,0,0,1-1.735,1.072Z" transform="translate(0 -129.051)" fill="#ff832f"/>
      <path id="Trazado_1080667" data-name="Trazado 1080667" d="M108.723,204.221a.2.2,0,0,1,0-.406c1.345-.033,1.807-1.762,1.811-1.78a.2.2,0,1,1,.392.1,3.768,3.768,0,0,1-.458,1.014,2.116,2.116,0,0,1-1.735,1.073Z" transform="translate(0 -150.266)" fill="#ff832f"/>
      <path id="Trazado_1080668" data-name="Trazado 1080668" d="M124.86,110.174a.2.2,0,1,1-.005-.406c1.345-.033,1.807-1.762,1.811-1.78a.2.2,0,1,1,.393.1,3.777,3.777,0,0,1-.458,1.014,2.119,2.119,0,0,1-1.736,1.073Z" transform="translate(-14.499 -65.762)" fill="#ff832f"/>
      <path id="Trazado_1080669" data-name="Trazado 1080669" d="M124.86,133.774a.2.2,0,1,1-.005-.406c1.345-.033,1.807-1.761,1.811-1.78a.2.2,0,1,1,.393.1,3.806,3.806,0,0,1-.458,1.014,2.118,2.118,0,0,1-1.736,1.072Z" transform="translate(-14.499 -86.969)" fill="#ff832f"/>
      <path id="Trazado_1080670" data-name="Trazado 1080670" d="M124.86,157.384a.2.2,0,1,1-.005-.406c1.345-.033,1.807-1.762,1.811-1.78a.2.2,0,1,1,.393.1,3.807,3.807,0,0,1-.458,1.014,2.119,2.119,0,0,1-1.736,1.073Z" transform="translate(-14.499 -108.185)" fill="#ff832f"/>
      <path id="Trazado_1080671" data-name="Trazado 1080671" d="M124.86,180.984a.2.2,0,1,1-.005-.406c1.35-.033,1.807-1.762,1.811-1.78a.2.2,0,0,1,.393.1,3.777,3.777,0,0,1-.458,1.014,2.119,2.119,0,0,1-1.736,1.073Z" transform="translate(-14.499 -129.392)" fill="#ff832f"/>
      <path id="Trazado_1080672" data-name="Trazado 1080672" d="M124.86,204.584a.2.2,0,1,1-.005-.406c1.345-.033,1.807-1.761,1.811-1.78a.2.2,0,1,1,.393.1,3.807,3.807,0,0,1-.458,1.014,2.118,2.118,0,0,1-1.736,1.072Z" transform="translate(-14.499 -150.599)" fill="#ff832f"/>
      <path id="Trazado_1080673" data-name="Trazado 1080673" d="M174.488,109.783a2.117,2.117,0,0,1-1.735-1.072,3.768,3.768,0,0,1-.458-1.014.2.2,0,1,1,.392-.1c.006.022.468,1.746,1.811,1.78a.2.2,0,1,1-.005.406Z" transform="translate(-57.3 -65.403)" fill="#ff832f"/>
      <path id="Trazado_1080674" data-name="Trazado 1080674" d="M174.488,133.384a2.116,2.116,0,0,1-1.735-1.073,3.767,3.767,0,0,1-.458-1.014.2.2,0,1,1,.392-.1c.005.017.466,1.745,1.811,1.78a.2.2,0,0,1-.01.409Z" transform="translate(-57.3 -86.61)" fill="#ff832f"/>
      <path id="Trazado_1080675" data-name="Trazado 1080675" d="M174.488,156.984a2.116,2.116,0,0,1-1.735-1.073,3.739,3.739,0,0,1-.458-1.014.2.2,0,1,1,.392-.1c.005.017.466,1.746,1.811,1.78a.2.2,0,1,1-.005.406Z" transform="translate(-57.3 -107.817)" fill="#ff832f"/>
      <path id="Trazado_1080676" data-name="Trazado 1080676" d="M174.488,180.593a2.117,2.117,0,0,1-1.735-1.072,3.767,3.767,0,0,1-.458-1.014.2.2,0,1,1,.392-.1c.006.022.468,1.746,1.811,1.78a.2.2,0,1,1-.005.406Z" transform="translate(-57.3 -129.033)" fill="#ff832f"/>
      <path id="Trazado_1080677" data-name="Trazado 1080677" d="M174.488,204.194a2.116,2.116,0,0,1-1.735-1.073,3.768,3.768,0,0,1-.458-1.014.2.2,0,1,1,.392-.1c.005.017.466,1.746,1.811,1.78a.2.2,0,0,1-.01.409Z" transform="translate(-57.3 -150.24)" fill="#ff832f"/>
      <path id="Trazado_1080678" data-name="Trazado 1080678" d="M158.032,109.137h-.005a2.119,2.119,0,0,1-1.736-1.073,3.814,3.814,0,0,1-.458-1.014.2.2,0,1,1,.393-.1c0,.017.466,1.746,1.811,1.78a.2.2,0,1,1,0,.406Z" transform="translate(-42.509 -64.828)" fill="#ff832f"/>
      <path id="Trazado_1080679" data-name="Trazado 1080679" d="M158.032,132.746h-.005a2.118,2.118,0,0,1-1.736-1.072,3.844,3.844,0,0,1-.458-1.014.2.2,0,1,1,.393-.1c0,.022.468,1.746,1.811,1.78a.2.2,0,1,1,0,.406Z" transform="translate(-42.509 -86.043)" fill="#ff832f"/>
      <path id="Trazado_1080680" data-name="Trazado 1080680" d="M158.032,156.347h-.005a2.119,2.119,0,0,1-1.736-1.073,3.829,3.829,0,0,1-.458-1.014.2.2,0,0,1,.393-.1c0,.021.468,1.746,1.811,1.78a.2.2,0,1,1,0,.406Z" transform="translate(-42.509 -107.25)" fill="#ff832f"/>
      <path id="Trazado_1080681" data-name="Trazado 1080681" d="M158.032,179.947h-.005a2.119,2.119,0,0,1-1.736-1.073,3.815,3.815,0,0,1-.458-1.014.2.2,0,0,1,.393-.1c0,.017.466,1.746,1.811,1.78a.2.2,0,1,1,0,.406Z" transform="translate(-42.509 -128.457)" fill="#ff832f"/>
      <path id="Trazado_1080682" data-name="Trazado 1080682" d="M158.032,203.556h-.005a2.118,2.118,0,0,1-1.736-1.072,3.844,3.844,0,0,1-.458-1.014.2.2,0,1,1,.393-.1c0,.022.468,1.746,1.811,1.78a.2.2,0,1,1,0,.406Z" transform="translate(-42.509 -149.673)" fill="#ff832f"/>
      <path id="Trazado_1080683" data-name="Trazado 1080683" d="M200.91,66.99s.452-.2.537.1c.045.161.381,1.188.608,1.307.406.215,2.367-1.521,3.787-4.6,1.1-2.384,1.2-3.972,2.339-4.4a1.986,1.986,0,0,1,1.669.332,1.8,1.8,0,0,1,1.865.372c.648.8.969,4.259,2.568,5.1s1.088,2.367,1.6,2.693.792-.739.868-.885.352-.067.352-.067a12.174,12.174,0,0,0-.178-3.42c-.323-1.645-.649-3.307-2.034-4.393a5.589,5.589,0,0,0-4.3-.871c-.21-.092-4.3-1.832-7.2.388a7.156,7.156,0,0,0-2.327,3.811,9.167,9.167,0,0,0-.157,4.528Z" transform="translate(-82.832 -20.555)" fill="#383333"/>
      <path id="Trazado_1080684" data-name="Trazado 1080684" d="M233.538,38.912a10.767,10.767,0,0,1,8.284-.1,2.5,2.5,0,0,0,.677-2.979,1.831,1.831,0,0,0-1.138-.654,2.592,2.592,0,0,0-2.156.7,1.79,1.79,0,0,0-3.44.1,2.22,2.22,0,0,0-2.519-.485C232.51,36.022,232.336,37.668,233.538,38.912Z" transform="translate(-111.556 0)" fill="#ffb833"/>
      <path id="Trazado_1080685" data-name="Trazado 1080685" d="M229.18,62.311a8.428,8.428,0,0,1,2.7-1.469,10,10,0,0,1,7.96,1.195,7.481,7.481,0,0,0-3.678-2.26,6.4,6.4,0,0,0-3.908.1A6.287,6.287,0,0,0,229.18,62.311Z" transform="translate(-108.425 -22.341)" fill="#ffb833"/>
      <path id="Trazado_1080686" data-name="Trazado 1080686" d="M269.649,189.418a1.791,1.791,0,0,1-1.352-.673.051.051,0,0,1,.009-.071.052.052,0,0,1,.071.01,1.685,1.685,0,0,0,1.318.633,1.657,1.657,0,0,0,1.217-.633.052.052,0,0,1,.071-.01.051.051,0,0,1,.009.071,1.759,1.759,0,0,1-1.3.673Z" transform="translate(-143.566 -138.394)" fill="#383333"/>
      <path id="Trazado_1080687" data-name="Trazado 1080687" d="M134.178,249.5a18.8,18.8,0,0,1-.608-3.752,1.866,1.866,0,0,1,1.632-.945c.226.129-.35.581-.35.581s.449-.145.436.114-.436.476-.436.476,1.068-.217.107.623c0,0,.294-.21.329.064s-.436,1.014-.436,1.373v1.09Z" transform="translate(-22.49 -188.817)" fill="#ffb08d"/>
      <path id="Trazado_1080688" data-name="Trazado 1080688" d="M154.692,256.524a1.681,1.681,0,0,0-.114-.985c-.226-.6-.064-1.324-.218-1.461s-.355.186-.443.645a7.028,7.028,0,0,0,.137,2.107C154.152,256.919,154.692,256.524,154.692,256.524Z" transform="translate(-40.768 -197.147)" fill="#ffb08d"/>
      <path id="Trazado_1080689" data-name="Trazado 1080689" d="M135.128,251.125a.039.039,0,0,1-.022-.007.04.04,0,0,1-.008-.054,2.32,2.32,0,0,1,1.132-.748.038.038,0,0,1,.022.073,2.274,2.274,0,0,0-1.092.721A.04.04,0,0,1,135.128,251.125Z" transform="translate(-23.876 -193.793)" fill="#383333"/>
      <path id="Trazado_1080690" data-name="Trazado 1080690" d="M137.041,256.852a.041.041,0,0,1-.019-.005.039.039,0,0,1-.014-.053,1.563,1.563,0,0,1,.942-.663.038.038,0,1,1,.017.074,1.515,1.515,0,0,0-.893.628A.039.039,0,0,1,137.041,256.852Z" transform="translate(-25.594 -199.019)" fill="#383333"/>
      <path id="Trazado_1080691" data-name="Trazado 1080691" d="M139.28,263a.039.039,0,0,1-.029-.062,2.85,2.85,0,0,1,.811-.681.038.038,0,0,1,.05.019.039.039,0,0,1-.019.051,2.766,2.766,0,0,0-.785.659A.041.041,0,0,1,139.28,263Z" transform="translate(-27.607 -204.525)" fill="#383333"/>
      <g id="Grupo_1210034" data-name="Grupo 1210034" transform="translate(109.562 34.767)">
        <path id="Trazado_1080692" data-name="Trazado 1080692" d="M323.423,95.611c-.7-.064-1.344-.7-1.927-1.882a10.915,10.915,0,0,1-.661-1.752.051.051,0,0,1,.1-.026c.009.034.913,3.415,2.5,3.559a.051.051,0,0,1,.046.056A.05.05,0,0,1,323.423,95.611Z" transform="translate(-300.347 -86.221)" fill="#fff"/>
        <path id="Trazado_1080693" data-name="Trazado 1080693" d="M336.992,106.156c-.918,0-1.825-1.677-1.863-1.75a.052.052,0,0,1,.021-.069.051.051,0,0,1,.069.021c.009.017.961,1.784,1.838,1.692a.051.051,0,1,1,.011.1C337.043,106.154,337.018,106.156,336.992,106.156Z" transform="translate(-313.188 -97.379)" fill="#fff"/>
        <path id="Trazado_1080694" data-name="Trazado 1080694" d="M222.191,99.522a.05.05,0,0,1-.049-.036.051.051,0,0,1,.035-.063c1.759-.492,3.413-5.044,3.429-5.089a.051.051,0,0,1,.065-.03.05.05,0,0,1,.03.065,21.214,21.214,0,0,1-1.058,2.378c-.857,1.629-1.677,2.561-2.44,2.774A.034.034,0,0,1,222.191,99.522Z" transform="translate(-211.661 -88.366)" fill="#fff"/>
        <path id="Trazado_1080695" data-name="Trazado 1080695" d="M209.879,111.4a.051.051,0,0,1-.051-.046.052.052,0,0,1,.046-.056c1.257-.118,3.46-2.961,3.482-2.99a.051.051,0,1,1,.08.062c-.091.119-2.251,2.908-3.549,3.03Z" transform="translate(-200.597 -100.938)" fill="#fff"/>
        <path id="Trazado_1080696" data-name="Trazado 1080696" d="M205.292,85.571a.254.254,0,0,1-.254-.248c0-.126-.043-3.089,1.386-4.727a.254.254,0,0,1,.382.333c-1.3,1.491-1.262,4.36-1.261,4.385a.256.256,0,0,1-.249.259Z" transform="translate(-196.293 -75.978)" fill="#fff"/>
        <path id="Trazado_1080697" data-name="Trazado 1080697" d="M239.533,43.221a.253.253,0,0,1-.2-.092,1.456,1.456,0,0,0-1.724-.383.254.254,0,1,1-.216-.459,1.954,1.954,0,0,1,2.332.52.253.253,0,0,1-.034.357A.25.25,0,0,1,239.533,43.221Z" transform="translate(-225.24 -41.464)" fill="#fff"/>
        <path id="Trazado_1080698" data-name="Trazado 1080698" d="M277.4,37.455a.253.253,0,0,1-.251-.225,1.079,1.079,0,0,0-.365-.692,1.1,1.1,0,0,0-.795-.247.255.255,0,1,1-.051-.507,1.614,1.614,0,0,1,1.175.367,1.594,1.594,0,0,1,.539,1.02.253.253,0,0,1-.224.28Z" transform="translate(-259.796 -35.778)" fill="#fff"/>
        <path id="Trazado_1080699" data-name="Trazado 1080699" d="M318.077,45.593a.257.257,0,0,1-.086-.015.253.253,0,0,1-.152-.325,1.228,1.228,0,0,0,.052-1.034.559.559,0,0,0-.393-.224.254.254,0,1,1,.026-.507,1.069,1.069,0,0,1,.787.446,1.632,1.632,0,0,1,0,1.493A.254.254,0,0,1,318.077,45.593Z" transform="translate(-297.132 -42.705)" fill="#fff"/>
        <path id="Trazado_1080700" data-name="Trazado 1080700" d="M191.758,266.3a.267.267,0,0,1-.079-.012.254.254,0,0,1-.161-.32c.081-.244.811-2.4,1.639-2.839a.254.254,0,1,1,.239.447,6.107,6.107,0,0,0-1.4,2.55A.255.255,0,0,1,191.758,266.3Z" transform="translate(-184.132 -240.043)" fill="#fff"/>
        <path id="Trazado_1080701" data-name="Trazado 1080701" d="M363.524,272.905a.254.254,0,0,1-.252-.232c-.243-2.9-1.44-3.873-1.452-3.883a.255.255,0,0,1-.045-.355.252.252,0,0,1,.353-.047c.057.043,1.385,1.09,1.65,4.242a.255.255,0,0,1-.232.274Z" transform="translate(-337.088 -244.755)" fill="#fff"/>
        <path id="Trazado_1080702" data-name="Trazado 1080702" d="M211.976,321.144h-.042a.256.256,0,0,1-.209-.292,10.732,10.732,0,0,0-.072-3.395,6.177,6.177,0,0,1,.275-3.379.254.254,0,0,1,.465.2,5.765,5.765,0,0,0-.242,3.08,11.1,11.1,0,0,1,.075,3.577A.256.256,0,0,1,211.976,321.144Z" transform="translate(-202.13 -285.721)" fill="#fff"/>
        <path id="Trazado_1080703" data-name="Trazado 1080703" d="M165.884,355.576a.249.249,0,0,1-.085-.014c-.959-.343-2.255-3.245-2.5-3.82a.254.254,0,1,1,.464-.2c1.027,2.374,1.9,3.433,2.211,3.549a.254.254,0,0,1-.085.492Z" transform="translate(-158.759 -319.377)" fill="#fff"/>
        <path id="Trazado_1080704" data-name="Trazado 1080704" d="M213.514,401.76c-.434,0-.369.671.062.671S213.946,401.76,213.514,401.76Z" transform="translate(-203.644 -364.648)" fill="#fff" fill-rule="evenodd"/>
        <path id="Trazado_1080705" data-name="Trazado 1080705" d="M196.794,386c-.434,0-.369.671.062.671S197.226,386,196.794,386Z" transform="translate(-188.62 -350.487)" fill="#fff" fill-rule="evenodd"/>
        <path id="Trazado_1080706" data-name="Trazado 1080706" d="M190.584,302.87c-.434,0-.369.672.062.672S191.016,302.87,190.584,302.87Z" transform="translate(-183.039 -275.786)" fill="#fff" fill-rule="evenodd"/>
        <path id="Trazado_1080707" data-name="Trazado 1080707" d="M380.711,323.42c-.434,0-.37.671.062.671S381.142,323.42,380.711,323.42Z" transform="translate(-353.887 -294.252)" fill="#fff" fill-rule="evenodd"/>
        <path id="Trazado_1080708" data-name="Trazado 1080708" d="M235.969,56.38c-.433,0-.369.671.063.671S236.4,56.38,235.969,56.38Z" transform="translate(-223.822 -54.291)" fill="#fff" fill-rule="evenodd"/>
        <path id="Trazado_1080709" data-name="Trazado 1080709" d="M304.755,43.48c-.434,0-.369.671.063.671S305.187,43.48,304.755,43.48Z" transform="translate(-285.633 -42.699)" fill="#fff" fill-rule="evenodd"/>
        <path id="Trazado_1080710" data-name="Trazado 1080710" d="M204.915,136.63c-.434,0-.369.672.063.672S205.347,136.63,204.915,136.63Z" transform="translate(-195.917 -126.403)" fill="#fff" fill-rule="evenodd"/>
        <path id="Trazado_1080711" data-name="Trazado 1080711" d="M119.752,94.833a.26.26,0,0,1-.109-.024.253.253,0,0,1-.121-.338c.041-.087,1.021-2.129,2.6-2.172a.254.254,0,0,1,.014.507c-1.267.035-2.143,1.863-2.152,1.881A.252.252,0,0,1,119.752,94.833Z" transform="translate(-119.427 -86.568)" fill="#fff"/>
        <path id="Trazado_1080712" data-name="Trazado 1080712" d="M119.089,122.3c-.433,0-.369.671.063.671S119.525,122.3,119.089,122.3Z" transform="translate(-118.794 -113.526)" fill="#fff" fill-rule="evenodd"/>
        <path id="Trazado_1080713" data-name="Trazado 1080713" d="M151.254,92.68c-.434,0-.369.672.062.672S151.686,92.68,151.254,92.68Z" transform="translate(-147.698 -86.91)" fill="#fff" fill-rule="evenodd"/>
      </g>
    </g>
  </g>
</svg>
