<svg xmlns="http://www.w3.org/2000/svg" width="89" height="89" viewBox="0 0 89 89">
  <g id="Grupo_1211645" data-name="Grupo 1211645" transform="translate(3478 9422.838)">
    <g id="Grupo_1099471" data-name="Grupo 1099471" transform="translate(-4729.333 -9835.838)">
      <g id="Grupo_1098742" data-name="Grupo 1098742" transform="translate(1251.333 413)">
        <g id="Trazado_875734" data-name="Trazado 875734" fill="#4e8f7d" opacity="0.859">
          <path d="M 44.49999237060547 87.49999237060547 C 38.69436645507812 87.49999237060547 33.06320571899414 86.36328887939453 27.76291656494141 84.12145233154297 C 22.64269256591797 81.95578002929688 18.04394149780273 78.8551025390625 14.09440517425537 74.90557861328125 C 10.1448802947998 70.9560546875 7.044217586517334 66.35730743408203 4.878542423248291 61.23706817626953 C 2.636704921722412 55.9367790222168 1.500004887580872 50.30561828613281 1.500004887580872 44.49999237060547 C 1.500004887580872 38.69436645507812 2.636704921722412 33.06320571899414 4.878542423248291 27.76291656494141 C 7.044217586517334 22.64269256591797 10.1448802947998 18.04394149780273 14.09440517425537 14.09440517425537 C 18.04394149780273 10.1448802947998 22.64269256591797 7.044217586517334 27.76291656494141 4.878542423248291 C 33.06320571899414 2.636704921722412 38.69436645507812 1.500004887580872 44.49999237060547 1.500004887580872 C 50.30561828613281 1.500004887580872 55.9367790222168 2.636704921722412 61.23706817626953 4.878542423248291 C 66.35730743408203 7.044217586517334 70.9560546875 10.1448802947998 74.90557861328125 14.09440517425537 C 78.8551025390625 18.04394149780273 81.95578002929688 22.64269256591797 84.12145233154297 27.76291656494141 C 86.36328887939453 33.06320571899414 87.49999237060547 38.69436645507812 87.49999237060547 44.49999237060547 C 87.49999237060547 50.30561828613281 86.36328887939453 55.9367790222168 84.12145233154297 61.23706817626953 C 81.95578002929688 66.35730743408203 78.8551025390625 70.9560546875 74.90557861328125 74.90557861328125 C 70.9560546875 78.8551025390625 66.35730743408203 81.95578002929688 61.23706817626953 84.12145233154297 C 55.9367790222168 86.36328887939453 50.30561828613281 87.49999237060547 44.49999237060547 87.49999237060547 Z" stroke="none"/>
          <path d="M 44.49999237060547 2.999992370605469 C 38.89620590209961 2.999992370605469 33.46163558959961 4.096832275390625 28.34723663330078 6.260032653808594 C 23.40580749511719 8.350090026855469 18.96732330322266 11.34280395507812 15.15506744384766 15.15506744384766 C 11.34280395507812 18.96732330322266 8.350090026855469 23.40580749511719 6.260032653808594 28.34723663330078 C 4.096832275390625 33.46163558959961 2.999992370605469 38.89620590209961 2.999992370605469 44.49999237060547 C 2.999992370605469 50.10377883911133 4.096832275390625 55.53834915161133 6.260032653808594 60.65273284912109 C 8.350090026855469 65.59417724609375 11.34280395507812 70.03266143798828 15.15506744384766 73.84492492675781 C 18.96732330322266 77.65716552734375 23.40580749511719 80.64989471435547 28.34723663330078 82.73993682861328 C 33.46163558959961 84.90313720703125 38.89620590209961 85.99997711181641 44.49999237060547 85.99997711181641 C 50.10377883911133 85.99997711181641 55.53834915161133 84.90313720703125 60.65274810791016 82.73993682861328 C 65.59417724609375 80.64989471435547 70.03266143798828 77.65716552734375 73.84492492675781 73.84492492675781 C 77.65716552734375 70.03266143798828 80.64989471435547 65.59417724609375 82.73993682861328 60.65274810791016 C 84.90313720703125 55.53834915161133 85.99997711181641 50.10377883911133 85.99997711181641 44.49999237060547 C 85.99997711181641 38.89620590209961 84.90313720703125 33.46163558959961 82.73993682861328 28.34723663330078 C 80.64989471435547 23.40580749511719 77.65716552734375 18.96732330322266 73.84492492675781 15.15506744384766 C 70.03266143798828 11.34280395507812 65.59417724609375 8.350090026855469 60.65273284912109 6.260032653808594 C 55.53834915161133 4.096832275390625 50.10377883911133 2.999992370605469 44.49999237060547 2.999992370605469 M 44.49999237060547 -7.62939453125e-06 C 69.07666015625 -7.62939453125e-06 88.99997711181641 19.92332458496094 88.99997711181641 44.49999237060547 C 88.99997711181641 69.07666015625 69.07666015625 88.99997711181641 44.49999237060547 88.99997711181641 C 19.92332458496094 88.99997711181641 -7.62939453125e-06 69.07666015625 -7.62939453125e-06 44.49999237060547 C -7.62939453125e-06 19.92332458496094 19.92332458496094 -7.62939453125e-06 44.49999237060547 -7.62939453125e-06 Z" stroke="none" fill="#fff"/>
        </g>
        <g id="Trazado_875735" data-name="Trazado 875735" transform="translate(0)" fill="none">
          <path d="M44.5,0A44.5,44.5,0,1,1,0,44.5,44.5,44.5,0,0,1,44.5,0Z" stroke="none"/>
          <path d="M 44.49999237060547 2.999992370605469 C 38.89620590209961 2.999992370605469 33.46163558959961 4.096832275390625 28.34723663330078 6.260032653808594 C 23.40580749511719 8.350090026855469 18.96732330322266 11.34280395507812 15.15506744384766 15.15506744384766 C 11.34280395507812 18.96732330322266 8.350090026855469 23.40580749511719 6.260032653808594 28.34723663330078 C 4.096832275390625 33.46163558959961 2.999992370605469 38.89620590209961 2.999992370605469 44.49999237060547 C 2.999992370605469 50.10377883911133 4.096832275390625 55.53834915161133 6.260032653808594 60.65273284912109 C 8.350090026855469 65.59417724609375 11.34280395507812 70.03266143798828 15.15506744384766 73.84492492675781 C 18.96732330322266 77.65716552734375 23.40580749511719 80.64989471435547 28.34723663330078 82.73993682861328 C 33.46163558959961 84.90313720703125 38.89620590209961 85.99997711181641 44.49999237060547 85.99997711181641 C 50.10377883911133 85.99997711181641 55.53834915161133 84.90313720703125 60.65274810791016 82.73993682861328 C 65.59417724609375 80.64989471435547 70.03266143798828 77.65716552734375 73.84492492675781 73.84492492675781 C 77.65716552734375 70.03266143798828 80.64989471435547 65.59417724609375 82.73993682861328 60.65274810791016 C 84.90313720703125 55.53834915161133 85.99997711181641 50.10377883911133 85.99997711181641 44.49999237060547 C 85.99997711181641 38.89620590209961 84.90313720703125 33.46163558959961 82.73993682861328 28.34723663330078 C 80.64989471435547 23.40580749511719 77.65716552734375 18.96732330322266 73.84492492675781 15.15506744384766 C 70.03266143798828 11.34280395507812 65.59417724609375 8.350090026855469 60.65273284912109 6.260032653808594 C 55.53834915161133 4.096832275390625 50.10377883911133 2.999992370605469 44.49999237060547 2.999992370605469 M 44.49999237060547 -7.62939453125e-06 C 69.07666015625 -7.62939453125e-06 88.99997711181641 19.92332458496094 88.99997711181641 44.49999237060547 C 88.99997711181641 69.07666015625 69.07666015625 88.99997711181641 44.49999237060547 88.99997711181641 C 19.92332458496094 88.99997711181641 -7.62939453125e-06 69.07666015625 -7.62939453125e-06 44.49999237060547 C -7.62939453125e-06 19.92332458496094 19.92332458496094 -7.62939453125e-06 44.49999237060547 -7.62939453125e-06 Z" stroke="none" fill="#dbe8e4"/>
        </g>
      </g>
    </g>
    <g id="film-editor_6348301" transform="translate(-3462.981 -9411.256)">
      <g id="Grupo_1210127" data-name="Grupo 1210127" transform="translate(5.695 9.418)">
        <g id="Grupo_1210077" data-name="Grupo 1210077" transform="translate(6.243 10.686)">
          <g id="Grupo_1210076" data-name="Grupo 1210076" transform="translate(0 0)">
            <g id="Grupo_1210075" data-name="Grupo 1210075">
              <path id="Trazado_1081754" data-name="Trazado 1081754" d="M38.138,69.729a5.55,5.55,0,0,0,5.55,5.55h9.095a5.55,5.55,0,0,0,5.55-5.55V64.947H38.138Z" transform="translate(-38.138 -64.947)" fill="#995222"/>
            </g>
          </g>
        </g>
        <g id="Grupo_1210079" data-name="Grupo 1210079" transform="translate(19.926 10.686)">
          <g id="Grupo_1210078" data-name="Grupo 1210078" transform="translate(0 0)">
            <path id="Trazado_1081755" data-name="Trazado 1081755" d="M114.787,64.947v4.782a5.55,5.55,0,0,1-5.55,5.55h.962a5.55,5.55,0,0,0,5.55-5.55V64.947Z" transform="translate(-109.237 -64.947)" fill="#8c3f0a"/>
          </g>
        </g>
        <g id="Grupo_1210119" data-name="Grupo 1210119" transform="translate(0 10.686)">
          <g id="Grupo_1210118" data-name="Grupo 1210118" transform="translate(0 0)">
            <g id="Grupo_1210092" data-name="Grupo 1210092" transform="translate(4.858 1.342)">
              <g id="Grupo_1210086" data-name="Grupo 1210086" transform="translate(20.136)">
                <g id="Grupo_1210081" data-name="Grupo 1210081">
                  <g id="Grupo_1210080" data-name="Grupo 1210080">
                    <path id="Trazado_1081756" data-name="Trazado 1081756" d="M135.775,71.921v3.385a8.884,8.884,0,0,1-.2,1.865c.066.005.131.01.2.01a2.63,2.63,0,1,0,0-5.26Z" transform="translate(-135.577 -71.921)" fill="#ffd2c0"/>
                  </g>
                </g>
                <g id="Grupo_1210083" data-name="Grupo 1210083" transform="translate(0 0.588)">
                  <g id="Grupo_1210082" data-name="Grupo 1210082">
                    <path id="Trazado_1081757" data-name="Trazado 1081757" d="M137.433,74.979a2.629,2.629,0,0,1-1.782,4.274c-.022.13-.046.259-.073.387.066,0,.131.011.2.011a2.629,2.629,0,0,0,1.657-4.672Z" transform="translate(-135.578 -74.979)" fill="#fcc4ae"/>
                  </g>
                </g>
                <g id="Grupo_1210085" data-name="Grupo 1210085" transform="translate(0.177 1.283)">
                  <g id="Grupo_1210084" data-name="Grupo 1210084">
                    <path id="Trazado_1081758" data-name="Trazado 1081758" d="M136.517,78.588v2.1c0,.2-.009.4-.022.591h.022a1.347,1.347,0,1,0,0-2.694Z" transform="translate(-136.495 -78.588)" fill="#f2ad97"/>
                  </g>
                </g>
              </g>
              <g id="Grupo_1210091" data-name="Grupo 1210091" transform="translate(0 0)">
                <g id="Grupo_1210088" data-name="Grupo 1210088">
                  <g id="Grupo_1210087" data-name="Grupo 1210087">
                    <path id="Trazado_1081759" data-name="Trazado 1081759" d="M33.571,75.306V71.921a2.63,2.63,0,1,0,0,5.26c.067,0,.133,0,.2-.01A8.885,8.885,0,0,1,33.571,75.306Z" transform="translate(-30.941 -71.921)" fill="#ffd2c0"/>
                  </g>
                </g>
                <g id="Grupo_1210090" data-name="Grupo 1210090" transform="translate(1.283 1.283)">
                  <g id="Grupo_1210089" data-name="Grupo 1210089">
                    <path id="Trazado_1081760" data-name="Trazado 1081760" d="M38.955,80.69v-2.1a1.347,1.347,0,1,0,0,2.694h.022C38.964,81.086,38.955,80.889,38.955,80.69Z" transform="translate(-37.608 -78.588)" fill="#f2ad97"/>
                  </g>
                </g>
              </g>
            </g>
            <g id="Grupo_1210094" data-name="Grupo 1210094" transform="translate(0 16.481)">
              <g id="Grupo_1210093" data-name="Grupo 1210093">
                <path id="Trazado_1081761" data-name="Trazado 1081761" d="M36.452,169.061H7.619A1.924,1.924,0,0,1,5.7,167.137V160.21a9.622,9.622,0,0,1,9.622-9.622H28.754a9.622,9.622,0,0,1,9.622,9.622v6.927a1.924,1.924,0,0,1-1.924,1.924Z" transform="translate(-5.695 -150.588)" fill="#ccdd63"/>
              </g>
            </g>
            <g id="Grupo_1210097" data-name="Grupo 1210097" transform="translate(0.77 19.991)">
              <g id="Grupo_1210096" data-name="Grupo 1210096">
                <g id="Grupo_1210095" data-name="Grupo 1210095">
                  <path id="Trazado_1081762" data-name="Trazado 1081762" d="M10.08,180.625a.385.385,0,0,1-.385-.385v-5.3a8.819,8.819,0,0,1,1.334-4.669.385.385,0,1,1,.653.407,8.049,8.049,0,0,0-1.218,4.262v5.3A.385.385,0,0,1,10.08,180.625Zm2.2-10.993a.385.385,0,0,1-.285-.643l.036-.039a.385.385,0,0,1,.564.524l-.029.032A.384.384,0,0,1,12.284,169.632Z" transform="translate(-9.695 -168.826)" fill="#eaf1c0"/>
                </g>
              </g>
            </g>
            <g id="Grupo_1210099" data-name="Grupo 1210099" transform="translate(0 18.405)">
              <g id="Grupo_1210098" data-name="Grupo 1210098" transform="translate(0 0)">
                <path id="Trazado_1081763" data-name="Trazado 1081763" d="M34.528,160.588a9.578,9.578,0,0,1,1.924,5.773v6.927a1.924,1.924,0,0,1-1.924,1.924H5.7a1.924,1.924,0,0,0,1.924,1.924H36.452a1.924,1.924,0,0,0,1.924-1.924v-6.927A9.607,9.607,0,0,0,34.528,160.588Z" transform="translate(-5.695 -160.588)" fill="#8d9a44"/>
              </g>
            </g>
            <g id="Grupo_1210101" data-name="Grupo 1210101" transform="translate(0.171 18.837)">
              <g id="Grupo_1210100" data-name="Grupo 1210100" transform="translate(0 0)">
                <path id="Trazado_1081764" data-name="Trazado 1081764" d="M35.777,162.831a9.582,9.582,0,0,1,2.356,6.3v6.927a1.924,1.924,0,0,1-1.924,1.924H7.376a1.916,1.916,0,0,1-.791-.171,1.923,1.923,0,0,0,1.753,1.133H37.171a1.924,1.924,0,0,0,1.924-1.924V170.1A9.6,9.6,0,0,0,35.777,162.831Z" transform="translate(-6.585 -162.831)" fill="#656e31"/>
              </g>
            </g>
            <g id="Grupo_1210103" data-name="Grupo 1210103" transform="translate(12.107 16.481)">
              <g id="Grupo_1210102" data-name="Grupo 1210102">
                <path id="Trazado_1081765" data-name="Trazado 1081765" d="M72.842,155.979a4.234,4.234,0,0,0,4.234-4.234v-1.157H68.608v1.157A4.234,4.234,0,0,0,72.842,155.979Z" transform="translate(-68.608 -150.588)" fill="#8d9a44"/>
              </g>
            </g>
            <g id="Grupo_1210105" data-name="Grupo 1210105" transform="translate(13.23 13.016)">
              <g id="Grupo_1210104" data-name="Grupo 1210104">
                <path id="Trazado_1081766" data-name="Trazado 1081766" d="M77.552,133.148a8.832,8.832,0,0,1-3.111-.564v4.587a3.111,3.111,0,1,0,6.222,0v-4.587A8.832,8.832,0,0,1,77.552,133.148Z" transform="translate(-74.441 -132.584)" fill="#fcc4ae"/>
              </g>
            </g>
            <g id="Grupo_1210107" data-name="Grupo 1210107" transform="translate(13.23 13.016)">
              <g id="Grupo_1210106" data-name="Grupo 1210106">
                <path id="Trazado_1081767" data-name="Trazado 1081767" d="M77.552,133.148a8.832,8.832,0,0,1-3.111-.564v.962a8.868,8.868,0,0,0,6.222,0v-.962A8.832,8.832,0,0,1,77.552,133.148Z" transform="translate(-74.441 -132.584)" fill="#f2ad97"/>
              </g>
            </g>
            <g id="Grupo_1210109" data-name="Grupo 1210109" transform="translate(7.489)">
              <g id="Grupo_1210108" data-name="Grupo 1210108">
                <path id="Trazado_1081768" data-name="Trazado 1081768" d="M44.61,64.947c0,.027,0,.053,0,.08v4.647a8.852,8.852,0,0,0,17.7,0V65.027c0-.027,0-.053,0-.08Z" transform="translate(-44.608 -64.947)" fill="#ffd2c0"/>
              </g>
            </g>
            <g id="Grupo_1210111" data-name="Grupo 1210111" transform="translate(9.62)">
              <g id="Grupo_1210110" data-name="Grupo 1210110">
                <path id="Trazado_1081769" data-name="Trazado 1081769" d="M70.3,64.947v3.765a8.85,8.85,0,0,1-14.611,6.721,8.85,8.85,0,0,0,15.573-5.758l0-4.728Z" transform="translate(-55.686 -64.947)" fill="#fcc4ae"/>
              </g>
            </g>
            <g id="Grupo_1210113" data-name="Grupo 1210113" transform="translate(19.171 1.663)">
              <g id="Grupo_1210112" data-name="Grupo 1210112">
                <circle id="Elipse_11514" data-name="Elipse 11514" cx="1.018" cy="1.018" r="1.018" fill="#995222"/>
              </g>
            </g>
            <g id="Grupo_1210115" data-name="Grupo 1210115" transform="translate(11.474 1.663)">
              <g id="Grupo_1210114" data-name="Grupo 1210114">
                <circle id="Elipse_11515" data-name="Elipse 11515" cx="1.018" cy="1.018" r="1.018" fill="#995222"/>
              </g>
            </g>
            <g id="Grupo_1210117" data-name="Grupo 1210117" transform="translate(14.16 7.948)">
              <g id="Grupo_1210116" data-name="Grupo 1210116">
                <path id="Trazado_1081770" data-name="Trazado 1081770" d="M81.455,107.546c1.2,0,2.181-.582,2.181-1.3H79.274C79.274,106.963,80.25,107.546,81.455,107.546Z" transform="translate(-79.274 -106.245)" fill="#995222"/>
              </g>
            </g>
          </g>
        </g>
        <g id="Grupo_1210124" data-name="Grupo 1210124" transform="translate(6.243 0)">
          <g id="Grupo_1210121" data-name="Grupo 1210121">
            <g id="Grupo_1210120" data-name="Grupo 1210120">
              <path id="Trazado_1081771" data-name="Trazado 1081771" d="M61.964,17.541H58.333v-.425a7.7,7.7,0,0,0-7.7-7.7h-4.8a7.7,7.7,0,0,0-7.7,7.7V20.1H61.964a1.282,1.282,0,0,0,0-2.564Z" transform="translate(-38.138 -9.418)" fill="#ccdd63"/>
            </g>
          </g>
          <g id="Grupo_1210123" data-name="Grupo 1210123" transform="translate(7.604 6.617)">
            <g id="Grupo_1210122" data-name="Grupo 1210122">
              <path id="Trazado_1081772" data-name="Trazado 1081772" d="M78.613,43.8h3.062a.962.962,0,0,1,.962.962v1.182a.385.385,0,0,1-.385.385H78.036a.385.385,0,0,1-.385-.385V44.765A.962.962,0,0,1,78.613,43.8Z" transform="translate(-77.651 -43.803)" fill="#ccdd63"/>
            </g>
          </g>
        </g>
        <g id="Grupo_1210126" data-name="Grupo 1210126" transform="translate(6.243 8.156)">
          <g id="Grupo_1210125" data-name="Grupo 1210125">
            <path id="Trazado_1081773" data-name="Trazado 1081773" d="M62.251,51.8A1.278,1.278,0,0,1,61,53.367H38.138v.962H61.964a1.281,1.281,0,0,0,.286-2.53Z" transform="translate(-38.138 -51.799)" fill="#8d9a44"/>
          </g>
        </g>
      </g>
      <g id="Grupo_1210216" data-name="Grupo 1210216" transform="translate(26.004 30.135)">
        <g id="Grupo_1210150" data-name="Grupo 1210150" transform="translate(0 6.451)">
          <g id="Grupo_1210149" data-name="Grupo 1210149">
            <g id="Grupo_1210148" data-name="Grupo 1210148">
              <g id="Grupo_1210147" data-name="Grupo 1210147">
                <g id="Grupo_1210146" data-name="Grupo 1210146">
                  <g id="Grupo_1210129" data-name="Grupo 1210129" transform="translate(2.33)">
                    <g id="Grupo_1210128" data-name="Grupo 1210128">
                      <path id="Trazado_1081774" data-name="Trazado 1081774" d="M145.44,165.866V151.55a.962.962,0,0,0-.962-.962H124.3a.962.962,0,0,0-.962.962v14.316Z" transform="translate(-123.336 -150.588)" fill="#58595b"/>
                    </g>
                  </g>
                  <g id="Grupo_1210131" data-name="Grupo 1210131" transform="translate(2.33)">
                    <g id="Grupo_1210130" data-name="Grupo 1210130">
                      <path id="Trazado_1081775" data-name="Trazado 1081775" d="M144.478,150.588v13.931a.385.385,0,0,1-.385.385H123.336v.962h22.1V151.55A.962.962,0,0,0,144.478,150.588Z" transform="translate(-123.336 -150.588)" fill="#414042"/>
                    </g>
                  </g>
                  <g id="Grupo_1210133" data-name="Grupo 1210133" transform="translate(12.973 0.613)">
                    <g id="Grupo_1210132" data-name="Grupo 1210132">
                      <circle id="Elipse_11516" data-name="Elipse 11516" cx="0.409" cy="0.409" r="0.409" fill="#939598"/>
                    </g>
                  </g>
                  <g id="Grupo_1210135" data-name="Grupo 1210135" transform="translate(13.004 0.643)">
                    <g id="Grupo_1210134" data-name="Grupo 1210134">
                      <path id="Trazado_1081776" data-name="Trazado 1081776" d="M179.334,153.931a.408.408,0,0,1-.533.533.409.409,0,1,0,.533-.533Z" transform="translate(-178.801 -153.931)" fill="#808285"/>
                    </g>
                  </g>
                  <g id="Grupo_1210137" data-name="Grupo 1210137" transform="translate(3.969 2.06)">
                    <g id="Grupo_1210136" data-name="Grupo 1210136">
                      <path id="Trazado_1081777" data-name="Trazado 1081777" d="M150.678,174.513V161.68a.385.385,0,0,0-.385-.385H132.236a.385.385,0,0,0-.385.385v12.833Z" transform="translate(-131.851 -161.295)" fill="#ffc91d"/>
                    </g>
                  </g>
                  <g id="Grupo_1210139" data-name="Grupo 1210139" transform="translate(3.969 2.06)">
                    <g id="Grupo_1210138" data-name="Grupo 1210138">
                      <path id="Trazado_1081778" data-name="Trazado 1081778" d="M150.293,161.295h-.577v11.87a.385.385,0,0,1-.385.385H131.851v.962h18.827V161.68A.385.385,0,0,0,150.293,161.295Z" transform="translate(-131.851 -161.295)" fill="#ffa91a"/>
                    </g>
                  </g>
                  <g id="Grupo_1210141" data-name="Grupo 1210141" transform="translate(0 15.278)">
                    <g id="Grupo_1210140" data-name="Grupo 1210140">
                      <path id="Trazado_1081779" data-name="Trazado 1081779" d="M111.227,230.363v1.848a.962.962,0,0,0,.962.962h24.84a.962.962,0,0,0,.962-.962v-1.848a.385.385,0,0,0-.385-.385H111.612A.385.385,0,0,0,111.227,230.363Z" transform="translate(-111.227 -229.978)" fill="#939598"/>
                    </g>
                  </g>
                  <g id="Grupo_1210143" data-name="Grupo 1210143" transform="translate(0 15.278)">
                    <g id="Grupo_1210142" data-name="Grupo 1210142">
                      <path id="Trazado_1081780" data-name="Trazado 1081780" d="M137.607,229.978h-.577v1.271a.962.962,0,0,1-.962.962h-24.84a.962.962,0,0,0,.962.962h24.84a.962.962,0,0,0,.962-.962v-1.848A.385.385,0,0,0,137.607,229.978Z" transform="translate(-111.227 -229.978)" fill="#808285"/>
                    </g>
                  </g>
                  <g id="Grupo_1210145" data-name="Grupo 1210145" transform="translate(8.94 15.278)">
                    <g id="Grupo_1210144" data-name="Grupo 1210144">
                      <path id="Trazado_1081781" data-name="Trazado 1081781" d="M157.684,229.978v.608a.557.557,0,0,0,.558.558h7.769a.557.557,0,0,0,.558-.558v-.608Z" transform="translate(-157.684 -229.978)" fill="#414042"/>
                    </g>
                  </g>
                </g>
              </g>
            </g>
          </g>
        </g>
        <g id="Grupo_1210197" data-name="Grupo 1210197" transform="translate(5.131 3.13)">
          <g id="Grupo_1210170" data-name="Grupo 1210170">
            <g id="Grupo_1210152" data-name="Grupo 1210152" transform="translate(0 0)">
              <g id="Grupo_1210151" data-name="Grupo 1210151">
                <path id="Trazado_1081782" data-name="Trazado 1081782" d="M153.431,148.412H138.854a.962.962,0,0,1-.962-.962V134.293a.962.962,0,0,1,.962-.962h14.577a.962.962,0,0,1,.962.962V147.45A.962.962,0,0,1,153.431,148.412Z" transform="translate(-137.892 -133.331)" fill="#e6e7e8"/>
              </g>
            </g>
            <path id="Trazado_1081783" data-name="Trazado 1081783" d="M218.639,146.263h.962v10.1h-.962Z" transform="translate(-203.1 -143.774)" fill="#d1d3d4"/>
            <g id="Grupo_1210154" data-name="Grupo 1210154">
              <g id="Grupo_1210153" data-name="Grupo 1210153">
                <path id="Trazado_1081784" data-name="Trazado 1081784" d="M154.393,134.293a.962.962,0,0,0-.962-.962H138.854a.962.962,0,0,0-.962.962v1.526h16.5Z" transform="translate(-137.892 -133.331)" fill="#58595b"/>
              </g>
            </g>
            <g id="Grupo_1210156" data-name="Grupo 1210156" transform="translate(14.577)">
              <g id="Grupo_1210155" data-name="Grupo 1210155">
                <path id="Trazado_1081785" data-name="Trazado 1081785" d="M214.6,133.331h-.962a.962.962,0,0,1,.962.962v1.526h.962v-1.526A.962.962,0,0,0,214.6,133.331Z" transform="translate(-213.639 -133.331)" fill="#414042"/>
              </g>
            </g>
            <g id="Grupo_1210158" data-name="Grupo 1210158" transform="translate(0 12.593)">
              <g id="Grupo_1210157" data-name="Grupo 1210157">
                <path id="Trazado_1081786" data-name="Trazado 1081786" d="M154.393,200.293a.962.962,0,0,1-.962.962H138.854a.962.962,0,0,1-.962-.962v-1.526h16.5Z" transform="translate(-137.892 -198.767)" fill="#58595b"/>
              </g>
            </g>
            <g id="Grupo_1210160" data-name="Grupo 1210160" transform="translate(0 12.593)">
              <g id="Grupo_1210159" data-name="Grupo 1210159">
                <path id="Trazado_1081787" data-name="Trazado 1081787" d="M153.431,198.767v.564a.962.962,0,0,1-.962.962H137.892a.962.962,0,0,0,.962.962h14.577a.962.962,0,0,0,.962-.962v-1.526Z" transform="translate(-137.892 -198.767)" fill="#414042"/>
              </g>
            </g>
            <g id="Grupo_1210162" data-name="Grupo 1210162" transform="translate(1.371 3.047)">
              <g id="Grupo_1210161" data-name="Grupo 1210161">
                <path id="Trazado_1081788" data-name="Trazado 1081788" d="M157.814,158.152H145.979a.962.962,0,0,1-.962-.962v-7.062a.962.962,0,0,1,.962-.962h11.835a.962.962,0,0,1,.962.962v7.062A.962.962,0,0,1,157.814,158.152Z" transform="translate(-145.017 -149.165)" fill="#a54af4"/>
              </g>
            </g>
            <g id="Grupo_1210164" data-name="Grupo 1210164" transform="translate(1.371 3.047)">
              <g id="Grupo_1210163" data-name="Grupo 1210163">
                <path id="Trazado_1081789" data-name="Trazado 1081789" d="M157.814,149.166v7.062a.962.962,0,0,1-.962.962H145.017a.962.962,0,0,0,.962.962h11.835a.962.962,0,0,0,.962-.962v-7.062A.962.962,0,0,0,157.814,149.166Z" transform="translate(-145.017 -149.166)" fill="#893add"/>
              </g>
            </g>
            <g id="Grupo_1210167" data-name="Grupo 1210167" transform="translate(6.353 5.202)">
              <g id="Grupo_1210166" data-name="Grupo 1210166">
                <g id="Grupo_1210165" data-name="Grupo 1210165">
                  <path id="Trazado_1081790" data-name="Trazado 1081790" d="M170.9,164.672v-3.946a.365.365,0,0,1,.564-.307l3.044,1.973a.365.365,0,0,1,0,.613l-3.044,1.973A.365.365,0,0,1,170.9,164.672Z" transform="translate(-170.902 -160.36)" fill="#ffc91d"/>
                </g>
              </g>
            </g>
            <g id="Grupo_1210169" data-name="Grupo 1210169" transform="translate(6.353 6.703)">
              <g id="Grupo_1210168" data-name="Grupo 1210168">
                <path id="Trazado_1081791" data-name="Trazado 1081791" d="M174.51,168.692l-.82-.531a.357.357,0,0,1-.142.182l-2.646,1.715v.914a.365.365,0,0,0,.564.307l3.044-1.973A.365.365,0,0,0,174.51,168.692Z" transform="translate(-170.902 -168.161)" fill="#ffa91a"/>
              </g>
            </g>
          </g>
          <g id="Grupo_1210196" data-name="Grupo 1210196" transform="translate(1.371 0.604)">
            <g id="Grupo_1210172" data-name="Grupo 1210172" transform="translate(3.148 12.707)">
              <g id="Grupo_1210171" data-name="Grupo 1210171">
                <path id="Trazado_1081792" data-name="Trazado 1081792" d="M162.4,203.665h-.875a.146.146,0,0,1-.146-.146v-.875a.146.146,0,0,1,.146-.146h.875a.146.146,0,0,1,.146.146v.875A.146.146,0,0,1,162.4,203.665Z" transform="translate(-161.375 -202.497)" fill="#e6e7e8"/>
              </g>
            </g>
            <g id="Grupo_1210195" data-name="Grupo 1210195">
              <g id="Grupo_1210174" data-name="Grupo 1210174" transform="translate(3.148)">
                <g id="Grupo_1210173" data-name="Grupo 1210173">
                  <path id="Trazado_1081793" data-name="Trazado 1081793" d="M162.4,137.635h-.875a.146.146,0,0,1-.146-.146v-.875a.146.146,0,0,1,.146-.146h.875a.146.146,0,0,1,.146.146v.875A.146.146,0,0,1,162.4,137.635Z" transform="translate(-161.375 -136.467)" fill="#e6e7e8"/>
                </g>
              </g>
              <g id="Grupo_1210179" data-name="Grupo 1210179">
                <g id="Grupo_1210176" data-name="Grupo 1210176">
                  <g id="Grupo_1210175" data-name="Grupo 1210175">
                    <path id="Trazado_1081794" data-name="Trazado 1081794" d="M146.038,137.635h-.875a.146.146,0,0,1-.146-.146v-.875a.146.146,0,0,1,.146-.146h.875a.146.146,0,0,1,.146.146v.875A.146.146,0,0,1,146.038,137.635Z" transform="translate(-145.017 -136.467)" fill="#e6e7e8"/>
                  </g>
                </g>
                <g id="Grupo_1210178" data-name="Grupo 1210178" transform="translate(0 12.707)">
                  <g id="Grupo_1210177" data-name="Grupo 1210177">
                    <path id="Trazado_1081795" data-name="Trazado 1081795" d="M146.038,203.665h-.875a.146.146,0,0,1-.146-.146v-.875a.146.146,0,0,1,.146-.146h.875a.146.146,0,0,1,.146.146v.875A.146.146,0,0,1,146.038,203.665Z" transform="translate(-145.017 -202.497)" fill="#e6e7e8"/>
                  </g>
                </g>
              </g>
              <g id="Grupo_1210184" data-name="Grupo 1210184" transform="translate(6.296)">
                <g id="Grupo_1210181" data-name="Grupo 1210181">
                  <g id="Grupo_1210180" data-name="Grupo 1210180">
                    <path id="Trazado_1081796" data-name="Trazado 1081796" d="M178.754,137.635h-.875a.146.146,0,0,1-.146-.146v-.875a.146.146,0,0,1,.146-.146h.875a.146.146,0,0,1,.146.146v.875A.146.146,0,0,1,178.754,137.635Z" transform="translate(-177.733 -136.467)" fill="#e6e7e8"/>
                  </g>
                </g>
                <g id="Grupo_1210183" data-name="Grupo 1210183" transform="translate(0 12.707)">
                  <g id="Grupo_1210182" data-name="Grupo 1210182">
                    <path id="Trazado_1081797" data-name="Trazado 1081797" d="M178.754,203.665h-.875a.146.146,0,0,1-.146-.146v-.875a.146.146,0,0,1,.146-.146h.875a.146.146,0,0,1,.146.146v.875A.146.146,0,0,1,178.754,203.665Z" transform="translate(-177.733 -202.497)" fill="#e6e7e8"/>
                  </g>
                </g>
              </g>
              <g id="Grupo_1210189" data-name="Grupo 1210189" transform="translate(9.444)">
                <g id="Grupo_1210186" data-name="Grupo 1210186">
                  <g id="Grupo_1210185" data-name="Grupo 1210185">
                    <path id="Trazado_1081798" data-name="Trazado 1081798" d="M195.111,137.635h-.875a.146.146,0,0,1-.146-.146v-.875a.146.146,0,0,1,.146-.146h.875a.146.146,0,0,1,.146.146v.875A.146.146,0,0,1,195.111,137.635Z" transform="translate(-194.09 -136.467)" fill="#e6e7e8"/>
                  </g>
                </g>
                <g id="Grupo_1210188" data-name="Grupo 1210188" transform="translate(0 12.707)">
                  <g id="Grupo_1210187" data-name="Grupo 1210187">
                    <path id="Trazado_1081799" data-name="Trazado 1081799" d="M195.111,203.665h-.875a.146.146,0,0,1-.146-.146v-.875a.146.146,0,0,1,.146-.146h.875a.146.146,0,0,1,.146.146v.875A.146.146,0,0,1,195.111,203.665Z" transform="translate(-194.09 -202.497)" fill="#e6e7e8"/>
                  </g>
                </g>
              </g>
              <g id="Grupo_1210194" data-name="Grupo 1210194" transform="translate(12.592)">
                <g id="Grupo_1210191" data-name="Grupo 1210191" transform="translate(0)">
                  <g id="Grupo_1210190" data-name="Grupo 1210190">
                    <path id="Trazado_1081800" data-name="Trazado 1081800" d="M211.469,137.635h-.875a.146.146,0,0,1-.146-.146v-.875a.146.146,0,0,1,.146-.146h.875a.146.146,0,0,1,.146.146v.875A.146.146,0,0,1,211.469,137.635Z" transform="translate(-210.448 -136.467)" fill="#e6e7e8"/>
                  </g>
                </g>
                <g id="Grupo_1210193" data-name="Grupo 1210193" transform="translate(0 12.707)">
                  <g id="Grupo_1210192" data-name="Grupo 1210192">
                    <path id="Trazado_1081801" data-name="Trazado 1081801" d="M211.386,203.664h-.711a.228.228,0,0,1-.228-.228v-.711a.228.228,0,0,1,.228-.228h.711a.228.228,0,0,1,.228.228v.711A.228.228,0,0,1,211.386,203.664Z" transform="translate(-210.447 -202.496)" fill="#e6e7e8"/>
                  </g>
                </g>
              </g>
            </g>
          </g>
        </g>
        <g id="Grupo_1210215" data-name="Grupo 1210215" transform="translate(14.872)">
          <g id="Grupo_1210199" data-name="Grupo 1210199" transform="translate(0 6.156)">
            <g id="Grupo_1210198" data-name="Grupo 1210198">
              <path id="Trazado_1081802" data-name="Trazado 1081802" d="M189.257,149.057l-.74,2.423a.192.192,0,0,0,.24.24l2.422-.74Z" transform="translate(-188.509 -149.057)" fill="#ffd2c0"/>
            </g>
          </g>
          <g id="Grupo_1210201" data-name="Grupo 1210201" transform="translate(0 7.807)">
            <g id="Grupo_1210200" data-name="Grupo 1210200">
              <path id="Trazado_1081803" data-name="Trazado 1081803" d="M190.908,157.635l-2.376.726-.014.046a.192.192,0,0,0,.24.24l2.422-.74Z" transform="translate(-188.509 -157.635)" fill="#fcc4ae"/>
            </g>
          </g>
          <g id="Grupo_1210203" data-name="Grupo 1210203" transform="translate(0 7.688)">
            <g id="Grupo_1210202" data-name="Grupo 1210202">
              <path id="Trazado_1081804" data-name="Trazado 1081804" d="M188.79,157.02l-.272.89a.192.192,0,0,0,.24.24l.89-.272Z" transform="translate(-188.509 -157.02)" fill="#58595b"/>
            </g>
          </g>
          <g id="Grupo_1210205" data-name="Grupo 1210205" transform="translate(0 8.275)">
            <g id="Grupo_1210204" data-name="Grupo 1210204">
              <path id="Trazado_1081805" data-name="Trazado 1081805" d="M189.376,160.068l-.844.258-.014.046a.192.192,0,0,0,.24.24l.89-.272Z" transform="translate(-188.509 -160.068)" fill="#414042"/>
            </g>
          </g>
          <g id="Grupo_1210208" data-name="Grupo 1210208" transform="translate(0.748)">
            <g id="Grupo_1210207" data-name="Grupo 1210207">
              <g id="Grupo_1210206" data-name="Grupo 1210206">
                <path id="Trazado_1081806" data-name="Trazado 1081806" d="M194.321,125.147l-1.923-1.923,6.043-6.043a.385.385,0,0,1,.544,0l1.378,1.378a.385.385,0,0,1,0,.544l-3.014,3.014Z" transform="translate(-192.398 -117.068)" fill="#4e8f7d"/>
              </g>
            </g>
          </g>
          <g id="Grupo_1210210" data-name="Grupo 1210210" transform="translate(2.399 1.219)">
            <g id="Grupo_1210209" data-name="Grupo 1210209">
              <path id="Trazado_1081807" data-name="Trazado 1081807" d="M207.291,124.22a.385.385,0,0,0,0-.544l-.272-.272a.385.385,0,0,1,0,.544l-6.043,6.043.272.272Z" transform="translate(-200.976 -123.404)" fill="#366356"/>
            </g>
          </g>
          <g id="Grupo_1210212" data-name="Grupo 1210212" transform="translate(5.881 0)">
            <g id="Grupo_1210211" data-name="Grupo 1210211">
              <path id="Trazado_1081808" data-name="Trazado 1081808" d="M220.994,120.015l.91-.91a.385.385,0,0,0,0-.544l-1.378-1.378a.385.385,0,0,0-.544,0l-.91.91Z" transform="translate(-219.071 -117.069)" fill="#e8566f"/>
            </g>
          </g>
          <g id="Grupo_1210214" data-name="Grupo 1210214" transform="translate(7.532 1.219)">
            <g id="Grupo_1210213" data-name="Grupo 1210213">
              <path id="Trazado_1081809" data-name="Trazado 1081809" d="M228.831,123.675l-.272-.272a.385.385,0,0,1,0,.544l-.91.91.272.272.91-.91A.385.385,0,0,0,228.831,123.675Z" transform="translate(-227.648 -123.403)" fill="#e63950"/>
            </g>
          </g>
        </g>
      </g>
    </g>
  </g>
</svg>
