<svg xmlns="http://www.w3.org/2000/svg" xmlns:xlink="http://www.w3.org/1999/xlink" width="89" height="89" viewBox="0 0 89 89">
  <defs>
    <linearGradient id="linear-gradient" x1="0.388" y1="-0.016" x2="0.492" y2="0.787" gradientUnits="objectBoundingBox">
      <stop offset="0" stop-color="#fffaf8"/>
      <stop offset="1" stop-color="#ffdfcf"/>
    </linearGradient>
    <linearGradient id="linear-gradient-2" x1="0.5" y1="0.817" x2="0.5" y2="0.441" gradientUnits="objectBoundingBox">
      <stop offset="0" stop-color="#f89580"/>
      <stop offset="0.235" stop-color="#f08b75"/>
      <stop offset="0.645" stop-color="#da7258"/>
      <stop offset="1" stop-color="#c4573a"/>
    </linearGradient>
    <linearGradient id="linear-gradient-3" x1="0.5" y1="0.817" x2="0.5" y2="0.441" gradientUnits="objectBoundingBox">
      <stop offset="0" stop-color="#c4573a" stop-opacity="0"/>
      <stop offset="1" stop-color="#883f2e"/>
    </linearGradient>
    <linearGradient id="linear-gradient-4" x1="0.294" y1="0.279" x2="1.099" y2="0.69" xlink:href="#linear-gradient-2"/>
    <linearGradient id="linear-gradient-5" x1="-0.312" y1="0.201" x2="0.814" y2="0.776" xlink:href="#linear-gradient-2"/>
    <linearGradient id="linear-gradient-6" x1="0.164" y1="0.32" x2="0.831" y2="0.677" xlink:href="#linear-gradient-2"/>
    <linearGradient id="linear-gradient-7" x1="0.101" y1="0.304" x2="0.869" y2="0.681" gradientUnits="objectBoundingBox">
      <stop offset="0" stop-color="#5a5a5a"/>
      <stop offset="1" stop-color="#444"/>
    </linearGradient>
    <linearGradient id="linear-gradient-8" x1="0.017" y1="0.223" x2="1.069" y2="0.826" xlink:href="#linear-gradient-7"/>
    <linearGradient id="linear-gradient-9" x1="0.5" y1="0.447" x2="0.5" y2="1.103" gradientUnits="objectBoundingBox">
      <stop offset="0" stop-color="#c4573a" stop-opacity="0"/>
      <stop offset="0.243" stop-color="#bb5438" stop-opacity="0.243"/>
      <stop offset="0.629" stop-color="#a44b33" stop-opacity="0.627"/>
      <stop offset="1" stop-color="#883f2e"/>
    </linearGradient>
    <linearGradient id="linear-gradient-10" x1="0.648" y1="0.526" x2="1.152" y2="0.62" xlink:href="#linear-gradient-9"/>
    <linearGradient id="linear-gradient-11" x1="-56.062" y1="0.526" x2="-55.558" y2="0.62" gradientUnits="objectBoundingBox">
      <stop offset="0" stop-color="#ffddcd" stop-opacity="0"/>
      <stop offset="0.997" stop-color="#ffddcd"/>
    </linearGradient>
    <linearGradient id="linear-gradient-12" x1="0.325" y1="0.213" x2="0.59" y2="0.927" xlink:href="#linear-gradient-7"/>
    <linearGradient id="linear-gradient-13" x1="0.413" y1="0.057" x2="0.594" y2="1.455" gradientUnits="objectBoundingBox">
      <stop offset="0" stop-color="#78a04d"/>
      <stop offset="1" stop-color="#334c0f"/>
    </linearGradient>
    <linearGradient id="linear-gradient-14" x1="0.359" y1="-1.169" x2="0.511" y2="0.741" gradientUnits="objectBoundingBox">
      <stop offset="0" stop-color="#d1f19e"/>
      <stop offset="1" stop-color="#78a91f"/>
    </linearGradient>
    <linearGradient id="linear-gradient-15" x1="0.5" y1="0.695" x2="0.5" y2="1.035" gradientUnits="objectBoundingBox">
      <stop offset="0" stop-color="#334c0f" stop-opacity="0"/>
      <stop offset="0.252" stop-color="#354b16" stop-opacity="0.251"/>
      <stop offset="0.611" stop-color="#3b4828" stop-opacity="0.612"/>
      <stop offset="1" stop-color="#444"/>
    </linearGradient>
    <linearGradient id="linear-gradient-16" x1="0.458" y1="0.412" x2="0.061" y2="0.189" xlink:href="#linear-gradient-15"/>
    <linearGradient id="linear-gradient-17" x1="1.156" y1="0.672" x2="0.374" y2="0.502" xlink:href="#linear-gradient-15"/>
    <linearGradient id="linear-gradient-18" x1="-0.227" y1="0.096" x2="1.229" y2="0.823" xlink:href="#linear-gradient-14"/>
    <linearGradient id="linear-gradient-19" x1="0.29" y1="0.281" x2="0.707" y2="0.789" gradientUnits="objectBoundingBox">
      <stop offset="0" stop-color="#fef0ae"/>
      <stop offset="1" stop-color="#fac600"/>
    </linearGradient>
    <linearGradient id="linear-gradient-20" x1="0.776" y1="0.776" x2="-0.709" y2="-0.709" gradientUnits="objectBoundingBox">
      <stop offset="0" stop-color="#fe9738"/>
      <stop offset="1" stop-color="#ef4424"/>
    </linearGradient>
    <linearGradient id="linear-gradient-21" x1="-0.411" y1="0.327" x2="1.214" y2="0.679" xlink:href="#linear-gradient-14"/>
    <linearGradient id="linear-gradient-23" x1="0.776" y1="0.776" x2="-0.709" y2="-0.709" xlink:href="#linear-gradient-20"/>
    <linearGradient id="linear-gradient-24" x1="0.5" y1="0.141" x2="0.5" y2="0.906" xlink:href="#linear-gradient-2"/>
    <linearGradient id="linear-gradient-25" x1="0.5" y1="0.672" x2="0.5" y2="0.19" xlink:href="#linear-gradient-3"/>
    <linearGradient id="linear-gradient-26" x1="0.771" y1="0.5" x2="0.974" y2="0.5" xlink:href="#linear-gradient-3"/>
    <linearGradient id="linear-gradient-28" x1="0.308" y1="0.18" x2="0.87" y2="0.743" gradientUnits="objectBoundingBox">
      <stop offset="0" stop-color="#b3dafe"/>
      <stop offset="1" stop-color="#0182fc"/>
    </linearGradient>
    <linearGradient id="linear-gradient-29" x1="-1.24" y1="-0.471" x2="0.85" y2="0.683" gradientUnits="objectBoundingBox">
      <stop offset="0" stop-color="#314dc9" stop-opacity="0"/>
      <stop offset="0.276" stop-color="#304bc4" stop-opacity="0.275"/>
      <stop offset="0.563" stop-color="#2b45b8" stop-opacity="0.565"/>
      <stop offset="0.854" stop-color="#243ba3" stop-opacity="0.855"/>
      <stop offset="1" stop-color="#1f3596"/>
    </linearGradient>
    <linearGradient id="linear-gradient-30" x1="0.5" y1="0.339" x2="0.5" y2="1.018" xlink:href="#linear-gradient-29"/>
    <linearGradient id="linear-gradient-31" x1="0.581" y1="0.5" x2="1.229" y2="0.5" xlink:href="#linear-gradient-29"/>
    <linearGradient id="linear-gradient-32" x1="0.695" y1="0.5" x2="1.027" y2="0.5" xlink:href="#linear-gradient-7"/>
    <linearGradient id="linear-gradient-33" x1="0.5" y1="0.622" x2="0.5" y2="0.073" gradientUnits="objectBoundingBox">
      <stop offset="0" stop-color="#433f43" stop-opacity="0"/>
      <stop offset="1" stop-color="#1a1a1a"/>
    </linearGradient>
    <linearGradient id="linear-gradient-34" y1="0.455" y2="0.984" xlink:href="#linear-gradient-33"/>
    <linearGradient id="linear-gradient-35" x1="0.314" y1="-0.04" x2="0.646" y2="0.923" xlink:href="#linear-gradient-7"/>
    <linearGradient id="linear-gradient-36" x1="0.5" y1="1.009" x2="0.5" y2="0.156" xlink:href="#linear-gradient-7"/>
    <linearGradient id="linear-gradient-37" x1="0.5" y1="1.009" x2="0.5" y2="0.156" xlink:href="#linear-gradient-7"/>
    <linearGradient id="linear-gradient-39" x1="0.751" y1="0.5" x2="1.014" y2="0.5" xlink:href="#linear-gradient-33"/>
    <linearGradient id="linear-gradient-40" y1="0.462" y2="1.133" xlink:href="#linear-gradient-33"/>
    <linearGradient id="linear-gradient-41" x1="0.5" y1="0.406" x2="0.5" y2="1.103" xlink:href="#linear-gradient-7"/>
    <linearGradient id="linear-gradient-42" y1="0.406" y2="1.103" xlink:href="#linear-gradient-33"/>
  </defs>
  <g id="Grupo_1211644" data-name="Grupo 1211644" transform="translate(-1092.051 -2148.644)">
    <g id="Grupo_1099471" data-name="Grupo 1099471" transform="translate(-159.282 1735.644)">
      <g id="Grupo_1098742" data-name="Grupo 1098742" transform="translate(1251.333 413)">
        <g id="Trazado_875734" data-name="Trazado 875734" fill="#4e8f7d" opacity="0.859">
          <path d="M 44.49999237060547 87.49999237060547 C 38.69436645507812 87.49999237060547 33.06320571899414 86.36328887939453 27.76291656494141 84.12145233154297 C 22.64269256591797 81.95578002929688 18.04394149780273 78.8551025390625 14.09440517425537 74.90557861328125 C 10.1448802947998 70.9560546875 7.044217586517334 66.35730743408203 4.878542423248291 61.23706817626953 C 2.636704921722412 55.9367790222168 1.500004887580872 50.30561828613281 1.500004887580872 44.49999237060547 C 1.500004887580872 38.69436645507812 2.636704921722412 33.06320571899414 4.878542423248291 27.76291656494141 C 7.044217586517334 22.64269256591797 10.1448802947998 18.04394149780273 14.09440517425537 14.09440517425537 C 18.04394149780273 10.1448802947998 22.64269256591797 7.044217586517334 27.76291656494141 4.878542423248291 C 33.06320571899414 2.636704921722412 38.69436645507812 1.500004887580872 44.49999237060547 1.500004887580872 C 50.30561828613281 1.500004887580872 55.9367790222168 2.636704921722412 61.23706817626953 4.878542423248291 C 66.35730743408203 7.044217586517334 70.9560546875 10.1448802947998 74.90557861328125 14.09440517425537 C 78.8551025390625 18.04394149780273 81.95578002929688 22.64269256591797 84.12145233154297 27.76291656494141 C 86.36328887939453 33.06320571899414 87.49999237060547 38.69436645507812 87.49999237060547 44.49999237060547 C 87.49999237060547 50.30561828613281 86.36328887939453 55.9367790222168 84.12145233154297 61.23706817626953 C 81.95578002929688 66.35730743408203 78.8551025390625 70.9560546875 74.90557861328125 74.90557861328125 C 70.9560546875 78.8551025390625 66.35730743408203 81.95578002929688 61.23706817626953 84.12145233154297 C 55.9367790222168 86.36328887939453 50.30561828613281 87.49999237060547 44.49999237060547 87.49999237060547 Z" stroke="none"/>
          <path d="M 44.49999237060547 2.999992370605469 C 38.89620590209961 2.999992370605469 33.46163558959961 4.096832275390625 28.34723663330078 6.260032653808594 C 23.40580749511719 8.350090026855469 18.96732330322266 11.34280395507812 15.15506744384766 15.15506744384766 C 11.34280395507812 18.96732330322266 8.350090026855469 23.40580749511719 6.260032653808594 28.34723663330078 C 4.096832275390625 33.46163558959961 2.999992370605469 38.89620590209961 2.999992370605469 44.49999237060547 C 2.999992370605469 50.10377883911133 4.096832275390625 55.53834915161133 6.260032653808594 60.65273284912109 C 8.350090026855469 65.59417724609375 11.34280395507812 70.03266143798828 15.15506744384766 73.84492492675781 C 18.96732330322266 77.65716552734375 23.40580749511719 80.64989471435547 28.34723663330078 82.73993682861328 C 33.46163558959961 84.90313720703125 38.89620590209961 85.99997711181641 44.49999237060547 85.99997711181641 C 50.10377883911133 85.99997711181641 55.53834915161133 84.90313720703125 60.65274810791016 82.73993682861328 C 65.59417724609375 80.64989471435547 70.03266143798828 77.65716552734375 73.84492492675781 73.84492492675781 C 77.65716552734375 70.03266143798828 80.64989471435547 65.59417724609375 82.73993682861328 60.65274810791016 C 84.90313720703125 55.53834915161133 85.99997711181641 50.10377883911133 85.99997711181641 44.49999237060547 C 85.99997711181641 38.89620590209961 84.90313720703125 33.46163558959961 82.73993682861328 28.34723663330078 C 80.64989471435547 23.40580749511719 77.65716552734375 18.96732330322266 73.84492492675781 15.15506744384766 C 70.03266143798828 11.34280395507812 65.59417724609375 8.350090026855469 60.65273284912109 6.260032653808594 C 55.53834915161133 4.096832275390625 50.10377883911133 2.999992370605469 44.49999237060547 2.999992370605469 M 44.49999237060547 -7.62939453125e-06 C 69.07666015625 -7.62939453125e-06 88.99997711181641 19.92332458496094 88.99997711181641 44.49999237060547 C 88.99997711181641 69.07666015625 69.07666015625 88.99997711181641 44.49999237060547 88.99997711181641 C 19.92332458496094 88.99997711181641 -7.62939453125e-06 69.07666015625 -7.62939453125e-06 44.49999237060547 C -7.62939453125e-06 19.92332458496094 19.92332458496094 -7.62939453125e-06 44.49999237060547 -7.62939453125e-06 Z" stroke="none" fill="#fff"/>
        </g>
        <g id="Trazado_875735" data-name="Trazado 875735" transform="translate(0)" fill="none">
          <path d="M44.5,0A44.5,44.5,0,1,1,0,44.5,44.5,44.5,0,0,1,44.5,0Z" stroke="none"/>
          <path d="M 44.49999237060547 2.999992370605469 C 38.89620590209961 2.999992370605469 33.46163558959961 4.096832275390625 28.34723663330078 6.260032653808594 C 23.40580749511719 8.350090026855469 18.96732330322266 11.34280395507812 15.15506744384766 15.15506744384766 C 11.34280395507812 18.96732330322266 8.350090026855469 23.40580749511719 6.260032653808594 28.34723663330078 C 4.096832275390625 33.46163558959961 2.999992370605469 38.89620590209961 2.999992370605469 44.49999237060547 C 2.999992370605469 50.10377883911133 4.096832275390625 55.53834915161133 6.260032653808594 60.65273284912109 C 8.350090026855469 65.59417724609375 11.34280395507812 70.03266143798828 15.15506744384766 73.84492492675781 C 18.96732330322266 77.65716552734375 23.40580749511719 80.64989471435547 28.34723663330078 82.73993682861328 C 33.46163558959961 84.90313720703125 38.89620590209961 85.99997711181641 44.49999237060547 85.99997711181641 C 50.10377883911133 85.99997711181641 55.53834915161133 84.90313720703125 60.65274810791016 82.73993682861328 C 65.59417724609375 80.64989471435547 70.03266143798828 77.65716552734375 73.84492492675781 73.84492492675781 C 77.65716552734375 70.03266143798828 80.64989471435547 65.59417724609375 82.73993682861328 60.65274810791016 C 84.90313720703125 55.53834915161133 85.99997711181641 50.10377883911133 85.99997711181641 44.49999237060547 C 85.99997711181641 38.89620590209961 84.90313720703125 33.46163558959961 82.73993682861328 28.34723663330078 C 80.64989471435547 23.40580749511719 77.65716552734375 18.96732330322266 73.84492492675781 15.15506744384766 C 70.03266143798828 11.34280395507812 65.59417724609375 8.350090026855469 60.65273284912109 6.260032653808594 C 55.53834915161133 4.096832275390625 50.10377883911133 2.999992370605469 44.49999237060547 2.999992370605469 M 44.49999237060547 -7.62939453125e-06 C 69.07666015625 -7.62939453125e-06 88.99997711181641 19.92332458496094 88.99997711181641 44.49999237060547 C 88.99997711181641 69.07666015625 69.07666015625 88.99997711181641 44.49999237060547 88.99997711181641 C 19.92332458496094 88.99997711181641 -7.62939453125e-06 69.07666015625 -7.62939453125e-06 44.49999237060547 C -7.62939453125e-06 19.92332458496094 19.92332458496094 -7.62939453125e-06 44.49999237060547 -7.62939453125e-06 Z" stroke="none" fill="#dbe8e4"/>
        </g>
      </g>
    </g>
    <g id="cash-register_8390021" transform="translate(1113.051 2170.141)">
      <g id="Grupo_1210062" data-name="Grupo 1210062" transform="translate(17.388 0)">
        <g id="Grupo_1210050" data-name="Grupo 1210050" transform="translate(0 22.961)">
          <path id="Trazado_1080774" data-name="Trazado 1080774" d="M221.62,291.64H196a1.111,1.111,0,0,1-1.1-1.118,10.733,10.733,0,0,1,10.665-10.8h6.5a10.733,10.733,0,0,1,10.665,10.8A1.111,1.111,0,0,1,221.62,291.64Z" transform="translate(-194.893 -277.728)" fill="url(#linear-gradient)"/>
          <g id="Grupo_1210049" data-name="Grupo 1210049" transform="translate(8.89)">
            <path id="Trazado_1080775" data-name="Trazado 1080775" d="M299.56,257.364h-5.026a6.646,6.646,0,0,0,1.822,4.394,4.272,4.272,0,0,0,6.409,0,6.646,6.646,0,0,0,1.822-4.394Z" transform="translate(-294.534 -257.364)" fill="url(#linear-gradient-2)"/>
            <path id="Trazado_1080776" data-name="Trazado 1080776" d="M299.56,257.364h-5.026a6.646,6.646,0,0,0,1.822,4.394,4.272,4.272,0,0,0,6.409,0,6.646,6.646,0,0,0,1.822-4.394Z" transform="translate(-294.534 -257.364)" fill="url(#linear-gradient-3)"/>
          </g>
        </g>
        <g id="Grupo_1210061" data-name="Grupo 1210061" transform="translate(2.695 4.3)">
          <g id="Grupo_1210060" data-name="Grupo 1210060">
            <g id="Grupo_1210059" data-name="Grupo 1210059">
              <g id="Grupo_1210051" data-name="Grupo 1210051" transform="translate(0 8.09)">
                <path id="Trazado_1080777" data-name="Trazado 1080777" d="M225.1,141.915a3.105,3.105,0,0,1,2.388-3.021.586.586,0,0,1,.716.573v4.9a.586.586,0,0,1-.716.573A3.1,3.1,0,0,1,225.1,141.915Z" transform="translate(-225.103 -138.879)" fill="url(#linear-gradient-4)"/>
                <path id="Trazado_1080778" data-name="Trazado 1080778" d="M444.952,141.915a3.105,3.105,0,0,0-2.388-3.021.586.586,0,0,0-.716.573v4.9a.586.586,0,0,0,.716.573A3.1,3.1,0,0,0,444.952,141.915Z" transform="translate(-422.511 -138.879)" fill="url(#linear-gradient-5)"/>
              </g>
              <g id="Grupo_1210054" data-name="Grupo 1210054" transform="translate(2.242)">
                <g id="Grupo_1210053" data-name="Grupo 1210053">
                  <g id="Grupo_1210052" data-name="Grupo 1210052">
                    <path id="Trazado_1080779" data-name="Trazado 1080779" d="M259.216,70.76a8.978,8.978,0,0,1-8.978-8.978v-4.6a8.978,8.978,0,0,1,17.956,0v4.6A8.978,8.978,0,0,1,259.216,70.76Z" transform="translate(-250.238 -48.2)" fill="url(#linear-gradient-6)"/>
                  </g>
                </g>
              </g>
              <g id="Grupo_1210055" data-name="Grupo 1210055" transform="translate(5.672 10.423)">
                <path id="Trazado_1080780" data-name="Trazado 1080780" d="M290.247,168.968a1.568,1.568,0,0,1-1.568-1.568v-.8a1.569,1.569,0,0,1,3.137,0v.8A1.569,1.569,0,0,1,290.247,168.968Z" transform="translate(-288.679 -165.027)" fill="url(#linear-gradient-7)"/>
                <path id="Trazado_1080781" data-name="Trazado 1080781" d="M379.466,168.968A1.568,1.568,0,0,1,377.9,167.4v-.8a1.568,1.568,0,1,1,3.137,0v.8A1.569,1.569,0,0,1,379.466,168.968Z" transform="translate(-369.937 -165.027)" fill="url(#linear-gradient-8)"/>
              </g>
              <g id="Grupo_1210058" data-name="Grupo 1210058" transform="translate(9.396 11.774)">
                <g id="Grupo_1210057" data-name="Grupo 1210057">
                  <g id="Grupo_1210056" data-name="Grupo 1210056">
                    <path id="Trazado_1080782" data-name="Trazado 1080782" d="M332.738,184.924h-.992a1.328,1.328,0,0,1-1.308-1.561l.466-2.62a.7.7,0,0,1,.688-.577h1.3a.7.7,0,0,1,.688.577l.466,2.62A1.328,1.328,0,0,1,332.738,184.924Z" transform="translate(-330.417 -180.167)" fill="url(#linear-gradient-9)"/>
                    <path id="Trazado_1080783" data-name="Trazado 1080783" d="M332.738,184.924h-.992a1.328,1.328,0,0,1-1.308-1.561l.466-2.62a.7.7,0,0,1,.688-.577h1.3a.7.7,0,0,1,.688.577l.466,2.62A1.328,1.328,0,0,1,332.738,184.924Z" transform="translate(-330.417 -180.167)" fill="url(#linear-gradient-10)"/>
                  </g>
                </g>
              </g>
              <path id="Trazado_1080784" data-name="Trazado 1080784" d="M331.746,184.924h.992a1.328,1.328,0,0,0,1.308-1.561l-.466-2.62a.7.7,0,0,0-.688-.577h-1.3a.7.7,0,0,0-.688.577l-.466,2.62A1.328,1.328,0,0,0,331.746,184.924Z" transform="translate(-321.022 -168.393)" fill="url(#linear-gradient-11)"/>
            </g>
          </g>
        </g>
        <path id="Trazado_1080785" data-name="Trazado 1080785" d="M242.751,13.943q-.109.053-.221.1a2,2,0,0,1-2.663-1.9v-.5a2.275,2.275,0,0,0-2.275-2.275h-9.546a2.275,2.275,0,0,0-2.275,2.275,1.7,1.7,0,0,1-2.971,1.138,6.028,6.028,0,0,1,.227-8.3l.526-.525A13.5,13.5,0,0,1,235.881.286a5.842,5.842,0,0,1,4.534,4.46,5.91,5.91,0,0,1,3.256,3.1c1.233,2.514.821,5.244-.921,6.1Z" transform="translate(-218.903 0)" fill="url(#linear-gradient-12)"/>
      </g>
      <g id="Grupo_1210066" data-name="Grupo 1210066" transform="translate(20.902 24.945)">
        <path id="Trazado_1080786" data-name="Trazado 1080786" d="M255.089,347.845V345.13a3.7,3.7,0,0,0-3.7-3.7H237.982a3.7,3.7,0,0,0-3.7,3.7v2.716Z" transform="translate(-234.287 -335.918)" fill="url(#linear-gradient-13)"/>
        <path id="Trazado_1080787" data-name="Trazado 1080787" d="M305.357,382.194V379.88a.732.732,0,0,0-.732-.732H296.2a.732.732,0,0,0-.732.732v2.314Z" transform="translate(-290.013 -370.267)" fill="url(#linear-gradient-14)"/>
        <path id="Trazado_1080788" data-name="Trazado 1080788" d="M255.089,347.845V345.13a3.7,3.7,0,0,0-3.7-3.7H237.982a3.7,3.7,0,0,0-3.7,3.7v2.716Z" transform="translate(-234.287 -335.918)" fill="url(#linear-gradient-15)"/>
        <path id="Trazado_1080789" data-name="Trazado 1080789" d="M262.544,341.434h-6.706a3.678,3.678,0,0,0-1.946.554v3.891l1.966,1.966h6.686v-6.411Z" transform="translate(-252.143 -335.918)" fill="url(#linear-gradient-16)"/>
        <path id="Trazado_1080790" data-name="Trazado 1080790" d="M421.6,341.434h-.434v4.445l1.966,1.966H425.3v-2.716A3.7,3.7,0,0,0,421.6,341.434Z" transform="translate(-404.497 -335.918)" fill="url(#linear-gradient-17)"/>
        <g id="Grupo_1210065" data-name="Grupo 1210065" transform="translate(0.966)">
          <g id="Grupo_1210063" data-name="Grupo 1210063" transform="translate(0 0.009)">
            <path id="Trazado_1080791" data-name="Trazado 1080791" d="M251.953,287.7a1.483,1.483,0,0,0,1.483-1.483V280.2a.5.5,0,0,0-.637-.477,11.106,11.106,0,0,0-2.066.856.5.5,0,0,0-.263.439v5.2A1.483,1.483,0,0,0,251.953,287.7Z" transform="translate(-249.993 -279.703)" fill="url(#linear-gradient-18)"/>
            <path id="Trazado_1080792" data-name="Trazado 1080792" d="M249.022,351.552a.946.946,0,0,0-.887-.653.155.155,0,0,1-.145-.105.946.946,0,0,0-1.791,0,.155.155,0,0,1-.145.105.946.946,0,0,0-.553,1.7.154.154,0,0,1,.055.171A.946.946,0,0,0,247,353.825a.155.155,0,0,1,.179,0,.946.946,0,0,0,1.449-1.053.155.155,0,0,1,.055-.171A.946.946,0,0,0,249.022,351.552Z" transform="translate(-245.119 -343.866)" fill="url(#linear-gradient-19)"/>
            <circle id="Elipse_11512" data-name="Elipse 11512" cx="0.912" cy="0.912" r="0.912" transform="translate(1.062 7.297)" fill="url(#linear-gradient-20)"/>
          </g>
          <g id="Grupo_1210064" data-name="Grupo 1210064" transform="translate(14.921)">
            <path id="Trazado_1080793" data-name="Trazado 1080793" d="M419.251,287.614a1.506,1.506,0,0,0,1.429-1.517v-5.183a.5.5,0,0,0-.264-.44,11.107,11.107,0,0,0-2.066-.849.5.5,0,0,0-.635.478v6.029A1.483,1.483,0,0,0,419.251,287.614Z" transform="translate(-417.237 -279.604)" fill="url(#linear-gradient-21)"/>
            <path id="Trazado_1080794" data-name="Trazado 1080794" d="M416.267,351.552a.946.946,0,0,0-.887-.653.155.155,0,0,1-.145-.105.946.946,0,0,0-1.791,0,.155.155,0,0,1-.145.105.946.946,0,0,0-.553,1.7.154.154,0,0,1,.055.171.946.946,0,0,0,1.449,1.053.155.155,0,0,1,.179,0,.946.946,0,0,0,1.449-1.053.155.155,0,0,1,.055-.171A.946.946,0,0,0,416.267,351.552Z" transform="translate(-412.364 -343.857)" fill="url(#linear-gradient-19)"/>
            <circle id="Elipse_11513" data-name="Elipse 11513" cx="0.912" cy="0.912" r="0.912" transform="translate(1.062 7.306)" fill="url(#linear-gradient-23)"/>
          </g>
        </g>
      </g>
      <path id="Trazado_1080795" data-name="Trazado 1080795" d="M56.932,426.586H17.713A1.713,1.713,0,0,1,16,424.872v-4.744a1.713,1.713,0,0,1,1.713-1.713H56.932a1.713,1.713,0,0,1,1.713,1.713v4.744A1.713,1.713,0,0,1,56.932,426.586Z" transform="translate(-14.573 -381.086)" fill="url(#linear-gradient-24)"/>
      <path id="Trazado_1080796" data-name="Trazado 1080796" d="M56.932,426.586H17.713A1.713,1.713,0,0,1,16,424.872v-4.744a1.713,1.713,0,0,1,1.713-1.713H56.932a1.713,1.713,0,0,1,1.713,1.713v4.744A1.713,1.713,0,0,1,56.932,426.586Z" transform="translate(-14.573 -381.086)" fill="url(#linear-gradient-25)"/>
      <path id="Trazado_1080797" data-name="Trazado 1080797" d="M285.765,418.415H267.248v8.171h18.517a1.713,1.713,0,0,0,1.713-1.713v-4.744A1.713,1.713,0,0,0,285.765,418.415Z" transform="translate(-243.405 -381.086)" fill="url(#linear-gradient-26)"/>
      <path id="Trazado_1080798" data-name="Trazado 1080798" d="M44.3,404.8H1.2A1.2,1.2,0,0,1,0,403.6V402.23a1.2,1.2,0,0,1,1.2-1.2H44.3a1.2,1.2,0,0,1,1.2,1.2V403.6a1.2,1.2,0,0,1-1.2,1.2Z" transform="translate(0 -365.249)" fill="url(#linear-gradient-24)"/>
      <g id="Grupo_1210068" data-name="Grupo 1210068" transform="translate(0 0)">
        <path id="Trazado_1080799" data-name="Trazado 1080799" d="M2.761,0h9.977A2.761,2.761,0,0,1,15.5,2.762V8.756a2.761,2.761,0,0,1-2.761,2.761H11.9a.5.5,0,0,0-.48.627,12.9,12.9,0,0,0,.912,2.365.655.655,0,0,1-1.028.776,14.848,14.848,0,0,1-2.776-3.52.494.494,0,0,0-.43-.248H2.761A2.761,2.761,0,0,1,0,8.756V2.762A2.761,2.761,0,0,1,2.761,0Z" transform="translate(0 -0.001)" fill="url(#linear-gradient-28)"/>
        <g id="Grupo_1210067" data-name="Grupo 1210067" transform="translate(5.017 1.086)">
          <path id="Trazado_1080800" data-name="Trazado 1080800" d="M58.662,20.722c-1.336-.045-2.426-.735-2.426-1.447,0-.378.334-.935.757-.935.467,0,.846.657,1.669.8v-1.8c-1.024-.39-2.226-.868-2.226-2.293a2.276,2.276,0,0,1,2.226-2.259v-.312c0-.156.178-.3.423-.3.211,0,.423.145.423.3v.278c.69.022,1.992.2,1.992.968,0,.3-.2.913-.69.913-.367,0-.579-.356-1.3-.412v1.625c1.013.378,2.193.9,2.193,2.4a2.365,2.365,0,0,1-2.193,2.426V21c0,.156-.211.3-.423.3-.245,0-.423-.145-.423-.3Zm.111-5.142V14.256c-.5.1-.712.356-.712.623C58.061,15.2,58.351,15.4,58.774,15.581ZM59.4,17.64v1.491c.378-.089.679-.3.679-.7C60.076,18.063,59.8,17.829,59.4,17.64Z" transform="translate(-56.236 -12.175)" fill="url(#linear-gradient-29)"/>
        </g>
        <path id="Trazado_1080801" data-name="Trazado 1080801" d="M0,63.321v3.106a2.761,2.761,0,0,0,2.761,2.761H8.1a.494.494,0,0,1,.43.248,14.848,14.848,0,0,0,2.776,3.52.655.655,0,0,0,1.028-.776,12.907,12.907,0,0,1-.912-2.365.5.5,0,0,1,.48-.627h.838A2.761,2.761,0,0,0,15.5,66.427V63.321Z" transform="translate(0 -57.672)" fill="url(#linear-gradient-30)"/>
        <path id="Trazado_1080802" data-name="Trazado 1080802" d="M81.862,0H75.895V11.517h1.327a.494.494,0,0,1,.43.248,14.847,14.847,0,0,0,2.776,3.52.655.655,0,0,0,1.028-.776,12.907,12.907,0,0,1-.912-2.365.5.5,0,0,1,.48-.627h.838a2.761,2.761,0,0,0,2.761-2.761V2.762A2.761,2.761,0,0,0,81.862,0Z" transform="translate(-69.124 -0.001)" fill="url(#linear-gradient-31)"/>
      </g>
      <g id="Grupo_1210072" data-name="Grupo 1210072" transform="translate(0 13.803)">
        <path id="Trazado_1080803" data-name="Trazado 1080803" d="M91.5,337.706h7.195v4.427H91.5Z" transform="translate(-83.335 -321.38)" fill="url(#linear-gradient-32)"/>
        <path id="Trazado_1080804" data-name="Trazado 1080804" d="M91.5,337.706h7.195v4.427H91.5Z" transform="translate(-83.335 -321.38)" fill="url(#linear-gradient-33)"/>
        <path id="Trazado_1080805" data-name="Trazado 1080805" d="M91.5,337.706h7.195v4.427H91.5Z" transform="translate(-83.335 -321.38)" fill="url(#linear-gradient-34)"/>
        <g id="Grupo_1210070" data-name="Grupo 1210070">
          <path id="Trazado_1080806" data-name="Trazado 1080806" d="M22.137,172.1H1.384A1.384,1.384,0,0,1,0,170.713v-14.62a1.384,1.384,0,0,1,1.384-1.384H22.137a1.384,1.384,0,0,1,1.384,1.384v14.62A1.384,1.384,0,0,1,22.137,172.1Z" transform="translate(0 -154.71)" fill="url(#linear-gradient-35)"/>
          <g id="Grupo_1210069" data-name="Grupo 1210069" transform="translate(9.665 10.106)">
            <path id="Trazado_1080807" data-name="Trazado 1080807" d="M111.872,312.207h-2.883a.654.654,0,0,0,0,1.308h2.883a.654.654,0,1,0,0-1.308Z" transform="translate(-108.335 -308.262)" fill="url(#linear-gradient-36)"/>
            <path id="Trazado_1080808" data-name="Trazado 1080808" d="M111.872,290.1h-2.883a.654.654,0,0,0,0,1.308h2.883a.654.654,0,0,0,0-1.308Z" transform="translate(-108.335 -288.125)" fill="url(#linear-gradient-37)"/>
            <path id="Trazado_1080809" data-name="Trazado 1080809" d="M111.872,267.988h-2.883a.654.654,0,0,0,0,1.308h2.883a.654.654,0,1,0,0-1.308Z" transform="translate(-108.335 -267.988)" fill="url(#linear-gradient-37)"/>
          </g>
          <path id="Trazado_1080810" data-name="Trazado 1080810" d="M161.97,154.71h-8.44V172.1h8.44a1.384,1.384,0,0,0,1.384-1.384v-14.62A1.383,1.383,0,0,0,161.97,154.71Z" transform="translate(-139.833 -154.71)" fill="url(#linear-gradient-39)"/>
          <path id="Trazado_1080811" data-name="Trazado 1080811" d="M0,325.817v.738a1.384,1.384,0,0,0,1.384,1.384H22.137a1.384,1.384,0,0,0,1.384-1.384v-.738Z" transform="translate(0 -310.552)" fill="url(#linear-gradient-40)"/>
        </g>
        <g id="Grupo_1210071" data-name="Grupo 1210071" transform="translate(6.271 19.87)">
          <path id="Trazado_1080812" data-name="Trazado 1080812" d="M80.755,379.533H70.8a.514.514,0,0,1-.514-.514,1.592,1.592,0,0,1,1.592-1.592h7.795a1.592,1.592,0,0,1,1.592,1.592A.514.514,0,0,1,80.755,379.533Z" transform="translate(-70.29 -377.427)" fill="url(#linear-gradient-41)"/>
          <path id="Trazado_1080813" data-name="Trazado 1080813" d="M80.755,379.533H70.8a.514.514,0,0,1-.514-.514,1.592,1.592,0,0,1,1.592-1.592h7.795a1.592,1.592,0,0,1,1.592,1.592A.514.514,0,0,1,80.755,379.533Z" transform="translate(-70.29 -377.427)" fill="url(#linear-gradient-42)"/>
        </g>
      </g>
    </g>
  </g>
</svg>
