<svg xmlns="http://www.w3.org/2000/svg" xmlns:xlink="http://www.w3.org/1999/xlink" width="89" height="89" viewBox="0 0 89 89">
  <defs>
    <linearGradient id="linear-gradient" x1="0.5" y1="0.275" x2="0.5" y2="0.955" gradientUnits="objectBoundingBox">
      <stop offset="0" stop-color="#ffe177"/>
      <stop offset="1" stop-color="#fe9738"/>
    </linearGradient>
    <linearGradient id="linear-gradient-2" x1="0.891" y1="0.5" x2="0.307" y2="0.5" gradientUnits="objectBoundingBox">
      <stop offset="0" stop-color="#fe9738" stop-opacity="0"/>
      <stop offset="1" stop-color="#f46700"/>
    </linearGradient>
    <linearGradient id="linear-gradient-3" x1="0.627" y1="0.089" x2="0.328" y2="0.732" gradientUnits="objectBoundingBox">
      <stop offset="0" stop-color="#fe99a0"/>
      <stop offset="1" stop-color="#fd4755"/>
    </linearGradient>
    <linearGradient id="linear-gradient-4" x1="0.404" y1="0.157" x2="0.66" y2="0.705" xlink:href="#linear-gradient-3"/>
    <linearGradient id="linear-gradient-5" x1="0.294" y1="0.279" x2="1.099" y2="0.69" gradientUnits="objectBoundingBox">
      <stop offset="0" stop-color="#eb9c8d"/>
      <stop offset="1" stop-color="#bb5d4c"/>
    </linearGradient>
    <linearGradient id="linear-gradient-6" x1="-0.312" y1="0.201" x2="0.814" y2="0.776" xlink:href="#linear-gradient-5"/>
    <linearGradient id="linear-gradient-7" x1="0" y1="0.5" x2="1" y2="0.5" xlink:href="#linear-gradient-5"/>
    <linearGradient id="linear-gradient-8" x1="0.5" y1="0.338" x2="0.5" y2="1.331" gradientUnits="objectBoundingBox">
      <stop offset="0" stop-color="#a44f3e" stop-opacity="0"/>
      <stop offset="0.997" stop-color="#6d3326"/>
    </linearGradient>
    <linearGradient id="linear-gradient-9" x1="0.245" y1="0.238" x2="0.604" y2="0.698" gradientUnits="objectBoundingBox">
      <stop offset="0" stop-color="#537983"/>
      <stop offset="1" stop-color="#3e5959"/>
    </linearGradient>
    <linearGradient id="linear-gradient-10" x1="0.5" y1="1.703" x2="0.5" y2="-0.001" gradientUnits="objectBoundingBox">
      <stop offset="0" stop-color="#883f2e"/>
      <stop offset="1" stop-color="#6d3326"/>
    </linearGradient>
    <linearGradient id="linear-gradient-11" x1="0.5" y1="0.195" x2="0.5" y2="1.014" gradientUnits="objectBoundingBox">
      <stop offset="0" stop-color="#ca6e59"/>
      <stop offset="1" stop-color="#883f2e"/>
    </linearGradient>
    <linearGradient id="linear-gradient-12" x1="0.391" y1="0.126" x2="0.645" y2="0.98" gradientUnits="objectBoundingBox">
      <stop offset="0" stop-color="#eef5f6"/>
      <stop offset="1" stop-color="#cbe5e8"/>
    </linearGradient>
    <linearGradient id="linear-gradient-13" x1="1.074" y1="1.074" x2="0.241" y2="0.241" gradientUnits="objectBoundingBox">
      <stop offset="0" stop-color="#eef5f6" stop-opacity="0"/>
      <stop offset="1" stop-color="#fff"/>
    </linearGradient>
    <linearGradient id="linear-gradient-14" x1="0.5" y1="0.431" x2="0.5" y2="1.018" gradientUnits="objectBoundingBox">
      <stop offset="0" stop-color="#cbe5e8" stop-opacity="0"/>
      <stop offset="1" stop-color="#7ca1b1"/>
    </linearGradient>
    <linearGradient id="linear-gradient-15" x1="0" y1="0.5" x2="1" y2="0.5" xlink:href="#linear-gradient-9"/>
    <linearGradient id="linear-gradient-17" x1="0.423" y1="0.245" x2="0.732" y2="1.131" gradientUnits="objectBoundingBox">
      <stop offset="0" stop-color="#60b7ff"/>
      <stop offset="0.184" stop-color="#56aff6"/>
      <stop offset="0.501" stop-color="#3a97e0"/>
      <stop offset="0.912" stop-color="#0c71bc"/>
      <stop offset="1" stop-color="#0268b4"/>
    </linearGradient>
    <linearGradient id="linear-gradient-18" x1="0.5" y1="0.198" x2="0.5" y2="1.151" gradientUnits="objectBoundingBox">
      <stop offset="0" stop-color="#c1e9af"/>
      <stop offset="1" stop-color="#4fc123"/>
    </linearGradient>
  </defs>
  <g id="Grupo_1211643" data-name="Grupo 1211643" transform="translate(-756.051 -2149)">
    <g id="Grupo_1099471" data-name="Grupo 1099471" transform="translate(-495.282 1736)">
      <g id="Grupo_1098742" data-name="Grupo 1098742" transform="translate(1251.333 413)">
        <g id="Trazado_875734" data-name="Trazado 875734" fill="#4e8f7d" opacity="0.859">
          <path d="M 44.49999237060547 87.49999237060547 C 38.69436645507812 87.49999237060547 33.06320571899414 86.36328887939453 27.76291656494141 84.12145233154297 C 22.64269256591797 81.95578002929688 18.04394149780273 78.8551025390625 14.09440517425537 74.90557861328125 C 10.1448802947998 70.9560546875 7.044217586517334 66.35730743408203 4.878542423248291 61.23706817626953 C 2.636704921722412 55.9367790222168 1.500004887580872 50.30561828613281 1.500004887580872 44.49999237060547 C 1.500004887580872 38.69436645507812 2.636704921722412 33.06320571899414 4.878542423248291 27.76291656494141 C 7.044217586517334 22.64269256591797 10.1448802947998 18.04394149780273 14.09440517425537 14.09440517425537 C 18.04394149780273 10.1448802947998 22.64269256591797 7.044217586517334 27.76291656494141 4.878542423248291 C 33.06320571899414 2.636704921722412 38.69436645507812 1.500004887580872 44.49999237060547 1.500004887580872 C 50.30561828613281 1.500004887580872 55.9367790222168 2.636704921722412 61.23706817626953 4.878542423248291 C 66.35730743408203 7.044217586517334 70.9560546875 10.1448802947998 74.90557861328125 14.09440517425537 C 78.8551025390625 18.04394149780273 81.95578002929688 22.64269256591797 84.12145233154297 27.76291656494141 C 86.36328887939453 33.06320571899414 87.49999237060547 38.69436645507812 87.49999237060547 44.49999237060547 C 87.49999237060547 50.30561828613281 86.36328887939453 55.9367790222168 84.12145233154297 61.23706817626953 C 81.95578002929688 66.35730743408203 78.8551025390625 70.9560546875 74.90557861328125 74.90557861328125 C 70.9560546875 78.8551025390625 66.35730743408203 81.95578002929688 61.23706817626953 84.12145233154297 C 55.9367790222168 86.36328887939453 50.30561828613281 87.49999237060547 44.49999237060547 87.49999237060547 Z" stroke="none"/>
          <path d="M 44.49999237060547 2.999992370605469 C 38.89620590209961 2.999992370605469 33.46163558959961 4.096832275390625 28.34723663330078 6.260032653808594 C 23.40580749511719 8.350090026855469 18.96732330322266 11.34280395507812 15.15506744384766 15.15506744384766 C 11.34280395507812 18.96732330322266 8.350090026855469 23.40580749511719 6.260032653808594 28.34723663330078 C 4.096832275390625 33.46163558959961 2.999992370605469 38.89620590209961 2.999992370605469 44.49999237060547 C 2.999992370605469 50.10377883911133 4.096832275390625 55.53834915161133 6.260032653808594 60.65273284912109 C 8.350090026855469 65.59417724609375 11.34280395507812 70.03266143798828 15.15506744384766 73.84492492675781 C 18.96732330322266 77.65716552734375 23.40580749511719 80.64989471435547 28.34723663330078 82.73993682861328 C 33.46163558959961 84.90313720703125 38.89620590209961 85.99997711181641 44.49999237060547 85.99997711181641 C 50.10377883911133 85.99997711181641 55.53834915161133 84.90313720703125 60.65274810791016 82.73993682861328 C 65.59417724609375 80.64989471435547 70.03266143798828 77.65716552734375 73.84492492675781 73.84492492675781 C 77.65716552734375 70.03266143798828 80.64989471435547 65.59417724609375 82.73993682861328 60.65274810791016 C 84.90313720703125 55.53834915161133 85.99997711181641 50.10377883911133 85.99997711181641 44.49999237060547 C 85.99997711181641 38.89620590209961 84.90313720703125 33.46163558959961 82.73993682861328 28.34723663330078 C 80.64989471435547 23.40580749511719 77.65716552734375 18.96732330322266 73.84492492675781 15.15506744384766 C 70.03266143798828 11.34280395507812 65.59417724609375 8.350090026855469 60.65273284912109 6.260032653808594 C 55.53834915161133 4.096832275390625 50.10377883911133 2.999992370605469 44.49999237060547 2.999992370605469 M 44.49999237060547 -7.62939453125e-06 C 69.07666015625 -7.62939453125e-06 88.99997711181641 19.92332458496094 88.99997711181641 44.49999237060547 C 88.99997711181641 69.07666015625 69.07666015625 88.99997711181641 44.49999237060547 88.99997711181641 C 19.92332458496094 88.99997711181641 -7.62939453125e-06 69.07666015625 -7.62939453125e-06 44.49999237060547 C -7.62939453125e-06 19.92332458496094 19.92332458496094 -7.62939453125e-06 44.49999237060547 -7.62939453125e-06 Z" stroke="none" fill="#fff"/>
        </g>
        <g id="Trazado_875735" data-name="Trazado 875735" transform="translate(0)" fill="none">
          <path d="M44.5,0A44.5,44.5,0,1,1,0,44.5,44.5,44.5,0,0,1,44.5,0Z" stroke="none"/>
          <path d="M 44.49999237060547 2.999992370605469 C 38.89620590209961 2.999992370605469 33.46163558959961 4.096832275390625 28.34723663330078 6.260032653808594 C 23.40580749511719 8.350090026855469 18.96732330322266 11.34280395507812 15.15506744384766 15.15506744384766 C 11.34280395507812 18.96732330322266 8.350090026855469 23.40580749511719 6.260032653808594 28.34723663330078 C 4.096832275390625 33.46163558959961 2.999992370605469 38.89620590209961 2.999992370605469 44.49999237060547 C 2.999992370605469 50.10377883911133 4.096832275390625 55.53834915161133 6.260032653808594 60.65273284912109 C 8.350090026855469 65.59417724609375 11.34280395507812 70.03266143798828 15.15506744384766 73.84492492675781 C 18.96732330322266 77.65716552734375 23.40580749511719 80.64989471435547 28.34723663330078 82.73993682861328 C 33.46163558959961 84.90313720703125 38.89620590209961 85.99997711181641 44.49999237060547 85.99997711181641 C 50.10377883911133 85.99997711181641 55.53834915161133 84.90313720703125 60.65274810791016 82.73993682861328 C 65.59417724609375 80.64989471435547 70.03266143798828 77.65716552734375 73.84492492675781 73.84492492675781 C 77.65716552734375 70.03266143798828 80.64989471435547 65.59417724609375 82.73993682861328 60.65274810791016 C 84.90313720703125 55.53834915161133 85.99997711181641 50.10377883911133 85.99997711181641 44.49999237060547 C 85.99997711181641 38.89620590209961 84.90313720703125 33.46163558959961 82.73993682861328 28.34723663330078 C 80.64989471435547 23.40580749511719 77.65716552734375 18.96732330322266 73.84492492675781 15.15506744384766 C 70.03266143798828 11.34280395507812 65.59417724609375 8.350090026855469 60.65273284912109 6.260032653808594 C 55.53834915161133 4.096832275390625 50.10377883911133 2.999992370605469 44.49999237060547 2.999992370605469 M 44.49999237060547 -7.62939453125e-06 C 69.07666015625 -7.62939453125e-06 88.99997711181641 19.92332458496094 88.99997711181641 44.49999237060547 C 88.99997711181641 69.07666015625 69.07666015625 88.99997711181641 44.49999237060547 88.99997711181641 C 19.92332458496094 88.99997711181641 -7.62939453125e-06 69.07666015625 -7.62939453125e-06 44.49999237060547 C -7.62939453125e-06 19.92332458496094 19.92332458496094 -7.62939453125e-06 44.49999237060547 -7.62939453125e-06 Z" stroke="none" fill="#dbe8e4"/>
        </g>
      </g>
    </g>
    <g id="chatting_3039657" transform="translate(777.051 2167.867)">
      <g id="Grupo_1210043" data-name="Grupo 1210043" transform="translate(1.666 2.133)">
        <path id="Trazado_1080714" data-name="Trazado 1080714" d="M91.54,294.408H85.557l-12.073-.993-11.975.993H55.538v-1.428a13.8,13.8,0,0,1,13.8-13.8h8.409a13.8,13.8,0,0,1,13.8,13.8v1.428Z" transform="translate(-52.192 -254.18)" fill="url(#linear-gradient)"/>
        <path id="Trazado_1080715" data-name="Trazado 1080715" d="M386,304.593v12.931h6.179V316.1A13.783,13.783,0,0,0,386,304.593Z" transform="translate(-352.831 -277.297)" fill="url(#linear-gradient-2)"/>
        <g id="Grupo_1210035" data-name="Grupo 1210035" transform="translate(13.006 24.247)">
          <path id="Trazado_1080716" data-name="Trazado 1080716" d="M164.072,270.808s-2,1-1.362,1.815c.467.6,2.85,2.921,4.078,4.106a1.036,1.036,0,0,0,1.453-.014l2.685-2.685Z" transform="translate(-162.586 -270.808)" fill="url(#linear-gradient-3)"/>
          <path id="Trazado_1080717" data-name="Trazado 1080717" d="M261.854,270.808s2,1,1.362,1.815c-.467.6-2.85,2.921-4.078,4.106a1.036,1.036,0,0,1-1.453-.014L255,274.031Z" transform="translate(-246.66 -270.808)" fill="url(#linear-gradient-4)"/>
        </g>
        <g id="Grupo_1210039" data-name="Grupo 1210039" transform="translate(9.206)">
          <g id="Grupo_1210038" data-name="Grupo 1210038">
            <g id="Grupo_1210037" data-name="Grupo 1210037" transform="translate(0 3.051)">
              <g id="Grupo_1210036" data-name="Grupo 1210036" transform="translate(0 8.753)">
                <path id="Trazado_1080718" data-name="Trazado 1080718" d="M120.477,136.222a3.359,3.359,0,0,1,2.584-3.268.634.634,0,0,1,.775.62v5.3a.634.634,0,0,1-.775.62A3.359,3.359,0,0,1,120.477,136.222Z" transform="translate(-120.477 -132.937)" fill="url(#linear-gradient-5)"/>
                <path id="Trazado_1080719" data-name="Trazado 1080719" d="M355.669,136.222a3.359,3.359,0,0,0-2.584-3.268.634.634,0,0,0-.775.62v5.3a.634.634,0,0,0,.775.62A3.359,3.359,0,0,0,355.669,136.222Z" transform="translate(-331.389 -132.937)" fill="url(#linear-gradient-6)"/>
              </g>
              <path id="Trazado_1080720" data-name="Trazado 1080720" d="M157.076,60.354a9.714,9.714,0,0,1-9.714-9.714V45.659a9.714,9.714,0,1,1,19.428,0V50.64A9.714,9.714,0,0,1,157.076,60.354Z" transform="translate(-144.936 -35.945)" fill="url(#linear-gradient-7)"/>
              <path id="Trazado_1080721" data-name="Trazado 1080721" d="M235.634,173.962h-1.073a1.437,1.437,0,0,1-1.415-1.689l.615-3.459h2.673l.615,3.459A1.437,1.437,0,0,1,235.634,173.962Z" transform="translate(-222.957 -156.824)" fill="url(#linear-gradient-8)"/>
            </g>
            <path id="Trazado_1080722" data-name="Trazado 1080722" d="M148.479,16.759V15.593a2.745,2.745,0,0,1,2.745-2.745h11.694a2.745,2.745,0,0,1,2.745,2.745v1.165a.561.561,0,0,0,1.121,0V6.028a3.9,3.9,0,0,0-3.9-3.9H151.253a3.9,3.9,0,0,0-3.9,3.9v10.73a.561.561,0,0,0,1.121,0Z" transform="translate(-144.932 -2.133)" fill="url(#linear-gradient-9)"/>
          </g>
        </g>
        <g id="Grupo_1210040" data-name="Grupo 1210040" transform="translate(0 40.227)">
          <path id="Trazado_1080723" data-name="Trazado 1080723" d="M78.135,475.12H41.052a.949.949,0,0,1-.949-.949v-2.3h38.98v2.3A.949.949,0,0,1,78.135,475.12Z" transform="translate(-38.15 -469.707)" fill="url(#linear-gradient-10)"/>
          <path id="Trazado_1080724" data-name="Trazado 1080724" d="M60.672,450.631H18.951a.486.486,0,0,1-.486-.486v-1.779a.486.486,0,0,1,.486-.486H60.672a.486.486,0,0,1,.486.486v1.779A.486.486,0,0,1,60.672,450.631Z" transform="translate(-18.465 -447.881)" fill="url(#linear-gradient-11)"/>
        </g>
        <g id="Grupo_1210041" data-name="Grupo 1210041" transform="translate(7.853 22.41)">
          <path id="Trazado_1080725" data-name="Trazado 1080725" d="M131.48,250.45h-25a.992.992,0,0,0-.992.992V266.93a1.337,1.337,0,0,0,1.337,1.337h24.312a1.337,1.337,0,0,0,1.337-1.337V251.442A.992.992,0,0,0,131.48,250.45Z" transform="translate(-105.485 -250.45)" fill="url(#linear-gradient-12)"/>
          <circle id="Elipse_11511" data-name="Elipse 11511" cx="2.386" cy="2.386" r="2.386" transform="translate(11.107 6.523)" fill="url(#linear-gradient-13)"/>
          <path id="Trazado_1080726" data-name="Trazado 1080726" d="M105.485,385.8v4.265a1.337,1.337,0,0,0,1.337,1.337h24.312a1.337,1.337,0,0,0,1.337-1.337V385.8Z" transform="translate(-105.485 -373.585)" fill="url(#linear-gradient-14)"/>
        </g>
        <g id="Grupo_1210042" data-name="Grupo 1210042" transform="translate(15.629 13.633)">
          <path id="Trazado_1080727" data-name="Trazado 1080727" d="M193.054,156.741a1.412,1.412,0,0,1-1.412-1.412v-.724a1.412,1.412,0,0,1,2.823,0v.724A1.412,1.412,0,0,1,193.054,156.741Z" transform="translate(-191.642 -153.194)" fill="url(#linear-gradient-15)"/>
          <path id="Trazado_1080728" data-name="Trazado 1080728" d="M288.484,156.741a1.412,1.412,0,0,1-1.412-1.412v-.724a1.412,1.412,0,1,1,2.823,0v.724A1.412,1.412,0,0,1,288.484,156.741Z" transform="translate(-278.46 -153.194)" fill="url(#linear-gradient-15)"/>
        </g>
      </g>
      <g id="Grupo_1210045" data-name="Grupo 1210045" transform="translate(0 2.133)">
        <path id="Trazado_1080729" data-name="Trazado 1080729" d="M7.881,2.134H5.209a5.209,5.209,0,1,0,0,10.419H7.881a5.237,5.237,0,0,0,.888-.077l1.573.781a.548.548,0,0,0,.788-.558l-.144-1.173A5.209,5.209,0,0,0,7.881,2.134Z" transform="translate(0 -2.134)" fill="url(#linear-gradient-17)"/>
        <g id="Grupo_1210044" data-name="Grupo 1210044" transform="translate(2.409 2.077)">
          <path id="Trazado_1080730" data-name="Trazado 1080730" d="M34.539,26.578H27.113a.423.423,0,0,1-.423-.423v-.577a.423.423,0,0,1,.423-.423h7.426a.423.423,0,0,1,.423.423v.577A.423.423,0,0,1,34.539,26.578Z" transform="translate(-26.69 -25.154)" fill="#3e5959"/>
          <path id="Trazado_1080731" data-name="Trazado 1080731" d="M34.539,53.012H27.113a.423.423,0,0,1-.423-.423v-.577a.423.423,0,0,1,.423-.423h7.426a.423.423,0,0,1,.423.423v.577A.423.423,0,0,1,34.539,53.012Z" transform="translate(-26.69 -49.202)" fill="#3e5959"/>
          <path id="Trazado_1080732" data-name="Trazado 1080732" d="M30.769,79.447H27.113a.423.423,0,0,1-.423-.423v-.577a.423.423,0,0,1,.423-.423h3.655a.423.423,0,0,1,.423.423v.577A.423.423,0,0,1,30.769,79.447Z" transform="translate(-26.69 -73.252)" fill="#3e5959"/>
        </g>
      </g>
      <g id="Grupo_1210047" data-name="Grupo 1210047" transform="translate(35.967 17.8)">
        <path id="Trazado_1080733" data-name="Trazado 1080733" d="M402.543,175.732H404.6a4,4,0,1,1,0,8.006h-2.053a4.03,4.03,0,0,1-.682-.059l-1.209.6a.421.421,0,0,1-.605-.429l.111-.9a4,4,0,0,1,2.386-7.217Z" transform="translate(-398.54 -175.732)" fill="url(#linear-gradient-18)"/>
        <g id="Grupo_1210046" data-name="Grupo 1210046" transform="translate(2.17 1.842)">
          <path id="Trazado_1080734" data-name="Trazado 1080734" d="M427.808,197.8h-4.733a.493.493,0,0,1-.493-.493v-.672a.493.493,0,0,1,.493-.493h4.733a.493.493,0,0,1,.493.493v.672A.493.493,0,0,1,427.808,197.8Z" transform="translate(-422.582 -196.144)" fill="#3e5959"/>
          <path id="Trazado_1080735" data-name="Trazado 1080735" d="M426.483,228.6h-3.407a.493.493,0,0,1-.493-.493v-.672a.493.493,0,0,1,.493-.493h3.407a.493.493,0,0,1,.493.493v.672A.493.493,0,0,1,426.483,228.6Z" transform="translate(-422.582 -224.163)" fill="#3e5959"/>
        </g>
      </g>
    </g>
  </g>
</svg>
