<svg xmlns="http://www.w3.org/2000/svg" xmlns:xlink="http://www.w3.org/1999/xlink" width="89" height="89" viewBox="0 0 89 89">
  <defs>
    <linearGradient id="linear-gradient" x1="0.413" y1="0.413" x2="0.706" y2="0.706" gradientUnits="objectBoundingBox">
      <stop offset="0" stop-color="#e4f2ff"/>
      <stop offset="1" stop-color="#b2cbff"/>
    </linearGradient>
    <linearGradient id="linear-gradient-2" x1="-0.03" y1="0.017" x2="0.877" y2="1.028" xlink:href="#linear-gradient"/>
    <linearGradient id="linear-gradient-3" x1="0.436" y1="0.379" x2="0.857" y2="0.84" xlink:href="#linear-gradient"/>
    <linearGradient id="linear-gradient-4" x1="0.31" y1="0.322" x2="0.716" y2="0.606" xlink:href="#linear-gradient"/>
    <linearGradient id="linear-gradient-5" x1="0.194" y1="0.145" x2="0.937" y2="0.663" xlink:href="#linear-gradient"/>
    <linearGradient id="linear-gradient-6" x1="0.261" y1="0.095" x2="0.679" y2="0.983" xlink:href="#linear-gradient"/>
    <linearGradient id="linear-gradient-7" x1="0.413" y1="0.462" x2="0.704" y2="0.761" gradientUnits="objectBoundingBox">
      <stop offset="0" stop-color="#8a7889"/>
      <stop offset="1" stop-color="#6e566e"/>
    </linearGradient>
    <linearGradient id="linear-gradient-8" x1="0.438" y1="0.011" x2="0.645" y2="0.613" xlink:href="#linear-gradient-7"/>
    <linearGradient id="linear-gradient-9" x1="0.424" y1="0.439" x2="1.114" y2="0.697" xlink:href="#linear-gradient-7"/>
    <linearGradient id="linear-gradient-10" x1="0.236" y1="0.465" x2="0.688" y2="0.634" xlink:href="#linear-gradient-7"/>
    <linearGradient id="linear-gradient-11" x1="0.478" y1="0.24" x2="0.838" y2="0.726" xlink:href="#linear-gradient-7"/>
    <linearGradient id="linear-gradient-12" x1="0.375" y1="0.332" x2="0.507" y2="0.51" xlink:href="#linear-gradient-7"/>
    <linearGradient id="linear-gradient-13" x1="0.604" y1="0.636" x2="-0.107" y2="-0.296" gradientUnits="objectBoundingBox">
      <stop offset="0" stop-color="#fff" stop-opacity="0"/>
      <stop offset="1" stop-color="#fff"/>
    </linearGradient>
    <linearGradient id="linear-gradient-14" x1="0.491" y1="0.494" x2="2.111" y2="0.585" gradientUnits="objectBoundingBox">
      <stop offset="0" stop-color="#3f3ced" stop-opacity="0"/>
      <stop offset="0.28" stop-color="#3c3de4" stop-opacity="0.278"/>
      <stop offset="0.73" stop-color="#3541cc" stop-opacity="0.729"/>
      <stop offset="1" stop-color="#2f43bb"/>
    </linearGradient>
    <linearGradient id="linear-gradient-15" x1="0.5" y1="0.021" x2="0.5" y2="1.317" gradientUnits="objectBoundingBox">
      <stop offset="0" stop-color="#ffd945"/>
      <stop offset="0.304" stop-color="#ffcd3e"/>
      <stop offset="0.856" stop-color="#ffad2b"/>
      <stop offset="1" stop-color="#ffa325"/>
    </linearGradient>
    <linearGradient id="linear-gradient-16" x1="0.5" y1="0.039" x2="0.5" y2="2.22" gradientUnits="objectBoundingBox">
      <stop offset="0" stop-color="#e87264" stop-opacity="0"/>
      <stop offset="1" stop-color="#ff7044"/>
    </linearGradient>
    <linearGradient id="linear-gradient-17" x1="0.5" y1="0.039" x2="0.5" y2="2.22" xlink:href="#linear-gradient-16"/>
    <linearGradient id="linear-gradient-18" x1="0.484" y1="0.304" x2="0.37" y2="-1.119" gradientUnits="objectBoundingBox">
      <stop offset="0" stop-color="#ffd945" stop-opacity="0"/>
      <stop offset="1" stop-color="#fbed21"/>
    </linearGradient>
    <linearGradient id="linear-gradient-19" x1="0.5" y1="0.021" x2="0.5" y2="1.317" xlink:href="#linear-gradient-15"/>
    <linearGradient id="linear-gradient-37" x1="0.5" y1="0.039" x2="0.5" y2="2.22" xlink:href="#linear-gradient-16"/>
    <linearGradient id="linear-gradient-38" x1="0.484" y1="0.304" x2="0.37" y2="-1.119" xlink:href="#linear-gradient-18"/>
    <linearGradient id="linear-gradient-39" x1="0.99" y1="0.648" x2="-0.391" y2="0.442" xlink:href="#linear-gradient-14"/>
    <linearGradient id="linear-gradient-40" x1="0.447" y1="0.258" x2="0.728" y2="1.551" gradientUnits="objectBoundingBox">
      <stop offset="0" stop-color="#4ab272"/>
      <stop offset="1" stop-color="#077565"/>
    </linearGradient>
    <linearGradient id="linear-gradient-41" x1="0.544" y1="0.678" x2="-0.02" y2="-1.594" gradientUnits="objectBoundingBox">
      <stop offset="0" stop-color="#92f37f" stop-opacity="0"/>
      <stop offset="1" stop-color="#ffee83"/>
    </linearGradient>
    <linearGradient id="linear-gradient-42" x1="0.46" y1="0.253" x2="0.641" y2="1.367" gradientUnits="objectBoundingBox">
      <stop offset="0" stop-color="#91f27f"/>
      <stop offset="1" stop-color="#00b302"/>
    </linearGradient>
    <linearGradient id="linear-gradient-43" x1="0.884" y1="0.749" x2="-0.621" y2="-0.229" gradientUnits="objectBoundingBox">
      <stop offset="0" stop-color="#92f37f"/>
      <stop offset="1" stop-color="#4ab272"/>
    </linearGradient>
    <linearGradient id="linear-gradient-44" x1="0.398" y1="0.588" x2="-0.339" y2="0.169" gradientUnits="objectBoundingBox">
      <stop offset="0" stop-color="#4ab272" stop-opacity="0"/>
      <stop offset="1" stop-color="#009245"/>
    </linearGradient>
    <linearGradient id="linear-gradient-45" x1="0.392" y1="0.447" x2="1.327" y2="0.791" xlink:href="#linear-gradient-40"/>
    <linearGradient id="linear-gradient-46" x1="0.341" y1="0.329" x2="1.283" y2="1.346" xlink:href="#linear-gradient-42"/>
    <linearGradient id="linear-gradient-50" x1="0.776" y1="0.514" x2="-0.542" y2="0.488" gradientUnits="objectBoundingBox">
      <stop offset="0" stop-color="#005a01" stop-opacity="0"/>
      <stop offset="1" stop-color="#005a01"/>
    </linearGradient>
    <linearGradient id="linear-gradient-51" x1="0.16" y1="0.328" x2="1.403" y2="0.957" xlink:href="#linear-gradient-15"/>
    <linearGradient id="linear-gradient-52" x1="0.918" y1="0.683" x2="-0.311" y2="0.145" xlink:href="#linear-gradient-18"/>
    <linearGradient id="linear-gradient-53" x1="0.666" y1="0.549" x2="-0.401" y2="0.206" xlink:href="#linear-gradient-16"/>
    <linearGradient id="linear-gradient-54" x1="-0.53" y1="0.15" x2="0.686" y2="0.548" xlink:href="#linear-gradient-15"/>
    <linearGradient id="linear-gradient-55" x1="0.409" y1="0.302" x2="0.939" y2="1.003" xlink:href="#linear-gradient-15"/>
    <linearGradient id="linear-gradient-56" x1="0.436" y1="0.311" x2="0.967" y2="1.012" xlink:href="#linear-gradient-15"/>
    <linearGradient id="linear-gradient-57" x1="0.435" y1="0.306" x2="0.966" y2="1.008" xlink:href="#linear-gradient-15"/>
  </defs>
  <g id="Grupo_1211653" data-name="Grupo 1211653" transform="translate(-1102.051 -9597.572)">
    <g id="Grupo_1210392" data-name="Grupo 1210392" transform="translate(-149.282 9184.572)">
      <g id="Grupo_1098742" data-name="Grupo 1098742" transform="translate(1251.333 413)">
        <g id="Trazado_875734" data-name="Trazado 875734" fill="#4e8f7d" opacity="0.859">
          <path d="M 44.49999237060547 87.49999237060547 C 38.69436645507812 87.49999237060547 33.06320571899414 86.36328887939453 27.76291656494141 84.12145233154297 C 22.64269256591797 81.95578002929688 18.04394149780273 78.8551025390625 14.09440517425537 74.90557861328125 C 10.1448802947998 70.9560546875 7.044217586517334 66.35730743408203 4.878542423248291 61.23706817626953 C 2.636704921722412 55.9367790222168 1.500004887580872 50.30561828613281 1.500004887580872 44.49999237060547 C 1.500004887580872 38.69436645507812 2.636704921722412 33.06320571899414 4.878542423248291 27.76291656494141 C 7.044217586517334 22.64269256591797 10.1448802947998 18.04394149780273 14.09440517425537 14.09440517425537 C 18.04394149780273 10.1448802947998 22.64269256591797 7.044217586517334 27.76291656494141 4.878542423248291 C 33.06320571899414 2.636704921722412 38.69436645507812 1.500004887580872 44.49999237060547 1.500004887580872 C 50.30561828613281 1.500004887580872 55.9367790222168 2.636704921722412 61.23706817626953 4.878542423248291 C 66.35730743408203 7.044217586517334 70.9560546875 10.1448802947998 74.90557861328125 14.09440517425537 C 78.8551025390625 18.04394149780273 81.95578002929688 22.64269256591797 84.12145233154297 27.76291656494141 C 86.36328887939453 33.06320571899414 87.49999237060547 38.69436645507812 87.49999237060547 44.49999237060547 C 87.49999237060547 50.30561828613281 86.36328887939453 55.9367790222168 84.12145233154297 61.23706817626953 C 81.95578002929688 66.35730743408203 78.8551025390625 70.9560546875 74.90557861328125 74.90557861328125 C 70.9560546875 78.8551025390625 66.35730743408203 81.95578002929688 61.23706817626953 84.12145233154297 C 55.9367790222168 86.36328887939453 50.30561828613281 87.49999237060547 44.49999237060547 87.49999237060547 Z" stroke="none"/>
          <path d="M 44.49999237060547 2.999992370605469 C 38.89620590209961 2.999992370605469 33.46163558959961 4.096832275390625 28.34723663330078 6.260032653808594 C 23.40580749511719 8.350090026855469 18.96732330322266 11.34280395507812 15.15506744384766 15.15506744384766 C 11.34280395507812 18.96732330322266 8.350090026855469 23.40580749511719 6.260032653808594 28.34723663330078 C 4.096832275390625 33.46163558959961 2.999992370605469 38.89620590209961 2.999992370605469 44.49999237060547 C 2.999992370605469 50.10377883911133 4.096832275390625 55.53834915161133 6.260032653808594 60.65273284912109 C 8.350090026855469 65.59417724609375 11.34280395507812 70.03266143798828 15.15506744384766 73.84492492675781 C 18.96732330322266 77.65716552734375 23.40580749511719 80.64989471435547 28.34723663330078 82.73993682861328 C 33.46163558959961 84.90313720703125 38.89620590209961 85.99997711181641 44.49999237060547 85.99997711181641 C 50.10377883911133 85.99997711181641 55.53834915161133 84.90313720703125 60.65274810791016 82.73993682861328 C 65.59417724609375 80.64989471435547 70.03266143798828 77.65716552734375 73.84492492675781 73.84492492675781 C 77.65716552734375 70.03266143798828 80.64989471435547 65.59417724609375 82.73993682861328 60.65274810791016 C 84.90313720703125 55.53834915161133 85.99997711181641 50.10377883911133 85.99997711181641 44.49999237060547 C 85.99997711181641 38.89620590209961 84.90313720703125 33.46163558959961 82.73993682861328 28.34723663330078 C 80.64989471435547 23.40580749511719 77.65716552734375 18.96732330322266 73.84492492675781 15.15506744384766 C 70.03266143798828 11.34280395507812 65.59417724609375 8.350090026855469 60.65273284912109 6.260032653808594 C 55.53834915161133 4.096832275390625 50.10377883911133 2.999992370605469 44.49999237060547 2.999992370605469 M 44.49999237060547 -7.62939453125e-06 C 69.07666015625 -7.62939453125e-06 88.99997711181641 19.92332458496094 88.99997711181641 44.49999237060547 C 88.99997711181641 69.07666015625 69.07666015625 88.99997711181641 44.49999237060547 88.99997711181641 C 19.92332458496094 88.99997711181641 -7.62939453125e-06 69.07666015625 -7.62939453125e-06 44.49999237060547 C -7.62939453125e-06 19.92332458496094 19.92332458496094 -7.62939453125e-06 44.49999237060547 -7.62939453125e-06 Z" stroke="none" fill="#fff"/>
        </g>
        <g id="Trazado_875735" data-name="Trazado 875735" transform="translate(0)" fill="none">
          <path d="M44.5,0A44.5,44.5,0,1,1,0,44.5,44.5,44.5,0,0,1,44.5,0Z" stroke="none"/>
          <path d="M 44.49999237060547 2.999992370605469 C 38.89620590209961 2.999992370605469 33.46163558959961 4.096832275390625 28.34723663330078 6.260032653808594 C 23.40580749511719 8.350090026855469 18.96732330322266 11.34280395507812 15.15506744384766 15.15506744384766 C 11.34280395507812 18.96732330322266 8.350090026855469 23.40580749511719 6.260032653808594 28.34723663330078 C 4.096832275390625 33.46163558959961 2.999992370605469 38.89620590209961 2.999992370605469 44.49999237060547 C 2.999992370605469 50.10377883911133 4.096832275390625 55.53834915161133 6.260032653808594 60.65273284912109 C 8.350090026855469 65.59417724609375 11.34280395507812 70.03266143798828 15.15506744384766 73.84492492675781 C 18.96732330322266 77.65716552734375 23.40580749511719 80.64989471435547 28.34723663330078 82.73993682861328 C 33.46163558959961 84.90313720703125 38.89620590209961 85.99997711181641 44.49999237060547 85.99997711181641 C 50.10377883911133 85.99997711181641 55.53834915161133 84.90313720703125 60.65274810791016 82.73993682861328 C 65.59417724609375 80.64989471435547 70.03266143798828 77.65716552734375 73.84492492675781 73.84492492675781 C 77.65716552734375 70.03266143798828 80.64989471435547 65.59417724609375 82.73993682861328 60.65274810791016 C 84.90313720703125 55.53834915161133 85.99997711181641 50.10377883911133 85.99997711181641 44.49999237060547 C 85.99997711181641 38.89620590209961 84.90313720703125 33.46163558959961 82.73993682861328 28.34723663330078 C 80.64989471435547 23.40580749511719 77.65716552734375 18.96732330322266 73.84492492675781 15.15506744384766 C 70.03266143798828 11.34280395507812 65.59417724609375 8.350090026855469 60.65273284912109 6.260032653808594 C 55.53834915161133 4.096832275390625 50.10377883911133 2.999992370605469 44.49999237060547 2.999992370605469 M 44.49999237060547 -7.62939453125e-06 C 69.07666015625 -7.62939453125e-06 88.99997711181641 19.92332458496094 88.99997711181641 44.49999237060547 C 88.99997711181641 69.07666015625 69.07666015625 88.99997711181641 44.49999237060547 88.99997711181641 C 19.92332458496094 88.99997711181641 -7.62939453125e-06 69.07666015625 -7.62939453125e-06 44.49999237060547 C -7.62939453125e-06 19.92332458496094 19.92332458496094 -7.62939453125e-06 44.49999237060547 -7.62939453125e-06 Z" stroke="none" fill="#dbe8e4"/>
        </g>
      </g>
    </g>
    <g id="soccer_2108654" transform="translate(1119.051 9578.204)">
      <path id="Trazado_1091394" data-name="Trazado 1091394" d="M161.362,117.825a19.608,19.608,0,1,0-19.608-19.608,19.608,19.608,0,0,0,19.608,19.608Z" transform="translate(-126.658 -33.276)" fill="url(#linear-gradient)"/>
      <path id="Trazado_1091395" data-name="Trazado 1091395" d="M343.379,94.132,335.086,95.9a4.107,4.107,0,0,1-3.424-.81l-6.122-4.9A4.111,4.111,0,0,1,324,86.99v-.008l.013-8.37h.187A19.613,19.613,0,0,1,343.379,94.132Z" transform="translate(-289.496 -33.278)" fill="url(#linear-gradient-2)"/>
      <path id="Trazado_1091396" data-name="Trazado 1091396" d="M164.6,86.993V87a4.11,4.11,0,0,1-1.54,3.206l-6.122,4.9a4.114,4.114,0,0,1-3.425.81l-7.013-1.5-.9-.192a19.615,19.615,0,0,1,18.985-15.6Z" transform="translate(-130.096 -33.289)" fill="url(#linear-gradient-3)"/>
      <path id="Trazado_1091397" data-name="Trazado 1091397" d="M154.376,240.514l-.052.059-4.69,5.2a3.33,3.33,0,0,1-.357.341,19.641,19.641,0,0,1-7.166-19.183,3.364,3.364,0,0,1,.951-.072,3.313,3.313,0,0,1,.472.066l6.846,1.463c.059.013.118.027.176.043a3.354,3.354,0,0,1,2.314,2.2l2.155,6.66A3.355,3.355,0,0,1,154.376,240.514Z" transform="translate(-126.658 -165.729)" fill="url(#linear-gradient-4)"/>
      <path id="Trazado_1091398" data-name="Trazado 1091398" d="M397.286,230.669a19.572,19.572,0,0,1-7.522,15.441,3.322,3.322,0,0,1-.358-.341l-4.69-5.2-.052-.059a3.355,3.355,0,0,1-.649-3.221l2.155-6.66a3.354,3.354,0,0,1,2.49-2.248l6.846-1.463a3.35,3.35,0,0,1,1.423.005A19.672,19.672,0,0,1,397.286,230.669Z" transform="translate(-342.975 -165.727)" fill="url(#linear-gradient-5)"/>
      <path id="Trazado_1091399" data-name="Trazado 1091399" d="M237.806,348.88a19.614,19.614,0,0,1-23.834,0,3.962,3.962,0,0,1,.5-.717l4.374-4.952.052-.059.075-.084a3.992,3.992,0,0,1,2.991-1.349h7.84a3.992,3.992,0,0,1,2.991,1.349l.075.084.052.059,4.374,4.952A3.955,3.955,0,0,1,237.806,348.88Z" transform="translate(-191.186 -268.366)" fill="url(#linear-gradient-6)"/>
      <path id="Trazado_1091400" data-name="Trazado 1091400" d="M251.1,184.449l-4.994,3.628a3.662,3.662,0,0,0-1.33,4.094l1.907,5.87a3.662,3.662,0,0,0,3.483,2.53h6.172a3.662,3.662,0,0,0,3.483-2.53l1.907-5.87a3.662,3.662,0,0,0-1.33-4.094l-4.994-3.628A3.662,3.662,0,0,0,251.1,184.449Z" transform="translate(-218.548 -127.219)" fill="url(#linear-gradient-7)"/>
      <path id="Trazado_1091401" data-name="Trazado 1091401" d="M288.223,79.278l-2.943,2.138a3.661,3.661,0,0,1-4.3,0l-2.943-2.138a19.757,19.757,0,0,1,10.19,0Z" transform="translate(-248.425 -33.276)" fill="url(#linear-gradient-8)"/>
      <path id="Trazado_1091402" data-name="Trazado 1091402" d="M485.635,191.009l-1.32-.92a3.661,3.661,0,0,1-1.411-4.067l.83-2.737A19.5,19.5,0,0,1,485.635,191.009Z" transform="translate(-431.338 -126.805)" fill="url(#linear-gradient-9)"/>
      <path id="Trazado_1091403" data-name="Trazado 1091403" d="M143.2,190.089l-1.32.92a19.5,19.5,0,0,1,1.9-7.723l.83,2.737A3.661,3.661,0,0,1,143.2,190.089Z" transform="translate(-126.774 -126.805)" fill="url(#linear-gradient-10)"/>
      <path id="Trazado_1091404" data-name="Trazado 1091404" d="M190.827,384.67a19.656,19.656,0,0,1-7.83-5.8l3.771.228a3.661,3.661,0,0,1,3.323,2.736Z" transform="translate(-163.509 -301.559)" fill="url(#linear-gradient-11)"/>
      <path id="Trazado_1091405" data-name="Trazado 1091405" d="M403.06,378.868a19.656,19.656,0,0,1-7.83,5.8l.736-2.837a3.661,3.661,0,0,1,3.323-2.736Z" transform="translate(-353.141 -301.559)" fill="url(#linear-gradient-12)"/>
      <path id="Trazado_1091406" data-name="Trazado 1091406" d="M178.37,95.619a19.607,19.607,0,0,0-14.74,32.536A19.607,19.607,0,0,0,191.3,100.487,19.531,19.531,0,0,0,178.37,95.619Z" transform="translate(-141.855 -48.474)" fill="url(#linear-gradient-13)"/>
      <path id="Trazado_1091407" data-name="Trazado 1091407" d="M197.181,106.991a19.61,19.61,0,0,1-27.047,27.047,19.609,19.609,0,1,0,27.047-27.047Z" transform="translate(-152.016 -58.635)" fill="url(#linear-gradient-14)"/>
      <path id="Trazado_1091408" data-name="Trazado 1091408" d="M15.536,386.015H.52A.52.52,0,0,1,0,385.5v-2.4a.52.52,0,0,1,.52-.52H15.536a.52.52,0,0,1,.52.52v2.4a.52.52,0,0,1-.52.52Z" transform="translate(0 -304.868)" fill="url(#linear-gradient-15)"/>
      <path id="Trazado_1091409" data-name="Trazado 1091409" d="M30.2,386.014h-11.2a.451.451,0,0,1-.451-.451v-2.541a.451.451,0,0,1,.451-.451H30.2a.451.451,0,0,1,.451.451v2.541a.451.451,0,0,1-.451.451Z" transform="translate(-16.567 -304.867)" fill="url(#linear-gradient-16)"/>
      <path id="Trazado_1091410" data-name="Trazado 1091410" d="M58.845,386.015H54.987a.272.272,0,0,1-.272-.272v-2.9a.272.272,0,0,1,.272-.272h3.858a.272.272,0,0,1,.272.272v2.9A.272.272,0,0,1,58.845,386.015Z" transform="translate(-48.888 -304.868)" fill="url(#linear-gradient-17)"/>
      <path id="Trazado_1091411" data-name="Trazado 1091411" d="M4.776,386.506a.52.52,0,0,0-.52.52v2.4a.516.516,0,0,0,.009.1.534.534,0,0,0,.057,0H19.339a.52.52,0,0,0,.52-.52v-2.4a.515.515,0,0,0-.009-.1.526.526,0,0,0-.057,0Z" transform="translate(-3.803 -308.384)" fill="url(#linear-gradient-18)"/>
      <path id="Trazado_1091412" data-name="Trazado 1091412" d="M15.536,353.677H.52a.52.52,0,0,1-.52-.52v-2.4a.52.52,0,0,1,.52-.52H15.536a.52.52,0,0,1,.52.52v2.4a.52.52,0,0,1-.52.52Z" transform="translate(0 -275.973)" fill="url(#linear-gradient-19)"/>
      <path id="Trazado_1091413" data-name="Trazado 1091413" d="M30.2,353.676h-11.2a.451.451,0,0,1-.451-.451v-2.541a.451.451,0,0,1,.451-.451H30.2a.451.451,0,0,1,.451.451v2.541a.451.451,0,0,1-.451.451Z" transform="translate(-16.567 -275.973)" fill="url(#linear-gradient-17)"/>
      <path id="Trazado_1091414" data-name="Trazado 1091414" d="M58.845,353.677H54.987a.272.272,0,0,1-.272-.272v-2.9a.272.272,0,0,1,.272-.272h3.858a.272.272,0,0,1,.272.272v2.9A.272.272,0,0,1,58.845,353.677Z" transform="translate(-48.888 -275.973)" fill="url(#linear-gradient-17)"/>
      <path id="Trazado_1091415" data-name="Trazado 1091415" d="M4.776,354.167a.52.52,0,0,0-.52.52v2.4a.516.516,0,0,0,.009.1.534.534,0,0,0,.057,0H19.339a.52.52,0,0,0,.52-.52v-2.4a.516.516,0,0,0-.009-.1.534.534,0,0,0-.057,0Z" transform="translate(-3.803 -279.488)" fill="url(#linear-gradient-18)"/>
      <path id="Trazado_1091416" data-name="Trazado 1091416" d="M15.536,321.339H.52a.52.52,0,0,1-.52-.52v-2.4a.52.52,0,0,1,.52-.52H15.536a.52.52,0,0,1,.52.52v2.4a.52.52,0,0,1-.52.52Z" transform="translate(0 -247.079)" fill="url(#linear-gradient-19)"/>
      <path id="Trazado_1091417" data-name="Trazado 1091417" d="M30.2,321.339h-11.2a.451.451,0,0,1-.451-.451v-2.541a.451.451,0,0,1,.451-.451H30.2a.451.451,0,0,1,.451.451v2.541a.451.451,0,0,1-.451.451Z" transform="translate(-16.567 -247.079)" fill="url(#linear-gradient-17)"/>
      <path id="Trazado_1091418" data-name="Trazado 1091418" d="M58.845,321.339H54.987a.272.272,0,0,1-.272-.272v-2.9a.272.272,0,0,1,.272-.272h3.858a.272.272,0,0,1,.272.272v2.9A.272.272,0,0,1,58.845,321.339Z" transform="translate(-48.888 -247.079)" fill="url(#linear-gradient-17)"/>
      <path id="Trazado_1091419" data-name="Trazado 1091419" d="M4.776,321.829a.52.52,0,0,0-.52.52v2.4a.516.516,0,0,0,.009.1.526.526,0,0,0,.057,0H19.339a.52.52,0,0,0,.52-.52v-2.4a.515.515,0,0,0-.009-.1.526.526,0,0,0-.057,0Z" transform="translate(-3.803 -250.594)" fill="url(#linear-gradient-18)"/>
      <path id="Trazado_1091420" data-name="Trazado 1091420" d="M15.536,289H.52a.52.52,0,0,1-.52-.52v-2.4a.52.52,0,0,1,.52-.52H15.536a.52.52,0,0,1,.52.52v2.4a.52.52,0,0,1-.52.52Z" transform="translate(0 -218.185)" fill="url(#linear-gradient-15)"/>
      <path id="Trazado_1091421" data-name="Trazado 1091421" d="M30.2,289h-11.2a.451.451,0,0,1-.451-.451v-2.541a.451.451,0,0,1,.451-.451H30.2a.451.451,0,0,1,.451.451v2.541A.451.451,0,0,1,30.2,289Z" transform="translate(-16.567 -218.185)" fill="url(#linear-gradient-17)"/>
      <path id="Trazado_1091422" data-name="Trazado 1091422" d="M58.845,289H54.987a.272.272,0,0,1-.272-.272v-2.9a.272.272,0,0,1,.272-.272h3.858a.272.272,0,0,1,.272.272v2.9A.272.272,0,0,1,58.845,289Z" transform="translate(-48.888 -218.184)" fill="url(#linear-gradient-17)"/>
      <path id="Trazado_1091423" data-name="Trazado 1091423" d="M4.776,289.491a.52.52,0,0,0-.52.52v2.4a.516.516,0,0,0,.009.1.534.534,0,0,0,.057,0H19.339a.52.52,0,0,0,.52-.52v-2.4a.515.515,0,0,0-.009-.1.526.526,0,0,0-.057,0Z" transform="translate(-3.803 -221.7)" fill="url(#linear-gradient-18)"/>
      <path id="Trazado_1091424" data-name="Trazado 1091424" d="M15.536,256.664H.52a.52.52,0,0,1-.52-.52v-2.4a.52.52,0,0,1,.52-.52H15.536a.52.52,0,0,1,.52.52v2.4a.52.52,0,0,1-.52.52Z" transform="translate(0 -189.292)" fill="url(#linear-gradient-19)"/>
      <path id="Trazado_1091425" data-name="Trazado 1091425" d="M30.2,256.662h-11.2a.451.451,0,0,1-.451-.451v-2.541a.451.451,0,0,1,.451-.451H30.2a.451.451,0,0,1,.451.451v2.541a.451.451,0,0,1-.451.451Z" transform="translate(-16.567 -189.29)" fill="url(#linear-gradient-17)"/>
      <path id="Trazado_1091426" data-name="Trazado 1091426" d="M58.845,256.663H54.987a.272.272,0,0,1-.272-.272v-2.9a.272.272,0,0,1,.272-.272h3.858a.272.272,0,0,1,.272.272v2.9A.272.272,0,0,1,58.845,256.663Z" transform="translate(-48.888 -189.291)" fill="url(#linear-gradient-17)"/>
      <path id="Trazado_1091427" data-name="Trazado 1091427" d="M4.776,257.153a.52.52,0,0,0-.52.52v2.4a.516.516,0,0,0,.009.1.526.526,0,0,0,.057,0H19.339a.52.52,0,0,0,.52-.52v-2.4a.516.516,0,0,0-.009-.1.534.534,0,0,0-.057,0Z" transform="translate(-3.803 -192.806)" fill="url(#linear-gradient-18)"/>
      <path id="Trazado_1091428" data-name="Trazado 1091428" d="M15.536,224.324H.52A.52.52,0,0,1,0,223.8v-2.4a.52.52,0,0,1,.52-.52H15.536a.52.52,0,0,1,.52.52v2.4a.52.52,0,0,1-.52.52Z" transform="translate(0 -160.395)" fill="url(#linear-gradient-19)"/>
      <path id="Trazado_1091429" data-name="Trazado 1091429" d="M30.2,224.323h-11.2a.451.451,0,0,1-.451-.451V221.33a.451.451,0,0,1,.451-.451H30.2a.451.451,0,0,1,.451.451v2.541a.451.451,0,0,1-.451.451Z" transform="translate(-16.567 -160.395)" fill="url(#linear-gradient-17)"/>
      <path id="Trazado_1091430" data-name="Trazado 1091430" d="M58.845,224.325H54.987a.272.272,0,0,1-.272-.272v-2.9a.272.272,0,0,1,.272-.272h3.858a.272.272,0,0,1,.272.272v2.9A.272.272,0,0,1,58.845,224.325Z" transform="translate(-48.888 -160.396)" fill="url(#linear-gradient-37)"/>
      <path id="Trazado_1091431" data-name="Trazado 1091431" d="M4.776,224.814a.52.52,0,0,0-.52.52v2.4a.516.516,0,0,0,.009.1.534.534,0,0,0,.057,0H19.339a.52.52,0,0,0,.52-.52v-2.4a.516.516,0,0,0-.009-.1.53.53,0,0,0-.057,0Z" transform="translate(-3.803 -163.911)" fill="url(#linear-gradient-38)"/>
      <path id="Trazado_1091432" data-name="Trazado 1091432" d="M427.1,299.679a19.7,19.7,0,0,0,6.611-7.317l-6.611-6.611Z" transform="translate(-381.619 -218.358)" fill="url(#linear-gradient-39)"/>
      <path id="Trazado_1091433" data-name="Trazado 1091433" d="M131.042,301.012H97.653a.981.981,0,0,1-.981-.981V282.6a.981.981,0,0,1,.981-.981h33.389a.981.981,0,0,1,.981.981v17.428A.981.981,0,0,1,131.042,301.012Z" transform="translate(-86.377 -214.669)" fill="url(#linear-gradient-40)"/>
      <path id="Trazado_1091434" data-name="Trazado 1091434" d="M136.875,305.98H104.937a.925.925,0,0,1-.925-.925V288.86a.925.925,0,0,1,.925-.925h31.937a.925.925,0,0,1,.925.925v16.195A.925.925,0,0,1,136.875,305.98Z" transform="translate(-92.936 -220.31)" fill="url(#linear-gradient-41)"/>
      <path id="Trazado_1091435" data-name="Trazado 1091435" d="M149.188,305.83a2.965,2.965,0,0,1-2.965-2.965q0-.1.007-.2a.549.549,0,0,0-.547-.587H123.272a.549.549,0,0,0-.547.587q.007.1.007.2a2.965,2.965,0,0,1-2.965,2.965h-.006a.553.553,0,0,0-.56.549v6.432a.552.552,0,0,0,.56.549h.006a2.965,2.965,0,0,1,2.965,2.965q0,.1-.007.2a.549.549,0,0,0,.547.587h22.411a.549.549,0,0,0,.547-.587q-.007-.1-.007-.2a2.965,2.965,0,0,1,2.965-2.965h.006a.552.552,0,0,0,.56-.549v-6.432a.553.553,0,0,0-.56-.549Z" transform="translate(-106.507 -232.947)" fill="url(#linear-gradient-42)"/>
      <circle id="Elipse_11527" data-name="Elipse 11527" cx="6.754" cy="6.754" r="6.754" transform="translate(21.216 69.894)" fill="url(#linear-gradient-43)"/>
      <path id="Trazado_1091436" data-name="Trazado 1091436" d="M240.476,323.19a1.14,1.14,0,0,0-.6-.4,4.621,4.621,0,0,0-1.019-.235.5.5,0,0,0-.059-.032l-.534-.572a.449.449,0,0,0-.271-.092.413.413,0,0,0-.271.092.27.27,0,0,0-.112.211v.383a3.317,3.317,0,0,0-1.79.713A2.129,2.129,0,0,0,235.1,325a2.807,2.807,0,0,0,.092.745,1.521,1.521,0,0,0,.3.587,4.866,4.866,0,0,0,.4.428l0,0,1.662,1.662.046.048v2.21a2.3,2.3,0,0,1-1.031-.3,4.376,4.376,0,0,1-.7-.494.716.716,0,0,0-.412-.231.522.522,0,0,0-.42.251.843.843,0,0,0-.184.5,1.077,1.077,0,0,0,.451.789l5.767,5.767h13.166Z" transform="translate(-209.854 -250.62)" fill="url(#linear-gradient-44)"/>
      <path id="Trazado_1091437" data-name="Trazado 1091437" d="M234.863,330.408a.844.844,0,0,1,.184-.5.522.522,0,0,1,.42-.251.716.716,0,0,1,.412.231,4.384,4.384,0,0,0,.7.494,2.3,2.3,0,0,0,1.031.3v-3.1q-.4-.145-.608-.231t-.561-.25a2.126,2.126,0,0,1-.542-.343,4.866,4.866,0,0,1-.4-.429,1.52,1.52,0,0,1-.3-.587A2.807,2.807,0,0,1,235.1,325a2.129,2.129,0,0,1,.72-1.742,3.315,3.315,0,0,1,1.79-.713v-.383a.269.269,0,0,1,.112-.211.413.413,0,0,1,.271-.092.449.449,0,0,1,.271.092.263.263,0,0,1,.126.211v.357a4.852,4.852,0,0,1,1.486.271q.68.245.68.68a.943.943,0,0,1-.16.5.484.484,0,0,1-.426.258,2.239,2.239,0,0,1-.579-.225,2.808,2.808,0,0,0-1-.264v2.677a8.653,8.653,0,0,1,.874.376,4.233,4.233,0,0,1,.736.494,1.978,1.978,0,0,1,.585.8,2.963,2.963,0,0,1,.2,1.127,2.655,2.655,0,0,1-.644,1.876,2.845,2.845,0,0,1-1.747.855v.441a.257.257,0,0,1-.126.208.454.454,0,0,1-.271.091.418.418,0,0,1-.271-.091.264.264,0,0,1-.112-.208v-.4a3.615,3.615,0,0,1-1.949-.526q-.8-.513-.8-1.046Zm1.546-5.538a.968.968,0,0,0,.32.784,3.272,3.272,0,0,0,.961.508v-2.4Q236.409,323.919,236.409,324.87Zm1.9,5.788a1.231,1.231,0,0,0,1.163-1.305,1.291,1.291,0,0,0-.3-.91,2.475,2.475,0,0,0-.859-.567Z" transform="translate(-209.852 -250.621)" fill="url(#linear-gradient-45)"/>
      <circle id="Elipse_11528" data-name="Elipse 11528" cx="1.402" cy="1.402" r="1.402" transform="translate(12.173 69.167)" fill="url(#linear-gradient-46)"/>
      <circle id="Elipse_11529" data-name="Elipse 11529" cx="1.402" cy="1.402" r="1.402" transform="translate(40.963 69.167)" fill="url(#linear-gradient-46)"/>
      <circle id="Elipse_11530" data-name="Elipse 11530" cx="1.402" cy="1.402" r="1.402" transform="translate(12.173 81.324)" fill="url(#linear-gradient-46)"/>
      <circle id="Elipse_11531" data-name="Elipse 11531" cx="1.402" cy="1.402" r="1.402" transform="translate(40.963 81.324)" fill="url(#linear-gradient-46)"/>
      <path id="Trazado_1091438" data-name="Trazado 1091438" d="M302.681,301.012h12.432a.981.981,0,0,0,.981-.981v-7.364l-11.045-11.045h-2.368Z" transform="translate(-270.448 -214.669)" fill="url(#linear-gradient-50)"/>
      <path id="Trazado_1091439" data-name="Trazado 1091439" d="M211.728,297.131H200.237a1.009,1.009,0,0,1-1.009-1.009V277.7a1.009,1.009,0,0,1,1.009-1.009h11.491a1.009,1.009,0,0,1,1.009,1.009v18.423A1.009,1.009,0,0,1,211.728,297.131Z" transform="translate(-178.012 -210.263)" fill="url(#linear-gradient-51)"/>
      <path id="Trazado_1091440" data-name="Trazado 1091440" d="M209.3,285.751a1.009,1.009,0,0,0-1.009,1.009v18.423c0,.014,0,.028,0,.042l.042,0h11.491a1.009,1.009,0,0,0,1.009-1.009V285.795c0-.014,0-.028,0-.042l-.042,0Z" transform="translate(-186.107 -218.358)" fill="url(#linear-gradient-52)"/>
      <path id="Trazado_1091441" data-name="Trazado 1091441" d="M244.579,336.48v-9.187l-4.1-4.1a1.14,1.14,0,0,0-.6-.4,4.619,4.619,0,0,0-1.019-.235.5.5,0,0,0-.059-.032l-.534-.572a.449.449,0,0,0-.271-.092.413.413,0,0,0-.271.092.27.27,0,0,0-.112.211v.383a3.317,3.317,0,0,0-1.79.713A2.129,2.129,0,0,0,235.1,325a2.806,2.806,0,0,0,.092.745,1.52,1.52,0,0,0,.3.587,4.863,4.863,0,0,0,.4.429l0,0,1.662,1.662.046.048v2.21a2.3,2.3,0,0,1-1.031-.3,4.38,4.38,0,0,1-.7-.494.716.716,0,0,0-.412-.231.522.522,0,0,0-.42.251.843.843,0,0,0-.184.5,1.077,1.077,0,0,0,.451.789l6.292,6.292h1.961A1.009,1.009,0,0,0,244.579,336.48Z" transform="translate(-209.854 -250.62)" fill="url(#linear-gradient-53)"/>
      <path id="Trazado_1091442" data-name="Trazado 1091442" d="M234.863,330.408a.844.844,0,0,1,.184-.5.522.522,0,0,1,.42-.251.716.716,0,0,1,.412.231,4.384,4.384,0,0,0,.7.494,2.3,2.3,0,0,0,1.031.3v-3.1q-.4-.145-.608-.231t-.561-.25a2.126,2.126,0,0,1-.542-.343,4.866,4.866,0,0,1-.4-.429,1.52,1.52,0,0,1-.3-.587A2.807,2.807,0,0,1,235.1,325a2.129,2.129,0,0,1,.72-1.742,3.315,3.315,0,0,1,1.79-.713v-.383a.269.269,0,0,1,.112-.211.413.413,0,0,1,.271-.092.449.449,0,0,1,.271.092.263.263,0,0,1,.126.211v.357a4.852,4.852,0,0,1,1.486.271q.68.245.68.68a.943.943,0,0,1-.16.5.484.484,0,0,1-.426.258,2.239,2.239,0,0,1-.579-.225,2.808,2.808,0,0,0-1-.264v2.677a8.653,8.653,0,0,1,.874.376,4.233,4.233,0,0,1,.736.494,1.978,1.978,0,0,1,.585.8,2.963,2.963,0,0,1,.2,1.127,2.655,2.655,0,0,1-.644,1.876,2.845,2.845,0,0,1-1.747.855v.441a.257.257,0,0,1-.126.208.454.454,0,0,1-.271.091.418.418,0,0,1-.271-.091.264.264,0,0,1-.112-.208v-.4a3.615,3.615,0,0,1-1.949-.526q-.8-.513-.8-1.046Zm1.546-5.538a.968.968,0,0,0,.32.784,3.272,3.272,0,0,0,.961.508v-2.4Q236.409,323.919,236.409,324.87Zm1.9,5.788a1.231,1.231,0,0,0,1.163-1.305,1.291,1.291,0,0,0-.3-.91,2.475,2.475,0,0,0-.859-.567Z" transform="translate(-209.852 -250.621)" fill="url(#linear-gradient-54)"/>
      <path id="Trazado_1091443" data-name="Trazado 1091443" d="M88.327,126.384a11.437,11.437,0,0,0-3.37,3.39.5.5,0,0,1-.843,0,11.435,11.435,0,0,0-3.358-3.4.5.5,0,0,1,0-.837,11.435,11.435,0,0,0,3.37-3.39.5.5,0,0,1,.843,0,11.436,11.436,0,0,0,3.358,3.4A.5.5,0,0,1,88.327,126.384Z" transform="translate(-71.957 -71.97)" fill="url(#linear-gradient-55)"/>
      <path id="Trazado_1091444" data-name="Trazado 1091444" d="M46.219,76.047a8.088,8.088,0,0,0-2.383,2.4.356.356,0,0,1-.6,0,8.086,8.086,0,0,0-2.374-2.406.356.356,0,0,1,0-.592,8.086,8.086,0,0,0,2.383-2.4.356.356,0,0,1,.6,0,8.087,8.087,0,0,0,2.375,2.406.356.356,0,0,1,0,.592Z" transform="translate(-36.372 -28.162)" fill="url(#linear-gradient-56)"/>
      <path id="Trazado_1091445" data-name="Trazado 1091445" d="M178.115,44.528a8.088,8.088,0,0,0-2.383,2.4.356.356,0,0,1-.6,0,8.086,8.086,0,0,0-2.374-2.406.356.356,0,0,1,0-.592,8.087,8.087,0,0,0,2.383-2.4.356.356,0,0,1,.6,0,8.087,8.087,0,0,0,2.375,2.406A.356.356,0,0,1,178.115,44.528Z" transform="translate(-154.222)" fill="url(#linear-gradient-57)"/>
    </g>
  </g>
</svg>
