<svg xmlns="http://www.w3.org/2000/svg" width="89" height="89" viewBox="0 0 89 89">
  <g id="Grupo_1211654" data-name="Grupo 1211654" transform="translate(5941.81 2017.848)">
    <g id="Grupo_1210394" data-name="Grupo 1210394" transform="translate(-7193.143 -2430.848)">
      <g id="Grupo_1098742" data-name="Grupo 1098742" transform="translate(1251.333 413)">
        <g id="Trazado_875734" data-name="Trazado 875734" fill="#4e8f7d" opacity="0.859">
          <path d="M 44.49999237060547 87.49999237060547 C 38.69436645507812 87.49999237060547 33.06320571899414 86.36328887939453 27.76291656494141 84.12145233154297 C 22.64269256591797 81.95578002929688 18.04394149780273 78.8551025390625 14.09440517425537 74.90557861328125 C 10.1448802947998 70.9560546875 7.044217586517334 66.35730743408203 4.878542423248291 61.23706817626953 C 2.636704921722412 55.9367790222168 1.500004887580872 50.30561828613281 1.500004887580872 44.49999237060547 C 1.500004887580872 38.69436645507812 2.636704921722412 33.06320571899414 4.878542423248291 27.76291656494141 C 7.044217586517334 22.64269256591797 10.1448802947998 18.04394149780273 14.09440517425537 14.09440517425537 C 18.04394149780273 10.1448802947998 22.64269256591797 7.044217586517334 27.76291656494141 4.878542423248291 C 33.06320571899414 2.636704921722412 38.69436645507812 1.500004887580872 44.49999237060547 1.500004887580872 C 50.30561828613281 1.500004887580872 55.9367790222168 2.636704921722412 61.23706817626953 4.878542423248291 C 66.35730743408203 7.044217586517334 70.9560546875 10.1448802947998 74.90557861328125 14.09440517425537 C 78.8551025390625 18.04394149780273 81.95578002929688 22.64269256591797 84.12145233154297 27.76291656494141 C 86.36328887939453 33.06320571899414 87.49999237060547 38.69436645507812 87.49999237060547 44.49999237060547 C 87.49999237060547 50.30561828613281 86.36328887939453 55.9367790222168 84.12145233154297 61.23706817626953 C 81.95578002929688 66.35730743408203 78.8551025390625 70.9560546875 74.90557861328125 74.90557861328125 C 70.9560546875 78.8551025390625 66.35730743408203 81.95578002929688 61.23706817626953 84.12145233154297 C 55.9367790222168 86.36328887939453 50.30561828613281 87.49999237060547 44.49999237060547 87.49999237060547 Z" stroke="none"/>
          <path d="M 44.49999237060547 2.999992370605469 C 38.89620590209961 2.999992370605469 33.46163558959961 4.096832275390625 28.34723663330078 6.260032653808594 C 23.40580749511719 8.350090026855469 18.96732330322266 11.34280395507812 15.15506744384766 15.15506744384766 C 11.34280395507812 18.96732330322266 8.350090026855469 23.40580749511719 6.260032653808594 28.34723663330078 C 4.096832275390625 33.46163558959961 2.999992370605469 38.89620590209961 2.999992370605469 44.49999237060547 C 2.999992370605469 50.10377883911133 4.096832275390625 55.53834915161133 6.260032653808594 60.65273284912109 C 8.350090026855469 65.59417724609375 11.34280395507812 70.03266143798828 15.15506744384766 73.84492492675781 C 18.96732330322266 77.65716552734375 23.40580749511719 80.64989471435547 28.34723663330078 82.73993682861328 C 33.46163558959961 84.90313720703125 38.89620590209961 85.99997711181641 44.49999237060547 85.99997711181641 C 50.10377883911133 85.99997711181641 55.53834915161133 84.90313720703125 60.65274810791016 82.73993682861328 C 65.59417724609375 80.64989471435547 70.03266143798828 77.65716552734375 73.84492492675781 73.84492492675781 C 77.65716552734375 70.03266143798828 80.64989471435547 65.59417724609375 82.73993682861328 60.65274810791016 C 84.90313720703125 55.53834915161133 85.99997711181641 50.10377883911133 85.99997711181641 44.49999237060547 C 85.99997711181641 38.89620590209961 84.90313720703125 33.46163558959961 82.73993682861328 28.34723663330078 C 80.64989471435547 23.40580749511719 77.65716552734375 18.96732330322266 73.84492492675781 15.15506744384766 C 70.03266143798828 11.34280395507812 65.59417724609375 8.350090026855469 60.65273284912109 6.260032653808594 C 55.53834915161133 4.096832275390625 50.10377883911133 2.999992370605469 44.49999237060547 2.999992370605469 M 44.49999237060547 -7.62939453125e-06 C 69.07666015625 -7.62939453125e-06 88.99997711181641 19.92332458496094 88.99997711181641 44.49999237060547 C 88.99997711181641 69.07666015625 69.07666015625 88.99997711181641 44.49999237060547 88.99997711181641 C 19.92332458496094 88.99997711181641 -7.62939453125e-06 69.07666015625 -7.62939453125e-06 44.49999237060547 C -7.62939453125e-06 19.92332458496094 19.92332458496094 -7.62939453125e-06 44.49999237060547 -7.62939453125e-06 Z" stroke="none" fill="#fff"/>
        </g>
        <g id="Trazado_875735" data-name="Trazado 875735" transform="translate(0)" fill="none">
          <path d="M44.5,0A44.5,44.5,0,1,1,0,44.5,44.5,44.5,0,0,1,44.5,0Z" stroke="none"/>
          <path d="M 44.49999237060547 2.999992370605469 C 38.89620590209961 2.999992370605469 33.46163558959961 4.096832275390625 28.34723663330078 6.260032653808594 C 23.40580749511719 8.350090026855469 18.96732330322266 11.34280395507812 15.15506744384766 15.15506744384766 C 11.34280395507812 18.96732330322266 8.350090026855469 23.40580749511719 6.260032653808594 28.34723663330078 C 4.096832275390625 33.46163558959961 2.999992370605469 38.89620590209961 2.999992370605469 44.49999237060547 C 2.999992370605469 50.10377883911133 4.096832275390625 55.53834915161133 6.260032653808594 60.65273284912109 C 8.350090026855469 65.59417724609375 11.34280395507812 70.03266143798828 15.15506744384766 73.84492492675781 C 18.96732330322266 77.65716552734375 23.40580749511719 80.64989471435547 28.34723663330078 82.73993682861328 C 33.46163558959961 84.90313720703125 38.89620590209961 85.99997711181641 44.49999237060547 85.99997711181641 C 50.10377883911133 85.99997711181641 55.53834915161133 84.90313720703125 60.65274810791016 82.73993682861328 C 65.59417724609375 80.64989471435547 70.03266143798828 77.65716552734375 73.84492492675781 73.84492492675781 C 77.65716552734375 70.03266143798828 80.64989471435547 65.59417724609375 82.73993682861328 60.65274810791016 C 84.90313720703125 55.53834915161133 85.99997711181641 50.10377883911133 85.99997711181641 44.49999237060547 C 85.99997711181641 38.89620590209961 84.90313720703125 33.46163558959961 82.73993682861328 28.34723663330078 C 80.64989471435547 23.40580749511719 77.65716552734375 18.96732330322266 73.84492492675781 15.15506744384766 C 70.03266143798828 11.34280395507812 65.59417724609375 8.350090026855469 60.65273284912109 6.260032653808594 C 55.53834915161133 4.096832275390625 50.10377883911133 2.999992370605469 44.49999237060547 2.999992370605469 M 44.49999237060547 -7.62939453125e-06 C 69.07666015625 -7.62939453125e-06 88.99997711181641 19.92332458496094 88.99997711181641 44.49999237060547 C 88.99997711181641 69.07666015625 69.07666015625 88.99997711181641 44.49999237060547 88.99997711181641 C 19.92332458496094 88.99997711181641 -7.62939453125e-06 69.07666015625 -7.62939453125e-06 44.49999237060547 C -7.62939453125e-06 19.92332458496094 19.92332458496094 -7.62939453125e-06 44.49999237060547 -7.62939453125e-06 Z" stroke="none" fill="#dbe8e4"/>
        </g>
      </g>
    </g>
    <g id="wealth_3846038" transform="translate(-5921.943 -1995.849)">
      <path id="Trazado_1091529" data-name="Trazado 1091529" d="M68.058,129.4l-3.563.865a3.724,3.724,0,0,0-2.853,3.629,2.415,2.415,0,0,1-1.507,2.235l.773,1.1a3.737,3.737,0,0,0,2.056-3.334,2.4,2.4,0,0,1,1.843-2.343l3.563-.865a.658.658,0,0,0,.378-.254c.023-.239.044-.465.064-.672A.661.661,0,0,0,68.058,129.4Z" transform="translate(-53.211 -117.851)" fill="#f9f6f9"/>
      <path id="Trazado_1091530" data-name="Trazado 1091530" d="M82.075,8.625,63.726,16.881a.341.341,0,0,0,.01.451L81.781,36.847a.341.341,0,0,0,.5,0l18.133-19.514a.341.341,0,0,0,.009-.453Z" transform="translate(-56.409 -7.856)" fill="#cbe2ff"/>
      <path id="Trazado_1091531" data-name="Trazado 1091531" d="M267.78,94.5l-3.418,1.053-16.418,17.669,1.706,1.845a.341.341,0,0,0,.5,0l18.133-19.514a.341.341,0,0,0,.009-.453Z" transform="translate(-224.278 -86.076)" fill="#9dc6fb"/>
      <path id="Trazado_1091532" data-name="Trazado 1091532" d="M6.019,208.394a3.732,3.732,0,0,0,.812-.09l-.9-1.23a4.308,4.308,0,0,0-4.215,4.3v.147a4.275,4.275,0,0,0,1.26,3.043.661.661,0,1,0,.935-.935,2.961,2.961,0,0,1-.873-2.108v-.147A2.984,2.984,0,0,1,6.019,208.394Z" transform="translate(0 -188.615)" fill="#beb9dd"/>
      <g id="Grupo_1210463" data-name="Grupo 1210463" transform="translate(15.697 12.891)">
        <path id="Trazado_1091533" data-name="Trazado 1091533" d="M158.552,144.613l9.634,16.055.041.044a.341.341,0,0,0,.5,0l.077-.083,9.517-16.017Z" transform="translate(-158.552 -144.613)" fill="#e4f6ff"/>
      </g>
      <g id="Grupo_1210464" data-name="Grupo 1210464" transform="translate(31.638 1.963)">
        <path id="Trazado_1091534" data-name="Trazado 1091534" d="M349.755,29.081l-5.9-6.9a.766.766,0,0,0-.192-.159l-6.288,1.739,3.827,9.19L349.82,29.4A.34.34,0,0,0,349.755,29.081Z" transform="translate(-337.38 -22.02)" fill="#9dc6fb"/>
      </g>
      <g id="Grupo_1210465" data-name="Grupo 1210465" transform="translate(7.238 1.965)">
        <path id="Trazado_1091535" data-name="Trazado 1091535" d="M76.1,23.629l-6.354-1.582a.763.763,0,0,0-.2.166l-5.809,6.893a.339.339,0,0,0-.063.323l8.444,3.544Z" transform="translate(-63.657 -22.047)" fill="#9dc6fb"/>
      </g>
      <g id="Grupo_1210466" data-name="Grupo 1210466" transform="translate(24.021 17.205)">
        <path id="Trazado_1091536" data-name="Trazado 1091536" d="M251.929,202.563l1.31,2.183.041.044a.341.341,0,0,0,.5,0l.077-.083,6.954-11.7Z" transform="translate(-251.929 -193.005)" fill="#cbe2ff"/>
      </g>
      <g id="Grupo_1210467" data-name="Grupo 1210467" transform="translate(34.799 1.963)">
        <path id="Trazado_1091537" data-name="Trazado 1091537" d="M382.053,29.081l-5.9-6.9a.766.766,0,0,0-.192-.159l-3.127.865,5.293,6.2a.341.341,0,0,1-.009.453l-2.278,2.451,6.273-2.582A.34.34,0,0,0,382.053,29.081Z" transform="translate(-372.839 -22.02)" fill="#80b4fb"/>
      </g>
      <path id="Trazado_1091538" data-name="Trazado 1091538" d="M159.4,166.734a7.464,7.464,0,0,1,5.313,2.2l1.29,1.29a8.837,8.837,0,0,0,12.5-12.5l-.935.935a7.514,7.514,0,1,1-10.626,10.626l-1.29-1.29a8.837,8.837,0,0,0-12.5,12.5,5.432,5.432,0,0,1,1.464,5l1.243.493a6.758,6.758,0,0,0-1.772-6.426,7.514,7.514,0,0,1,5.313-12.827Z" transform="translate(-135.585 -143.668)" fill="#f9f6f9"/>
      <path id="Trazado_1091539" data-name="Trazado 1091539" d="M179.007,470.9a5.4,5.4,0,0,1-1.43,2.535.661.661,0,0,0,.935.935,6.714,6.714,0,0,0,1.736-3Z" transform="translate(-160.008 -428.921)" fill="#beb9dd"/>
      <g id="Grupo_1210470" data-name="Grupo 1210470" transform="translate(7.111 11.708)">
        <g id="Grupo_1210468" data-name="Grupo 1210468">
          <circle id="Elipse_11541" data-name="Elipse 11541" cx="2.473" cy="2.473" r="2.473" fill="#f9f6f9"/>
        </g>
        <g id="Grupo_1210469" data-name="Grupo 1210469" transform="translate(0.161 0.161)">
          <path id="Trazado_1091540" data-name="Trazado 1091540" d="M67.233,133.136a2.473,2.473,0,0,1-3.19,3.189,2.473,2.473,0,1,0,3.19-3.189Z" transform="translate(-64.043 -133.136)" fill="#dddaec"/>
        </g>
      </g>
      <g id="Grupo_1210473" data-name="Grupo 1210473" transform="translate(4.799 16.181)">
        <g id="Grupo_1210471" data-name="Grupo 1210471">
          <circle id="Elipse_11542" data-name="Elipse 11542" cx="2.473" cy="2.473" r="2.473" fill="#f9f6f9"/>
        </g>
        <g id="Grupo_1210472" data-name="Grupo 1210472" transform="translate(0.161 0.161)">
          <path id="Trazado_1091541" data-name="Trazado 1091541" d="M41.292,183.314A2.473,2.473,0,0,1,38.1,186.5a2.473,2.473,0,1,0,3.19-3.189Z" transform="translate(-38.102 -183.314)" fill="#dddaec"/>
        </g>
      </g>
      <g id="Grupo_1210474" data-name="Grupo 1210474" transform="translate(1.999 24.148)">
        <ellipse id="Elipse_11543" data-name="Elipse 11543" cx="1.198" cy="2.031" rx="1.198" ry="2.031" transform="translate(0 1.354) rotate(-34.405)" fill="#f9f6f9"/>
      </g>
      <path id="Trazado_1091542" data-name="Trazado 1091542" d="M20.015,278.191c-.566-.827-1.39-1.271-1.948-1.089a3.181,3.181,0,0,1,.682.729c.634.926.7,1.979.159,2.353a.728.728,0,0,1-.188.09,1.284,1.284,0,0,0,1.453.27C20.72,280.17,20.649,279.117,20.015,278.191Z" transform="translate(-14.893 -252.364)" fill="#dddaec"/>
      <g id="Grupo_1210477" data-name="Grupo 1210477" transform="translate(34.186 25.906)">
        <g id="Grupo_1210475" data-name="Grupo 1210475">
          <circle id="Elipse_11544" data-name="Elipse 11544" cx="2.473" cy="2.473" r="2.473" fill="#f9f6f9"/>
        </g>
        <g id="Grupo_1210476" data-name="Grupo 1210476" transform="translate(0.161 0.161)">
          <path id="Trazado_1091543" data-name="Trazado 1091543" d="M370.947,292.413a2.473,2.473,0,0,1-3.19,3.189,2.473,2.473,0,1,0,3.19-3.189Z" transform="translate(-367.757 -292.413)" fill="#dddaec"/>
        </g>
      </g>
      <g id="Grupo_1210480" data-name="Grupo 1210480" transform="translate(29.4 24.384)">
        <g id="Grupo_1210478" data-name="Grupo 1210478">
          <circle id="Elipse_11545" data-name="Elipse 11545" cx="2.473" cy="2.473" r="2.473" fill="#f9f6f9"/>
        </g>
        <g id="Grupo_1210479" data-name="Grupo 1210479" transform="translate(0.161 0.161)">
          <path id="Trazado_1091544" data-name="Trazado 1091544" d="M317.263,275.337a2.473,2.473,0,0,1-3.19,3.189,2.473,2.473,0,1,0,3.19-3.189Z" transform="translate(-314.073 -275.337)" fill="#dddaec"/>
        </g>
      </g>
      <g id="Grupo_1210483" data-name="Grupo 1210483" transform="translate(20.84 19.934)">
        <g id="Grupo_1210481" data-name="Grupo 1210481">
          <circle id="Elipse_11546" data-name="Elipse 11546" cx="2.473" cy="2.473" r="2.473" fill="#f9f6f9"/>
        </g>
        <g id="Grupo_1210482" data-name="Grupo 1210482" transform="translate(0.161 0.161)">
          <path id="Trazado_1091545" data-name="Trazado 1091545" d="M221.236,225.418a2.473,2.473,0,0,1-3.19,3.189,2.473,2.473,0,1,0,3.19-3.189Z" transform="translate(-218.046 -225.418)" fill="#dddaec"/>
        </g>
      </g>
      <g id="Grupo_1210486" data-name="Grupo 1210486" transform="translate(16.231 21.734)">
        <g id="Grupo_1210484" data-name="Grupo 1210484" transform="translate(0)">
          <circle id="Elipse_11547" data-name="Elipse 11547" cx="2.473" cy="2.473" r="2.473" fill="#f9f6f9"/>
        </g>
        <g id="Grupo_1210485" data-name="Grupo 1210485" transform="translate(0.161 0.161)">
          <path id="Trazado_1091546" data-name="Trazado 1091546" d="M169.53,245.616a2.473,2.473,0,0,1-3.19,3.189,2.473,2.473,0,1,0,3.19-3.189Z" transform="translate(-166.34 -245.616)" fill="#dddaec"/>
        </g>
      </g>
      <g id="Grupo_1210489" data-name="Grupo 1210489" transform="translate(17.205 38.819)">
        <g id="Grupo_1210487" data-name="Grupo 1210487">
          <circle id="Elipse_11548" data-name="Elipse 11548" cx="2.473" cy="2.473" r="2.473" fill="#f9f6f9"/>
        </g>
        <g id="Grupo_1210488" data-name="Grupo 1210488" transform="translate(0.161 0.161)">
          <path id="Trazado_1091547" data-name="Trazado 1091547" d="M180.467,437.263a2.473,2.473,0,0,1-3.19,3.189,2.473,2.473,0,1,0,3.19-3.189Z" transform="translate(-177.277 -437.263)" fill="#dddaec"/>
        </g>
      </g>
      <g id="Grupo_1210492" data-name="Grupo 1210492" transform="translate(38.975 24.56)">
        <g id="Grupo_1210490" data-name="Grupo 1210490">
          <circle id="Elipse_11549" data-name="Elipse 11549" cx="2.473" cy="2.473" r="2.473" fill="#f9f6f9"/>
        </g>
        <g id="Grupo_1210491" data-name="Grupo 1210491" transform="translate(0.161 0.161)">
          <path id="Trazado_1091548" data-name="Trazado 1091548" d="M424.67,277.315a2.473,2.473,0,0,1-3.19,3.19,2.473,2.473,0,1,0,3.19-3.19Z" transform="translate(-421.48 -277.315)" fill="#dddaec"/>
        </g>
      </g>
      <g id="Grupo_1210495" data-name="Grupo 1210495" transform="translate(42.025 20.596)">
        <g id="Grupo_1210493" data-name="Grupo 1210493">
          <circle id="Elipse_11550" data-name="Elipse 11550" cx="2.473" cy="2.473" r="2.473" fill="#f9f6f9"/>
        </g>
        <g id="Grupo_1210494" data-name="Grupo 1210494" transform="translate(0.161 0.161)">
          <path id="Trazado_1091549" data-name="Trazado 1091549" d="M458.888,232.844a2.473,2.473,0,0,1-3.19,3.189,2.473,2.473,0,1,0,3.19-3.189Z" transform="translate(-455.698 -232.844)" fill="#dddaec"/>
        </g>
      </g>
      <g id="Grupo_1210498" data-name="Grupo 1210498" transform="translate(42.105 15.6)">
        <g id="Grupo_1210496" data-name="Grupo 1210496">
          <circle id="Elipse_11551" data-name="Elipse 11551" cx="2.473" cy="2.473" r="2.473" fill="#f9f6f9"/>
        </g>
        <g id="Grupo_1210497" data-name="Grupo 1210497" transform="translate(0.161 0.161)">
          <path id="Trazado_1091550" data-name="Trazado 1091550" d="M459.789,176.8a2.473,2.473,0,0,1-3.19,3.189,2.473,2.473,0,1,0,3.19-3.189Z" transform="translate(-456.599 -176.799)" fill="#dddaec"/>
        </g>
      </g>
      <g id="Grupo_1210499" data-name="Grupo 1210499" transform="translate(5.845 24.416)">
        <circle id="Elipse_11552" data-name="Elipse 11552" cx="8.556" cy="8.556" r="8.556" fill="#ffe07d"/>
      </g>
      <g id="Grupo_1210500" data-name="Grupo 1210500" transform="translate(7.185 25.756)">
        <path id="Trazado_1091551" data-name="Trazado 1091551" d="M74.883,288.933a8.558,8.558,0,0,1-11.816,11.816,8.557,8.557,0,1,0,11.816-11.816Z" transform="translate(-63.067 -288.933)" fill="#ffd064"/>
      </g>
      <path id="Trazado_1091552" data-name="Trazado 1091552" d="M113.708,303.795c-.177-.063-.359-.128-.54-.2v-2.933a1.892,1.892,0,0,1,.728.357.661.661,0,0,0,.892-.977,3.3,3.3,0,0,0-1.62-.729v-.586a.661.661,0,0,0-1.323,0v.636c-.087.02-.176.042-.266.069a2.6,2.6,0,0,0-1.784,2.043,2.3,2.3,0,0,0,.753,2.263,6.1,6.1,0,0,0,1.3.745v3.742a2.533,2.533,0,0,1-1.337-.511.661.661,0,1,0-.724,1.107,3.823,3.823,0,0,0,2.061.73v.657a.661.661,0,0,0,1.323,0v-.71a3.128,3.128,0,0,0,2.431-2.56A2.748,2.748,0,0,0,113.708,303.795Zm-2.343-1.1a1,1,0,0,1-.269-.977,1.318,1.318,0,0,1,.75-.979v2.268A3.645,3.645,0,0,1,111.365,302.7Zm2.93,4.02a1.834,1.834,0,0,1-1.127,1.4v-3.114l.1.035A1.448,1.448,0,0,1,114.3,306.72Z" transform="translate(-98.163 -271.497)" fill="#ebb044"/>
      <g id="Grupo_1210501" data-name="Grupo 1210501" transform="translate(39.811 11.222)">
        <path id="Trazado_1091553" data-name="Trazado 1091553" d="M431.633,125.891l-2.571,2.767a2.473,2.473,0,1,0,2.571-2.767Z" transform="translate(-429.062 -125.891)" fill="#f9f6f9"/>
      </g>
      <g id="Grupo_1210502" data-name="Grupo 1210502" transform="translate(39.953 11.38)">
        <path id="Trazado_1091554" data-name="Trazado 1091554" d="M433.848,127.66a2.473,2.473,0,0,1-3.19,3.189,2.473,2.473,0,1,0,3.19-3.189Z" transform="translate(-430.658 -127.66)" fill="#dddaec"/>
      </g>
      <g id="Grupo_1210505" data-name="Grupo 1210505" transform="translate(25.625 21.135)">
        <g id="Grupo_1210503" data-name="Grupo 1210503">
          <circle id="Elipse_11553" data-name="Elipse 11553" cx="2.473" cy="2.473" r="2.473" fill="#f9f6f9"/>
        </g>
        <g id="Grupo_1210504" data-name="Grupo 1210504" transform="translate(0.161 0.161)">
          <path id="Trazado_1091555" data-name="Trazado 1091555" d="M274.919,238.893a2.473,2.473,0,0,1-3.19,3.189,2.473,2.473,0,1,0,3.19-3.189Z" transform="translate(-271.729 -238.893)" fill="#dddaec"/>
        </g>
      </g>
      <g id="Grupo_1210508" data-name="Grupo 1210508" transform="translate(24.42 34.029)">
        <g id="Grupo_1210506" data-name="Grupo 1210506">
          <circle id="Elipse_11554" data-name="Elipse 11554" cx="4.747" cy="4.747" r="4.747" fill="#ffe07d"/>
        </g>
        <g id="Grupo_1210507" data-name="Grupo 1210507" transform="translate(0.369 0.37)">
          <path id="Trazado_1091556" data-name="Trazado 1091556" d="M266.77,385.875a4.749,4.749,0,0,1-6.216,6.216,4.748,4.748,0,1,0,6.216-6.216Z" transform="translate(-260.554 -385.875)" fill="#ffd064"/>
        </g>
      </g>
      <g id="Grupo_1210509" data-name="Grupo 1210509" transform="translate(13.322 0)">
        <path id="Trazado_1091557" data-name="Trazado 1091557" d="M156.514,1.965a.763.763,0,0,0-.165-.076L150.584.078a1.7,1.7,0,0,0-.51-.078H138.346a1.7,1.7,0,0,0-.511.079l-5.768,1.815a.765.765,0,0,0-.16.074L138.113,3.9h12.193Z" transform="translate(-131.907 0)" fill="#e4f6ff"/>
      </g>
    </g>
  </g>
</svg>
