<svg xmlns="http://www.w3.org/2000/svg" xmlns:xlink="http://www.w3.org/1999/xlink" width="89" height="89" viewBox="0 0 89 89">
  <defs>
    <linearGradient id="linear-gradient" x1="0.218" y1="0.776" x2="0.92" y2="0.089" gradientUnits="objectBoundingBox">
      <stop offset="0" stop-color="#60aa5c"/>
      <stop offset="0.261" stop-color="#62ae5e"/>
      <stop offset="0.53" stop-color="#69ba65"/>
      <stop offset="0.801" stop-color="#75cf70"/>
      <stop offset="1" stop-color="#80e37b"/>
    </linearGradient>
    <linearGradient id="linear-gradient-2" y1="0.5" x2="1.311" y2="0.5" gradientUnits="objectBoundingBox">
      <stop offset="0" stop-color="#e37a34"/>
      <stop offset="0.158" stop-color="#ef9936"/>
      <stop offset="0.35" stop-color="#fab937"/>
      <stop offset="0.456" stop-color="#ffc538"/>
      <stop offset="0.681" stop-color="#fad53d"/>
      <stop offset="0.898" stop-color="#f7e041"/>
    </linearGradient>
    <linearGradient id="linear-gradient-3" x1="-0.135" y1="1.261" x2="0.862" y2="0.034" gradientUnits="objectBoundingBox">
      <stop offset="0" stop-color="#fff"/>
      <stop offset="1" stop-color="#fff" stop-opacity="0"/>
    </linearGradient>
    <linearGradient id="linear-gradient-4" x1="1.22" y1="0.5" x2="-0.696" y2="0.5" xlink:href="#linear-gradient-2"/>
    <linearGradient id="linear-gradient-5" y1="0.5" x2="1.645" y2="0.5" gradientUnits="objectBoundingBox">
      <stop offset="0" stop-color="#ffa538"/>
      <stop offset="0.264" stop-color="#fcb83b"/>
      <stop offset="0.732" stop-color="#f8d53f"/>
      <stop offset="1" stop-color="#f7e041"/>
    </linearGradient>
    <linearGradient id="linear-gradient-6" x1="0" y1="0.5" x2="1.578" y2="0.5" xlink:href="#linear-gradient-2"/>
    <linearGradient id="linear-gradient-7" x1="-0.267" y1="1.465" x2="0.863" y2="0.008" xlink:href="#linear-gradient-3"/>
    <linearGradient id="linear-gradient-9" x1="-0.135" y1="1.261" x2="0.862" y2="0.034" xlink:href="#linear-gradient-3"/>
    <linearGradient id="linear-gradient-13" x1="-0.267" y1="1.465" x2="0.863" y2="0.008" xlink:href="#linear-gradient-3"/>
    <linearGradient id="linear-gradient-14" x1="6.862" y1="0.5" x2="8.316" y2="0.5" gradientUnits="objectBoundingBox">
      <stop offset="0" stop-color="#dea861"/>
      <stop offset="0.284" stop-color="#f5bc44"/>
      <stop offset="0.456" stop-color="#ffc538"/>
      <stop offset="0.681" stop-color="#fad53d"/>
      <stop offset="0.898" stop-color="#f7e041"/>
    </linearGradient>
    <linearGradient id="linear-gradient-15" x1="6.278" y1="0.5" x2="7.278" y2="0.5" xlink:href="#linear-gradient-14"/>
    <linearGradient id="linear-gradient-16" x1="0.356" y1="0.5" x2="0.634" y2="0.5" gradientUnits="objectBoundingBox">
      <stop offset="0.102" stop-color="#41464e"/>
      <stop offset="0.588" stop-color="#4b515a"/>
      <stop offset="1" stop-color="#565d68"/>
    </linearGradient>
    <linearGradient id="linear-gradient-17" x1="0.437" y1="0.5" x2="0.585" y2="0.5" gradientUnits="objectBoundingBox">
      <stop offset="0" stop-color="#565d68"/>
      <stop offset="0.1" stop-color="#5c636f"/>
      <stop offset="0.614" stop-color="#78808f"/>
      <stop offset="0.898" stop-color="#838b9b"/>
    </linearGradient>
    <linearGradient id="linear-gradient-18" x1="0.079" y1="0.92" x2="0.934" y2="0.068" xlink:href="#linear-gradient-17"/>
  </defs>
  <g id="Grupo_1211655" data-name="Grupo 1211655" transform="translate(5605.81 2018.008)">
    <g id="Grupo_1210393" data-name="Grupo 1210393" transform="translate(-6857.143 -2431.008)">
      <g id="Grupo_1098742" data-name="Grupo 1098742" transform="translate(1251.333 413)">
        <g id="Trazado_875734" data-name="Trazado 875734" fill="#4e8f7d" opacity="0.859">
          <path d="M 44.49999237060547 87.49999237060547 C 38.69436645507812 87.49999237060547 33.06320571899414 86.36328887939453 27.76291656494141 84.12145233154297 C 22.64269256591797 81.95578002929688 18.04394149780273 78.8551025390625 14.09440517425537 74.90557861328125 C 10.1448802947998 70.9560546875 7.044217586517334 66.35730743408203 4.878542423248291 61.23706817626953 C 2.636704921722412 55.9367790222168 1.500004887580872 50.30561828613281 1.500004887580872 44.49999237060547 C 1.500004887580872 38.69436645507812 2.636704921722412 33.06320571899414 4.878542423248291 27.76291656494141 C 7.044217586517334 22.64269256591797 10.1448802947998 18.04394149780273 14.09440517425537 14.09440517425537 C 18.04394149780273 10.1448802947998 22.64269256591797 7.044217586517334 27.76291656494141 4.878542423248291 C 33.06320571899414 2.636704921722412 38.69436645507812 1.500004887580872 44.49999237060547 1.500004887580872 C 50.30561828613281 1.500004887580872 55.9367790222168 2.636704921722412 61.23706817626953 4.878542423248291 C 66.35730743408203 7.044217586517334 70.9560546875 10.1448802947998 74.90557861328125 14.09440517425537 C 78.8551025390625 18.04394149780273 81.95578002929688 22.64269256591797 84.12145233154297 27.76291656494141 C 86.36328887939453 33.06320571899414 87.49999237060547 38.69436645507812 87.49999237060547 44.49999237060547 C 87.49999237060547 50.30561828613281 86.36328887939453 55.9367790222168 84.12145233154297 61.23706817626953 C 81.95578002929688 66.35730743408203 78.8551025390625 70.9560546875 74.90557861328125 74.90557861328125 C 70.9560546875 78.8551025390625 66.35730743408203 81.95578002929688 61.23706817626953 84.12145233154297 C 55.9367790222168 86.36328887939453 50.30561828613281 87.49999237060547 44.49999237060547 87.49999237060547 Z" stroke="none"/>
          <path d="M 44.49999237060547 2.999992370605469 C 38.89620590209961 2.999992370605469 33.46163558959961 4.096832275390625 28.34723663330078 6.260032653808594 C 23.40580749511719 8.350090026855469 18.96732330322266 11.34280395507812 15.15506744384766 15.15506744384766 C 11.34280395507812 18.96732330322266 8.350090026855469 23.40580749511719 6.260032653808594 28.34723663330078 C 4.096832275390625 33.46163558959961 2.999992370605469 38.89620590209961 2.999992370605469 44.49999237060547 C 2.999992370605469 50.10377883911133 4.096832275390625 55.53834915161133 6.260032653808594 60.65273284912109 C 8.350090026855469 65.59417724609375 11.34280395507812 70.03266143798828 15.15506744384766 73.84492492675781 C 18.96732330322266 77.65716552734375 23.40580749511719 80.64989471435547 28.34723663330078 82.73993682861328 C 33.46163558959961 84.90313720703125 38.89620590209961 85.99997711181641 44.49999237060547 85.99997711181641 C 50.10377883911133 85.99997711181641 55.53834915161133 84.90313720703125 60.65274810791016 82.73993682861328 C 65.59417724609375 80.64989471435547 70.03266143798828 77.65716552734375 73.84492492675781 73.84492492675781 C 77.65716552734375 70.03266143798828 80.64989471435547 65.59417724609375 82.73993682861328 60.65274810791016 C 84.90313720703125 55.53834915161133 85.99997711181641 50.10377883911133 85.99997711181641 44.49999237060547 C 85.99997711181641 38.89620590209961 84.90313720703125 33.46163558959961 82.73993682861328 28.34723663330078 C 80.64989471435547 23.40580749511719 77.65716552734375 18.96732330322266 73.84492492675781 15.15506744384766 C 70.03266143798828 11.34280395507812 65.59417724609375 8.350090026855469 60.65273284912109 6.260032653808594 C 55.53834915161133 4.096832275390625 50.10377883911133 2.999992370605469 44.49999237060547 2.999992370605469 M 44.49999237060547 -7.62939453125e-06 C 69.07666015625 -7.62939453125e-06 88.99997711181641 19.92332458496094 88.99997711181641 44.49999237060547 C 88.99997711181641 69.07666015625 69.07666015625 88.99997711181641 44.49999237060547 88.99997711181641 C 19.92332458496094 88.99997711181641 -7.62939453125e-06 69.07666015625 -7.62939453125e-06 44.49999237060547 C -7.62939453125e-06 19.92332458496094 19.92332458496094 -7.62939453125e-06 44.49999237060547 -7.62939453125e-06 Z" stroke="none" fill="#fff"/>
        </g>
        <g id="Trazado_875735" data-name="Trazado 875735" transform="translate(0)" fill="none">
          <path d="M44.5,0A44.5,44.5,0,1,1,0,44.5,44.5,44.5,0,0,1,44.5,0Z" stroke="none"/>
          <path d="M 44.49999237060547 2.999992370605469 C 38.89620590209961 2.999992370605469 33.46163558959961 4.096832275390625 28.34723663330078 6.260032653808594 C 23.40580749511719 8.350090026855469 18.96732330322266 11.34280395507812 15.15506744384766 15.15506744384766 C 11.34280395507812 18.96732330322266 8.350090026855469 23.40580749511719 6.260032653808594 28.34723663330078 C 4.096832275390625 33.46163558959961 2.999992370605469 38.89620590209961 2.999992370605469 44.49999237060547 C 2.999992370605469 50.10377883911133 4.096832275390625 55.53834915161133 6.260032653808594 60.65273284912109 C 8.350090026855469 65.59417724609375 11.34280395507812 70.03266143798828 15.15506744384766 73.84492492675781 C 18.96732330322266 77.65716552734375 23.40580749511719 80.64989471435547 28.34723663330078 82.73993682861328 C 33.46163558959961 84.90313720703125 38.89620590209961 85.99997711181641 44.49999237060547 85.99997711181641 C 50.10377883911133 85.99997711181641 55.53834915161133 84.90313720703125 60.65274810791016 82.73993682861328 C 65.59417724609375 80.64989471435547 70.03266143798828 77.65716552734375 73.84492492675781 73.84492492675781 C 77.65716552734375 70.03266143798828 80.64989471435547 65.59417724609375 82.73993682861328 60.65274810791016 C 84.90313720703125 55.53834915161133 85.99997711181641 50.10377883911133 85.99997711181641 44.49999237060547 C 85.99997711181641 38.89620590209961 84.90313720703125 33.46163558959961 82.73993682861328 28.34723663330078 C 80.64989471435547 23.40580749511719 77.65716552734375 18.96732330322266 73.84492492675781 15.15506744384766 C 70.03266143798828 11.34280395507812 65.59417724609375 8.350090026855469 60.65273284912109 6.260032653808594 C 55.53834915161133 4.096832275390625 50.10377883911133 2.999992370605469 44.49999237060547 2.999992370605469 M 44.49999237060547 -7.62939453125e-06 C 69.07666015625 -7.62939453125e-06 88.99997711181641 19.92332458496094 88.99997711181641 44.49999237060547 C 88.99997711181641 69.07666015625 69.07666015625 88.99997711181641 44.49999237060547 88.99997711181641 C 19.92332458496094 88.99997711181641 -7.62939453125e-06 69.07666015625 -7.62939453125e-06 44.49999237060547 C -7.62939453125e-06 19.92332458496094 19.92332458496094 -7.62939453125e-06 44.49999237060547 -7.62939453125e-06 Z" stroke="none" fill="#dbe8e4"/>
        </g>
      </g>
    </g>
    <g id="scholarship_3459243" transform="translate(-5589.853 -2037.797)">
      <g id="Grupo_1210455" data-name="Grupo 1210455" transform="translate(19.043 64.648)">
        <path id="Trazado_1091460" data-name="Trazado 1091460" d="M179.094,267.687l21.763-12.565a1.954,1.954,0,0,1,1.953,0l10.878,6.279a.948.948,0,0,1,0,1.642l-21.763,12.565a1.954,1.954,0,0,1-1.953,0l-10.878-6.279A.948.948,0,0,1,179.094,267.687Z" transform="translate(-178.62 -254.86)" fill="url(#linear-gradient)"/>
        <path id="Trazado_1091461" data-name="Trazado 1091461" d="M248.835,288.125c-.991-.572-.872-1.569.262-2.234l-5.83-3.362a4.353,4.353,0,0,1-3.811.187l-16.117,9.305c.99.576.864,1.578-.285,2.241l0,0,5.682,3.276c.044-.029.088-.058.136-.085a4.32,4.32,0,0,1,3.887-.161c.039.023.074.047.109.071l15.989-9.231-.017-.009Z" transform="translate(-218.313 -279.58)" fill="#99e995"/>
        <g id="Grupo_1210454" data-name="Grupo 1210454" transform="translate(10.535 6.111)">
          <ellipse id="Elipse_11534" data-name="Elipse 11534" cx="4.26" cy="2.41" rx="4.26" ry="2.41" transform="translate(2.727 2.529) rotate(-6.947)" fill="#60aa5c"/>
          <path id="Trazado_1091462" data-name="Trazado 1091462" d="M280.05,376.336a2.336,2.336,0,0,0-2.1.087c-.622.359-.69.9-.151,1.214a2.336,2.336,0,0,0,2.1-.087C280.521,377.191,280.589,376.648,280.05,376.336Z" transform="translate(-277.433 -369.308)" fill="#60aa5c"/>
          <ellipse id="Elipse_11535" data-name="Elipse 11535" cx="1.497" cy="0.847" rx="1.497" ry="0.847" transform="translate(11.409 0.362) rotate(-6.947)" fill="#60aa5c"/>
        </g>
      </g>
      <g id="Grupo_1210456" data-name="Grupo 1210456" transform="translate(35.22 75.678)">
        <path id="Trazado_1091463" data-name="Trazado 1091463" d="M340.724,382.459v-1.736l-7.99.718v1.772h0a1.69,1.69,0,0,0,.974,1.375,6.266,6.266,0,0,0,5.637-.234A2.276,2.276,0,0,0,340.724,382.459Z" transform="translate(-332.48 -378.335)" fill="url(#linear-gradient-2)"/>
        <ellipse id="Elipse_11536" data-name="Elipse 11536" cx="4.016" cy="2.272" rx="4.016" ry="2.272" transform="translate(0 0.972) rotate(-6.947)" fill="#f7e041"/>
        <path id="Trazado_1091464" data-name="Trazado 1091464" d="M353.312,365.948c1.443-.959,1.538-2.313.166-3.106a6.248,6.248,0,0,0-5.378.1Z" transform="translate(-346.208 -361.858)" fill="url(#linear-gradient-3)"/>
        <path id="Trazado_1091465" data-name="Trazado 1091465" d="M347.031,367.88a4.766,4.766,0,0,0-4.288.178c-1.269.733-1.407,1.841-.308,2.476a4.766,4.766,0,0,0,4.288-.178C347.993,369.623,348.13,368.515,347.031,367.88Z" transform="translate(-340.485 -366.479)" fill="url(#linear-gradient-4)"/>
        <path id="Trazado_1091466" data-name="Trazado 1091466" d="M347.655,374.956a4.766,4.766,0,0,0-4.288.178,2.107,2.107,0,0,0-.976,1.021,1.484,1.484,0,0,0,.668.7,4.766,4.766,0,0,0,4.288-.178,2.108,2.108,0,0,0,.975-1.021A1.483,1.483,0,0,0,347.655,374.956Z" transform="translate(-341.108 -372.8)" fill="url(#linear-gradient-5)"/>
        <path id="Trazado_1091467" data-name="Trazado 1091467" d="M353.455,382.583v-.876l-4.541.4v.9h0a.751.751,0,0,0,.085.323,4.827,4.827,0,0,0,4.175-.236c.066-.038.129-.078.189-.118a.837.837,0,0,0,.091-.39Z" transform="translate(-346.935 -379.214)" fill="url(#linear-gradient-6)"/>
        <ellipse id="Elipse_11537" data-name="Elipse 11537" cx="2.282" cy="1.291" rx="2.282" ry="1.291" transform="translate(1.841 1.693) rotate(-6.947)" fill="#f7e041"/>
        <path id="Trazado_1091468" data-name="Trazado 1091468" d="M361.306,373.256c.758-.542.791-1.282.032-1.72a3.541,3.541,0,0,0-2.98.018Z" transform="translate(-355.372 -369.841)" fill="url(#linear-gradient-7)"/>
      </g>
      <g id="Grupo_1210457" data-name="Grupo 1210457" transform="translate(45.002 72.875)">
        <path id="Trazado_1091469" data-name="Trazado 1091469" d="M432.442,356.173v-1.736l-7.99.718v1.772h0a1.69,1.69,0,0,0,.974,1.375,6.265,6.265,0,0,0,5.637-.234A2.276,2.276,0,0,0,432.442,356.173Z" transform="translate(-424.202 -352.048)" fill="url(#linear-gradient-2)"/>
        <ellipse id="Elipse_11538" data-name="Elipse 11538" cx="4.016" cy="2.272" rx="4.016" ry="2.272" transform="translate(0 0.972) rotate(-6.947)" fill="#f7e041"/>
        <path id="Trazado_1091470" data-name="Trazado 1091470" d="M445.031,339.662c1.443-.959,1.538-2.313.166-3.106a6.248,6.248,0,0,0-5.378.1Z" transform="translate(-437.93 -335.571)" fill="url(#linear-gradient-9)"/>
        <path id="Trazado_1091471" data-name="Trazado 1091471" d="M438.749,341.594a4.766,4.766,0,0,0-4.288.178c-1.269.733-1.407,1.841-.308,2.476a4.766,4.766,0,0,0,4.288-.178C439.711,343.337,439.848,342.229,438.749,341.594Z" transform="translate(-432.206 -340.191)" fill="url(#linear-gradient-4)"/>
        <path id="Trazado_1091472" data-name="Trazado 1091472" d="M439.373,348.669a4.766,4.766,0,0,0-4.288.178,2.107,2.107,0,0,0-.976,1.021,1.484,1.484,0,0,0,.668.7,4.766,4.766,0,0,0,4.288-.178,2.108,2.108,0,0,0,.976-1.021A1.484,1.484,0,0,0,439.373,348.669Z" transform="translate(-432.829 -346.512)" fill="url(#linear-gradient-5)"/>
        <path id="Trazado_1091473" data-name="Trazado 1091473" d="M445.173,356.3v-.876l-4.541.4v.9h0a.751.751,0,0,0,.085.323,4.827,4.827,0,0,0,4.175-.236q.1-.057.189-.118a.837.837,0,0,0,.091-.39Z" transform="translate(-438.657 -352.927)" fill="url(#linear-gradient-6)"/>
        <ellipse id="Elipse_11539" data-name="Elipse 11539" cx="2.282" cy="1.291" rx="2.282" ry="1.291" transform="translate(1.841 1.693) rotate(-6.947)" fill="#f7e041"/>
        <path id="Trazado_1091474" data-name="Trazado 1091474" d="M453.024,346.97c.758-.542.791-1.282.032-1.72a3.541,3.541,0,0,0-2.98.018Z" transform="translate(-447.094 -343.554)" fill="url(#linear-gradient-13)"/>
      </g>
      <path id="Trazado_1091475" data-name="Trazado 1091475" d="M60.006,413.36v-5.022l4.617.406V413.7a.762.762,0,0,1,0,.153,1,1,0,0,1-.56.741,3.624,3.624,0,0,1-3.26-.135A1.316,1.316,0,0,1,60.006,413.36Z" transform="translate(-53.608 -327.327)" fill="url(#linear-gradient-14)"/>
      <circle id="Elipse_11540" data-name="Elipse 11540" cx="2.675" cy="2.675" r="2.675" transform="translate(6.033 77.856)" fill="url(#linear-gradient-15)"/>
      <path id="Trazado_1091476" data-name="Trazado 1091476" d="M103.594,175.118V164.206L72.164,166.97v10.444a5.18,5.18,0,0,0,0,1.04c.193,1.9,1.447,3.683,3.81,5.047,5.688,3.284,15.624,2.872,22.192-.92C101.86,180.448,103.7,177.7,103.594,175.118Z" transform="translate(-64.447 -109.223)" fill="url(#linear-gradient-16)"/>
      <path id="Trazado_1091477" data-name="Trazado 1091477" d="M0,158.8v4.5H0a1.454,1.454,0,0,0,.732,1.315l17.43,10.063a5.229,5.229,0,0,0,5.229,0l22.714-13.114a1.455,1.455,0,0,0,.735-1.272v-4.437Z" transform="translate(0 -101.768)" fill="url(#linear-gradient-17)"/>
      <path id="Trazado_1091478" data-name="Trazado 1091478" d="M.735,58.308l17.43,10.063a5.229,5.229,0,0,0,5.229,0L46.108,55.257a1.469,1.469,0,0,0,0-2.545L28.678,42.649a5.229,5.229,0,0,0-5.229,0L.735,55.763a1.469,1.469,0,0,0,0,2.545Z" transform="translate(0)" fill="url(#linear-gradient-18)"/>
      <g id="Grupo_1210458" data-name="Grupo 1210458" transform="translate(7.558 53.832)">
        <path id="Trazado_1091479" data-name="Trazado 1091479" d="M72.039,179.482a1.151,1.151,0,0,1-1.151-1.151V162.389a1.151,1.151,0,0,1,.575-1l13.558-7.828a1.151,1.151,0,1,1,1.151,1.993l-12.983,7.5v15.278A1.151,1.151,0,0,1,72.039,179.482Z" transform="translate(-70.888 -153.41)" fill="#f7e041"/>
      </g>
    </g>
  </g>
</svg>
