<svg xmlns="http://www.w3.org/2000/svg" width="101.928" height="101.928" viewBox="0 0 101.928 101.928">
  <g id="Grupo_1211661" data-name="Grupo 1211661" transform="translate(-860.051 -2675)">
    <g id="Grupo_1211511" data-name="Grupo 1211511">
      <g id="Grupo_1099469" data-name="Grupo 1099469" transform="translate(860.051 2675)">
        <g id="Grupo_1098742" data-name="Grupo 1098742" transform="translate(0 0)">
          <g id="Rect치ngulo_400898" data-name="Rect치ngulo 400898" fill="#fff" stroke="#fff" stroke-width="3" opacity="0.859">
            <rect width="101.928" height="101.928" rx="50.964" stroke="none"/>
            <rect x="1.5" y="1.5" width="98.928" height="98.928" rx="49.464" fill="none"/>
          </g>
          <g id="Rect치ngulo_400907" data-name="Rect치ngulo 400907" transform="translate(0)" fill="none" stroke="#fff" stroke-width="3">
            <rect width="101.928" height="101.928" rx="50.964" stroke="none"/>
            <rect x="1.5" y="1.5" width="98.928" height="98.928" rx="49.464" fill="none"/>
          </g>
        </g>
      </g>
      <g id="_x34_9" transform="translate(877.456 2692.232)">
        <g id="Grupo_1211510" data-name="Grupo 1211510" transform="translate(2.595 2.767)">
          <g id="Grupo_1211384" data-name="Grupo 1211384" transform="translate(0 22.349)">
            <g id="Grupo_1211383" data-name="Grupo 1211383">
              <g id="Grupo_1211382" data-name="Grupo 1211382">
                <g id="Grupo_1211371" data-name="Grupo 1211371">
                  <g id="Grupo_1211337" data-name="Grupo 1211337" transform="translate(0 12.567)">
                    <g id="Grupo_1211336" data-name="Grupo 1211336">
                      <g id="Grupo_1211335" data-name="Grupo 1211335">
                        <path id="Trazado_1091828" data-name="Trazado 1091828" d="M59.262,30.517l-1.346.235-4.849.863L49.8,32.2l-2.2.392-.222.026v.013l-2.261.392-1.83.327-.314.052-.889.17-.17.026-.157.026-.693.118-.222.039-2.143.379-2.548.457-1.973.353-.5.091-1.255.222-5.28.928-.8.144L17.69,37.9,9.77,39.312,8.4,39.547,2.608,40.58,2.6,44.03a1.444,1.444,0,0,0,.863,1.176l18.871,10.9a4.446,4.446,0,0,0,4.077,0L64.241,34.111a1.4,1.4,0,0,0,.836-1.176v-3.45ZM28.04,37.339l2.2,1.281a.013.013,0,0,1,.013.013.493.493,0,0,1,.144.327l-.039,2.457c-.013.157-.118.222-.248.144l-.993-.575v.353a2.616,2.616,0,0,1-.131-.274v-.157l-.1-.052c-.34-.732-.64-1.438-.9-2.13l.928.549a.529.529,0,0,1,.235.405l-.013,1.15.98.575.1-.065.039-2.457-.091-.17L28.04,37.5l-.1.052-.013,1.059c-.039-.131-.091-.261-.131-.379l.013-.758c0-.131.091-.2.209-.144A.04.04,0,0,1,28.04,37.339Z" transform="translate(-2.595 -29.484)" fill="#1d2943"/>
                      </g>
                    </g>
                  </g>
                  <g id="Grupo_1211340" data-name="Grupo 1211340" transform="translate(0.013)">
                    <g id="Grupo_1211339" data-name="Grupo 1211339">
                      <g id="Grupo_1211338" data-name="Grupo 1211338">
                        <path id="Trazado_1091829" data-name="Trazado 1091829" d="M64.225,31.246,52.384,24.4l-2.627-1.5c-3.865-2.24-4.475-2.589-4.4-2.548a4.526,4.526,0,0,0-4.077.013l-.719.418-4.274,2.483-.6.353-.693.392-1.856,1.085-.078.039-.614.366-.052.026-.562.327-.052.026-3.96,2.3-.144.091-.209.118-3.881,2.248-.327.2L21.228,32l-.614.366-4.077,2.365-1.83,1.059L3.441,42.342a1.4,1.4,0,0,0-.836,1.189,1.419,1.419,0,0,0,.849,1.163l18.871,10.9a4.446,4.446,0,0,0,4.077,0L64.238,33.612a1.418,1.418,0,0,0,.836-1.176A1.453,1.453,0,0,0,64.225,31.246ZM30.39,41.91l-.039,2.457c-.013.157-.118.222-.248.144l-.993-.575v.353a2.616,2.616,0,0,1-.131-.274v-.157l-.1-.052c-.34-.732-.64-1.438-.9-2.13l.928.549a.529.529,0,0,1,.235.405l-.013,1.15.98.575.1-.065.039-2.457-.091-.17-2.117-1.215-.1.052-.013,1.059c-.039-.131-.091-.261-.131-.379l.013-.758c0-.131.091-.2.209-.144a.04.04,0,0,1,.026.013l2.2,1.281a.013.013,0,0,1,.013.013A.493.493,0,0,1,30.39,41.91Z" transform="translate(-2.605 -19.868)" fill="#4c5c75"/>
                      </g>
                    </g>
                  </g>
                  <g id="Grupo_1211343" data-name="Grupo 1211343" transform="translate(8.999 26.922)">
                    <g id="Grupo_1211342" data-name="Grupo 1211342" transform="translate(0)">
                      <g id="Grupo_1211341" data-name="Grupo 1211341">
                        <path id="Trazado_1091830" data-name="Trazado 1091830" d="M9.7,41.828l4.207,2.422a1.164,1.164,0,0,0,1.06.015l1.078-.642c.3-.16.284-.436-.013-.611l-4.194-2.425a1.209,1.209,0,0,0-1.05,0L9.7,41.215C9.4,41.393,9.415,41.666,9.7,41.828Z" transform="translate(-9.48 -40.468)" fill="#1d2943"/>
                      </g>
                    </g>
                  </g>
                  <g id="Grupo_1211346" data-name="Grupo 1211346" transform="translate(4.195 2.439)">
                    <g id="Grupo_1211345" data-name="Grupo 1211345">
                      <g id="Grupo_1211344" data-name="Grupo 1211344">
                        <path id="Trazado_1091831" data-name="Trazado 1091831" d="M58.277,32.9l-6.521-3.777c-13.434-7.758-3.816-2.2-12.781-7.384l-.274.157-.614.353-1.777,1.032-.823.484-.353.209-1.973,1.137-.091.065-.444.248-.47.274-.327.2h-.013l-.34.209-4.639,2.679-.235.144-.118.065-3.058,1.777-.353.209-2.823,1.634-.614.366L15.45,35.391,13.62,36.45,5.8,41l1.608.928L26.741,53.074l.876-.51L59.008,34.333l.876-.51ZM29.407,41.338l-.039,2.457c-.013.157-.118.222-.248.144l-.993-.575v.353A2.617,2.617,0,0,1,28,43.442v-.157l-.1-.052c-.34-.732-.64-1.438-.9-2.13l.928.549a.529.529,0,0,1,.235.405l-.013,1.15.98.575.1-.065.039-2.457-.091-.17-2.117-1.215-.1.052-.013,1.059c-.039-.131-.091-.261-.131-.379l.013-.758c0-.131.091-.2.209-.144a.04.04,0,0,1,.026.013L29.251,41a.013.013,0,0,1,.013.013A.493.493,0,0,1,29.407,41.338Z" transform="translate(-5.805 -21.734)" fill="#fff"/>
                      </g>
                    </g>
                  </g>
                  <g id="Grupo_1211349" data-name="Grupo 1211349" transform="translate(36.47 2.443)">
                    <g id="Grupo_1211348" data-name="Grupo 1211348">
                      <g id="Grupo_1211347" data-name="Grupo 1211347">
                        <path id="Trazado_1091832" data-name="Trazado 1091832" d="M30.5,22.248,51.43,34.327l.879-.511L31.4,21.737Z" transform="translate(-30.501 -21.737)" fill="#c9cee2"/>
                      </g>
                    </g>
                  </g>
                  <g id="Grupo_1211352" data-name="Grupo 1211352" transform="translate(4.2 21.189)">
                    <g id="Grupo_1211351" data-name="Grupo 1211351">
                      <g id="Grupo_1211350" data-name="Grupo 1211350">
                        <path id="Trazado_1091833" data-name="Trazado 1091833" d="M5.809,36.592,26.737,48.671l.879-.511L6.7,36.082Z" transform="translate(-5.809 -36.082)" fill="#c9cee2"/>
                      </g>
                    </g>
                  </g>
                  <g id="Grupo_1211355" data-name="Grupo 1211355" transform="translate(46.811 5.187)">
                    <g id="Grupo_1211354" data-name="Grupo 1211354">
                      <g id="Grupo_1211353" data-name="Grupo 1211353">
                        <path id="Trazado_1091834" data-name="Trazado 1091834" d="M45.183,27.37a.2.2,0,0,1,0,.37.721.721,0,0,1-.653.008L38.543,24.29c-.174-.1-.175-.27.011-.378a.717.717,0,0,1,.64,0Z" transform="translate(-38.414 -23.837)" fill="#1d2943"/>
                      </g>
                    </g>
                  </g>
                  <g id="Grupo_1211358" data-name="Grupo 1211358" transform="translate(54.329 9.527)">
                    <g id="Grupo_1211357" data-name="Grupo 1211357">
                      <g id="Grupo_1211356" data-name="Grupo 1211356">
                        <path id="Trazado_1091835" data-name="Trazado 1091835" d="M44.8,27.223c.147.085.148.224.015.3a.589.589,0,0,1-.533,0,.163.163,0,0,1,0-.309A.586.586,0,0,1,44.8,27.223Z" transform="translate(-44.166 -27.158)" fill="#1d2943"/>
                      </g>
                    </g>
                  </g>
                  <g id="Grupo_1211359" data-name="Grupo 1211359" transform="translate(48.773 16.697)">
                    <path id="Trazado_1091836" data-name="Trazado 1091836" d="M49.115,33.1a.929.929,0,0,1-.405.719l-4,2.313a.344.344,0,0,1-.314.026L44.123,36A.34.34,0,0,1,44,35.729a.907.907,0,0,1,.418-.719l4-2.313a.316.316,0,0,1,.3-.026l.261.157A.283.283,0,0,1,49.115,33.1Z" transform="translate(-38.66 -32.644)" fill="#9ea9c9"/>
                    <path id="Trazado_1091837" data-name="Trazado 1091837" d="M44.894,35.187a.312.312,0,0,1,.131.274.909.909,0,0,1-.405.719l-4.012,2.313a.28.28,0,0,1-.3.013l-.274-.144a.3.3,0,0,1-.118-.261.942.942,0,0,1,.418-.719l4.012-2.326a.291.291,0,0,1,.288-.026Z" transform="translate(-39.915 -31.92)" fill="#9ea9c9"/>
                  </g>
                  <g id="Grupo_1211362" data-name="Grupo 1211362" transform="translate(49.053 19.944)">
                    <g id="Grupo_1211361" data-name="Grupo 1211361">
                      <g id="Grupo_1211360" data-name="Grupo 1211360">
                        <path id="Trazado_1091838" data-name="Trazado 1091838" d="M44.551,35.183c.225-.13.409-.015.41.243a.9.9,0,0,1-.407.714l-4.007,2.313c-.225.13-.417.03-.418-.238a.934.934,0,0,1,.415-.719Z" transform="translate(-40.129 -35.129)" fill="#9ea9c9"/>
                      </g>
                    </g>
                  </g>
                  <g id="Grupo_1211367" data-name="Grupo 1211367" transform="translate(48.775 16.701)">
                    <g id="Grupo_1211364" data-name="Grupo 1211364" transform="translate(5.349)">
                      <g id="Grupo_1211363" data-name="Grupo 1211363">
                        <path id="Trazado_1091839" data-name="Trazado 1091839" d="M48.993,32.83a.316.316,0,0,0-.3.026L44.7,35.166a.947.947,0,0,0-.418.718.3.3,0,0,0,.117.274L44.127,36a.339.339,0,0,1-.117-.274.906.906,0,0,1,.418-.718L48.419,32.7a.316.316,0,0,1,.3-.026Z" transform="translate(-44.01 -32.647)" fill="#c9cee2"/>
                      </g>
                    </g>
                    <g id="Grupo_1211366" data-name="Grupo 1211366" transform="translate(0 3.079)">
                      <g id="Grupo_1211365" data-name="Grupo 1211365">
                        <path id="Trazado_1091840" data-name="Trazado 1091840" d="M44.626,35.03l.274.17c-.078-.052-.17-.039-.287.026l-4.005,2.309a.941.941,0,0,0-.418.718.274.274,0,0,0,.131.261l-.287-.157a.294.294,0,0,1-.117-.261.941.941,0,0,1,.418-.718l4.005-2.322A.291.291,0,0,1,44.626,35.03Z" transform="translate(-39.916 -35.003)" fill="#c9cee2"/>
                      </g>
                    </g>
                  </g>
                  <g id="Grupo_1211370" data-name="Grupo 1211370" transform="translate(54.4 16.858)">
                    <g id="Grupo_1211369" data-name="Grupo 1211369">
                      <g id="Grupo_1211368" data-name="Grupo 1211368">
                        <path id="Trazado_1091841" data-name="Trazado 1091841" d="M48.634,32.824c.233-.135.417-.02.418.238a.9.9,0,0,1-.415.719l-4,2.308c-.233.135-.417.03-.418-.238a.918.918,0,0,1,.415-.719Z" transform="translate(-44.221 -32.768)" fill="#9ea9c9"/>
                      </g>
                    </g>
                  </g>
                </g>
                <g id="Grupo_1211381" data-name="Grupo 1211381" transform="translate(4.778 28.672)">
                  <g id="Grupo_1211377" data-name="Grupo 1211377">
                    <g id="Grupo_1211376" data-name="Grupo 1211376">
                      <g id="Grupo_1211372" data-name="Grupo 1211372" transform="translate(7.436 4.287)">
                        <path id="Trazado_1091842" data-name="Trazado 1091842" d="M12.1,45.119a.373.373,0,0,0-.157.34,1,1,0,0,0,.457.8.53.53,0,0,0,.222.065.264.264,0,0,0,.144-.039.337.337,0,0,0,.157-.327.981.981,0,0,0-.457-.8A.379.379,0,0,0,12.1,45.119Z" transform="translate(-11.941 -45.087)" fill="#b0b8cf"/>
                      </g>
                      <g id="Grupo_1211373" data-name="Grupo 1211373">
                        <path id="Trazado_1091843" data-name="Trazado 1091843" d="M6.251,42.178a1.057,1.057,0,0,0,.457.8.531.531,0,0,0,.222.065A.31.31,0,0,0,7.088,43a.4.4,0,0,0,.157-.327,1.015,1.015,0,0,0-.457-.8.4.4,0,0,0-.379-.039A.4.4,0,0,0,6.251,42.178Z" transform="translate(-6.251 -41.807)" fill="#b0b8cf"/>
                      </g>
                      <g id="Grupo_1211374" data-name="Grupo 1211374" transform="translate(9.266 5.345)">
                        <path id="Trazado_1091844" data-name="Trazado 1091844" d="M13.5,45.929a.374.374,0,0,0-.157.34,1,1,0,0,0,.457.8.53.53,0,0,0,.222.065.263.263,0,0,0,.144-.039.373.373,0,0,0,.157-.34,1.011,1.011,0,0,0-.457-.784A.377.377,0,0,0,13.5,45.929Z" transform="translate(-13.341 -45.897)" fill="#b0b8cf"/>
                      </g>
                      <g id="Grupo_1211375" data-name="Grupo 1211375" transform="translate(1.843 1.059)">
                        <path id="Trazado_1091845" data-name="Trazado 1091845" d="M7.8,42.649a.4.4,0,0,0-.144.34,1.02,1.02,0,0,0,.457.8.483.483,0,0,0,.222.065.263.263,0,0,0,.144-.039.365.365,0,0,0,.157-.327.981.981,0,0,0-.457-.8A.4.4,0,0,0,7.8,42.649Z" transform="translate(-7.661 -42.617)" fill="#b0b8cf"/>
                      </g>
                    </g>
                  </g>
                  <g id="Grupo_1211380" data-name="Grupo 1211380" transform="translate(3.617 1.67)">
                    <g id="Grupo_1211378" data-name="Grupo 1211378">
                      <path id="Trazado_1091846" data-name="Trazado 1091846" d="M9.019,43.085l1.633.942-1.4.683Z" transform="translate(-9.019 -43.085)" fill="#9ea9c9"/>
                    </g>
                    <g id="Grupo_1211379" data-name="Grupo 1211379" transform="translate(0.233 0.942)">
                      <path id="Trazado_1091847" data-name="Trazado 1091847" d="M10.6,43.806l1.329.767-.248,1.347L9.2,44.489Z" transform="translate(-9.197 -43.806)" fill="#c9cee2"/>
                    </g>
                  </g>
                </g>
              </g>
            </g>
          </g>
          <g id="Grupo_1211436" data-name="Grupo 1211436" transform="translate(22.982 5.044)">
            <g id="Grupo_1211435" data-name="Grupo 1211435">
              <g id="Grupo_1211434" data-name="Grupo 1211434">
                <g id="Grupo_1211407" data-name="Grupo 1211407">
                  <g id="Grupo_1211406" data-name="Grupo 1211406">
                    <path id="Trazado_1091848" data-name="Trazado 1091848" d="M43.888,17.164,27.218,7.477l-.679,1.736-3,.388L21.65,34.355,26.61,32.83l.679-1.736,16.669,9.687Z" transform="translate(-19.729 -6.366)" fill="#f3a250"/>
                    <g id="Grupo_1211387" data-name="Grupo 1211387" transform="translate(6.81 1.111)">
                      <g id="Grupo_1211386" data-name="Grupo 1211386">
                        <g id="Grupo_1211385" data-name="Grupo 1211385">
                          <path id="Trazado_1091849" data-name="Trazado 1091849" d="M25.391,9.213l.07,23.617.679-1.736L26.07,7.477Z" transform="translate(-25.391 -7.477)" fill="#f3a250"/>
                        </g>
                      </g>
                    </g>
                    <g id="Grupo_1211390" data-name="Grupo 1211390" transform="translate(1.921 2.848)">
                      <g id="Grupo_1211389" data-name="Grupo 1211389">
                        <g id="Grupo_1211388" data-name="Grupo 1211388">
                          <path id="Trazado_1091850" data-name="Trazado 1091850" d="M23.539,9.193,21.65,33.948l4.959-1.525-.07-23.617Z" transform="translate(-21.65 -8.806)" fill="#febc1f"/>
                        </g>
                      </g>
                    </g>
                    <g id="Grupo_1211393" data-name="Grupo 1211393" transform="translate(7.49 1.111)">
                      <g id="Grupo_1211392" data-name="Grupo 1211392">
                        <g id="Grupo_1211391" data-name="Grupo 1211391">
                          <path id="Trazado_1091851" data-name="Trazado 1091851" d="M25.911,7.477l.07,23.617L42.65,40.781l-.07-23.617Z" transform="translate(-25.911 -7.477)" fill="#febc1f"/>
                        </g>
                      </g>
                    </g>
                    <g id="Grupo_1211396" data-name="Grupo 1211396" transform="translate(21.396 11.123)">
                      <g id="Grupo_1211395" data-name="Grupo 1211395">
                        <g id="Grupo_1211394" data-name="Grupo 1211394">
                          <path id="Trazado_1091852" data-name="Trazado 1091852" d="M37.118,15.668a116.187,116.187,0,0,0,.07,23.617L42.775,37.9,41.231,15.138Z" transform="translate(-36.551 -15.138)" fill="#f45170"/>
                        </g>
                      </g>
                    </g>
                    <g id="Grupo_1211399" data-name="Grupo 1211399" transform="translate(13.496 11.653)">
                      <g id="Grupo_1211398" data-name="Grupo 1211398">
                        <g id="Grupo_1211397" data-name="Grupo 1211397">
                          <path id="Trazado_1091853" data-name="Trazado 1091853" d="M38.04,17.927c-10.345,3.52-9.11,12.679-1.889,24.754l2.892-3.521-.07-23.617Z" transform="translate(-30.507 -15.543)" fill="#df3260"/>
                        </g>
                      </g>
                    </g>
                    <g id="Grupo_1211402" data-name="Grupo 1211402" transform="translate(0 2.913)">
                      <g id="Grupo_1211401" data-name="Grupo 1211401">
                        <g id="Grupo_1211400" data-name="Grupo 1211400">
                          <path id="Trazado_1091854" data-name="Trazado 1091854" d="M22.069,8.856,20.18,33.61,39.32,44.733,41.21,19.979C34.718,15.952,28.33,12.22,22.069,8.856Z" transform="translate(-20.18 -8.856)" fill="#f45170"/>
                        </g>
                      </g>
                    </g>
                    <g id="Grupo_1211405" data-name="Grupo 1211405" transform="translate(1.889)">
                      <g id="Grupo_1211404" data-name="Grupo 1211404">
                        <g id="Grupo_1211403" data-name="Grupo 1211403">
                          <path id="Trazado_1091855" data-name="Trazado 1091855" d="M26.671,6.627,45.812,17.75l-4.113.53-.933,2.384L21.626,9.54l4.118-.532ZM40.216,19.549l.674-1.739,3-.385L27.226,7.738l-.679,1.736-3,.388Z" transform="translate(-21.626 -6.627)" fill="#ffd06c"/>
                        </g>
                      </g>
                    </g>
                  </g>
                </g>
                <path id="Trazado_1091856" data-name="Trazado 1091856" d="M34.542,30.283l-2.365-1.359c-.144-.091-.261-.026-.274.144l-.013,1.281-1.111-.627c-.144-.091-.261-.013-.261.157l-.052,2.731a.575.575,0,0,0,.261.457l2.352,1.359c.157.091.274.026.274-.157L33.379,33l1.1.627c.144.091.274.026.274-.144l.052-2.745A.6.6,0,0,0,34.542,30.283ZM33.2,34.191l-.118.065-2.352-1.372-.1-.183.052-2.731.1-.078,1.1.64-.013,1.281a.516.516,0,0,0,.261.457l1.1.64Zm1.4-.8-.118.065-1.1-.64.026-1.281a.576.576,0,0,0-.261-.457l-1.111-.64.026-1.281.118-.065,2.352,1.372.118.183Z" transform="translate(-17.024 0.203)" fill="#eaefef"/>
                <path id="Trazado_1091857" data-name="Trazado 1091857" d="M34.542,30.283l-2.365-1.359c-.144-.091-.261-.026-.274.144l-.013,1.281-1.111-.627c-.144-.091-.261-.013-.261.157l-.052,2.731a.575.575,0,0,0,.261.457l2.352,1.359c.157.091.274.026.274-.157L33.379,33l1.1.627c.144.091.274.026.274-.144l.052-2.745A.6.6,0,0,0,34.542,30.283ZM33.2,34.191l-.118.065-2.352-1.372-.1-.183.052-2.731.1-.078,1.1.64-.013,1.281a.516.516,0,0,0,.261.457l1.1.64Zm1.4-.8-.118.065-1.1-.64.026-1.281a.576.576,0,0,0-.261-.457l-1.111-.64.026-1.281.118-.065,2.352,1.372.118.183Z" transform="translate(-17.024 0.203)" fill="#eaefef"/>
                <g id="Grupo_1211420" data-name="Grupo 1211420" transform="translate(11.115 4.647)">
                  <g id="Grupo_1211413" data-name="Grupo 1211413">
                    <g id="Grupo_1211412" data-name="Grupo 1211412">
                      <g id="Grupo_1211409" data-name="Grupo 1211409" transform="translate(6.74 3.891)">
                        <g id="Grupo_1211408" data-name="Grupo 1211408">
                          <path id="Trazado_1091858" data-name="Trazado 1091858" d="M33.842,13.717a1.741,1.741,0,0,0,.8,1.377c.291.175.553.136.689-.068a.637.637,0,0,0,.107-.388,1.765,1.765,0,0,0-.8-1.367.724.724,0,0,0-.281-.107C34.056,13.126,33.842,13.339,33.842,13.717Z" transform="translate(-33.842 -13.16)" fill="#ffd06c"/>
                        </g>
                      </g>
                      <g id="Grupo_1211411" data-name="Grupo 1211411">
                        <g id="Grupo_1211410" data-name="Grupo 1211410">
                          <path id="Trazado_1091859" data-name="Trazado 1091859" d="M28.685,10.742a1.772,1.772,0,0,0,.786,1.377c.3.175.562.136.7-.068a.636.636,0,0,0,.107-.388,1.767,1.767,0,0,0-.8-1.377.7.7,0,0,0-.281-.1C28.9,10.141,28.685,10.355,28.685,10.742Z" transform="translate(-28.685 -10.183)" fill="#ffd06c"/>
                        </g>
                      </g>
                    </g>
                  </g>
                  <g id="Grupo_1211419" data-name="Grupo 1211419" transform="translate(0.417 0.007)">
                    <g id="Grupo_1211418" data-name="Grupo 1211418">
                      <g id="Grupo_1211415" data-name="Grupo 1211415" transform="translate(6.74 3.889)">
                        <g id="Grupo_1211414" data-name="Grupo 1211414">
                          <path id="Trazado_1091860" data-name="Trazado 1091860" d="M34.161,13.552a1.741,1.741,0,0,0,.8,1.377.71.71,0,0,0,.272.1.637.637,0,0,0,.107-.388,1.765,1.765,0,0,0-.8-1.367.724.724,0,0,0-.281-.107A.738.738,0,0,0,34.161,13.552Z" transform="translate(-34.161 -13.164)" fill="#fff"/>
                        </g>
                      </g>
                      <g id="Grupo_1211417" data-name="Grupo 1211417">
                        <g id="Grupo_1211416" data-name="Grupo 1211416">
                          <path id="Trazado_1091861" data-name="Trazado 1091861" d="M29,10.576a1.772,1.772,0,0,0,.786,1.377.7.7,0,0,0,.281.1.636.636,0,0,0,.107-.388,1.767,1.767,0,0,0-.8-1.377.7.7,0,0,0-.281-.1A.713.713,0,0,0,29,10.576Z" transform="translate(-29.004 -10.188)" fill="#fff"/>
                        </g>
                      </g>
                    </g>
                  </g>
                </g>
                <g id="Grupo_1211433" data-name="Grupo 1211433" transform="translate(7.023 8.165)">
                  <g id="Grupo_1211426" data-name="Grupo 1211426">
                    <g id="Grupo_1211425" data-name="Grupo 1211425">
                      <g id="Grupo_1211422" data-name="Grupo 1211422" transform="translate(6.74 3.891)">
                        <g id="Grupo_1211421" data-name="Grupo 1211421">
                          <path id="Trazado_1091862" data-name="Trazado 1091862" d="M30.711,16.409a1.741,1.741,0,0,0,.8,1.377c.291.175.553.136.689-.068a.637.637,0,0,0,.107-.388,1.765,1.765,0,0,0-.8-1.367.724.724,0,0,0-.281-.107C30.924,15.818,30.711,16.031,30.711,16.409Z" transform="translate(-30.711 -15.852)" fill="#ffd651"/>
                        </g>
                      </g>
                      <g id="Grupo_1211424" data-name="Grupo 1211424">
                        <g id="Grupo_1211423" data-name="Grupo 1211423">
                          <path id="Trazado_1091863" data-name="Trazado 1091863" d="M25.554,13.434a1.772,1.772,0,0,0,.786,1.377c.3.175.562.136.7-.068a.636.636,0,0,0,.107-.388,1.767,1.767,0,0,0-.8-1.377.7.7,0,0,0-.281-.1C25.767,12.833,25.554,13.046,25.554,13.434Z" transform="translate(-25.554 -12.875)" fill="#ffd651"/>
                        </g>
                      </g>
                    </g>
                  </g>
                  <g id="Grupo_1211432" data-name="Grupo 1211432" transform="translate(0.417 0.007)">
                    <g id="Grupo_1211431" data-name="Grupo 1211431">
                      <g id="Grupo_1211428" data-name="Grupo 1211428" transform="translate(6.74 3.889)">
                        <g id="Grupo_1211427" data-name="Grupo 1211427">
                          <path id="Trazado_1091864" data-name="Trazado 1091864" d="M31.03,16.243a1.741,1.741,0,0,0,.8,1.377.71.71,0,0,0,.272.1.637.637,0,0,0,.107-.388,1.765,1.765,0,0,0-.8-1.367.724.724,0,0,0-.281-.107A.738.738,0,0,0,31.03,16.243Z" transform="translate(-31.03 -15.856)" fill="#fff"/>
                        </g>
                      </g>
                      <g id="Grupo_1211430" data-name="Grupo 1211430">
                        <g id="Grupo_1211429" data-name="Grupo 1211429">
                          <path id="Trazado_1091865" data-name="Trazado 1091865" d="M25.873,13.268a1.772,1.772,0,0,0,.786,1.377.7.7,0,0,0,.281.1.636.636,0,0,0,.107-.388,1.767,1.767,0,0,0-.8-1.377.7.7,0,0,0-.281-.1A.713.713,0,0,0,25.873,13.268Z" transform="translate(-25.873 -12.88)" fill="#fff"/>
                        </g>
                      </g>
                    </g>
                  </g>
                </g>
              </g>
            </g>
          </g>
          <g id="Grupo_1211491" data-name="Grupo 1211491" transform="translate(11.866 16.675)">
            <g id="Grupo_1211490" data-name="Grupo 1211490">
              <g id="Grupo_1211489" data-name="Grupo 1211489">
                <g id="Grupo_1211459" data-name="Grupo 1211459">
                  <g id="Grupo_1211458" data-name="Grupo 1211458">
                    <path id="Trazado_1091866" data-name="Trazado 1091866" d="M32.977,46.121l-1.96-1.137-.2-.118-1.908-1.111-1.856-1.072a.013.013,0,0,0-.013-.013l-2.2-1.281a.04.04,0,0,0-.026-.013L24.169,41l-1.006-.588-5.11-2.967L17.438,39,12.995,40.37l.248-3.306.1-1.228,1.294-16.963v-.065l.052-.614,2.679-.353.614-1.555,5.319,3.084,1.856,1.085,4.077,2.366.693.405,2.562,1.49.431.248v.68l.013,4.483C32.938,30.261,32.978,46.253,32.977,46.121Z" transform="translate(-11.27 -15.293)" fill="#f3a250"/>
                    <g id="Grupo_1211439" data-name="Grupo 1211439" transform="translate(6.106 0.996)">
                      <g id="Grupo_1211438" data-name="Grupo 1211438">
                        <g id="Grupo_1211437" data-name="Grupo 1211437">
                          <path id="Trazado_1091867" data-name="Trazado 1091867" d="M16.347,17.844,16.41,39l.608-1.556-.063-21.159Z" transform="translate(-16.347 -16.288)" fill="#f3a250"/>
                        </g>
                      </g>
                    </g>
                    <g id="Grupo_1211442" data-name="Grupo 1211442" transform="translate(1.726 2.551)">
                      <g id="Grupo_1211441" data-name="Grupo 1211441">
                        <g id="Grupo_1211440" data-name="Grupo 1211440">
                          <path id="Trazado_1091868" data-name="Trazado 1091868" d="M14.688,17.826,13,40l4.443-1.367-.063-21.159Z" transform="translate(-12.996 -17.478)" fill="#febc1f"/>
                        </g>
                      </g>
                    </g>
                    <g id="Grupo_1211445" data-name="Grupo 1211445" transform="translate(6.717 0.991)">
                      <g id="Grupo_1211444" data-name="Grupo 1211444">
                        <g id="Grupo_1211443" data-name="Grupo 1211443">
                          <path id="Trazado_1091869" data-name="Trazado 1091869" d="M31.805,46.121l-1.96-1.137-.2-.118-1.908-1.111-1.856-1.072a.013.013,0,0,0-.013-.013l-2.2-1.281a.04.04,0,0,0-.026-.013L23,41l-1.006-.588-5.11-2.967-.013-3.163V33.1l-.026-8.978V22.662l-.013-.052v-2.5l-.013-3.829,5.319,3.084,1.856,1.085,4.077,2.366.693.405,2.562,1.49.431.248v.68l.013,4.483C31.766,30.261,31.805,46.253,31.805,46.121Z" transform="translate(-16.815 -16.284)" fill="#febc1f"/>
                        </g>
                      </g>
                    </g>
                    <g id="Grupo_1211448" data-name="Grupo 1211448" transform="translate(19.174 9.966)">
                      <g id="Grupo_1211447" data-name="Grupo 1211447">
                        <g id="Grupo_1211446" data-name="Grupo 1211446">
                          <path id="Trazado_1091870" data-name="Trazado 1091870" d="M26.854,23.626a104.1,104.1,0,0,0,.063,21.159l5.006-1.241L30.539,23.151Z" transform="translate(-26.346 -23.151)" fill="#78e75a"/>
                        </g>
                      </g>
                    </g>
                    <g id="Grupo_1211451" data-name="Grupo 1211451" transform="translate(12.103 10.44)">
                      <g id="Grupo_1211450" data-name="Grupo 1211450">
                        <g id="Grupo_1211449" data-name="Grupo 1211449">
                          <path id="Trazado_1091871" data-name="Trazado 1091871" d="M22.7,38.184l.1.052v.157A1.564,1.564,0,0,1,22.7,38.184Z" transform="translate(-20.393 -19.012)" fill="#72d561"/>
                          <path id="Trazado_1091872" data-name="Trazado 1091872" d="M22.955,37.392l-.928-.549a.463.463,0,0,1-.052-.118l.013-1.059.1-.052L24.21,36.83,24.3,37l-.039,2.457-.1.065-.98-.575.013-1.15A.529.529,0,0,0,22.955,37.392Z" transform="translate(-20.617 -19.801)" fill="#72d561"/>
                          <path id="Trazado_1091873" data-name="Trazado 1091873" d="M28.58,42.765v1.908l-2.588,3.15c-.967-1.607-1.8-3.163-2.509-4.653v-.353l.993.575c.131.078.235.013.248-.144l.039-2.457a.493.493,0,0,0-.144-.327.013.013,0,0,0-.013-.013l-2.2-1.281a.04.04,0,0,0-.026-.013c-.118-.052-.209.013-.209.144l-.013.758c-.17-.431-.3-.863-.431-1.281-.078-.248-.144-.5-.209-.732-.767-2.8-.972-5.9.562-8.39a3.591,3.591,0,0,1,.248-.366,9.711,9.711,0,0,1,4.5-3.333c.209-.091.444-.17.68-.248.052-.026.1-.039.17-.065l.3-.771.536-1.359V24.56l.013,2.2c0,.132.028,10.725.026,10.05Z" transform="translate(-20.936 -23.514)" fill="#72d561"/>
                        </g>
                      </g>
                    </g>
                    <g id="Grupo_1211454" data-name="Grupo 1211454" transform="translate(0 2.611)">
                      <g id="Grupo_1211453" data-name="Grupo 1211453">
                        <g id="Grupo_1211452" data-name="Grupo 1211452">
                          <path id="Trazado_1091874" data-name="Trazado 1091874" d="M30.35,27.378c-.1-.065-.222-.131-.327-.2s-.248-.157-.366-.222c-.209-.131-.405-.261-.614-.392-1.268-.771-2.535-1.542-3.79-2.3-.627-.366-1.242-.732-1.869-1.1-1.66-.98-3.319-1.947-4.979-2.875-.2-.118-.405-.235-.614-.353-.915-.51-1.83-1.019-2.745-1.516-.562-.3-1.111-.6-1.673-.9L11.923,36.513l-.1,1.228-.144,1.96L14.9,41.571l13.931,8.09.484-6.286.327-4.417.836-10.873.039-.6ZM27.606,42.63l-.039,2.457c-.013.157-.118.222-.248.144l-.993-.575v.353a2.616,2.616,0,0,1-.131-.274v-.157l-.1-.052c-.34-.732-.64-1.438-.9-2.13l.928.549a.529.529,0,0,1,.235.405l-.013,1.15.98.575.1-.065.039-2.457-.091-.17-2.117-1.215-.1.052-.013,1.059c-.039-.131-.091-.261-.131-.379l.013-.758c0-.131.091-.2.209-.144a.04.04,0,0,1,.026.013l2.2,1.281a.013.013,0,0,1,.013.013A.493.493,0,0,1,27.606,42.63Z" transform="translate(-11.675 -17.524)" fill="#78e75a"/>
                        </g>
                      </g>
                    </g>
                    <g id="Grupo_1211457" data-name="Grupo 1211457" transform="translate(1.697)">
                      <g id="Grupo_1211456" data-name="Grupo 1211456">
                        <g id="Grupo_1211455" data-name="Grupo 1211455">
                          <path id="Trazado_1091875" data-name="Trazado 1091875" d="M17.494,15.526l17.148,9.966-3.685.475L30.122,28.1,12.974,18.136l3.689-.477ZM29.629,27.1l.6-1.558,2.692-.345L17.991,16.522l-.608,1.556-2.688.347Z" transform="translate(-12.974 -15.526)" fill="#ffd06c"/>
                        </g>
                      </g>
                    </g>
                  </g>
                </g>
                <path id="Trazado_1091876" data-name="Trazado 1091876" d="M24.541,36.71l-2.117-1.215,2.2,1.281A.346.346,0,0,0,24.541,36.71Zm-1.2,3.5-.1.052-2.1-1.215-.091-.17.039-2.457.091-.052.993.562-.026,1.15a.49.49,0,0,0,.235.405l.889.523c-.34-.732-.64-1.438-.9-2.13l-.052-.026v-.091c-.039-.131-.091-.261-.131-.379l-.013.392-.98-.575c-.131-.065-.235-.013-.248.144L20.895,38.8a.554.554,0,0,0,.222.405l2.117,1.215c.131.078.248.026.248-.131l.013-.8a2.617,2.617,0,0,1-.131-.274Z" transform="translate(-8.845 -9.398)" fill="#eaefef"/>
                <path id="Trazado_1091877" data-name="Trazado 1091877" d="M24.476,37.122l-.039,2.457c-.013.157-.118.222-.248.144l-.993-.575V39.5a2.616,2.616,0,0,1-.131-.274v-.157l-.1-.052c-.34-.732-.64-1.438-.9-2.13l.928.549a.529.529,0,0,1,.235.405l-.013,1.15.98.575.1-.065.039-2.457-.091-.17-2.117-1.215-.1.052-.013,1.059c-.039-.131-.091-.261-.131-.379l.013-.758c0-.131.091-.2.209-.144a.04.04,0,0,1,.026.013l2.2,1.281a.013.013,0,0,1,.013.013A.493.493,0,0,1,24.476,37.122Z" transform="translate(-8.545 -9.405)" fill="#eaefef"/>
                <g id="Grupo_1211472" data-name="Grupo 1211472" transform="translate(9.963 4.164)">
                  <g id="Grupo_1211465" data-name="Grupo 1211465">
                    <g id="Grupo_1211464" data-name="Grupo 1211464">
                      <g id="Grupo_1211461" data-name="Grupo 1211461" transform="translate(6.038 3.486)">
                        <g id="Grupo_1211460" data-name="Grupo 1211460">
                          <path id="Trazado_1091878" data-name="Trazado 1091878" d="M23.919,21.879a1.56,1.56,0,0,0,.712,1.234c.261.156.5.122.617-.061a.57.57,0,0,0,.1-.348,1.581,1.581,0,0,0-.712-1.225.649.649,0,0,0-.252-.1C24.11,21.349,23.919,21.54,23.919,21.879Z" transform="translate(-23.919 -21.38)" fill="#ffd06c"/>
                        </g>
                      </g>
                      <g id="Grupo_1211463" data-name="Grupo 1211463">
                        <g id="Grupo_1211462" data-name="Grupo 1211462">
                          <path id="Trazado_1091879" data-name="Trazado 1091879" d="M19.3,19.213a1.588,1.588,0,0,0,.7,1.234c.269.156.5.122.626-.061a.57.57,0,0,0,.1-.348,1.583,1.583,0,0,0-.712-1.234.624.624,0,0,0-.252-.087C19.49,18.675,19.3,18.866,19.3,19.213Z" transform="translate(-19.298 -18.712)" fill="#ffd06c"/>
                        </g>
                      </g>
                    </g>
                  </g>
                  <g id="Grupo_1211471" data-name="Grupo 1211471" transform="translate(0.374 0.006)">
                    <g id="Grupo_1211470" data-name="Grupo 1211470">
                      <g id="Grupo_1211467" data-name="Grupo 1211467" transform="translate(6.038 3.484)">
                        <g id="Grupo_1211466" data-name="Grupo 1211466">
                          <path id="Trazado_1091880" data-name="Trazado 1091880" d="M24.2,21.73a1.56,1.56,0,0,0,.712,1.234.636.636,0,0,0,.243.087.57.57,0,0,0,.1-.348,1.581,1.581,0,0,0-.712-1.225.649.649,0,0,0-.252-.1A.661.661,0,0,0,24.2,21.73Z" transform="translate(-24.205 -21.383)" fill="#fff"/>
                        </g>
                      </g>
                      <g id="Grupo_1211469" data-name="Grupo 1211469">
                        <g id="Grupo_1211468" data-name="Grupo 1211468">
                          <path id="Trazado_1091881" data-name="Trazado 1091881" d="M19.584,19.064a1.588,1.588,0,0,0,.7,1.234.624.624,0,0,0,.252.087.57.57,0,0,0,.1-.348,1.583,1.583,0,0,0-.712-1.234.624.624,0,0,0-.252-.087A.639.639,0,0,0,19.584,19.064Z" transform="translate(-19.584 -18.717)" fill="#fff"/>
                        </g>
                      </g>
                    </g>
                  </g>
                </g>
                <g id="Grupo_1211485" data-name="Grupo 1211485" transform="translate(6.297 7.316)">
                  <g id="Grupo_1211478" data-name="Grupo 1211478">
                    <g id="Grupo_1211477" data-name="Grupo 1211477">
                      <g id="Grupo_1211474" data-name="Grupo 1211474" transform="translate(6.038 3.486)">
                        <g id="Grupo_1211473" data-name="Grupo 1211473">
                          <path id="Trazado_1091882" data-name="Trazado 1091882" d="M21.114,24.291a1.56,1.56,0,0,0,.712,1.234c.261.156.5.122.617-.061a.57.57,0,0,0,.1-.348,1.581,1.581,0,0,0-.712-1.225.649.649,0,0,0-.252-.1C21.3,23.761,21.114,23.952,21.114,24.291Z" transform="translate(-21.114 -23.791)" fill="#ffd651"/>
                        </g>
                      </g>
                      <g id="Grupo_1211476" data-name="Grupo 1211476">
                        <g id="Grupo_1211475" data-name="Grupo 1211475">
                          <path id="Trazado_1091883" data-name="Trazado 1091883" d="M16.493,21.625a1.588,1.588,0,0,0,.7,1.234c.269.156.5.122.626-.061a.57.57,0,0,0,.1-.348,1.583,1.583,0,0,0-.712-1.234.624.624,0,0,0-.252-.087C16.684,21.087,16.493,21.278,16.493,21.625Z" transform="translate(-16.493 -21.124)" fill="#ffd651"/>
                        </g>
                      </g>
                    </g>
                  </g>
                  <g id="Grupo_1211484" data-name="Grupo 1211484" transform="translate(0.374 0.006)">
                    <g id="Grupo_1211483" data-name="Grupo 1211483">
                      <g id="Grupo_1211480" data-name="Grupo 1211480" transform="translate(6.038 3.484)">
                        <g id="Grupo_1211479" data-name="Grupo 1211479">
                          <path id="Trazado_1091884" data-name="Trazado 1091884" d="M21.4,24.142a1.56,1.56,0,0,0,.712,1.234.636.636,0,0,0,.243.087.57.57,0,0,0,.1-.348,1.581,1.581,0,0,0-.712-1.225.649.649,0,0,0-.252-.1A.661.661,0,0,0,21.4,24.142Z" transform="translate(-21.4 -23.794)" fill="#fff"/>
                        </g>
                      </g>
                      <g id="Grupo_1211482" data-name="Grupo 1211482">
                        <g id="Grupo_1211481" data-name="Grupo 1211481">
                          <path id="Trazado_1091885" data-name="Trazado 1091885" d="M16.779,21.476a1.588,1.588,0,0,0,.7,1.234.624.624,0,0,0,.252.087.57.57,0,0,0,.1-.348,1.583,1.583,0,0,0-.712-1.234.624.624,0,0,0-.252-.087A.639.639,0,0,0,16.779,21.476Z" transform="translate(-16.779 -21.129)" fill="#fff"/>
                        </g>
                      </g>
                    </g>
                  </g>
                </g>
                <g id="Grupo_1211488" data-name="Grupo 1211488" transform="translate(6.907 7.873)">
                  <g id="Grupo_1211487" data-name="Grupo 1211487">
                    <g id="Grupo_1211486" data-name="Grupo 1211486">
                      <path id="Trazado_1091886" data-name="Trazado 1091886" d="M23.416,29.414l.01-4.345h-.363l-.01,4.345c-.006,1.792-1.22,2.486-2.787,1.581a6.5,6.5,0,0,1-2.944-5.1l.01-4.345H16.97L16.96,25.9a6.9,6.9,0,0,0,3.125,5.413C21.905,32.359,23.41,31.477,23.416,29.414Z" transform="translate(-16.96 -21.55)" fill="#fff"/>
                    </g>
                  </g>
                </g>
              </g>
            </g>
          </g>
          <g id="Grupo_1211509" data-name="Grupo 1211509" transform="translate(4.966)">
            <g id="Grupo_1211506" data-name="Grupo 1211506">
              <g id="Grupo_1211503" data-name="Grupo 1211503">
                <g id="Grupo_1211495" data-name="Grupo 1211495" transform="translate(0.003)">
                  <g id="Grupo_1211492" data-name="Grupo 1211492">
                    <path id="Trazado_1091887" data-name="Trazado 1091887" d="M18.129,3.223c-1.348-.774-3.114-.531-4.877.487A13.933,13.933,0,0,0,8.4,8.842c-2.678,4.627-2.664,9.635.032,11.183l1.518.882c-2.7-1.548-2.71-6.556-.032-11.183A13.933,13.933,0,0,1,14.77,4.592c1.763-1.018,3.529-1.261,4.877-.487Z" transform="translate(-6.397 -2.767)" fill="#bf7d5a"/>
                  </g>
                  <g id="Grupo_1211494" data-name="Grupo 1211494" transform="translate(1.516 0.882)">
                    <g id="Grupo_1211493" data-name="Grupo 1211493">
                      <path id="Trazado_1091888" data-name="Trazado 1091888" d="M14.414,4.385c1.763-1.018,3.529-1.261,4.877-.487,2.314,1.318,2.653,5.2.99,9.205l.877,3.024-3.071.787a12.816,12.816,0,0,1-3.633,3.3c-6.16,3.557-9.171-3.309-4.9-10.693a13.932,13.932,0,0,1,4.856-5.132Z" transform="translate(-7.558 -3.442)" fill="#dba660"/>
                    </g>
                  </g>
                </g>
                <g id="Grupo_1211498" data-name="Grupo 1211498" transform="translate(0 0.001)">
                  <g id="Grupo_1211497" data-name="Grupo 1211497">
                    <g id="Grupo_1211496" data-name="Grupo 1211496">
                      <path id="Trazado_1091889" data-name="Trazado 1091889" d="M20.64,13.31l.876,3.019-3.071.8a12.84,12.84,0,0,1-3.633,3.293c-3.739,2.133-5.594-.155-6.378-.392C5.728,18.472,5.715,13.467,8.395,8.84A13.924,13.924,0,0,1,13.256,3.7C15.02,2.7,16.785,2.45,18.131,3.221l1.516.889C21.96,5.429,22.3,9.311,20.64,13.31Z" transform="translate(-6.395 -2.768)" fill="#bf7d5a"/>
                    </g>
                  </g>
                </g>
                <g id="Grupo_1211502" data-name="Grupo 1211502" transform="translate(0.003)">
                  <g id="Grupo_1211499" data-name="Grupo 1211499">
                    <path id="Trazado_1091890" data-name="Trazado 1091890" d="M18.129,3.223c-1.348-.774-3.114-.531-4.877.487A13.933,13.933,0,0,0,8.4,8.842c-2.678,4.627-2.664,9.635.032,11.183l1.518.882c-2.7-1.548-2.71-6.556-.032-11.183A13.933,13.933,0,0,1,14.77,4.592c1.763-1.018,3.529-1.261,4.877-.487Z" transform="translate(-6.397 -2.767)" fill="#bf7d5a"/>
                  </g>
                  <g id="Grupo_1211501" data-name="Grupo 1211501" transform="translate(1.516 0.882)">
                    <g id="Grupo_1211500" data-name="Grupo 1211500">
                      <path id="Trazado_1091891" data-name="Trazado 1091891" d="M14.414,4.385c1.763-1.018,3.529-1.261,4.877-.487,2.314,1.318,2.653,5.2.99,9.205l.877,3.024-3.071.787a12.816,12.816,0,0,1-3.633,3.3c-6.16,3.557-9.171-3.309-4.9-10.693a13.932,13.932,0,0,1,4.856-5.132Z" transform="translate(-7.558 -3.442)" fill="#dba660"/>
                    </g>
                  </g>
                </g>
              </g>
              <g id="Grupo_1211505" data-name="Grupo 1211505" transform="translate(3.078 3.01)">
                <g id="Grupo_1211504" data-name="Grupo 1211504">
                  <path id="Trazado_1091892" data-name="Trazado 1091892" d="M17.891,14.171a10.759,10.759,0,0,1-3.811,4.01C6.97,22.293,6.983,9.9,14.064,5.8a3.841,3.841,0,0,1,3.811-.381C19.979,6.616,19.979,10.542,17.891,14.171Z" transform="translate(-8.75 -5.07)" fill="#fff"/>
                </g>
              </g>
            </g>
            <g id="Grupo_1211508" data-name="Grupo 1211508" transform="translate(6.709 6.527)">
              <g id="Grupo_1211507" data-name="Grupo 1211507">
                <path id="Trazado_1091893" data-name="Trazado 1091893" d="M14.181,10.568a4.537,4.537,0,0,0-.735.163l0-1.666a3.133,3.133,0,0,1,.878-.313l.111-.034a.564.564,0,0,0,.214-.228.631.631,0,0,0,.077-.284c0-.164-.072-.235-.2-.212a3.361,3.361,0,0,0-1.08.377V7.907l-.072-.145-.163.012a.438.438,0,0,0-.162.176l-.064.224v.471a3.583,3.583,0,0,0-.753.7,3.1,3.1,0,0,0-.492.831,2.29,2.29,0,0,0-.167.822.828.828,0,0,0,.2.623.726.726,0,0,0,.508.148,3.574,3.574,0,0,0,.709-.125l0,1.6a2.677,2.677,0,0,1-1.028.309l-.137.049a.52.52,0,0,0-.214.228.572.572,0,0,0-.084.288l.059.168.143.052a3.524,3.524,0,0,0,1.262-.384v.486c0,.075.02.131.066.149l.163-.019a.524.524,0,0,0,.169-.172l.064-.224v-.486a3.506,3.506,0,0,0,.747-.648,3.2,3.2,0,0,0,.532-.816,2.1,2.1,0,0,0,.18-.83.877.877,0,0,0-.21-.672A.7.7,0,0,0,14.181,10.568Zm-.121.856c.143.015.209.111.209.291a1.527,1.527,0,0,1-.817,1.257l0-1.472A1.882,1.882,0,0,1,14.06,11.423ZM12.98,9.361l0,1.5a1.265,1.265,0,0,1-.573.054c-.13-.037-.2-.149-.2-.35a1.115,1.115,0,0,1,.213-.632A2.32,2.32,0,0,1,12.98,9.361Z" transform="translate(-11.528 -7.761)" fill="#4c5c75"/>
              </g>
            </g>
          </g>
        </g>
        <path id="Trazado_1091894" data-name="Trazado 1091894" d="M24.541,36.718,22.424,35.5c-.131-.078-.235-.013-.235.131l-.026,1.15-.98-.575c-.131-.065-.235-.013-.248.144l-.039,2.457a.554.554,0,0,0,.222.405l2.117,1.215c.131.078.248.026.248-.131l.013-1.15.993.575c.131.078.235.013.248-.144l.039-2.457A.529.529,0,0,0,24.541,36.718Zm-1.2,3.5-.1.052-2.1-1.215-.091-.17.039-2.457.091-.052.993.562-.026,1.15a.49.49,0,0,0,.235.405l.993.575Zm1.255-.719-.1.065-.98-.575.013-1.15a.529.529,0,0,0-.235-.405l-.98-.575.013-1.15.1-.052,2.117,1.215.091.17Z" transform="translate(5.616 10.036)" fill="#eaefef"/>
      </g>
    </g>
  </g>
</svg>
