<svg xmlns="http://www.w3.org/2000/svg" width="71.937" height="71.937" viewBox="0 0 71.937 71.937">
  <g id="Grupo_1211663" data-name="Grupo 1211663" transform="translate(-214.73 -7638.312)">
    <g id="Grupo_1211532" data-name="Grupo 1211532" transform="translate(214.73 7638.312)">
      <g id="Grupo_1099455" data-name="Grupo 1099455">
        <g id="Grupo_1099454" data-name="Grupo 1099454">
          <g id="Grupo_1099453" data-name="Grupo 1099453">
            <g id="Grupo_1099452" data-name="Grupo 1099452">
              <g id="Grupo_1099451" data-name="Grupo 1099451">
                <g id="Grupo_1099450" data-name="Grupo 1099450">
                  <g id="Grupo_1099449" data-name="Grupo 1099449">
                    <g id="Grupo_1099448" data-name="Grupo 1099448">
                      <g id="Grupo_1099447" data-name="Grupo 1099447">
                        <g id="Grupo_1099446" data-name="Grupo 1099446">
                          <g id="Grupo_1099445" data-name="Grupo 1099445">
                            <g id="Grupo_1099444" data-name="Grupo 1099444">
                              <g id="Grupo_1099443" data-name="Grupo 1099443">
                                <g id="Grupo_1099442" data-name="Grupo 1099442">
                                  <g id="Grupo_1099441" data-name="Grupo 1099441">
                                    <circle id="Elipse_11490" data-name="Elipse 11490" cx="35.968" cy="35.968" r="35.968" fill="#ffd944"/>
                                  </g>
                                </g>
                              </g>
                            </g>
                          </g>
                        </g>
                      </g>
                    </g>
                  </g>
                </g>
              </g>
            </g>
          </g>
        </g>
      </g>
    </g>
    <g id="Website" transform="translate(227.73 7651.312)">
      <path id="Trazado_1055891" data-name="Trazado 1055891" d="M18.428,57H3v1.4a1.407,1.407,0,0,0,1.4,1.4H42.272a1.407,1.407,0,0,0,1.4-1.4V57Z" transform="translate(0 -16.131)" fill="#003f8a"/>
      <path id="Trazado_1055892" data-name="Trazado 1055892" d="M41.137,35.341l-6.437-1.5,1.149,5.018.33,1.438,1.487-1.487,4.959,4.959,1.983-1.983-2.925-2.926h0l-2.034-2.034Z" transform="translate(-9.469 -9.214)" fill="none"/>
      <path id="Trazado_1055893" data-name="Trazado 1055893" d="M40.662,15H8.4A1.407,1.407,0,0,0,7,16.4V36.038H42.064V16.4a1.407,1.407,0,0,0-1.4-1.4Z" transform="translate(-1.195 -3.585)" fill="#2488ff"/>
      <path id="Trazado_1055894" data-name="Trazado 1055894" d="M40.869,45H5.805L3,53.415H43.674Z" transform="translate(0 -12.546)" fill="#005ece"/>
      <path id="Trazado_1055895" data-name="Trazado 1055895" d="M11,11V32.038H40.454V11Z" transform="translate(-2.39 -2.39)" fill="#ffcd00"/>
      <path id="Trazado_1055896" data-name="Trazado 1055896" d="M16,32.038H41.947V11C41.947,22.629,30.342,32.038,16,32.038Z" transform="translate(-3.883 -2.39)" fill="#ddb200"/>
      <path id="Trazado_1055897" data-name="Trazado 1055897" d="M39.051,3H12.4A1.4,1.4,0,0,0,11,4.4V8.61H40.454V4.4A1.4,1.4,0,0,0,39.051,3Z" transform="translate(-2.39)" fill="#d80027"/>
      <path id="Trazado_1055898" data-name="Trazado 1055898" d="M34.117,53H25.7L25,55.805h9.818Z" transform="translate(-6.572 -14.936)" fill="#ffcd00"/>
      <path id="Trazado_1055899" data-name="Trazado 1055899" d="M37.666,38.813l4.959,4.959,1.983-1.983-4.959-4.959,1.488-1.487-6.437-1.5,1.149,5.018h0l.33,1.438Z" transform="translate(-9.469 -9.214)" fill="#ed1c24"/>
      <path id="Trazado_1055900" data-name="Trazado 1055900" d="M20.626,22.073a.7.7,0,0,0-.941.314l-.775,1.551-.771-1.551a.731.731,0,0,0-1.255,0l-.778,1.551-.771-1.551a.7.7,0,0,0-1.255.627l1.4,2.805a.731.731,0,0,0,1.255,0l.771-1.551.775,1.551a.7.7,0,0,0,1.255,0l1.4-2.805A.7.7,0,0,0,20.626,22.073Z" transform="translate(-3.287 -5.675)" fill="#006df0"/>
      <path id="Trazado_1055901" data-name="Trazado 1055901" d="M31.541,25.82l1.4-2.805a.7.7,0,0,0-1.255-.627l-.778,1.551-.771-1.551a.731.731,0,0,0-1.255,0l-.778,1.551-.771-1.551a.7.7,0,0,0-1.255.627l1.4,2.805a.731.731,0,0,0,1.255,0l.771-1.551.771,1.551a.7.7,0,0,0,1.255,0Z" transform="translate(-6.872 -5.675)" fill="#006df0"/>
      <path id="Trazado_1055902" data-name="Trazado 1055902" d="M39.474,25.82a.731.731,0,0,0,1.255,0l.778-1.551.771,1.551a.7.7,0,0,0,1.255,0l1.4-2.805a.7.7,0,0,0-1.255-.627l-.771,1.551-.771-1.551a.731.731,0,0,0-1.255,0l-.778,1.551-.771-1.551a.7.7,0,1,0-1.255.627Z" transform="translate(-10.456 -5.675)" fill="#006df0"/>
      <g id="Grupo_1209505" data-name="Grupo 1209505" transform="translate(7.208 5.104)">
        <path id="Trazado_1055903" data-name="Trazado 1055903" d="M37,48h1.4v1.4H37Z" transform="translate(-17.364 -18.546)" fill="#f1f2f2"/>
        <path id="Trazado_1055904" data-name="Trazado 1055904" d="M9,48h1.4v1.4H9Z" transform="translate(-9 -18.546)" fill="#f1f2f2"/>
        <path id="Trazado_1055905" data-name="Trazado 1055905" d="M13,48h1.4v1.4H13Z" transform="translate(-10.195 -18.546)" fill="#f1f2f2"/>
        <path id="Trazado_1055906" data-name="Trazado 1055906" d="M17,48h1.4v1.4H17Z" transform="translate(-11.39 -18.546)" fill="#f1f2f2"/>
        <path id="Trazado_1055907" data-name="Trazado 1055907" d="M21,48h1.4v1.4H21Z" transform="translate(-12.585 -18.546)" fill="#f1f2f2"/>
        <path id="Trazado_1055908" data-name="Trazado 1055908" d="M41,48h1.4v1.4H41Z" transform="translate(-18.559 -18.546)" fill="#f1f2f2"/>
        <path id="Trazado_1055909" data-name="Trazado 1055909" d="M49,48h1.4v1.4H49Z" transform="translate(-20.949 -18.546)" fill="#f1f2f2"/>
        <path id="Trazado_1055910" data-name="Trazado 1055910" d="M25,48h1.4v1.4H25Z" transform="translate(-13.779 -18.546)" fill="#f1f2f2"/>
        <path id="Trazado_1055911" data-name="Trazado 1055911" d="M29,48h1.4v1.4H29Z" transform="translate(-14.974 -18.546)" fill="#f1f2f2"/>
        <path id="Trazado_1055912" data-name="Trazado 1055912" d="M33,48h1.4v1.4H33Z" transform="translate(-16.169 -18.546)" fill="#f1f2f2"/>
        <path id="Trazado_1055913" data-name="Trazado 1055913" d="M53,48h1.4v1.4H53Z" transform="translate(-22.144 -18.546)" fill="#f1f2f2"/>
        <path id="Trazado_1055914" data-name="Trazado 1055914" d="M41,52h4.208v1.4H41Z" transform="translate(-18.559 -19.741)" fill="#f1f2f2"/>
        <path id="Trazado_1055915" data-name="Trazado 1055915" d="M49,52h1.4v1.4H49Z" transform="translate(-20.949 -19.741)" fill="#f1f2f2"/>
        <path id="Trazado_1055916" data-name="Trazado 1055916" d="M53,52h1.4v1.4H53Z" transform="translate(-22.144 -19.741)" fill="#f1f2f2"/>
        <path id="Trazado_1055917" data-name="Trazado 1055917" d="M9,52h1.4v1.4H9Z" transform="translate(-9 -19.741)" fill="#f1f2f2"/>
        <path id="Trazado_1055918" data-name="Trazado 1055918" d="M13,52h1.4v1.4H13Z" transform="translate(-10.195 -19.741)" fill="#f1f2f2"/>
        <path id="Trazado_1055919" data-name="Trazado 1055919" d="M17,52h4.208v1.4H17Z" transform="translate(-11.39 -19.741)" fill="#f1f2f2"/>
        <path id="Trazado_1055920" data-name="Trazado 1055920" d="M43.324,6H30.7a.7.7,0,0,0,0,1.4H43.324a.7.7,0,1,0,0-1.4Z" transform="translate(-15.273 -6)" fill="#f1f2f2"/>
        <path id="Trazado_1055921" data-name="Trazado 1055921" d="M15.4,6h-.7a.7.7,0,1,0,0,1.4h.7a.7.7,0,1,0,0-1.4Z" transform="translate(-10.494 -6)" fill="#f1f2f2"/>
        <path id="Trazado_1055922" data-name="Trazado 1055922" d="M19.4,6h-.7a.7.7,0,1,0,0,1.4h.7a.7.7,0,1,0,0-1.4Z" transform="translate(-11.688 -6)" fill="#f1f2f2"/>
        <path id="Trazado_1055923" data-name="Trazado 1055923" d="M23.4,6h-.7a.7.7,0,0,0,0,1.4h.7a.7.7,0,1,0,0-1.4Z" transform="translate(-12.883 -6)" fill="#f1f2f2"/>
      </g>
      <ellipse id="Elipse_11501" data-name="Elipse 11501" cx="0.5" cy="1" rx="0.5" ry="1" transform="translate(17.688 18.986)" fill="#005ece"/>
      <circle id="Elipse_11502" data-name="Elipse 11502" cx="1" cy="1" r="1" transform="translate(25.688 18.986)" fill="#005ece"/>
      <ellipse id="Elipse_11503" data-name="Elipse 11503" cx="0.5" cy="1" rx="0.5" ry="1" transform="translate(34.688 18.986)" fill="#005ece"/>
    </g>
  </g>
</svg>
