<svg xmlns="http://www.w3.org/2000/svg" width="101.928" height="101.928" viewBox="0 0 101.928 101.928">
  <g id="Grupo_1211642" data-name="Grupo 1211642" transform="translate(-860.051 -1067)">
    <g id="Grupo_1209996" data-name="Grupo 1209996">
      <g id="Grupo_1099470" data-name="Grupo 1099470" transform="translate(860.051 1067)">
        <g id="Grupo_1098742" data-name="Grupo 1098742" transform="translate(0 0)">
          <g id="Rect치ngulo_400898" data-name="Rect치ngulo 400898" fill="#fff" stroke="#fff" stroke-width="3" opacity="0.859">
            <rect width="101.928" height="101.928" rx="50.964" stroke="none"/>
            <rect x="1.5" y="1.5" width="98.928" height="98.928" rx="49.464" fill="none"/>
          </g>
          <g id="Rect치ngulo_400907" data-name="Rect치ngulo 400907" transform="translate(0)" fill="none" stroke="#fff" stroke-width="3">
            <rect width="101.928" height="101.928" rx="50.964" stroke="none"/>
            <rect x="1.5" y="1.5" width="98.928" height="98.928" rx="49.464" fill="none"/>
          </g>
        </g>
      </g>
      <g id="cloud-technology_14680113" transform="translate(870.674 1066.974)">
        <g id="Grupo_1209971" data-name="Grupo 1209971" transform="translate(2 16.053)">
          <g id="Grupo_1209935" data-name="Grupo 1209935" transform="translate(21.642 55.502)">
            <g id="Grupo_1209933" data-name="Grupo 1209933" transform="translate(0 0.82)">
              <path id="Trazado_1070238" data-name="Trazado 1070238" d="M76.514,201.682a2.666,2.666,0,0,0-2.664,1.6.379.379,0,0,1-.322.234c-2.937.195-3.862,2.938-.658,3.873a.4.4,0,0,1,.291.419c-.12,1.042.5,1.514,1.846,1.344a.393.393,0,0,1,.436.308c.3,1.42,2.563,1.463,3.7.069a.383.383,0,0,1,.4-.127c1.626.473,2.532.243,2.7-.7a.389.389,0,0,1,.425-.316c1.768.19,2.851-.189,2.528-1.732a.387.387,0,0,1,.261-.454c3.037-.927,3.644-1.863,1.209-3.751a3.941,3.941,0,0,0-5.041-.6.388.388,0,0,1-.442-.062,1.886,1.886,0,0,0-1.269-.507.393.393,0,0,1-.366-.257L77.5,195.34l-1.083-.092.478,6.013A.392.392,0,0,1,76.514,201.682Z" transform="translate(-70.858 -195.248)" fill="#c7d8ef"/>
            </g>
            <g id="Grupo_1209934" data-name="Grupo 1209934" transform="translate(0 0)">
              <path id="Trazado_1070239" data-name="Trazado 1070239" d="M76.514,199.073a2.666,2.666,0,0,0-2.664,1.6.379.379,0,0,1-.322.234c-2.937.195-3.862,2.938-.658,3.873a.4.4,0,0,1,.291.419c-.12,1.042.5,1.514,1.846,1.344a.393.393,0,0,1,.436.308c.3,1.42,2.563,1.463,3.7.069a.383.383,0,0,1,.4-.127c1.626.473,2.532.243,2.7-.7a.389.389,0,0,1,.425-.316c1.768.19,2.851-.189,2.528-1.732a.387.387,0,0,1,.261-.453c3.037-.927,3.644-1.863,1.209-3.751a3.941,3.941,0,0,0-5.041-.6.388.388,0,0,1-.442-.062,1.886,1.886,0,0,0-1.269-.507.393.393,0,0,1-.366-.257L77.5,192.732l-1.083-.092.478,6.013A.392.392,0,0,1,76.514,199.073Z" transform="translate(-70.858 -192.64)" fill="#dde9fe"/>
            </g>
          </g>
          <g id="Grupo_1209937" data-name="Grupo 1209937" transform="translate(0.001 0.001)">
            <g id="Grupo_1209936" data-name="Grupo 1209936">
              <path id="Trazado_1070240" data-name="Trazado 1070240" d="M57.982,24.313c-.041-.025-.079-.047-.119-.069l-2.043-1.188a4.763,4.763,0,0,0-2.5-.616,5.773,5.773,0,0,0-2.609-4.52c-.035-.022-.069-.041-.1-.06l-2.043-1.185c-1.669-.971-3.979-.833-6.531.638a15.771,15.771,0,0,0-3.467,2.778c-.1-.072-.211-.141-.321-.2a.509.509,0,0,0-.057-.031l-2.1-1.223c-1.952-1.135-4.655-.974-7.638.748a18.757,18.757,0,0,0-4.4,3.624c-2.159-.585-4.828-.129-7.713,1.537C9.174,28.685,3.375,38.724,3.4,46.968a11.469,11.469,0,0,0,1.484,6.044A21.507,21.507,0,0,0,2,63.13c.009,3.385,1.2,5.764,3.13,6.886L7.3,71.273c-.071-.041-.14-.087-.209-.132,1.966,1.275,4.756,1.169,7.849-.616a21.278,21.278,0,0,0,6.921-6.915c1.757,1.125,4.246,1.025,7-.566a20.618,20.618,0,0,0,7.911-9.379c1.644.8,3.834.594,6.242-.8a18.089,18.089,0,0,0,5.8-5.723,9.7,9.7,0,0,0,2.694-1.094C56.58,43.124,60.675,36.027,60.66,30.2c-.006-2.895-1.028-4.931-2.678-5.887ZM6.694,70.858q.182.144.376.27C6.941,71.044,6.815,70.956,6.694,70.858Z" transform="translate(-2.004 -16.056)" fill="#dde9fe"/>
            </g>
          </g>
          <g id="Grupo_1209946" data-name="Grupo 1209946">
            <g id="Grupo_1209944" data-name="Grupo 1209944">
              <g id="Grupo_1209943" data-name="Grupo 1209943">
                <g id="Grupo_1209938" data-name="Grupo 1209938" transform="translate(49.246 6.382)">
                  <path id="Trazado_1070241" data-name="Trazado 1070241" d="M163.254,36.977l2.162,1.256a5.512,5.512,0,0,0-4.571-.25l-2.162-1.256A5.512,5.512,0,0,1,163.254,36.977Z" transform="translate(-158.684 -36.358)" fill="#b3c9e2"/>
                </g>
                <g id="Grupo_1209939" data-name="Grupo 1209939" transform="translate(36.071)">
                  <path id="Trazado_1070242" data-name="Trazado 1070242" d="M127.263,16.673l2.162,1.256c-1.669-.97-3.981-.833-6.533.64a16.2,16.2,0,0,0-3.966,3.326l-2.162-1.256a16.2,16.2,0,0,1,3.966-3.326C123.281,15.84,125.593,15.7,127.263,16.673Z" transform="translate(-116.764 -16.053)" fill="#c7d8ef"/>
                </g>
                <g id="Grupo_1209940" data-name="Grupo 1209940" transform="translate(22.056 1.854)">
                  <path id="Trazado_1070243" data-name="Trazado 1070243" d="M84.213,22.677l2.162,1.256c-1.952-1.134-4.655-.975-7.639.748a18.767,18.767,0,0,0-4.4,3.624l-2.162-1.256a18.767,18.767,0,0,1,4.4-3.624C79.558,21.7,82.261,21.542,84.213,22.677Z" transform="translate(-72.174 -21.952)" fill="#b3c9e2"/>
                </g>
                <g id="Grupo_1209941" data-name="Grupo 1209941" transform="translate(0 36.956)">
                  <path id="Trazado_1070244" data-name="Trazado 1070244" d="M7.295,151.894l-2.162-1.256c-1.928-1.12-3.123-3.5-3.133-6.887a21.488,21.488,0,0,1,2.882-10.118l2.162,1.256a21.488,21.488,0,0,0-2.882,10.118C4.172,148.392,5.367,150.774,7.295,151.894Z" transform="translate(-2 -133.633)" fill="#b3c9e2"/>
                </g>
                <g id="Grupo_1209942" data-name="Grupo 1209942" transform="translate(1.398 6.708)">
                  <path id="Trazado_1070245" data-name="Trazado 1070245" d="M29.266,38.9c-2.159-.585-4.83-.127-7.712,1.537-7.172,4.143-12.97,14.18-12.947,22.424A11.476,11.476,0,0,0,10.093,68.9L7.931,67.645A11.457,11.457,0,0,1,6.447,61.6c-.025-8.244,5.773-18.284,12.945-22.424,2.885-1.666,5.553-2.122,7.712-1.537Z" transform="translate(-6.447 -37.397)" fill="#c7d8ef"/>
                </g>
              </g>
            </g>
            <g id="Grupo_1209945" data-name="Grupo 1209945" transform="translate(2.162 1.256)">
              <path id="Trazado_1070246" data-name="Trazado 1070246" d="M23.221,28.539C26.1,26.874,28.774,26.417,30.935,27a18.767,18.767,0,0,1,4.4-3.624c4.2-2.423,7.838-1.754,9.615,1.258a16.2,16.2,0,0,1,3.966-3.326c5.07-2.927,9.194-.579,9.211,5.249,0,.081,0,.162,0,.243,4.131-1.354,7.235,1.087,7.249,6.139.017,5.825-4.081,12.923-9.153,15.851a9.677,9.677,0,0,1-2.7,1.094,18.08,18.08,0,0,1-5.8,5.724c-2.406,1.389-4.6,1.591-6.241.795a20.62,20.62,0,0,1-7.913,9.379c-2.755,1.59-5.244,1.691-7,.566a21.258,21.258,0,0,1-6.922,6.914c-5.93,3.424-10.754.675-10.773-6.139a21.488,21.488,0,0,1,2.882-10.118,11.462,11.462,0,0,1-1.486-6.043C10.252,42.719,16.049,32.68,23.221,28.539Z" transform="translate(-8.879 -20.051)" fill="#dde9fe"/>
            </g>
          </g>
          <g id="Grupo_1209970" data-name="Grupo 1209970" transform="translate(13.359 13.903)">
            <path id="Trazado_1070247" data-name="Trazado 1070247" d="M87.007,178.2c.2,2.288-1.283,4.436-2.317,5.633a1.481,1.481,0,0,1-2.054.18c-1.227-1-3.061-2.856-3.262-5.144-.3-3.47,1.16-6.433,3.265-6.617S86.7,174.731,87.007,178.2Z" transform="translate(-68.387 -137.056)" fill="#7ca2e5"/>
            <path id="Trazado_1070248" data-name="Trazado 1070248" d="M87.841,176.463a5.8,5.8,0,0,1-1.637,3.981,1.047,1.047,0,0,1-1.452.127,5.8,5.8,0,0,1-2.305-3.635c-.215-2.453.82-4.546,2.308-4.677S87.625,174.011,87.841,176.463Z" transform="translate(-70.502 -137.062)" fill="#5789dc"/>
            <g id="Grupo_1209948" data-name="Grupo 1209948" transform="translate(18.995 18.79)">
              <g id="Grupo_1209947" data-name="Grupo 1209947">
                <path id="Trazado_1070249" data-name="Trazado 1070249" d="M107.594,127.041l-2.114-.992-.541-5.977,2.114.992Z" transform="translate(-104.939 -120.072)" fill="#5789dc"/>
              </g>
            </g>
            <g id="Grupo_1209951" data-name="Grupo 1209951" transform="translate(7.943 31.328)">
              <g id="Grupo_1209950" data-name="Grupo 1209950">
                <g id="Grupo_1209949" data-name="Grupo 1209949">
                  <path id="Trazado_1070250" data-name="Trazado 1070250" d="M81.167,168.077a10.041,10.041,0,0,1-9.074.8,3.227,3.227,0,0,1-2.128-2.483l-.182-2.128c0,.042.011.083.017.125a3.132,3.132,0,0,1,1.624-2.9A10.042,10.042,0,0,1,80.5,160.7a3.2,3.2,0,0,1,2.122,2.489L82.8,165.3A3.2,3.2,0,0,1,81.167,168.077Z" transform="translate(-69.777 -159.963)" fill="#5789dc"/>
                </g>
              </g>
            </g>
            <g id="Grupo_1209955" data-name="Grupo 1209955" transform="translate(7.942 31.329)">
              <g id="Grupo_1209954" data-name="Grupo 1209954">
                <g id="Grupo_1209952" data-name="Grupo 1209952" transform="translate(0.008 3.209)">
                  <path id="Trazado_1070251" data-name="Trazado 1070251" d="M82.636,170.175l.181,2.129a3.2,3.2,0,0,1-1.637,2.774,10.032,10.032,0,0,1-9.072.8,3.227,3.227,0,0,1-2.129-2.483l-.181-2.129a3.227,3.227,0,0,0,2.129,2.483,10.032,10.032,0,0,0,9.072-.8A3.2,3.2,0,0,0,82.636,170.175Z" transform="translate(-69.799 -170.175)" fill="#4075c1"/>
                </g>
                <g id="Grupo_1209953" data-name="Grupo 1209953">
                  <path id="Trazado_1070252" data-name="Trazado 1070252" d="M80.5,160.7c2.639,1.23,2.853,3.581.485,5.25a10.032,10.032,0,0,1-9.072.8c-2.645-1.233-2.864-3.586-.491-5.259A10.044,10.044,0,0,1,80.5,160.7Z" transform="translate(-69.774 -159.964)" fill="#5789dc"/>
                </g>
              </g>
            </g>
            <g id="Grupo_1209957" data-name="Grupo 1209957" transform="translate(19.351 19.322)">
              <g id="Grupo_1209956" data-name="Grupo 1209956">
                <path id="Trazado_1070253" data-name="Trazado 1070253" d="M114.23,123.408l-2.665,9.992a1.422,1.422,0,0,1-.506.773.626.626,0,0,1-.163.085.351.351,0,0,1-.324-.016l-.006.035-.849-.874a.578.578,0,0,1-.16-.409l-.251-4.359-1.543.625-.541-5.975-1.147-.541,6.5-.974a.447.447,0,0,1,.261.028l1.153.541a.044.044,0,0,0-.022-.006C114.249,122.45,114.369,122.88,114.23,123.408Z" transform="translate(-106.074 -121.762)" fill="#7ca2e5"/>
              </g>
            </g>
            <g id="Grupo_1209960" data-name="Grupo 1209960" transform="translate(19.35 19.322)">
              <g id="Grupo_1209958" data-name="Grupo 1209958">
                <path id="Trazado_1070254" data-name="Trazado 1070254" d="M113.981,122.341a.485.485,0,0,0-.268-.034l-6.493.978-1.151-.54,6.5-.973a.429.429,0,0,1,.261.029Z" transform="translate(-106.07 -121.763)" fill="#6a95d3"/>
              </g>
              <path id="Trazado_1070255" data-name="Trazado 1070255" d="M118.357,139.437l-.959,6.2-.846-.873a.573.573,0,0,1-.161-.408l-.351-6.024Z" transform="translate(-112.906 -133.127)" fill="#6a95d3"/>
              <g id="Grupo_1209959" data-name="Grupo 1209959" transform="translate(1.148 0.539)">
                <path id="Trazado_1070256" data-name="Trazado 1070256" d="M109.724,124.461l6.5-.976c.454-.068.687.44.512,1.1l-2.663,9.989a1.423,1.423,0,0,1-.505.774.7.7,0,0,1-.164.087c-.288.108-.5-.075-.524-.429l-.257-4.663c-.026-.489-.331-.725-.721-.568l-1.632.663Z" transform="translate(-109.724 -123.478)" fill="#7ca2e5"/>
              </g>
            </g>
            <path id="Trazado_1070257" data-name="Trazado 1070257" d="M70.277,93.912c1.9-4.735,2.554-14.056,2.073-19.537-.7-8-8.112-12.543-10.713-13.9a1.579,1.579,0,0,0-1.7.149c-2.324,1.79-8.83,7.556-8.129,15.553.481,5.481,2.751,14.546,5.442,18.878C59.2,99.8,69.288,98.469,70.277,93.912Z" transform="translate(-49.476 -60.291)" fill="#b0c4ff"/>
            <path id="Trazado_1070258" data-name="Trazado 1070258" d="M73.761,65.575a24.577,24.577,0,0,0-6.681-5.108,1.568,1.568,0,0,0-1.688.148,24.577,24.577,0,0,0-5.69,6.194C60.259,73.169,74.319,71.936,73.761,65.575Z" transform="translate(-54.925 -60.287)" fill="#7ca2e5"/>
            <path id="Trazado_1070259" data-name="Trazado 1070259" d="M78.979,109.561a5.84,5.84,0,1,1-6.324-5.3A5.841,5.841,0,0,1,78.979,109.561Z" transform="translate(-60.15 -90.422)" fill="#dde9fe"/>
            <path id="Trazado_1070260" data-name="Trazado 1070260" d="M81.441,114.274a3.764,3.764,0,1,1-4.076-3.419A3.765,3.765,0,0,1,81.441,114.274Z" transform="translate(-64.679 -94.951)" fill="#5789dc"/>
            <path id="Trazado_1070261" data-name="Trazado 1070261" d="M84.852,114.676a3.756,3.756,0,0,1-3.412,4.077,3.712,3.712,0,0,1-2.535-.7,3.759,3.759,0,0,0,3.37-6.626A3.756,3.756,0,0,1,84.852,114.676Z" transform="translate(-68.093 -95.352)" fill="#4075c1"/>
            <g id="Grupo_1209964" data-name="Grupo 1209964" transform="translate(0 27.493)">
              <g id="Grupo_1209963" data-name="Grupo 1209963">
                <g id="Grupo_1209962" data-name="Grupo 1209962">
                  <g id="Grupo_1209961" data-name="Grupo 1209961">
                    <path id="Trazado_1070262" data-name="Trazado 1070262" d="M50.964,161.739a1.429,1.429,0,0,1-.387,1.069,1.254,1.254,0,0,1-.16.138c-.223.157-.446.154-.575-.016h0l-1.058-.5a.394.394,0,0,1-.144-.117l-3.99-5.211a1.548,1.548,0,0,1,.264-1.644l5.887-7.7,1.147.541.541,5.978-1.55,1.565a1.9,1.9,0,0,0-.537,1.449Z" transform="translate(-44.505 -147.758)" fill="#7ca2e5"/>
                  </g>
                </g>
              </g>
            </g>
            <g id="Grupo_1209969" data-name="Grupo 1209969" transform="translate(0 27.494)">
              <g id="Grupo_1209968" data-name="Grupo 1209968">
                <g id="Grupo_1209967" data-name="Grupo 1209967">
                  <g id="Grupo_1209965" data-name="Grupo 1209965">
                    <path id="Trazado_1070263" data-name="Trazado 1070263" d="M45.793,157.646l4.046,5.286-1.059-.5a.393.393,0,0,1-.145-.117l-3.988-5.21a1.542,1.542,0,0,1,.264-1.645l5.886-7.7,1.145.54-5.881,7.693A1.546,1.546,0,0,0,45.793,157.646Z" transform="translate(-44.505 -147.762)" fill="#6a95d3"/>
                  </g>
                  <g id="Grupo_1209966" data-name="Grupo 1209966" transform="translate(1.146 0.539)">
                    <path id="Trazado_1070264" data-name="Trazado 1070264" d="M54.443,149.478l.541,5.977-1.55,1.567a1.91,1.91,0,0,0-.538,1.45l.568,4.445a1.43,1.43,0,0,1-.389,1.069,1.031,1.031,0,0,1-.159.139c-.222.156-.446.154-.577-.016l-4.047-5.288a1.542,1.542,0,0,1,.267-1.647Z" transform="translate(-48.15 -149.478)" fill="#7ca2e5"/>
                  </g>
                </g>
              </g>
            </g>
          </g>
        </g>
        <g id="Grupo_1209995" data-name="Grupo 1209995" transform="translate(44.617 30.677)">
          <path id="Trazado_1070265" data-name="Trazado 1070265" d="M242.672,172.793s2.268-3.244,4.083-3.106c1.583.12-1.472,4.2-2.28,5.237a.782.782,0,0,1-.552.3,2.155,2.155,0,0,1-1.668-.749Z" transform="translate(-209.359 -136.02)" fill="#dde9fe"/>
          <path id="Trazado_1070266" data-name="Trazado 1070266" d="M244.472,174.92a.786.786,0,0,1-.55.3,2.154,2.154,0,0,1-1.67-.75l.022-.086a1.683,1.683,0,0,0,1.1.3.792.792,0,0,0,.553-.3c.639-.823,2.679-3.54,2.725-4.7.035,0,.07,0,.105.005C248.335,169.805,245.281,173.879,244.472,174.92Z" transform="translate(-209.357 -136.017)" fill="#c7d8ef"/>
          <g id="Grupo_1209974" data-name="Grupo 1209974" transform="translate(1.815 8.363)">
            <path id="Trazado_1070267" data-name="Trazado 1070267" d="M169.539,139.648s7.273,4.114,9.544,5.72c3.416,2.416,5.367,4.307,10.141,6.4.829.264.387,2.394-.328,2.306,0,0-5.632-.629-7.45-1.122-2.191-.595-1.582-1.6-3.717-2.713-3.112-1.624-13.475-3.941-13.475-3.941l.141-5.559Z" transform="translate(-157.688 -123.788)" fill="#353437"/>
            <path id="Trazado_1070268" data-name="Trazado 1070268" d="M189.63,160.589c-.1.537-.386,1.023-.734.979,0,0-5.631-.629-7.449-1.122-2.191-.6-1.581-1.6-3.718-2.714-3.111-1.624-13.474-3.939-13.474-3.939l.081-3.219a2.188,2.188,0,0,1,1.055.623c.313.308.531.726.915.944.885.5,2.077-.335,2.992.116.669.329.936,1.246,1.646,1.476.5.165,1.066-.078,1.57.07.459.135.769.556,1.168.818,1.022.664,2.493.2,3.5.877.461.308.761.812,1.217,1.128.871.607,2.164.424,2.935,1.152.361.34.564.844.993,1.1a4.329,4.329,0,0,0,1.519.256,16.108,16.108,0,0,1,2.323,1.012C187.277,160.514,188.529,160.222,189.63,160.589Z" transform="translate(-157.69 -131.281)" fill="#29282b"/>
            <path id="Trazado_1070269" data-name="Trazado 1070269" d="M234.5,183.081a.874.874,0,0,1,.5,1.2l-1.636,3.777a1.235,1.235,0,0,1-1.121.7,7.646,7.646,0,0,1-2.486-.6l.777-2.068.76-.122a1.066,1.066,0,0,0,.7-.437l1.542-2.179A.874.874,0,0,1,234.5,183.081Z" transform="translate(-202.603 -153.536)" fill="#dde9fe"/>
            <path id="Trazado_1070270" data-name="Trazado 1070270" d="M235,184.436l-1.635,3.777a1.24,1.24,0,0,1-1.122.7,7.686,7.686,0,0,1-2.488-.6l.076-.2a6.284,6.284,0,0,0,1.983.424,1.233,1.233,0,0,0,1.122-.7l1.638-3.775a.865.865,0,0,0-.027-.8A.872.872,0,0,1,235,184.436Z" transform="translate(-202.6 -153.689)" fill="#c7d8ef"/>
            <path id="Trazado_1070271" data-name="Trazado 1070271" d="M145.169,148.9c-.331,2.765.672,5.155,3.489,7.035a37.571,37.571,0,0,0,11.587,4.95,3.962,3.962,0,0,1,1.27.536c3.99,2.564,5.54,3.085,10.076,3.336.756.092,1.451-1.939.721-2.2a62.648,62.648,0,0,1-7.887-4.7c-3.117-2.512-12.217-7.6-12.212-7.19Z" transform="translate(-144.561 -130.131)" fill="#353437"/>
            <path id="Trazado_1070272" data-name="Trazado 1070272" d="M172.375,164.109c-.2.389-.486.683-.785.648-4.535-.251-6.087-.772-10.077-3.335a3.96,3.96,0,0,0-1.268-.537,37.594,37.594,0,0,1-11.588-4.951c-2.817-1.881-3.82-4.271-3.489-7.034l1.878.469a.78.78,0,0,1,.032.084,8.213,8.213,0,0,1,.192,1.414,1.525,1.525,0,0,0,.688,1.193c.227.116.518.151.664.359.216.313-.054.739-.013,1.12.051.469.558.747,1.022.834a4.184,4.184,0,0,1,1.376.3c.569.326.8,1.05,1.344,1.422.777.534,1.9.173,2.725.618.626.337.971,1.079,1.624,1.357a10.637,10.637,0,0,0,1.87.205c1.171.262,1.967,1.622,3.167,1.586a8.415,8.415,0,0,1,.969-.1c.888.076,1.338,1.133,2.142,1.514.78.37,1.737.043,2.539.359.461.183.823.564,1.287.745.343.135.723.151,1.079.256a4.5,4.5,0,0,1,1.071.529C171.342,163.48,171.857,163.8,172.375,164.109Z" transform="translate(-144.56 -130.133)" fill="#29282b"/>
            <g id="Grupo_1209973" data-name="Grupo 1209973" transform="translate(8.934)">
              <path id="Trazado_1070273" data-name="Trazado 1070273" d="M202.364,110.788s1.264-1.789,2.489-1.583c.6.1-.571,1.076-.571,1.076s3.4-1.485,3.262.027-4.646,2.728-4.646,2.728l-1.591-1.007Z" transform="translate(-192.03 -102.902)" fill="#f7b2b2"/>
              <g id="Grupo_1209972" data-name="Grupo 1209972">
                <path id="Trazado_1070274" data-name="Trazado 1070274" d="M171.79,89.2l.028,1.415.133,6.451s1.687,5.343,3.234,5.835c1.859.592,8.173-3.707,8.321-3.83-.1.055-.6-.322-.778-.526-.365-.423-.8-1.343-.6-1.468l-5.242,2.047a.711.711,0,0,1-.954-.559l-.917-5.809C174.684,90.414,173.714,89.066,171.79,89.2Z" transform="translate(-171.79 -89.189)" fill="#46c17e"/>
              </g>
              <path id="Trazado_1070275" data-name="Trazado 1070275" d="M171.877,93.718l.133,6.451s1.687,5.343,3.234,5.835c1.859.592,8.173-3.707,8.321-3.83-.1.055-.6-.322-.778-.526a27.946,27.946,0,0,0-3.652,1.675,2.983,2.983,0,0,1-.971.4,3.427,3.427,0,0,0-.578.087,3.6,3.6,0,0,0-.846.619c-.288.206-.762.268-.938-.037-.138-.233-.012-.531-.039-.8-.07-.639-.915-.861-1.247-1.412a3.622,3.622,0,0,1-.226-1.442c-.169-1.292-1.413-2.225-1.683-3.5a8.162,8.162,0,0,1-.1-1.168A8.686,8.686,0,0,0,171.877,93.718Z" transform="translate(-171.85 -92.294)" fill="#3caf6d"/>
            </g>
            <path id="Trazado_1070276" data-name="Trazado 1070276" d="M152.507,89.191a14.194,14.194,0,0,0-9.141,3.625l.572,14.864a1.1,1.1,0,0,0,.036.275c1.1,3.96,11.068,2,11.456-1.868a1.772,1.772,0,0,0-.206-1.026c-.863-1.571-.975-3.752-.755-6.2.662-3.725.712-7.053-1.032-9.22A1.23,1.23,0,0,0,152.507,89.191Z" transform="translate(-143.366 -89.189)" fill="#54d391"/>
          </g>
          <g id="Grupo_1209977" data-name="Grupo 1209977" transform="translate(4.748 6.284)">
            <path id="Trazado_1070277" data-name="Trazado 1070277" d="M164.271,96.662l.965.779-.326.692a.31.31,0,0,1-.4.152l-.823-.36Z" transform="translate(-160.231 -92.235)" fill="#fc6c85"/>
            <path id="Trazado_1070278" data-name="Trazado 1070278" d="M166.6,99.967a21.711,21.711,0,0,1,2.011,7.636c.161,3.066-1,2.818-1.576,2.512a.568.568,0,0,1-.3-.533,38.6,38.6,0,0,0-.622-9.434l.255-.593Z" transform="translate(-161.901 -94.219)" fill="#fc6c85"/>
            <g id="Grupo_1209975" data-name="Grupo 1209975" transform="translate(0.646)">
              <path id="Trazado_1070279" data-name="Trazado 1070279" d="M155.084,83.752l-.329,2.021.382,1.728,4.065-.638c.527-1.256.431-1.262-.131-2.223l-3.216-2.064Z" transform="translate(-154.755 -82.576)" fill="#f7b2b2"/>
            </g>
            <g id="Grupo_1209976" data-name="Grupo 1209976" transform="translate(0 2.064)">
              <path id="Trazado_1070280" data-name="Trazado 1070280" d="M166.477,89.143c.451,1.23.048,2.167-.923,2.363l.787.689a.4.4,0,0,0,.63-.148A4.973,4.973,0,0,0,167.5,90a.319.319,0,0,0-.139-.256Z" transform="translate(-161.514 -89.143)" fill="#f1f3f2"/>
              <path id="Trazado_1070281" data-name="Trazado 1070281" d="M152.761,93.6c.4.939,1.67,1.424,3.355,1.593a.3.3,0,0,0,.317-.215l.307-1.049c-1.8.2-2.99-.173-3.391-1.25l-.46.2a.192.192,0,0,0-.058.045A.652.652,0,0,0,152.761,93.6Z" transform="translate(-152.699 -91.57)" fill="#f1f3f2"/>
            </g>
          </g>
          <g id="Grupo_1209978" data-name="Grupo 1209978" transform="translate(3.533)">
            <path id="Trazado_1070282" data-name="Trazado 1070282" d="M152.455,77.719a5.238,5.238,0,0,0,4.431,2.13,1.43,1.43,0,0,0,1.221-.951,12.611,12.611,0,0,0,.437-5.648l-5.461.413-1.5,1,.124,1.641.162.435Z" transform="translate(-150.721 -69.897)" fill="#f7b2b2"/>
            <path id="Trazado_1070283" data-name="Trazado 1070283" d="M158.355,78.9a1.433,1.433,0,0,1-1.222.951,5.246,5.246,0,0,1-4.429-2.129l-.582-.982-.163-.434-.01-.129.413.7A5.243,5.243,0,0,0,156.8,79a1.429,1.429,0,0,0,1.219-.951,11.713,11.713,0,0,0,.517-4.78l.261-.02A12.632,12.632,0,0,1,158.355,78.9Z" transform="translate(-150.97 -69.899)" fill="#eaa7a7"/>
            <path id="Trazado_1070284" data-name="Trazado 1070284" d="M156.621,65.273a3.919,3.919,0,0,0-3.746-2.692,4.109,4.109,0,0,0-3.044,1.268c-1.656,1.763-1.141,4.118.735,6.554a3.071,3.071,0,0,1-.6-1.978.248.248,0,0,1,.29-.212c.326.075.616.372.874.869a.217.217,0,0,0,.232.116.213.213,0,0,0,.165-.27c-.3-.969-.141-1.666.623-2a1.924,1.924,0,0,1,1.178-.021,2.9,2.9,0,0,0,.847.076,3.514,3.514,0,0,0,2.274-.695A.944.944,0,0,0,156.621,65.273Z" transform="translate(-148.833 -62.581)" fill="#353437"/>
          </g>
          <g id="Grupo_1209990" data-name="Grupo 1209990" transform="translate(6.769 18.266)">
            <g id="Grupo_1209984" data-name="Grupo 1209984" transform="translate(0 4.064)">
              <g id="Grupo_1209983" data-name="Grupo 1209983">
                <g id="Grupo_1209981" data-name="Grupo 1209981" transform="translate(0.001 3.816)">
                  <g id="Grupo_1209980" data-name="Grupo 1209980">
                    <g id="Grupo_1209979" data-name="Grupo 1209979">
                      <path id="Trazado_1070285" data-name="Trazado 1070285" d="M159.132,148.629l.047.624a.653.653,0,0,0,.42.506l6.451,3.148a2.048,2.048,0,0,0,1.853-.135l8.569-5.813a.657.657,0,0,0,.348-.569l-.047-.622a.658.658,0,0,1-.347.568l-8.585,4.246c-.491.333-1.521-.311-2.053-.57l-5.045-1.64C160.749,147.8,159.379,148.448,159.132,148.629Z" transform="translate(-159.132 -145.768)" fill="#9db6ce"/>
                    </g>
                  </g>
                </g>
                <g id="Grupo_1209982" data-name="Grupo 1209982">
                  <path id="Trazado_1070286" data-name="Trazado 1070286" d="M159.476,139.736a.569.569,0,0,0,.072,1.074L166,143.958a2.047,2.047,0,0,0,1.853-.134l8.568-5.813a.569.569,0,0,0-.071-1.074l-6.451-3.148a2.048,2.048,0,0,0-1.854.135Z" transform="translate(-159.127 -133.628)" fill="#dde9fe"/>
                </g>
              </g>
            </g>
            <g id="Grupo_1209988" data-name="Grupo 1209988" transform="translate(7.332)">
              <g id="Grupo_1209986" data-name="Grupo 1209986">
                <g id="Grupo_1209985" data-name="Grupo 1209985">
                  <path id="Trazado_1070287" data-name="Trazado 1070287" d="M182.562,134.744l.555.426c-.094-.072-.131-.221-.09-.437l1.148-6.1a2.776,2.776,0,0,1,1.062-1.514l8.568-5.812c.28-.19.506-.228.63-.133l-.555-.426c-.125-.1-.35-.058-.63.132l-8.568,5.812a2.772,2.772,0,0,0-1.062,1.514l-1.148,6.1C182.432,134.522,182.468,134.671,182.562,134.744Z" transform="translate(-182.456 -120.697)" fill="#b0c4ff"/>
                </g>
              </g>
              <g id="Grupo_1209987" data-name="Grupo 1209987" transform="translate(0.555 0.426)">
                <path id="Trazado_1070288" data-name="Trazado 1070288" d="M186.449,128.049a2.775,2.775,0,0,0-1.062,1.514l-1.148,6.1c-.095.5.228.64.719.306l8.569-5.813a2.777,2.777,0,0,0,1.062-1.515l1.148-6.1c.095-.5-.228-.639-.72-.305Z" transform="translate(-184.222 -122.054)" fill="#285294"/>
              </g>
            </g>
            <g id="Grupo_1209989" data-name="Grupo 1209989" transform="translate(13.168 6.487)">
              <path id="Trazado_1070289" data-name="Trazado 1070289" d="M201.835,143.246c-.409.278-.771.105-.808-.385a1.7,1.7,0,0,1,.674-1.392c.409-.278.771-.1.808.386A1.7,1.7,0,0,1,201.835,143.246Z" transform="translate(-201.024 -141.336)" fill="#b0c4ff"/>
            </g>
          </g>
          <g id="Grupo_1209994" data-name="Grupo 1209994" transform="translate(0 11.899)">
            <g id="Grupo_1209993" data-name="Grupo 1209993">
              <g id="Grupo_1209991" data-name="Grupo 1209991" transform="translate(8.777 12.113)">
                <path id="Trazado_1070290" data-name="Trazado 1070290" d="M166.792,139.088s3.07-.4,2.484.328c-.267.332-.928.258-.928.258s1.961.926,1.76,1.889c-.245,1.176-4.315-.242-4.315-.242a2.033,2.033,0,0,1,.2-2.311Z" transform="translate(-165.516 -138.978)" fill="#f7b2b2"/>
              </g>
              <g id="Grupo_1209992" data-name="Grupo 1209992">
                <path id="Trazado_1070291" data-name="Trazado 1070291" d="M147.644,112.663l-6.205-1.23a.731.731,0,0,1-.605-.812l.825-6.506a5.7,5.7,0,0,0,0-1.521c-.159-1.107-.592-1.839-1.369-2.088a1.325,1.325,0,0,0-.816,0,1.17,1.17,0,0,0-.541.337,4.81,4.81,0,0,0-.922,2.839s-.916,8.342-.052,10.1c.884,1.793,8.682,1.118,8.682,1.118a1.5,1.5,0,0,1,.165-1.084Z" transform="translate(-137.592 -100.439)" fill="#46c17e"/>
                <path id="Trazado_1070292" data-name="Trazado 1070292" d="M137.963,113.913c.884,1.793,8.682,1.118,8.682,1.118a1.5,1.5,0,0,1,.165-1.084c-.46-.055-1.651-.308-2.111-.321a15.389,15.389,0,0,1-4.467-.456,1.529,1.529,0,0,1-.7-.411c-.372-.443-.21-1.1-.185-1.677.061-1.392-.793-2.758-.5-4.124a9.531,9.531,0,0,1,.757-1.771,5.672,5.672,0,0,0-.126-4.548,1.17,1.17,0,0,0-.541.337,4.81,4.81,0,0,0-.922,2.839S137.1,112.156,137.963,113.913Z" transform="translate(-137.592 -100.576)" fill="#3caf6d"/>
              </g>
            </g>
          </g>
        </g>
      </g>
    </g>
  </g>
</svg>
