<svg xmlns="http://www.w3.org/2000/svg" width="89" height="89" viewBox="0 0 89 89">
  <g id="Grupo_1209999" data-name="Grupo 1209999" transform="translate(-756.051 -1909)">
    <g id="Grupo_1099471" data-name="Grupo 1099471" transform="translate(-495.282 1496)">
      <g id="Grupo_1098742" data-name="Grupo 1098742" transform="translate(1251.333 413)">
        <g id="Rect치ngulo_400898" data-name="Rect치ngulo 400898" fill="#fff" stroke="#fff" stroke-width="3" opacity="0.859">
          <rect width="89" height="89" rx="44.5" stroke="none"/>
          <rect x="1.5" y="1.5" width="86" height="86" rx="43" fill="none"/>
        </g>
        <g id="Rect치ngulo_400907" data-name="Rect치ngulo 400907" transform="translate(0)" fill="none" stroke="#fff" stroke-width="3">
          <rect width="89" height="89" rx="44.5" stroke="none"/>
          <rect x="1.5" y="1.5" width="86" height="86" rx="43" fill="none"/>
        </g>
      </g>
    </g>
    <g id="_x33_7" transform="translate(766.962 1920.801)">
      <g id="Grupo_1209727" data-name="Grupo 1209727" transform="translate(2 20.793)">
        <g id="Grupo_1209726" data-name="Grupo 1209726">
          <g id="Grupo_1209725" data-name="Grupo 1209725">
            <g id="Grupo_1209718" data-name="Grupo 1209718" transform="translate(0)">
              <g id="Grupo_1209717" data-name="Grupo 1209717">
                <path id="Trazado_1070113" data-name="Trazado 1070113" d="M66.177,35.631v2.674c0,4.68-3.209,9.493-9.359,13.1-12.568,7.22-32.757,7.22-45.325-.134C5.075,47.664,2,42.851,2,38.038V35.364c0-4.813,3.075-9.493,9.359-13.1,12.434-7.22,32.757-7.22,45.325.134,6.418,3.744,9.493,8.557,9.493,13.237Z" transform="translate(-2 -16.862)" fill="#dedffb"/>
              </g>
            </g>
            <g id="Grupo_1209720" data-name="Grupo 1209720" transform="translate(0 18.501)">
              <g id="Grupo_1209719" data-name="Grupo 1209719">
                <path id="Trazado_1070114" data-name="Trazado 1070114" d="M66.177,30.967v2.674c0,4.68-3.209,9.493-9.359,12.969-12.568,7.22-32.757,7.22-45.325-.134C5.075,43,2,38.187,2,33.374V30.7c0,4.813,3.075,9.627,9.493,13.237,12.568,7.354,32.891,7.354,45.325.134,6.15-3.61,9.359-8.29,9.359-13.1Z" transform="translate(-2 -30.7)" fill="#dedffb"/>
              </g>
            </g>
            <g id="Grupo_1209721" data-name="Grupo 1209721" transform="translate(0 0.05)">
              <path id="Trazado_1070115" data-name="Trazado 1070115" d="M56.684,22.382c12.568,7.354,12.568,19.119.134,26.339s-32.757,7.086-45.325-.134c-12.568-7.354-12.7-19.119-.134-26.339s32.757-7.086,45.325.134Z" transform="translate(-2 -16.9)" fill="#f3f1fc"/>
            </g>
            <g id="Grupo_1209724" data-name="Grupo 1209724" transform="translate(7.621 6.067)">
              <g id="Grupo_1209722" data-name="Grupo 1209722">
                <path id="Trazado_1070116" data-name="Trazado 1070116" d="M56.5,34.1a2.944,2.944,0,0,1-.134,1.07c-.535,2.674-2.674,5.081-6.284,7.22-4.68,2.674-11.1,4.145-17.782,4.145a38.45,38.45,0,0,1-18.184-4.278c-3.61-2.139-5.883-4.68-6.284-7.354,0-.4-.134-.669-.134-1.07,0-2.941,2.273-5.883,6.418-8.29,4.68-2.674,11.1-4.145,17.916-4.145a38.45,38.45,0,0,1,18.184,4.278C54.228,28.085,56.5,31.16,56.5,34.1Z" transform="translate(-7.7 -21.4)" fill="#e9e7fc"/>
              </g>
              <g id="Grupo_1209723" data-name="Grupo 1209723" transform="translate(0.267 2.139)">
                <path id="Trazado_1070117" data-name="Trazado 1070117" d="M56.434,34.632c-.535,2.674-2.674,5.081-6.284,7.22C45.47,44.526,39.053,46,32.368,46a38.45,38.45,0,0,1-18.184-4.278c-3.61-2.139-5.883-4.68-6.284-7.354.535-2.54,2.674-5.081,6.284-7.22C18.864,24.471,25.281,23,32.1,23a38.45,38.45,0,0,1,18.184,4.278c3.343,2.139,5.616,4.68,6.15,7.354Z" transform="translate(-7.9 -23)" fill="#dedffb"/>
              </g>
            </g>
          </g>
        </g>
      </g>
      <g id="Grupo_1209932" data-name="Grupo 1209932" transform="translate(8.819 5.2)">
        <g id="Grupo_1209907" data-name="Grupo 1209907">
          <g id="Grupo_1209735" data-name="Grupo 1209735" transform="translate(2.273 16.681)">
            <g id="Grupo_1209734" data-name="Grupo 1209734">
              <g id="Grupo_1209730" data-name="Grupo 1209730">
                <g id="Grupo_1209729" data-name="Grupo 1209729">
                  <g id="Grupo_1209728" data-name="Grupo 1209728">
                    <path id="Trazado_1070118" data-name="Trazado 1070118" d="M54.259,30.945v2.407c0,3.343-2.139,6.685-6.551,9.225-8.824,5.081-23.264,5.081-32.222,0C11.073,40.036,8.8,36.56,8.8,33.218V30.811c0-11.766,24.6-17.515,38.774-9.225,4.412,2.54,6.685,6.017,6.685,9.359Z" transform="translate(-8.8 -17.676)" fill="#f9a83d"/>
                    <path id="Trazado_1070119" data-name="Trazado 1070119" d="M9,28.9a10.48,10.48,0,0,0,.669,1.872A4.492,4.492,0,0,1,9,28.9Z" transform="translate(-8.733 -13.894)" fill="#f9a83d"/>
                  </g>
                </g>
              </g>
              <g id="Grupo_1209733" data-name="Grupo 1209733" transform="translate(0.267 15.006)">
                <g id="Grupo_1209732" data-name="Grupo 1209732">
                  <g id="Grupo_1209731" data-name="Grupo 1209731">
                    <path id="Trazado_1070120" data-name="Trazado 1070120" d="M9,28.9a10.48,10.48,0,0,0,.669,1.872A4.492,4.492,0,0,1,9,28.9Z" transform="translate(-9 -28.9)" fill="#f9a83d"/>
                  </g>
                </g>
              </g>
            </g>
          </g>
          <g id="Grupo_1209743" data-name="Grupo 1209743" transform="translate(2.223 16.679)">
            <g id="Grupo_1209742" data-name="Grupo 1209742">
              <g id="Grupo_1209738" data-name="Grupo 1209738" transform="translate(0.05 13.136)">
                <g id="Grupo_1209737" data-name="Grupo 1209737">
                  <g id="Grupo_1209736" data-name="Grupo 1209736">
                    <path id="Trazado_1070121" data-name="Trazado 1070121" d="M54.259,27.634V30.04c0,3.343-2.273,6.685-6.551,9.225-8.824,5.214-23.264,5.214-32.222,0C10.939,36.725,8.8,33.249,8.8,29.907V27.5c0,3.343,2.273,6.819,6.685,9.359,14.039,8.156,38.774,2.54,38.774-9.225Z" transform="translate(-8.8 -27.5)" fill="#f9a83d"/>
                  </g>
                </g>
              </g>
              <g id="Grupo_1209741" data-name="Grupo 1209741">
                <g id="Grupo_1209740" data-name="Grupo 1209740">
                  <g id="Grupo_1209739" data-name="Grupo 1209739">
                    <path id="Trazado_1070122" data-name="Trazado 1070122" d="M47.586,21.586c8.958,5.214,8.958,13.5.134,18.585-8.824,5.214-23.264,5.214-32.222,0-8.958-5.081-8.958-13.5-.134-18.585,8.824-5.214,23.264-5.214,32.222,0Z" transform="translate(-8.762 -17.675)" fill="#ffd06c"/>
                  </g>
                </g>
              </g>
            </g>
          </g>
          <g id="Grupo_1209744" data-name="Grupo 1209744" transform="translate(0 12.81)">
            <path id="Trazado_1070123" data-name="Trazado 1070123" d="M8.7,26.3a1.1,1.1,0,0,0-.669.669c-.669,1.07,1.6,2.006,1.471,3.343S7.234,31.787,7.1,33.124a1.773,1.773,0,0,0,.8,1.337,3.392,3.392,0,0,0,1.6.267,15.415,15.415,0,0,0,3.476-.4A5.986,5.986,0,0,1,12.448,37c-.4.8-.8,1.872-.134,2.407,1.07,1.07,3.075-1.337,4.278-.4.669.535.535,1.872,1.471,1.872.267-.669.535-1.337,1.2-1.471.8-.267,1.471.4,1.872,1.07s.535,1.471.936,2.139a1.56,1.56,0,0,0,2.006.669c.669-.4.669-1.337,1.337-1.6.936-.535,2.139.535,2.674,1.337a2.192,2.192,0,0,0,1.471.936c1.2.267,1.337-.8,2.139-1.07,1.6-.8,3.744,3.877,5.482-1.07.4-1.07,1.07-2.273,2.139-2.006,1.2.267,1.471,1.872,2.54,2.139,1.6.4,2.407-2.006,3.744-2.54,1.2-.535,2.674.4,3.877.4a2,2,0,0,0,1.872-1.738.491.491,0,0,1,.134-.4c.535-.8,1.738.134,2.674-.134.8-.267.8-1.471.8-2.407a4.411,4.411,0,0,1,1.6-3.209c.4-.267.936-.669,1.337-.936a.758.758,0,0,0-.4-1.337l-4.278-.669c-1.2-.134-1.337-.936-.535-1.738.936-.936,1.872-1.738,2.808-2.674a10.47,10.47,0,0,0,2.139-2.674,2.817,2.817,0,0,0-.4-3.209,1.761,1.761,0,0,0-2.808.4,4.173,4.173,0,0,0-.669-3.343,2.906,2.906,0,0,0-2.54-.936c-2.139.134-8.156,3.075-15.509,4.546-2.941.535-5.883.936-8.691,1.738C22.609,22.428,19.4,24.7,16.86,24.567c-2.674-.535-6.15.669-8.156,1.738Z" transform="translate(-7.1 -14.781)" fill="#72d561"/>
          </g>
          <g id="Grupo_1209746" data-name="Grupo 1209746" transform="translate(13.638 25.641)">
            <g id="Grupo_1209745" data-name="Grupo 1209745">
              <path id="Trazado_1070124" data-name="Trazado 1070124" d="M36.821,31.761V32.3a1.627,1.627,0,0,1-.669,1.337c-1.6,1.337-6.685,4.813-15.509.8C18.236,32.7,17.3,31.093,17.3,29.889v-.669c0-2.407,3.075-3.877,4.68-4.412a9.082,9.082,0,0,1,6.418.4c.936.267,2.139,1.738,2.808,2.407a14.705,14.705,0,0,1,3.877,1.471.467.467,0,0,1,.267.134C35.885,29.889,36.821,30.692,36.821,31.761Z" transform="translate(-17.3 -24.378)" fill="#e93565"/>
            </g>
          </g>
          <g id="Grupo_1209765" data-name="Grupo 1209765" transform="translate(13.638 25.651)">
            <g id="Grupo_1209747" data-name="Grupo 1209747" transform="translate(0 4.834)">
              <path id="Trazado_1070125" data-name="Trazado 1070125" d="M36.821,30.54v.535a1.627,1.627,0,0,1-.669,1.337c-1.6,1.337-6.685,4.813-15.509.8-2.407-1.738-3.343-3.343-3.343-4.546V28c0,1.2.936,2.808,3.343,4.546,8.824,4.011,13.905.669,15.509-.8A1.415,1.415,0,0,0,36.821,30.54Z" transform="translate(-17.3 -28)" fill="#cc104a"/>
            </g>
            <g id="Grupo_1209748" data-name="Grupo 1209748" transform="translate(0.001)">
              <path id="Trazado_1070126" data-name="Trazado 1070126" d="M35.082,29.085a.467.467,0,0,1,.267.134c.936.669,2.407,2.273.8,3.744-1.6,1.337-6.685,4.813-15.509.8-7.086-5.081-1.07-8.022,1.337-8.958a8.542,8.542,0,0,1,6.685.669,7.785,7.785,0,0,1,2.407,2.273,19.242,19.242,0,0,1,4.011,1.337Z" transform="translate(-17.3 -24.385)" fill="#f45170"/>
            </g>
            <g id="Grupo_1209749" data-name="Grupo 1209749" transform="translate(8.557 2.635)">
              <path id="Trazado_1070127" data-name="Trazado 1070127" d="M24.5,26.415a.467.467,0,0,1-.267.134H23.7a.491.491,0,0,1,.4-.134h.134A.185.185,0,0,1,24.5,26.415Z" transform="translate(-23.7 -26.356)" fill="#ffde9b"/>
            </g>
            <g id="Grupo_1209750" data-name="Grupo 1209750" transform="translate(6.819 2.238)">
              <path id="Trazado_1070128" data-name="Trazado 1070128" d="M23.336,26.114c.134,0,.134.134,0,.267a.491.491,0,0,1-.4.134h-.4a.131.131,0,0,1-.134-.134v-.134a.588.588,0,0,1,.669-.134Z" transform="translate(-22.4 -26.059)" fill="#ffde9b"/>
            </g>
            <g id="Grupo_1209751" data-name="Grupo 1209751" transform="translate(5.482 2.293)">
              <path id="Trazado_1070129" data-name="Trazado 1070129" d="M22.069,26.1c.134.134.134.134.134.267s0,.134-.134.267a.467.467,0,0,1-.267.134h-.134a.131.131,0,0,1-.134-.134L21.4,26.5c0-.134,0-.134.134-.267h.134Z" transform="translate(-21.4 -26.1)" fill="#ffde9b"/>
            </g>
            <g id="Grupo_1209752" data-name="Grupo 1209752" transform="translate(4.491 2.995)">
              <path id="Trazado_1070130" data-name="Trazado 1070130" d="M21.249,26.725a.131.131,0,0,1,.134.134l-.134-.134.134.134a.131.131,0,0,0-.134.134h-.267c-.134,0-.134-.134-.267-.134s0-.134.134-.134h.267C21.115,26.592,21.115,26.592,21.249,26.725Z" transform="translate(-20.659 -26.625)" fill="#ffde9b"/>
            </g>
            <g id="Grupo_1209753" data-name="Grupo 1209753" transform="translate(4.011 4.031)">
              <path id="Trazado_1070131" data-name="Trazado 1070131" d="M21.1,27.534a.491.491,0,0,1-.4.134c-.134,0-.267,0-.267-.134A.131.131,0,0,1,20.3,27.4h.4A.491.491,0,0,1,21.1,27.534Z" transform="translate(-20.3 -27.4)" fill="#ffde9b"/>
            </g>
            <g id="Grupo_1209754" data-name="Grupo 1209754" transform="translate(4.145 5.175)">
              <path id="Trazado_1070132" data-name="Trazado 1070132" d="M21.336,28.315h0c.134.134.134.134,0,.134,0,.134-.134.134-.267.134H20.4v-.134l.134-.134h.4C21.2,28.181,21.336,28.315,21.336,28.315Z" transform="translate(-20.4 -28.256)" fill="#ffde9b"/>
            </g>
            <g id="Grupo_1209755" data-name="Grupo 1209755" transform="translate(8.231 5.368)">
              <path id="Trazado_1070133" data-name="Trazado 1070133" d="M31.938,30.138c-.134,1.337-1.337,2.54-3.343,2.674-1.738.134-3.476.4-4.412-.535-.8-.8-1.07-1.471-.134-1.471a15.051,15.051,0,0,1,2.674.535c.134,0,2.006.134,2.54-.4s.669-.669,0-1.2-1.872-1.2-.134-1.337a14.318,14.318,0,0,1,2.139.669A.92.92,0,0,1,31.938,30.138Zm-1.738.134c.267.267.267.134.4.134q.4-.2.4-.4a.131.131,0,0,0-.134-.134c-.134,0-.267-.134-.4,0s-.267.134-.267.267v.134h0m-4.278,1.6c.134,0,.134,0,.134-.134v-.267c-.134-.4-.936-.267-.535.134,0,.267.134.4.4.267m4.278-2.54c.134,0,.134-.134.134-.267s0-.134-.134-.134h-.134a.467.467,0,0,0-.267.134V29.2a.131.131,0,0,0,.134.134H30.2ZM27.793,32.01c.134,0,.267-.134.134-.267l-.134-.134-.267-.267-.134.134a.6.6,0,0,0,.4.535Z" transform="translate(-23.456 -28.4)" fill="none"/>
            </g>
            <g id="Grupo_1209756" data-name="Grupo 1209756" transform="translate(14.574 5.903)">
              <path id="Trazado_1070134" data-name="Trazado 1070134" d="M28.6,28.8c.134,0,.134.134,0,0l.134.134c0,.134,0,.134-.134.267h-.267a.131.131,0,0,1-.134-.134v-.134a.586.586,0,0,1,.4-.134Z" transform="translate(-28.2 -28.8)" fill="#ffde9b"/>
            </g>
            <g id="Grupo_1209757" data-name="Grupo 1209757" transform="translate(2.667 1.612)">
              <path id="Trazado_1070135" data-name="Trazado 1070135" d="M23.045,30.283c0,.535-1.07.4-2.54-.134a1.014,1.014,0,0,1-.535-.267c-.936-.535-.669-1.337-.535-2.273.134-1.2,2.273-1.872,4.546-2.006a3.313,3.313,0,0,1,3.209,1.738c-.267.936-1.6.267-2.407-.134s-1.07-.267-2.006,0c-1.07.267-.669,1.471-.669,1.471a12.924,12.924,0,0,1,.936,1.6Zm1.2-4.011a1,1,0,0,0-.669.134v.134a.131.131,0,0,0,.134.134h.4c.134,0,.267-.134.4-.134.134-.134.134-.134,0-.267h-.267m-2.674,3.209c.134,0,.267,0,.267-.134v-.134h-.535c-.134,0-.134,0-.134.134v.134h.4m.8-3.209c-.134,0-.267.134-.134.267l.134.134a.131.131,0,0,1,.134.134h.134c.134,0,.134,0,.267-.134.134,0,.134-.134.134-.267a.131.131,0,0,0-.134-.134v-.134h-.267c-.134.134-.134.134-.267.134m3.209.267c-.267,0-.4,0-.4.134.134.134.4,0,.535,0h.134c.134-.134.267-.134.134-.267-.134.134-.134.134-.4.134Zm-3.877.8c.134,0,.134,0,.134-.134h0l-.134-.134h-.535a.131.131,0,0,0-.134.134c.134,0,.134.134.267.134Zm-.669.936h.267l.134-.134h-.134c-.134,0-.134-.134-.267-.134h-.4a.131.131,0,0,1,.134.134.467.467,0,0,1,.267.134" transform="translate(-19.295 -25.59)" fill="none"/>
            </g>
            <g id="Grupo_1209758" data-name="Grupo 1209758" transform="translate(14.707 6.739)">
              <path id="Trazado_1070136" data-name="Trazado 1070136" d="M29.1,29.525h0c.134.267,0,.4-.267.535-.134,0-.134.134-.4-.134l-.134-.134c0-.134.134-.134.267-.267.267-.134.535-.134.535,0Z" transform="translate(-28.3 -29.425)" fill="#ffde9b"/>
            </g>
            <g id="Grupo_1209759" data-name="Grupo 1209759" transform="translate(10.037 8.356)">
              <path id="Trazado_1070137" data-name="Trazado 1070137" d="M25.466,30.856v.267l-.134.134c-.4.134-.8-.4-.267-.535.134-.134.4-.134.4.134Z" transform="translate(-24.807 -30.634)" fill="#ffde9b"/>
            </g>
            <g id="Grupo_1209760" data-name="Grupo 1209760" transform="translate(12.324 8.577)">
              <path id="Trazado_1070138" data-name="Trazado 1070138" d="M26.628,30.8c.134.134.267.134.267.267l.134.134a.467.467,0,0,0-.134.267c-.267-.267-.535-.535-.267-.669Z" transform="translate(-26.517 -30.8)" fill="#ffde9b"/>
            </g>
            <g id="Grupo_1209761" data-name="Grupo 1209761" transform="translate(6.443 4.7)">
              <path id="Trazado_1070139" data-name="Trazado 1070139" d="M33.057,31.644c-.535,1.07-1.2.936-3.877,1.6a16.429,16.429,0,0,1-5.749,0c-.134,0-.267-.134-.535-.134a.8.8,0,0,1-.535-.134c-.4-.267-.267-.535.134-.936A15.147,15.147,0,0,1,25.7,29.772c3.61-2.006,2.407-1.738,4.145-1.872h.936a3.924,3.924,0,0,1,1.337.4c.134,0,.134.134.267.134a2.916,2.916,0,0,1,.669.535A2.2,2.2,0,0,1,33.057,31.644Zm-4.011,1.337c2.006-.134,3.209-1.337,3.343-2.674a1.285,1.285,0,0,0-.8-1.2,5.644,5.644,0,0,0-2.139-.669c-1.6.134-.535.936.134,1.337.669.535.535.669,0,1.2s-2.407.4-2.54.4a15.051,15.051,0,0,0-2.674-.535c-1.2,0-.267,1.337.535,1.738C25.971,33.114,27.308,32.981,29.046,32.981Z" transform="translate(-22.119 -27.9)" fill="#e93565"/>
            </g>
            <g id="Grupo_1209762" data-name="Grupo 1209762" transform="translate(1.727 1.111)">
              <path id="Trazado_1070140" data-name="Trazado 1070140" d="M25.288,29.741a27.9,27.9,0,0,1-4.011,1.872,8.521,8.521,0,0,1-.936.267,1,1,0,0,1-.669-.134l-.134-.134a.414.414,0,0,0-.134-.267c0-.134-.134-.134-.267-.267-.669-.669-.535-1.471-.535-2.273a.8.8,0,0,1,.134-.535c.134-.134.134-.4.267-.535A11.565,11.565,0,0,0,19.94,26.4l.4-.4a4.79,4.79,0,0,1,1.471-.535,7.764,7.764,0,0,1,5.749.669c.936.535.8.8.669,1.337-.134.8.4.267-2.941,2.273Zm-4.68.535c1.471.535,2.674.535,2.54.134,0-.535-.936-1.471-.936-1.471s-.4-1.2.669-1.471,1.2-.4,2.006,0,2.139,1.07,2.407.134a3.719,3.719,0,0,0-3.209-1.738c-2.273.134-4.412.8-4.546,2.006-.134,1.07-.4,1.872.535,2.273.267,0,.4,0,.535.134Z" transform="translate(-18.592 -25.215)" fill="#e93565"/>
            </g>
            <g id="Grupo_1209763" data-name="Grupo 1209763" transform="translate(13.638 8.31)">
              <path id="Trazado_1070141" data-name="Trazado 1070141" d="M28.3,30.867c-.267.267-.4.134-.8-.134,0-.134.267-.134.4-.134s.4.134.4.267Z" transform="translate(-27.5 -30.6)" fill="#ffde9b"/>
            </g>
            <g id="Grupo_1209764" data-name="Grupo 1209764" transform="translate(14.829 7.775)">
              <path id="Trazado_1070142" data-name="Trazado 1070142" d="M28.938,30.2c.134.267.267.4,0,.535-.134.134-.267.134-.267,0-.267-.134-.4-.267-.134-.4.134-.134.134-.134.4-.134Z" transform="translate(-28.391 -30.2)" fill="#ffde9b"/>
            </g>
          </g>
          <g id="Grupo_1209767" data-name="Grupo 1209767" transform="translate(33.426 25.086)">
            <g id="Grupo_1209766" data-name="Grupo 1209766">
              <path id="Trazado_1070143" data-name="Trazado 1070143" d="M44.8,27.221v.267c0,.8-.535,1.738-2.139,2.941-5.749,2.674-8.958.4-10.028-.535a1.009,1.009,0,0,1-.535-.936v-.267c0,.267.134.4.267.669-.669-.8.267-1.738.8-2.139l.134-.134a16.09,16.09,0,0,1,2.54-.936,5.9,5.9,0,0,1,1.6-1.471c.134,0,.134-.134.267-.134a5.266,5.266,0,0,1,4.145-.267c.936.4,2.941,1.471,2.941,2.941Z" transform="translate(-32.1 -23.963)" fill="#e93565"/>
            </g>
          </g>
          <g id="Grupo_1209786" data-name="Grupo 1209786" transform="translate(33.426 25.115)">
            <g id="Grupo_1209768" data-name="Grupo 1209768" transform="translate(0 3.363)">
              <path id="Trazado_1070144" data-name="Trazado 1070144" d="M32.1,27.971v.267a1.777,1.777,0,0,0,.4.936c1.07.936,4.278,3.075,10.028.535,1.6-1.2,2.139-2.139,2.139-2.941V26.5c0,.8-.535,1.738-2.139,2.941-5.749,2.674-8.958.4-10.028-.535A1.777,1.777,0,0,1,32.1,27.971Z" transform="translate(-32.1 -26.5)" fill="#cc104a"/>
            </g>
            <g id="Grupo_1209769" data-name="Grupo 1209769" transform="translate(0.077)">
              <path id="Trazado_1070145" data-name="Trazado 1070145" d="M33.284,27.08a.131.131,0,0,0-.134.134c-.535.4-1.6,1.471-.535,2.407,5.749,4.947,17.782-2.006,9.225-5.348a5.921,5.921,0,0,0-4.145.267c-.134,0-.134,0-.267.134a5.9,5.9,0,0,0-1.6,1.471c-.134.134-1.738.535-2.54.936Z" transform="translate(-32.158 -23.985)" fill="#f45170"/>
            </g>
            <g id="Grupo_1209770" data-name="Grupo 1209770" transform="translate(6.418 1.759)">
              <path id="Trazado_1070146" data-name="Trazado 1070146" d="M37.034,25.3l.134.134H36.9C37.167,25.3,37.034,25.3,37.034,25.3Z" transform="translate(-36.9 -25.3)" fill="#ffde9b"/>
            </g>
            <g id="Grupo_1209771" data-name="Grupo 1209771" transform="translate(7.562 1.57)">
              <path id="Trazado_1070147" data-name="Trazado 1070147" d="M37.815,25.348c.134,0,.134.134.267.134h.134a.131.131,0,0,0,.134-.134c-.134-.134-.267-.134-.535-.134,0-.134-.134,0,0,.134Z" transform="translate(-37.756 -25.159)" fill="#ffde9b"/>
            </g>
            <g id="Grupo_1209772" data-name="Grupo 1209772" transform="translate(8.59 1.491)">
              <path id="Trazado_1070148" data-name="Trazado 1070148" d="M38.625,25.1c-.134.134-.134.267,0,.267s.134.134.267,0,.267-.267.134-.267h-.4Z" transform="translate(-38.525 -25.1)" fill="#ffde9b"/>
            </g>
            <g id="Grupo_1209773" data-name="Grupo 1209773" transform="translate(9.225 2.06)">
              <path id="Trazado_1070149" data-name="Trazado 1070149" d="M39,25.625c.134.134.267,0,.535,0s-.134-.134-.267,0C39.134,25.492,39,25.492,39,25.625Z" transform="translate(-39 -25.525)" fill="#ffde9b"/>
            </g>
            <g id="Grupo_1209774" data-name="Grupo 1209774" transform="translate(9.493 2.635)">
              <path id="Trazado_1070150" data-name="Trazado 1070150" d="M39.2,26.015c.267.134.4,0,.535,0s-.134-.134-.267,0H39.2Z" transform="translate(-39.2 -25.956)" fill="#ffde9b"/>
            </g>
            <g id="Grupo_1209775" data-name="Grupo 1209775" transform="translate(9.333 3.363)">
              <path id="Trazado_1070151" data-name="Trazado 1070151" d="M39.107,26.5h0c-.134.267.267.267.535.134.134-.134,0-.134-.134-.134h-.4Z" transform="translate(-39.08 -26.5)" fill="#ffde9b"/>
            </g>
            <g id="Grupo_1209776" data-name="Grupo 1209776" transform="translate(1.738 3.363)">
              <path id="Trazado_1070152" data-name="Trazado 1070152" d="M33.935,27.035c.535-.267,1.337-.4,1.337-.535,1.07.134.4.535-.134.936-.4.267-.4.4,0,.8s1.738.267,1.738.267,1.2-.267,1.738-.4c.8,0,.134.936-.4,1.2-.535.4-1.471.267-2.674.134-1.337-.134-2.139-.8-2.139-1.738a.888.888,0,0,1,.535-.669Zm.669.8h0a.467.467,0,0,0-.134-.267H34.2V27.7c0,.134,0,.267.267.267H34.6C34.47,27.971,34.6,27.971,34.6,27.837Zm2.808,1.07h.4v-.134a.131.131,0,0,0-.134-.134h-.134v.134ZM34.6,27.3h.134v-.267c0-.134-.134-.134-.267-.134h-.134v.134c.267.134.267.267.267.267m1.6,1.738a.414.414,0,0,1,.267-.134v-.134h-.267a.131.131,0,0,0-.134.134c0,.134,0,0,.134.134h0Z" transform="translate(-33.4 -26.5)" fill="none"/>
            </g>
            <g id="Grupo_1209777" data-name="Grupo 1209777" transform="translate(2.941 3.898)">
              <path id="Trazado_1070153" data-name="Trazado 1070153" d="M34.3,26.9v.267h.134V26.9Z" transform="translate(-34.3 -26.9)" fill="#ffde9b"/>
            </g>
            <g id="Grupo_1209778" data-name="Grupo 1209778" transform="translate(5.749 1.07)">
              <path id="Trazado_1070154" data-name="Trazado 1070154" d="M39.743,26.811s.267-.8-.4-.936-.8-.267-1.337,0-1.337.669-1.6,0a1.956,1.956,0,0,1,2.139-1.07c1.471.134,2.808.535,2.941,1.337s.267,1.337-.669,1.6-1.738.4-1.738,0A9.116,9.116,0,0,1,39.743,26.811Zm-1.337-1.6c-.134,0-.267.134-.134.134s.134.134.267.134h.134a.131.131,0,0,0,.134-.134c0-.134-.267-.134-.4-.134m1.738,2.139c.4,0,.535-.267.267-.267-.669,0-.535.267-.267.267m-.535-2.139h-.267c0,.134-.134.267,0,.267s.134.134.267,0a.185.185,0,0,0,0-.267m-2.139.267H37.2c-.134,0,0,.134.134.134h.134c.134-.134.134-.134,0-.134m2.54.4c.134,0,.267-.134.4-.134s-.134-.134-.267-.134C40.144,25.741,40.01,25.741,40.01,25.875Zm.4.669c.134,0,.134,0,.267-.134s-.134-.134-.267,0h-.134a.131.131,0,0,0-.134.134h.267Z" transform="translate(-36.4 -24.785)" fill="none"/>
            </g>
            <g id="Grupo_1209779" data-name="Grupo 1209779" transform="translate(2.485 4.433)">
              <path id="Trazado_1070155" data-name="Trazado 1070155" d="M34.014,27.3h0c-.134.134,0,.267.134.4h.4l-.134-.134c-.134-.267-.267-.267-.4-.267Z" transform="translate(-33.959 -27.3)" fill="#ffde9b"/>
            </g>
            <g id="Grupo_1209780" data-name="Grupo 1209780" transform="translate(5.616 5.502)">
              <path id="Trazado_1070156" data-name="Trazado 1070156" d="M36.434,28.1h0l-.134.134.134.134h.4v-.134A.131.131,0,0,0,36.7,28.1h-.267Z" transform="translate(-36.3 -28.1)" fill="#ffde9b"/>
            </g>
            <g id="Grupo_1209781" data-name="Grupo 1209781" transform="translate(4.412 5.636)">
              <path id="Trazado_1070157" data-name="Trazado 1070157" d="M35.667,28.2c-.134.134-.134.134-.267.134v.134h.267V28.2Z" transform="translate(-35.4 -28.2)" fill="#ffde9b"/>
            </g>
            <g id="Grupo_1209782" data-name="Grupo 1209782" transform="translate(1.103 2.962)">
              <path id="Trazado_1070158" data-name="Trazado 1070158" d="M33.293,27l.4-.4.134-.134a1.9,1.9,0,0,1,.8-.267H35.3a1.7,1.7,0,0,1,.8.134c.134,0,.267.134.535.267a11.757,11.757,0,0,1,1.337.8c.936.535,3.075,1.872,2.006,2.139a6.789,6.789,0,0,1-3.075.267h-.669c-.134,0-.4-.134-.535-.134-.535-.134-.936-.267-1.471-.4-.134,0-.4-.134-.535-.134-.267-.134-.4-.4-.535-.535a1.237,1.237,0,0,1,.134-1.6Zm2.54,2.54a8.018,8.018,0,0,0,2.674-.134c.535-.267,1.07-1.2.4-1.2a4.743,4.743,0,0,0-1.738.4s-1.337.134-1.6-.267c-.4-.4-.4-.4,0-.8.4-.267,1.2-.8.134-.936a3.569,3.569,0,0,0-1.337.535.9.9,0,0,0-.535.8c-.134.8.669,1.6,2.006,1.6Z" transform="translate(-32.925 -26.2)" fill="#e93565"/>
            </g>
            <g id="Grupo_1209783" data-name="Grupo 1209783" transform="translate(5.214 0.647)">
              <path id="Trazado_1070159" data-name="Trazado 1070159" d="M36,25.981v-.4c0-.134.267-.4.535-.535a.131.131,0,0,0,.134-.134,5.472,5.472,0,0,1,3.61-.267,1.535,1.535,0,0,1,1.2.669c.8,1.07.8,1.07.936,1.471.134,1.337-.4,1.471-.535,1.6,0,.134,0,.134-.134.267-.669.4-2.674-.669-3.61-1.2-.535-.267-.936-.535-1.471-.8-.134-.134-.4-.134-.4-.267-.267-.134-.267-.267-.267-.4Zm4.947,1.872c.936-.267.8-.8.669-1.6s-1.471-1.2-2.941-1.337a3.956,3.956,0,0,0-1.337.267,2,2,0,0,0-.8.8c.134.669,1.07.134,1.6,0,.535-.267.669-.267,1.337,0,.669.134.4.936.4.936a9.115,9.115,0,0,0-.669.936c.134.4.8.267,1.738,0Z" transform="translate(-36 -24.469)" fill="#e93565"/>
            </g>
            <g id="Grupo_1209784" data-name="Grupo 1209784" transform="translate(3.283 5.502)">
              <path id="Trazado_1070160" data-name="Trazado 1070160" d="M34.615,28.1h0c-.134.134,0,.134,0,.134h.134a.131.131,0,0,0,.134-.134h-.267Z" transform="translate(-34.556 -28.1)" fill="#ffde9b"/>
            </g>
            <g id="Grupo_1209785" data-name="Grupo 1209785" transform="translate(2.674 5.101)">
              <path id="Trazado_1070161" data-name="Trazado 1070161" d="M34.234,27.8a.131.131,0,0,1-.134.134v.134h.4l.134-.134A.131.131,0,0,0,34.5,27.8h-.267Z" transform="translate(-34.1 -27.8)" fill="#ffde9b"/>
            </g>
          </g>
          <g id="Grupo_1209788" data-name="Grupo 1209788" transform="translate(3.075 25.843)">
            <g id="Grupo_1209787" data-name="Grupo 1209787">
              <path id="Trazado_1070162" data-name="Trazado 1070162" d="M19.428,28.368v.267a.735.735,0,0,1-.4.669C15.55,32.245,9.4,29.838,9.4,27.3v-.267c0-1.2,1.6-2.006,2.407-2.273a4.13,4.13,0,0,1,3.209.267,7.093,7.093,0,0,1,1.471,1.2s1.337.4,2.006.669a.131.131,0,0,1,.134.134c.267.4.8.8.8,1.337Z" transform="translate(-9.4 -24.529)" fill="#e93565"/>
            </g>
          </g>
          <g id="Grupo_1209807" data-name="Grupo 1209807" transform="translate(3.037 25.874)">
            <g id="Grupo_1209789" data-name="Grupo 1209789" transform="translate(0.038 2.471)">
              <path id="Trazado_1070163" data-name="Trazado 1070163" d="M19.428,27.737V28c0,.267-.134.4-.4.669C15.55,31.748,9.4,29.208,9.4,26.667V26.4c0,2.407,6.15,4.947,9.627,2.006A.735.735,0,0,0,19.428,27.737Z" transform="translate(-9.4 -26.4)" fill="#cc104a"/>
            </g>
            <g id="Grupo_1209790" data-name="Grupo 1209790">
              <path id="Trazado_1070164" data-name="Trazado 1070164" d="M18.5,27.023a.131.131,0,0,1,.134.134c.535.4,1.2,1.2.4,1.872C14.49,32.906,5,27.424,11.683,24.75a4.93,4.93,0,0,1,3.476.267,4.826,4.826,0,0,1,1.2,1.2C16.5,26.354,17.833,26.756,18.5,27.023Z" transform="translate(-9.372 -24.552)" fill="#f45170"/>
            </g>
            <g id="Grupo_1209791" data-name="Grupo 1209791" transform="translate(4.45 1.448)">
              <path id="Trazado_1070165" data-name="Trazado 1070165" d="M13.1,25.722l-.134.134h-.134C12.967,25.588,13.1,25.588,13.1,25.722Z" transform="translate(-12.7 -25.634)" fill="#ffde9b"/>
            </g>
            <g id="Grupo_1209792" data-name="Grupo 1209792" transform="translate(3.514 1.268)">
              <path id="Trazado_1070166" data-name="Trazado 1070166" d="M12.535,25.634c-.267.134-.134,0-.267.134A.414.414,0,0,1,12,25.634a.491.491,0,0,1,.4-.134.131.131,0,0,1,.134.134Z" transform="translate(-12 -25.5)" fill="#ffde9b"/>
            </g>
            <g id="Grupo_1209793" data-name="Grupo 1209793" transform="translate(2.79 1.268)">
              <path id="Trazado_1070167" data-name="Trazado 1070167" d="M11.781,25.5c.134.134.134.134,0,.267h-.267c-.134,0,0-.134.134-.134C11.648,25.5,11.648,25.5,11.781,25.5Z" transform="translate(-11.459 -25.5)" fill="#ffde9b"/>
            </g>
            <g id="Grupo_1209794" data-name="Grupo 1209794" transform="translate(2.311 1.669)">
              <path id="Trazado_1070168" data-name="Trazado 1070168" d="M11.5,25.934c-.134.134-.134.134-.267,0-.134,0-.134,0-.134-.134h.267A.131.131,0,0,1,11.5,25.934Z" transform="translate(-11.1 -25.8)" fill="#ffde9b"/>
            </g>
            <g id="Grupo_1209795" data-name="Grupo 1209795" transform="translate(1.91 2.204)">
              <path id="Trazado_1070169" data-name="Trazado 1070169" d="M11.335,26.2h0Z" transform="translate(-10.8 -26.2)" fill="#ffde9b"/>
            </g>
            <g id="Grupo_1209796" data-name="Grupo 1209796" transform="translate(2.177 2.739)">
              <path id="Trazado_1070170" data-name="Trazado 1070170" d="M11.4,26.6c.134.134,0,.134-.134.134H11V26.6h.4Z" transform="translate(-11 -26.6)" fill="#ffde9b"/>
            </g>
            <g id="Grupo_1209797" data-name="Grupo 1209797" transform="translate(4.208 2.605)">
              <path id="Trazado_1070171" data-name="Trazado 1070171" d="M16.906,27.57a1.649,1.649,0,0,1-1.738,1.337c-.8,0-1.738.134-2.273-.267-.4-.4-.535-.8-.134-.8A7.525,7.525,0,0,1,14.1,28.1s1.07.134,1.337-.267c.267-.267.267-.4,0-.669-.4-.267-.936-.669-.134-.669a3.619,3.619,0,0,1,1.07.4c.4.267.535.4.535.669Zm-.936.134c.134,0,.134,0,.134.134h.134c.134,0,.134-.134.134-.267s-.134,0-.267,0-.134,0-.134.134Zm-2.139.8v-.134c-.535-.134-.4.267,0,.134m2.139-1.337.134-.134a.131.131,0,0,0-.134.134v0h0m-1.2,1.471h0v-.134H14.5C14.633,28.506,14.633,28.506,14.767,28.639Z" transform="translate(-12.519 -26.5)" fill="none"/>
            </g>
            <g id="Grupo_1209798" data-name="Grupo 1209798" transform="translate(7.466 3.14)">
              <path id="Trazado_1070172" data-name="Trazado 1070172" d="M15.149,26.9h0v.134h-.134c-.134,0,0,0,0-.134Z" transform="translate(-14.956 -26.9)" fill="#ffde9b"/>
            </g>
            <g id="Grupo_1209799" data-name="Grupo 1209799" transform="translate(1.305 0.867)">
              <path id="Trazado_1070173" data-name="Trazado 1070173" d="M12.289,27.607c0,.267-.535.267-1.337,0-.669-.267-.669-.669-.535-1.337s1.2-.936,2.273-1.07a1.918,1.918,0,0,1,1.738.936c-.134.535-.8.134-1.2,0-.4-.267-.535-.134-1.07,0s-.4.669-.4.8c.134-.134.535.4.535.669Zm.669-2.006a.491.491,0,0,0-.4.134c-.134.134.134.134.267.134s.134,0,.267-.134a.131.131,0,0,0-.134-.134Zm-1.471,1.6c.134,0,.134,0,.134-.134s0,0-.134,0h-.4v.134h.4Zm.535-1.6c-.134,0-.134.134,0,.134h.134c.134,0,0-.134,0-.267Zm1.6.134c-.134,0-.134,0-.267.134h.267a.131.131,0,0,0,.134-.134Zm-2.006.4h0c.134-.134,0-.134,0-.134h-.134a.131.131,0,0,0-.134.134h.267m-.267.4h.134l-.134-.134H11.22c0,.134,0,.134.134.134" transform="translate(-10.348 -25.2)" fill="none"/>
            </g>
            <g id="Grupo_1209800" data-name="Grupo 1209800" transform="translate(7.488 3.541)">
              <path id="Trazado_1070174" data-name="Trazado 1070174" d="M15.411,27.2c.134,0,.134.134,0,0,0,.134,0,.267-.134.267h-.267c-.134,0,.134-.134.134-.134A.414.414,0,0,1,15.411,27.2Z" transform="translate(-14.972 -27.2)" fill="#ffde9b"/>
            </g>
            <g id="Grupo_1209801" data-name="Grupo 1209801" transform="translate(5.197 4.076)">
              <path id="Trazado_1070175" data-name="Trazado 1070175" d="M13.448,27.867c.134,0,.134.134,0,0h0l.134.134s-.134.134-.134,0a.131.131,0,0,1-.134-.134c-.134-.134,0-.134.134-.267Z" transform="translate(-13.259 -27.6)" fill="#ffde9b"/>
            </g>
            <g id="Grupo_1209802" data-name="Grupo 1209802" transform="translate(6.322 4.477)">
              <path id="Trazado_1070176" data-name="Trazado 1070176" d="M14.1,27.9a.131.131,0,0,1,.134.134H14.1Z" transform="translate(-14.1 -27.9)" fill="#ffde9b"/>
            </g>
            <g id="Grupo_1209803" data-name="Grupo 1209803" transform="translate(3.226 2.07)">
              <path id="Trazado_1070177" data-name="Trazado 1070177" d="M17.421,28.373l-.4.4c-.134,0-.267.134-.4.134-.4.134-.8.134-1.2.267-.134,0-.267.134-.4.134h-.535a5,5,0,0,1-2.273-.267c-.134,0-.134,0-.267-.134-.267-.134-.134-.267,0-.535a16.7,16.7,0,0,1,1.6-1.2c.4-.267.669-.4,1.07-.669.134,0,.267-.134.4-.267a1.454,1.454,0,0,0,.669-.134h.535a1.021,1.021,0,0,1,.669.267.131.131,0,0,1,.134.134c.134.134.267.134.4.267a1.392,1.392,0,0,1,0,1.6Zm-2.006.669A1.649,1.649,0,0,0,17.153,27.7c0-.267-.134-.4-.4-.535a3.618,3.618,0,0,0-1.07-.4c-.8.134-.267.4.134.669s.267.267,0,.669c-.267.267-1.2.267-1.337.267a7.526,7.526,0,0,0-1.337-.267c-.669,0-.134.669.267.936A4.868,4.868,0,0,0,15.415,29.041Z" transform="translate(-11.785 -26.1)" fill="#e93565"/>
            </g>
            <g id="Grupo_1209804" data-name="Grupo 1209804" transform="translate(0.84 0.558)">
              <path id="Trazado_1070178" data-name="Trazado 1070178" d="M14.947,26.481c-.134.134-.267.134-.4.267a17.8,17.8,0,0,1-3.209,1.6.841.841,0,0,1-.8,0,.131.131,0,0,1-.134-.134l-.134-.134a1.987,1.987,0,0,1-.267-1.2v-.267c0-.134.134-.134.134-.267a2.347,2.347,0,0,1,.535-.669c0-.134.134-.134.267-.267a1.433,1.433,0,0,1,.8-.267,3.737,3.737,0,0,1,2.941.267c.4.267.4.4.4.669a.491.491,0,0,1-.134.4Zm-3.877,1.2c.8.267,1.337.267,1.337,0s-.4-.8-.535-.8c0,0-.134-.669.4-.8a1.465,1.465,0,0,1,1.07,0c.4.134,1.07.535,1.2,0a1.918,1.918,0,0,0-1.738-.936c-1.2,0-2.273.4-2.273,1.07,0,.8-.134,1.2.535,1.471Z" transform="translate(-10 -24.969)" fill="#e93565"/>
            </g>
            <g id="Grupo_1209805" data-name="Grupo 1209805" transform="translate(7.124 4.377)">
              <path id="Trazado_1070179" data-name="Trazado 1070179" d="M14.967,27.925v.134c-.134,0-.134,0,0-.134-.134.134-.267.134-.267,0s0-.134.267,0Z" transform="translate(-14.7 -27.825)" fill="#ffde9b"/>
            </g>
            <g id="Grupo_1209806" data-name="Grupo 1209806" transform="translate(7.47 4.076)">
              <path id="Trazado_1070180" data-name="Trazado 1070180" d="M15.281,27.6h0c.134.134.134.267,0,.267h-.267c-.134,0,0-.134.134-.134C15.148,27.6,15.148,27.6,15.281,27.6Z" transform="translate(-14.959 -27.6)" fill="#ffde9b"/>
            </g>
          </g>
          <g id="Grupo_1209815" data-name="Grupo 1209815" transform="translate(8.393 27.342)">
            <g id="Grupo_1209814" data-name="Grupo 1209814">
              <g id="Grupo_1209809" data-name="Grupo 1209809" transform="translate(0.431 0.234)">
                <g id="Grupo_1209808" data-name="Grupo 1209808">
                  <path id="Trazado_1070181" data-name="Trazado 1070181" d="M24.664,29v.4a2.847,2.847,0,0,0-1.6-2.273,8.78,8.78,0,0,0-7.755,0A2.847,2.847,0,0,0,13.7,29.4V29a2.847,2.847,0,0,1,1.6-2.273,8.78,8.78,0,0,1,7.755,0A2.847,2.847,0,0,1,24.664,29Z" transform="translate(-13.7 -25.825)" fill="#b28afd"/>
                </g>
              </g>
              <path id="Trazado_1070182" data-name="Trazado 1070182" d="M25.307,29.461c.134-1.07-.4-2.006-1.738-2.808a9.345,9.345,0,0,0-8.423,0c-2.139,1.2-1.738,2.674-1.738,2.808a2.774,2.774,0,0,0,1.738,2.407c3.61,2.139,10.161.8,10.161-2.407v0ZM23.3,31.332a8.78,8.78,0,0,1-7.755,0c-2.139-1.2-2.139-3.209,0-4.546a8.78,8.78,0,0,1,7.755,0C25.307,28.123,25.441,30.129,23.3,31.332Z" transform="translate(-13.378 -25.65)" fill="#b28afd"/>
              <g id="Grupo_1209811" data-name="Grupo 1209811" transform="translate(0.03 3.409)">
                <g id="Grupo_1209810" data-name="Grupo 1209810">
                  <path id="Trazado_1070183" data-name="Trazado 1070183" d="M25.3,28.2v.4c0,3.075-6.551,4.546-10.161,2.407A2.931,2.931,0,0,1,13.4,28.6v-.4a2.774,2.774,0,0,0,1.738,2.407,9.346,9.346,0,0,0,8.423,0A2.774,2.774,0,0,0,25.3,28.2Z" transform="translate(-13.4 -28.2)" fill="#b28afd"/>
                </g>
              </g>
              <g id="Grupo_1209813" data-name="Grupo 1209813" transform="translate(0.013)">
                <g id="Grupo_1209812" data-name="Grupo 1209812">
                  <path id="Trazado_1070184" data-name="Trazado 1070184" d="M23.566,26.653c2.273,1.337,2.407,3.61,0,4.947a9.346,9.346,0,0,1-8.423,0c-2.273-1.337-2.407-3.61,0-4.947A9.345,9.345,0,0,1,23.566,26.653Zm-8.156,4.68a8.78,8.78,0,0,0,7.755,0c2.139-1.2,2.139-3.209,0-4.546a8.78,8.78,0,0,0-7.755,0c-2.139,1.2-2.139,3.343,0,4.546Z" transform="translate(-13.387 -25.65)" fill="#fff"/>
                </g>
              </g>
            </g>
          </g>
          <g id="Grupo_1209823" data-name="Grupo 1209823" transform="translate(27.409 27.067)">
            <g id="Grupo_1209822" data-name="Grupo 1209822">
              <g id="Grupo_1209817" data-name="Grupo 1209817" transform="translate(0.535 0.276)">
                <g id="Grupo_1209816" data-name="Grupo 1209816">
                  <path id="Trazado_1070185" data-name="Trazado 1070185" d="M38.964,28.792v.4a2.847,2.847,0,0,0-1.6-2.273C34.017,25.048,28,26.251,28,29.193v-.4c0-2.808,6.017-4.145,9.359-2.273A2.847,2.847,0,0,1,38.964,28.792Z" transform="translate(-28 -25.651)" fill="#b28afd"/>
                </g>
              </g>
              <path id="Trazado_1070186" data-name="Trazado 1070186" d="M39.5,29.263c.134-1.07-.4-2.006-1.738-2.808-3.61-2.139-10.161-.669-10.161,2.407v.4a2.774,2.774,0,0,0,1.738,2.407,9.345,9.345,0,0,0,8.423,0c1.2-.669,1.872-1.471,1.738-2.407v-.4c.134.134,0,.267,0,.4Zm-2.006,1.872a8.78,8.78,0,0,1-7.755,0c-2.139-1.2-2.139-3.209,0-4.546a8.78,8.78,0,0,1,7.755,0C39.633,27.925,39.633,29.931,37.494,31.134Z" transform="translate(-27.6 -25.444)" fill="#b28afd"/>
              <g id="Grupo_1209819" data-name="Grupo 1209819" transform="translate(0.134 3.417)">
                <g id="Grupo_1209818" data-name="Grupo 1209818">
                  <path id="Trazado_1070187" data-name="Trazado 1070187" d="M39.6,28v.4a2.774,2.774,0,0,1-1.738,2.407C34.251,32.947,27.7,31.476,27.7,28.4V28a2.774,2.774,0,0,0,1.738,2.407,9.346,9.346,0,0,0,8.423,0A3.035,3.035,0,0,0,39.6,28Z" transform="translate(-27.7 -28)" fill="#b28afd"/>
                </g>
              </g>
              <g id="Grupo_1209821" data-name="Grupo 1209821" transform="translate(0.117 0.008)">
                <g id="Grupo_1209820" data-name="Grupo 1209820">
                  <path id="Trazado_1070188" data-name="Trazado 1070188" d="M37.866,26.453c2.273,1.337,2.407,3.61,0,4.947a9.346,9.346,0,0,1-8.423,0c-2.273-1.337-2.407-3.61,0-4.947A9.346,9.346,0,0,1,37.866,26.453Zm-8.156,4.68a8.78,8.78,0,0,0,7.755,0c2.139-1.2,2.139-3.209,0-4.546a8.78,8.78,0,0,0-7.755,0c-2.139,1.337-2.139,3.343,0,4.546Z" transform="translate(-27.687 -25.45)" fill="#fff"/>
                </g>
              </g>
            </g>
          </g>
          <g id="Grupo_1209825" data-name="Grupo 1209825" transform="translate(2.139)">
            <g id="Grupo_1209824" data-name="Grupo 1209824">
              <path id="Trazado_1070189" data-name="Trazado 1070189" d="M54.293,26.058c-.134,10.7-24.6,15.911-38.774,8.423A14.046,14.046,0,0,1,10.973,31,8.3,8.3,0,0,1,9.1,27.929c0-.134-.134-.267-.134-.4A5.34,5.34,0,0,1,8.7,25.79C8.7,14.827,18.594,5.2,31.429,5.2a23.837,23.837,0,0,1,16.847,6.819c.936.936,1.6,1.872,2.407,2.808.535.8,1.07,1.738,1.6,2.674a18.74,18.74,0,0,1,2.006,8.557Z" transform="translate(-8.7 -5.2)" fill="#f9a83d"/>
            </g>
          </g>
          <g id="Grupo_1209827" data-name="Grupo 1209827" transform="translate(2.139 0)">
            <g id="Grupo_1209826" data-name="Grupo 1209826">
              <path id="Trazado_1070190" data-name="Trazado 1070190" d="M52.688,21.512c0,3.476-2.407,6.685-7.22,9.225C35.975,35.684,20.6,35.818,10.839,31A10.1,10.1,0,0,1,9.1,27.929c0-.134-.134-.267-.134-.4A5.341,5.341,0,0,1,8.7,25.79C8.7,14.827,18.594,5.2,31.429,5.2a23.837,23.837,0,0,1,16.847,6.819c.936.936,1.6,1.872,2.407,2.808.535.8,1.07,1.738,1.6,2.674a20.407,20.407,0,0,1,.4,4.011Z" transform="translate(-8.7 -5.2)" fill="#ffd06c"/>
            </g>
          </g>
          <g id="Grupo_1209829" data-name="Grupo 1209829" transform="translate(23.398 2.139)">
            <g id="Grupo_1209828" data-name="Grupo 1209828">
              <path id="Trazado_1070191" data-name="Trazado 1070191" d="M24.6,8a7.2,7.2,0,0,1,1.6-1.2A1.573,1.573,0,0,1,24.6,8Z" transform="translate(-24.6 -6.8)" fill="#f9a83d"/>
            </g>
          </g>
          <g id="Grupo_1209906" data-name="Grupo 1209906" transform="translate(6.15 3.192)">
            <g id="Grupo_1209831" data-name="Grupo 1209831" transform="translate(0.802 11.115)">
              <g id="Grupo_1209830" data-name="Grupo 1209830">
                <path id="Trazado_1070192" data-name="Trazado 1070192" d="M12.3,17.638A6.123,6.123,0,0,1,13.37,15.9,1.534,1.534,0,0,1,12.3,17.638Z" transform="translate(-12.3 -15.9)" fill="#f9a83d"/>
              </g>
            </g>
            <g id="Grupo_1209833" data-name="Grupo 1209833" transform="translate(0 16.062)">
              <g id="Grupo_1209832" data-name="Grupo 1209832">
                <path id="Trazado_1070193" data-name="Trazado 1070193" d="M11.7,21.338A6.123,6.123,0,0,1,12.77,19.6,1.621,1.621,0,0,1,11.7,21.338Z" transform="translate(-11.7 -19.6)" fill="#f9a83d"/>
              </g>
            </g>
            <g id="Grupo_1209835" data-name="Grupo 1209835" transform="translate(8.29 12.719)">
              <g id="Grupo_1209834" data-name="Grupo 1209834">
                <path id="Trazado_1070194" data-name="Trazado 1070194" d="M17.9,17.1a4.958,4.958,0,0,1,1.872.535A1.713,1.713,0,0,1,17.9,17.1Z" transform="translate(-17.9 -17.1)" fill="#f9a83d"/>
              </g>
            </g>
            <g id="Grupo_1209837" data-name="Grupo 1209837" transform="translate(3.744 8.574)">
              <g id="Grupo_1209836" data-name="Grupo 1209836">
                <path id="Trazado_1070195" data-name="Trazado 1070195" d="M14.5,14a4.958,4.958,0,0,1,1.872.535,2.944,2.944,0,0,1-1.07.134C15.035,14.535,14.634,14.4,14.5,14Z" transform="translate(-14.5 -14)" fill="#f9a83d"/>
              </g>
            </g>
            <g id="Grupo_1209839" data-name="Grupo 1209839" transform="translate(5.883 14.591)">
              <g id="Grupo_1209838" data-name="Grupo 1209838">
                <path id="Trazado_1070196" data-name="Trazado 1070196" d="M16.1,19.7a7.2,7.2,0,0,1,1.6-1.2A1.452,1.452,0,0,1,16.1,19.7Z" transform="translate(-16.1 -18.5)" fill="#f9a83d"/>
              </g>
            </g>
            <g id="Grupo_1209841" data-name="Grupo 1209841" transform="translate(4.412 19.538)">
              <g id="Grupo_1209840" data-name="Grupo 1209840">
                <path id="Trazado_1070197" data-name="Trazado 1070197" d="M15,23.938c.4-.4,1.738-1.337,2.273-1.738A2.589,2.589,0,0,1,15,23.938Z" transform="translate(-15 -22.2)" fill="#f9a83d"/>
              </g>
            </g>
            <g id="Grupo_1209843" data-name="Grupo 1209843" transform="translate(8.557 16.73)">
              <g id="Grupo_1209842" data-name="Grupo 1209842">
                <path id="Trazado_1070198" data-name="Trazado 1070198" d="M18.1,21.3a7.2,7.2,0,0,1,1.6-1.2A1.573,1.573,0,0,1,18.1,21.3Z" transform="translate(-18.1 -20.1)" fill="#f9a83d"/>
              </g>
            </g>
            <g id="Grupo_1209845" data-name="Grupo 1209845" transform="translate(13.103 9.51)">
              <g id="Grupo_1209844" data-name="Grupo 1209844">
                <path id="Trazado_1070199" data-name="Trazado 1070199" d="M21.5,15.9a7.2,7.2,0,0,1,1.6-1.2A1.573,1.573,0,0,1,21.5,15.9Z" transform="translate(-21.5 -14.7)" fill="#f9a83d"/>
              </g>
            </g>
            <g id="Grupo_1209847" data-name="Grupo 1209847" transform="translate(13.103 14.323)">
              <g id="Grupo_1209846" data-name="Grupo 1209846">
                <path id="Trazado_1070200" data-name="Trazado 1070200" d="M21.5,19.5a7.2,7.2,0,0,1,1.6-1.2A1.573,1.573,0,0,1,21.5,19.5Z" transform="translate(-21.5 -18.3)" fill="#f9a83d"/>
              </g>
            </g>
            <g id="Grupo_1209849" data-name="Grupo 1209849" transform="translate(13.905 4.429)">
              <g id="Grupo_1209848" data-name="Grupo 1209848">
                <path id="Trazado_1070201" data-name="Trazado 1070201" d="M22.1,12.1a7.2,7.2,0,0,1,1.6-1.2A1.727,1.727,0,0,1,22.1,12.1Z" transform="translate(-22.1 -10.9)" fill="#f9a83d"/>
              </g>
            </g>
            <g id="Grupo_1209851" data-name="Grupo 1209851" transform="translate(20.189 16.062)">
              <g id="Grupo_1209850" data-name="Grupo 1209850">
                <path id="Trazado_1070202" data-name="Trazado 1070202" d="M26.8,20.8a7.2,7.2,0,0,1,1.6-1.2A1.452,1.452,0,0,1,26.8,20.8Z" transform="translate(-26.8 -19.6)" fill="#f9a83d"/>
              </g>
            </g>
            <g id="Grupo_1209853" data-name="Grupo 1209853" transform="translate(18.05 21.944)">
              <g id="Grupo_1209852" data-name="Grupo 1209852">
                <path id="Trazado_1070203" data-name="Trazado 1070203" d="M25.2,24a5.662,5.662,0,0,1,1.872.8A1.549,1.549,0,0,1,25.2,24Z" transform="translate(-25.2 -24)" fill="#f9a83d"/>
              </g>
            </g>
            <g id="Grupo_1209855" data-name="Grupo 1209855" transform="translate(16.312 10.981)">
              <g id="Grupo_1209854" data-name="Grupo 1209854">
                <path id="Trazado_1070204" data-name="Trazado 1070204" d="M23.9,16.6a3.993,3.993,0,0,1,1.872-.8A1.549,1.549,0,0,1,23.9,16.6Z" transform="translate(-23.9 -15.8)" fill="#f9a83d"/>
              </g>
            </g>
            <g id="Grupo_1209857" data-name="Grupo 1209857" transform="translate(11.9 6.569)">
              <g id="Grupo_1209856" data-name="Grupo 1209856">
                <path id="Trazado_1070205" data-name="Trazado 1070205" d="M20.6,12.5a4.626,4.626,0,0,1,1.471,1.337,1.214,1.214,0,0,1-.936-.4A1.7,1.7,0,0,1,20.6,12.5Z" transform="translate(-20.6 -12.5)" fill="#f9a83d"/>
              </g>
            </g>
            <g id="Grupo_1209859" data-name="Grupo 1209859" transform="translate(12.835 0.285)">
              <g id="Grupo_1209858" data-name="Grupo 1209858">
                <path id="Trazado_1070206" data-name="Trazado 1070206" d="M22.9,9a4.611,4.611,0,0,1-1.6-1.2A1.727,1.727,0,0,1,22.9,9Z" transform="translate(-21.3 -7.8)" fill="#f9a83d"/>
              </g>
            </g>
            <g id="Grupo_1209861" data-name="Grupo 1209861" transform="translate(8.022 6.034)">
              <g id="Grupo_1209860" data-name="Grupo 1209860">
                <path id="Trazado_1070207" data-name="Trazado 1070207" d="M17.7,13.972a4.719,4.719,0,0,1,.4-1.872A1.338,1.338,0,0,1,17.7,13.972Z" transform="translate(-17.7 -12.1)" fill="#f9a83d"/>
              </g>
            </g>
            <g id="Grupo_1209863" data-name="Grupo 1209863" transform="translate(20.456 7.371)">
              <g id="Grupo_1209862" data-name="Grupo 1209862">
                <path id="Trazado_1070208" data-name="Trazado 1070208" d="M27,14.3a7.2,7.2,0,0,1,1.6-1.2A1.32,1.32,0,0,1,27,14.3Z" transform="translate(-27 -13.1)" fill="#f9a83d"/>
              </g>
            </g>
            <g id="Grupo_1209865" data-name="Grupo 1209865" transform="translate(13.237 18.736)">
              <g id="Grupo_1209864" data-name="Grupo 1209864">
                <path id="Trazado_1070209" data-name="Trazado 1070209" d="M21.6,22.8a7.2,7.2,0,0,1,1.6-1.2A1.573,1.573,0,0,1,21.6,22.8Z" transform="translate(-21.6 -21.6)" fill="#f9a83d"/>
              </g>
            </g>
            <g id="Grupo_1209867" data-name="Grupo 1209867" transform="translate(10.83 20.741)">
              <g id="Grupo_1209866" data-name="Grupo 1209866">
                <path id="Trazado_1070210" data-name="Trazado 1070210" d="M19.8,23.1a8.8,8.8,0,0,1,1.872,2.006A2.268,2.268,0,0,1,19.8,23.1Z" transform="translate(-19.8 -23.1)" fill="#f9a83d"/>
              </g>
            </g>
            <g id="Grupo_1209869" data-name="Grupo 1209869" transform="translate(16.847 17.532)">
              <g id="Grupo_1209868" data-name="Grupo 1209868">
                <path id="Trazado_1070211" data-name="Trazado 1070211" d="M24.3,20.7a3.557,3.557,0,0,1,1.337,1.471A1.7,1.7,0,0,1,24.3,20.7Z" transform="translate(-24.3 -20.7)" fill="#f9a83d"/>
              </g>
            </g>
            <g id="Grupo_1209871" data-name="Grupo 1209871" transform="translate(7.621 2.34)">
              <g id="Grupo_1209870" data-name="Grupo 1209870">
                <path id="Trazado_1070212" data-name="Trazado 1070212" d="M19.272,10.223a5.662,5.662,0,0,1-1.872-.8A1.61,1.61,0,0,1,19.272,10.223Z" transform="translate(-17.4 -9.337)" fill="#f9a83d"/>
              </g>
            </g>
            <g id="Grupo_1209873" data-name="Grupo 1209873" transform="translate(24.468 8.44)">
              <g id="Grupo_1209872" data-name="Grupo 1209872">
                <path id="Trazado_1070213" data-name="Trazado 1070213" d="M30,13.9a4.958,4.958,0,0,1,1.872.535A1.594,1.594,0,0,1,30,13.9Z" transform="translate(-30 -13.9)" fill="#f9a83d"/>
              </g>
            </g>
            <g id="Grupo_1209875" data-name="Grupo 1209875" transform="translate(17.649 7.746)">
              <g id="Grupo_1209874" data-name="Grupo 1209874">
                <path id="Trazado_1070214" data-name="Trazado 1070214" d="M26.772,13.54a4.492,4.492,0,0,1-1.872.669A1.4,1.4,0,0,1,26.772,13.54Z" transform="translate(-24.9 -13.38)" fill="#f9a83d"/>
              </g>
            </g>
            <g id="Grupo_1209877" data-name="Grupo 1209877" transform="translate(19.253 13.12)">
              <g id="Grupo_1209876" data-name="Grupo 1209876">
                <path id="Trazado_1070215" data-name="Trazado 1070215" d="M26.1,18.2a3.993,3.993,0,0,1,1.872-.8A1.549,1.549,0,0,1,26.1,18.2Z" transform="translate(-26.1 -17.4)" fill="#f9a83d"/>
              </g>
            </g>
            <g id="Grupo_1209879" data-name="Grupo 1209879" transform="translate(24.2 12.986)">
              <g id="Grupo_1209878" data-name="Grupo 1209878">
                <path id="Trazado_1070216" data-name="Trazado 1070216" d="M29.8,18.5a7.2,7.2,0,0,1,1.6-1.2A1.573,1.573,0,0,1,29.8,18.5Z" transform="translate(-29.8 -17.3)" fill="#f9a83d"/>
              </g>
            </g>
            <g id="Grupo_1209881" data-name="Grupo 1209881" transform="translate(23.131 20.474)">
              <g id="Grupo_1209880" data-name="Grupo 1209880">
                <path id="Trazado_1070217" data-name="Trazado 1070217" d="M29,24.1a7.2,7.2,0,0,1,1.6-1.2A1.573,1.573,0,0,1,29,24.1Z" transform="translate(-29 -22.9)" fill="#f9a83d"/>
              </g>
            </g>
            <g id="Grupo_1209883" data-name="Grupo 1209883" transform="translate(25.136 16.596)">
              <g id="Grupo_1209882" data-name="Grupo 1209882">
                <path id="Trazado_1070218" data-name="Trazado 1070218" d="M30.5,20a4.626,4.626,0,0,1,1.471,1.337C31.3,21.471,30.634,20.8,30.5,20Z" transform="translate(-30.5 -20)" fill="#f9a83d"/>
              </g>
            </g>
            <g id="Grupo_1209885" data-name="Grupo 1209885" transform="translate(28.746 5.766)">
              <g id="Grupo_1209884" data-name="Grupo 1209884">
                <path id="Trazado_1070219" data-name="Trazado 1070219" d="M33.2,13.1a7.2,7.2,0,0,1,1.6-1.2A1.573,1.573,0,0,1,33.2,13.1Z" transform="translate(-33.2 -11.9)" fill="#f9a83d"/>
              </g>
            </g>
            <g id="Grupo_1209887" data-name="Grupo 1209887" transform="translate(28.746 10.58)">
              <g id="Grupo_1209886" data-name="Grupo 1209886">
                <path id="Trazado_1070220" data-name="Trazado 1070220" d="M33.2,16.7a7.2,7.2,0,0,1,1.6-1.2A1.573,1.573,0,0,1,33.2,16.7Z" transform="translate(-33.2 -15.5)" fill="#f9a83d"/>
              </g>
            </g>
            <g id="Grupo_1209889" data-name="Grupo 1209889" transform="translate(27.275 2.156)">
              <g id="Grupo_1209888" data-name="Grupo 1209888">
                <path id="Trazado_1070221" data-name="Trazado 1070221" d="M32.1,10.4a7.2,7.2,0,0,1,1.6-1.2A1.382,1.382,0,0,1,32.1,10.4Z" transform="translate(-32.1 -9.2)" fill="#f9a83d"/>
              </g>
            </g>
            <g id="Grupo_1209891" data-name="Grupo 1209891" transform="translate(34.228 10.446)">
              <g id="Grupo_1209890" data-name="Grupo 1209890">
                <path id="Trazado_1070222" data-name="Trazado 1070222" d="M37.3,15.4a3.548,3.548,0,0,1,1.872.669A1.486,1.486,0,0,1,37.3,15.4Z" transform="translate(-37.3 -15.4)" fill="#f9a83d"/>
              </g>
            </g>
            <g id="Grupo_1209893" data-name="Grupo 1209893" transform="translate(32.49 7.505)">
              <g id="Grupo_1209892" data-name="Grupo 1209892">
                <path id="Trazado_1070223" data-name="Trazado 1070223" d="M36,14.4a7.2,7.2,0,0,1,1.6-1.2A1.573,1.573,0,0,1,36,14.4Z" transform="translate(-36 -13.2)" fill="#f9a83d"/>
              </g>
            </g>
            <g id="Grupo_1209895" data-name="Grupo 1209895" transform="translate(31.286 3.36)">
              <g id="Grupo_1209894" data-name="Grupo 1209894">
                <path id="Trazado_1070224" data-name="Trazado 1070224" d="M35.1,10.1a4.625,4.625,0,0,1,1.471,1.337A1.571,1.571,0,0,1,35.1,10.1Z" transform="translate(-35.1 -10.1)" fill="#f9a83d"/>
              </g>
            </g>
            <g id="Grupo_1209897" data-name="Grupo 1209897" transform="translate(18.05 3.092)">
              <g id="Grupo_1209896" data-name="Grupo 1209896">
                <path id="Trazado_1070225" data-name="Trazado 1070225" d="M26.8,11.1a4.611,4.611,0,0,1-1.6-1.2A1.727,1.727,0,0,1,26.8,11.1Z" transform="translate(-25.2 -9.9)" fill="#f9a83d"/>
              </g>
            </g>
            <g id="Grupo_1209899" data-name="Grupo 1209899" transform="translate(23.933)">
              <g id="Grupo_1209898" data-name="Grupo 1209898">
                <path id="Trazado_1070226" data-name="Trazado 1070226" d="M31.2,8.808a4.611,4.611,0,0,1-1.6-1.2A1.4,1.4,0,0,1,31.2,8.808Z" transform="translate(-29.6 -7.587)" fill="#f9a83d"/>
              </g>
            </g>
            <g id="Grupo_1209901" data-name="Grupo 1209901" transform="translate(29.147 16.864)">
              <g id="Grupo_1209900" data-name="Grupo 1209900">
                <path id="Trazado_1070227" data-name="Trazado 1070227" d="M33.5,21.4a7.2,7.2,0,0,1,1.6-1.2A1.573,1.573,0,0,1,33.5,21.4Z" transform="translate(-33.5 -20.2)" fill="#f9a83d"/>
              </g>
            </g>
            <g id="Grupo_1209903" data-name="Grupo 1209903" transform="translate(32.891 13.254)">
              <g id="Grupo_1209902" data-name="Grupo 1209902">
                <path id="Trazado_1070228" data-name="Trazado 1070228" d="M36.3,17.5a3.557,3.557,0,0,1,1.337,1.471A1.7,1.7,0,0,1,36.3,17.5Z" transform="translate(-36.3 -17.5)" fill="#f9a83d"/>
              </g>
            </g>
            <g id="Grupo_1209905" data-name="Grupo 1209905" transform="translate(22.328 3.36)">
              <g id="Grupo_1209904" data-name="Grupo 1209904">
                <path id="Trazado_1070229" data-name="Trazado 1070229" d="M28.4,11.838A6.123,6.123,0,0,1,29.47,10.1,1.534,1.534,0,0,1,28.4,11.838Z" transform="translate(-28.4 -10.1)" fill="#f9a83d"/>
              </g>
            </g>
          </g>
        </g>
        <g id="Grupo_1209910" data-name="Grupo 1209910" transform="translate(26.473 38.172)">
          <g id="Grupo_1209909" data-name="Grupo 1209909">
            <g id="Grupo_1209908" data-name="Grupo 1209908">
              <path id="Trazado_1070230" data-name="Trazado 1070230" d="M27.836,34.886a1.205,1.205,0,0,1-.669-.134c-.134-.134-.267-.267-.267-.4s.134-.267.267-.4a1,1,0,0,1,1.2,0c.134.134.267.267.267.4s-.134.267-.267.4C28.371,34.886,28.1,34.886,27.836,34.886Zm0-.936a.8.8,0,0,0-.535.134c-.134.134-.134.134-.134.267s.134.134.134.267a1.476,1.476,0,0,0,1.07,0c.134-.134.134-.134.134-.267s-.134-.134-.134-.267C28.237,33.951,28.1,33.951,27.836,33.951Z" transform="translate(-26.9 -33.75)" fill="#4c5c75"/>
            </g>
          </g>
        </g>
        <g id="Grupo_1209913" data-name="Grupo 1209913" transform="translate(44.79 32.824)">
          <g id="Grupo_1209912" data-name="Grupo 1209912">
            <g id="Grupo_1209911" data-name="Grupo 1209911">
              <path id="Trazado_1070231" data-name="Trazado 1070231" d="M41.536,30.886a1.205,1.205,0,0,1-.669-.134c-.134-.134-.267-.267-.267-.4s.134-.267.267-.4a1,1,0,0,1,1.2,0c.134.134.267.267.267.4s-.134.267-.267.4A.8.8,0,0,1,41.536,30.886Zm-.134-.936a.8.8,0,0,0-.535.134c-.134.134-.134.134-.134.267s.134.134.134.267a1.476,1.476,0,0,0,1.07,0c.134-.134.134-.134.134-.267s-.134-.134-.134-.267c-.134-.134-.267-.134-.535-.134Z" transform="translate(-40.6 -29.75)" fill="#4c5c75"/>
            </g>
          </g>
        </g>
        <g id="Grupo_1209916" data-name="Grupo 1209916" transform="translate(40.378 35.498)">
          <g id="Grupo_1209915" data-name="Grupo 1209915">
            <g id="Grupo_1209914" data-name="Grupo 1209914">
              <path id="Trazado_1070232" data-name="Trazado 1070232" d="M38.236,32.886a1.205,1.205,0,0,1-.669-.134c-.134-.134-.267-.267-.267-.4s.134-.267.267-.4a1,1,0,0,1,1.2,0c.134.134.267.267.267.4s-.134.267-.267.4A1.383,1.383,0,0,1,38.236,32.886Zm0-1.07a.8.8,0,0,0-.535.134c-.134.134-.134.134-.134.267s.134.134.134.267a1.476,1.476,0,0,0,1.07,0c.134-.134.134-.134.134-.267s-.134-.134-.134-.267c-.134,0-.4-.134-.535-.134Z" transform="translate(-37.3 -31.75)" fill="#4c5c75"/>
            </g>
          </g>
        </g>
        <g id="Grupo_1209919" data-name="Grupo 1209919" transform="translate(33.827 35.231)">
          <g id="Grupo_1209918" data-name="Grupo 1209918">
            <g id="Grupo_1209917" data-name="Grupo 1209917">
              <path id="Trazado_1070233" data-name="Trazado 1070233" d="M33.336,32.686a1.205,1.205,0,0,1-.669-.134c-.134-.134-.267-.267-.267-.4s.134-.267.267-.4a1,1,0,0,1,1.2,0c.134.134.267.267.267.4s-.134.267-.267.4C33.871,32.686,33.6,32.686,33.336,32.686Zm0-.936a.8.8,0,0,0-.535.134c-.134.134-.134.134-.134.267s.134.134.134.267a1.476,1.476,0,0,0,1.07,0c.134-.134.134-.134.134-.267s-.134-.134-.134-.267a.8.8,0,0,0-.535-.134Z" transform="translate(-32.4 -31.55)" fill="#4c5c75"/>
            </g>
          </g>
        </g>
        <g id="Grupo_1209922" data-name="Grupo 1209922" transform="translate(14.975 36.969)">
          <g id="Grupo_1209921" data-name="Grupo 1209921">
            <g id="Grupo_1209920" data-name="Grupo 1209920">
              <path id="Trazado_1070234" data-name="Trazado 1070234" d="M19.236,33.986a1.205,1.205,0,0,1-.669-.134c-.134-.134-.267-.267-.267-.4s.134-.267.267-.4a1,1,0,0,1,1.2,0c.134.134.267.267.267.4s-.134.267-.267.4C19.637,33.853,19.5,33.986,19.236,33.986Zm0-.936a.8.8,0,0,0-.535.134c-.134.134-.134.134-.134.267s.134.134.134.267a1.476,1.476,0,0,0,1.07,0c.134-.134.134-.134.134-.267s-.134-.134-.134-.267A.8.8,0,0,0,19.236,33.051Z" transform="translate(-18.3 -32.85)" fill="#4c5c75"/>
            </g>
          </g>
        </g>
        <g id="Grupo_1209925" data-name="Grupo 1209925" transform="translate(10.83 35.331)">
          <g id="Grupo_1209924" data-name="Grupo 1209924">
            <g id="Grupo_1209923" data-name="Grupo 1209923">
              <path id="Trazado_1070235" data-name="Trazado 1070235" d="M15.735,32.394a.491.491,0,0,1-.4-.134c-.134,0-.134-.134-.134-.267s0-.134.134-.267a.852.852,0,0,1,.8,0c.134,0,.134.134.134.267s0,.134-.134.267a.491.491,0,0,1-.4.134Zm0-.535c-.134,0-.267,0-.267.134a.134.134,0,1,0,0,.267.6.6,0,0,0,.669,0,.134.134,0,0,0,0-.267.491.491,0,0,0-.4-.134Z" transform="translate(-15.2 -31.625)" fill="#4c5c75"/>
            </g>
          </g>
        </g>
        <g id="Grupo_1209928" data-name="Grupo 1209928" transform="translate(6.551 34.027)">
          <g id="Grupo_1209927" data-name="Grupo 1209927">
            <g id="Grupo_1209926" data-name="Grupo 1209926">
              <path id="Trazado_1070236" data-name="Trazado 1070236" d="M12.936,31.786a1.205,1.205,0,0,1-.669-.134c-.134-.134-.267-.267-.267-.4s.134-.267.267-.4a1,1,0,0,1,1.2,0c.134.134.267.267.267.4s-.134.267-.267.4C13.471,31.786,13.2,31.786,12.936,31.786Zm0-.936a.8.8,0,0,0-.535.134c-.134.134-.134.134-.134.267s.134.134.134.267a1.476,1.476,0,0,0,1.07,0c.134-.134.134-.134.134-.267s-.134-.134-.134-.267c-.134-.134-.267-.134-.535-.134Z" transform="translate(-12 -30.65)" fill="#4c5c75"/>
            </g>
          </g>
        </g>
        <g id="Grupo_1209931" data-name="Grupo 1209931" transform="translate(21.392 39.643)">
          <g id="Grupo_1209930" data-name="Grupo 1209930">
            <g id="Grupo_1209929" data-name="Grupo 1209929">
              <path id="Trazado_1070237" data-name="Trazado 1070237" d="M24.036,35.986a1.205,1.205,0,0,1-.669-.134c-.134-.134-.267-.267-.267-.4s.134-.267.267-.4a1,1,0,0,1,1.2,0c.134.134.267.267.267.4s-.134.267-.267.4C24.571,35.986,24.3,35.986,24.036,35.986Zm0-.936a.8.8,0,0,0-.535.134c-.134.134-.134.134-.134.267s.134.134.134.267a1.476,1.476,0,0,0,1.07,0c.134-.134.134-.134.134-.267s-.134-.134-.134-.267C24.437,35.184,24.3,35.051,24.036,35.051Z" transform="translate(-23.1 -34.85)" fill="#4c5c75"/>
            </g>
          </g>
        </g>
      </g>
    </g>
  </g>
</svg>
