<svg xmlns="http://www.w3.org/2000/svg" width="89" height="89" viewBox="0 0 89 89">
  <g id="Grupo_1210000" data-name="Grupo 1210000" transform="translate(-1176.051 -1909)">
    <g id="Grupo_1099471" data-name="Grupo 1099471" transform="translate(-75.282 1496)">
      <g id="Grupo_1098742" data-name="Grupo 1098742" transform="translate(1251.333 413)">
        <g id="Rect치ngulo_400898" data-name="Rect치ngulo 400898" fill="#fff" stroke="#fff" stroke-width="3" opacity="0.859">
          <rect width="89" height="89" rx="44.5" stroke="none"/>
          <rect x="1.5" y="1.5" width="86" height="86" rx="43" fill="none"/>
        </g>
        <g id="Rect치ngulo_400907" data-name="Rect치ngulo 400907" transform="translate(0)" fill="none" stroke="#fff" stroke-width="3">
          <rect width="89" height="89" rx="44.5" stroke="none"/>
          <rect x="1.5" y="1.5" width="86" height="86" rx="43" fill="none"/>
        </g>
      </g>
    </g>
    <g id="Layer_x0020_1" transform="translate(1177.2 1915.502)">
      <g id="_316818208" transform="translate(18.851 10.498)">
        <path id="_316820128" d="M55.43,64.989H19.591a.74.74,0,0,1-.74-.74V11.238a.74.74,0,0,1,.74-.74H47.216a.74.74,0,0,1,.523.217l9.706,9.706a.739.739,0,0,1,.217.523V58.312a.74.74,0,0,1-.74.74c-.3,0-1.028,3.012-1.4,4.465a.74.74,0,0,1-.1,1.473Z" transform="translate(-18.851 -10.499)" fill="#f0ebeb" fill-rule="evenodd"/>
        <path id="_316820608" d="M101.942,94.061H92.584A3.943,3.943,0,0,1,91.249,91.1v-.042a3.93,3.93,0,0,1,.683-2.219,3.93,3.93,0,0,1-.683-2.219v-.042a3.93,3.93,0,0,1,.683-2.219,3.93,3.93,0,0,1-.683-2.219V82.1a3.93,3.93,0,0,1,.683-2.219,3.93,3.93,0,0,1-.683-2.219v-.042A3.956,3.956,0,0,1,95.2,73.669h.359a10.688,10.688,0,0,1,7.874-17.919c.249,0,.5.009.74.026V87.383a.74.74,0,0,1-.74.74c-.3,0-1.028,3.012-1.4,4.465a.74.74,0,0,1-.1,1.473Z" transform="translate(-65.363 -39.57)" fill="#e2d9d9" fill-rule="evenodd"/>
        <path id="_316820536" d="M96.115,10.5h.74a.74.74,0,0,1,.523.217l9.706,9.706a.739.739,0,0,1,.217.523v.74H96.854a.74.74,0,0,1-.74-.74Z" transform="translate(-68.489 -10.498)" fill="#e2d9d9" fill-rule="evenodd"/>
        <path id="_316820224" d="M38.479,72.617a.74.74,0,0,1-.634-.359l-3.073-5.121-5.121-3.073a.74.74,0,0,1,.235-1.36l5.06-1.012,4.768-4.768-7.78-2.288A.74.74,0,0,1,31.62,53.4l3.7-3.7a.739.739,0,0,1,.732-.187L44.6,52.037l2.857-2.857a3.726,3.726,0,0,1,5.27,5.27l-2.857,2.857,2.516,8.554a.74.74,0,0,1-.187.732l-3.7,3.7a.74.74,0,0,1-1.233-.314l-2.288-7.78-4.768,4.768L39.2,72.022a.739.739,0,0,1-.6.584A.751.751,0,0,1,38.479,72.617Z" transform="translate(-25.559 -34.649)" fill="#61aff6" fill-rule="evenodd"/>
        <path id="_316819576" d="M47.356,126.386H27.944a.74.74,0,0,1-.74-.74v-3.733a.74.74,0,0,1,.74-.74H47.356a.74.74,0,0,1,.74.74v3.733A.74.74,0,0,1,47.356,126.386Z" transform="translate(-24.218 -81.602)" fill="#8bc34a" fill-rule="evenodd"/>
        <path id="_316819288" d="M47.891,30.882H28.478a.74.74,0,0,1-.74-.74V26.409a.74.74,0,0,1,.74-.74H47.891a.74.74,0,0,1,.74.74v3.733A.74.74,0,0,1,47.891,30.882Z" transform="translate(-24.561 -20.245)" fill="#76bedd" fill-rule="evenodd"/>
        <path id="_316819456" d="M47.356,145.18H27.944a.74.74,0,0,1-.74-.74v-3.733a.74.74,0,0,1,.74-.74H47.356a.74.74,0,0,1,.74.74v3.733A.74.74,0,0,1,47.356,145.18Z" transform="translate(-24.218 -93.676)" fill="#ef5350" fill-rule="evenodd"/>
        <g id="Grupo_1209716" data-name="Grupo 1209716" transform="translate(26.879 17.172)">
          <path id="_316819144" d="M112.706,152.191H96.985a2.962,2.962,0,0,1-2.959-2.959v-.042a2.962,2.962,0,0,1,2.959-2.959h15.721a2.962,2.962,0,0,1,2.959,2.959v.042A2.962,2.962,0,0,1,112.706,152.191Z" transform="translate(-94.026 -114.873)" fill="#ffc107" fill-rule="evenodd"/>
          <path id="_316819648" d="M112.706,139.661H96.985a2.962,2.962,0,0,1-2.959-2.959v-.042a2.962,2.962,0,0,1,2.959-2.959h15.721a2.962,2.962,0,0,1,2.959,2.959v.042a2.962,2.962,0,0,1-2.959,2.959Z" transform="translate(-94.026 -106.823)" fill="#ffae06" fill-rule="evenodd"/>
          <path id="_316818904" d="M112.706,127.132H96.985a2.962,2.962,0,0,1-2.959-2.959v-.042a2.962,2.962,0,0,1,2.959-2.959h15.721a2.962,2.962,0,0,1,2.959,2.959v.042A2.962,2.962,0,0,1,112.706,127.132Z" transform="translate(-94.026 -98.774)" fill="#ffc107" fill-rule="evenodd"/>
          <path id="_316818664" d="M112.706,114.6H96.985a2.962,2.962,0,0,1-2.959-2.959V111.6a2.962,2.962,0,0,1,2.959-2.959h15.721a2.962,2.962,0,0,1,2.959,2.959v.042A2.962,2.962,0,0,1,112.706,114.6Z" transform="translate(-94.026 -90.724)" fill="#ffae06" fill-rule="evenodd"/>
          <path id="_316819048" d="M107.9,77.925a9.7,9.7,0,1,1,9.7-9.7,9.71,9.71,0,0,1-9.7,9.7Z" transform="translate(-96.709 -58.527)" fill="#ffc107" fill-rule="evenodd"/>
          <path id="_316819024" d="M111.05,79.321A7.947,7.947,0,1,1,119,71.374,7.956,7.956,0,0,1,111.05,79.321Z" transform="translate(-99.858 -61.675)" fill="#ffae06" fill-rule="evenodd"/>
          <g id="Grupo_1209715" data-name="Grupo 1209715" transform="translate(8.213 2.987)">
            <path id="_316818496" d="M120.349,82.09h-2.613a.74.74,0,1,1,0-1.479h2.613a1.127,1.127,0,0,0,0-2.254H119.6a2.606,2.606,0,0,1,0-5.213h2.613a.74.74,0,0,1,0,1.479H119.6a1.127,1.127,0,1,0,0,2.254h.747a2.606,2.606,0,0,1,0,5.213Z" transform="translate(-116.996 -70.904)" fill="#fffbef" fill-rule="evenodd"/>
            <path id="_316818424" d="M124,70.6a.74.74,0,0,1-.74-.74V67.62a.74.74,0,0,1,1.479,0v2.24A.74.74,0,0,1,124,70.6Z" transform="translate(-121.021 -66.88)" fill="#fffbef" fill-rule="evenodd"/>
            <path id="_316818448" d="M124,97.746a.74.74,0,0,1-.74-.74v-2.24a.74.74,0,0,1,1.479,0v2.24A.74.74,0,0,1,124,97.746Z" transform="translate(-121.021 -84.32)" fill="#fffbef" fill-rule="evenodd"/>
          </g>
          <path id="_316817776" d="M111.05,63.427a7.944,7.944,0,0,0-5.161,13.987,7.943,7.943,0,0,1,5.9-12.947q.134,0,.269,0a7.913,7.913,0,0,1,5.161,1.908,7.942,7.942,0,0,0-5.43-2.909q-.365-.034-.74-.034Z" transform="translate(-99.858 -61.675)" fill="#ff9d05" fill-rule="evenodd"/>
        </g>
      </g>
    </g>
  </g>
</svg>
